<svg width="50" height="50" viewBox="0 0 50 50" fill="none" xmlns="http://www.w3.org/2000/svg">
<path d="M0 20.8C0 13.5193 0 9.87898 1.41692 7.09812C2.66327 4.65202 4.65202 2.66327 7.09812 1.41692C9.87898 0 13.5193 0 20.8 0H29.2C36.4807 0 40.121 0 42.9019 1.41692C45.348 2.66327 47.3367 4.65202 48.5831 7.09812C50 9.87898 50 13.5193 50 20.8V29.2C50 36.4807 50 40.121 48.5831 42.9019C47.3367 45.348 45.348 47.3367 42.9019 48.5831C40.121 50 36.4807 50 29.2 50H20.8C13.5193 50 9.87898 50 7.09812 48.5831C4.65202 47.3367 2.66327 45.348 1.41692 42.9019C0 40.121 0 36.4807 0 29.2V20.8Z" fill="#1A1A1A"/>
<path d="M21.3502 18.3175L13.9485 12.339L8 19.1987L13.1454 23.3765V36.3406H22.3997V20.1232C22.3997 17.784 23.8081 16.4046 25.7294 16.4046C27.8686 16.4046 28.6867 17.4387 28.6867 20.4287V31.7503C28.6867 33.9154 29.1203 35.4878 29.9875 36.4672C33.1038 39.5932 39.4335 37.3953 41.9618 34.7016C42.0796 34.5762 41.9012 34.3898 41.7476 34.471C40.9848 34.8739 40.2069 35.0753 39.414 35.0753C38.3155 35.0753 37.7663 34.3021 37.7663 32.7555V21.0473C37.7663 16.363 36.1659 12 30.6549 12C26.2869 12 22.5662 14.8563 21.3502 18.3175Z" fill="#F7F7F7"/>
</svg>
