<svg width="182" height="72" viewBox="0 0 182 72" fill="none" xmlns="http://www.w3.org/2000/svg">
<path d="M167.689 28.3093C167.326 28.2552 167.034 28.1559 166.811 28.0113C166.607 27.8646 166.481 27.6532 166.432 27.3769C166.444 27.3192 166.444 27.2347 166.432 27.1233C166.422 27.0306 166.447 26.9152 166.507 26.7771C166.507 26.7771 166.566 26.7989 166.683 26.8423C166.819 26.8837 167.031 26.851 167.32 26.7442C167.693 26.722 167.949 26.6564 168.087 26.5473C168.225 26.4383 168.416 26.2107 168.66 25.8648C168.834 25.564 169.03 25.2139 169.249 24.8142C169.487 24.4126 169.639 24.0861 169.705 23.8347C169.979 23.598 170.172 23.389 170.284 23.2077C170.393 23.0079 170.494 22.8091 170.585 22.6114C170.574 22.5186 170.584 22.3485 170.613 22.1012C170.64 21.8353 170.746 21.5139 170.93 21.1369C171.083 20.6506 171.235 20.2396 171.386 19.9038C171.535 19.5494 171.604 19.3258 171.594 19.2331C171.594 19.2331 171.615 19.1651 171.656 19.0291C171.698 18.8931 171.699 18.7333 171.66 18.5498C171.765 18.4819 171.845 18.3511 171.899 18.1574C171.969 17.9431 171.984 17.735 171.943 17.5329C171.937 17.4772 171.997 17.2547 172.123 16.8652C172.247 16.4573 172.297 16.0574 172.273 15.6657C172.404 14.9753 172.487 14.3653 172.523 13.8355C172.575 13.2852 172.594 12.6916 172.581 12.0546C172.567 11.4176 172.534 10.6043 172.482 9.61478C172.428 8.77572 172.387 8.15107 172.361 7.74082C172.333 7.31201 172.288 6.98831 172.226 6.76972C172.183 6.54909 172.075 6.3356 171.902 6.12923C171.652 5.55582 171.461 5.27625 171.331 5.29051C171.276 5.29662 171.203 5.22952 171.112 5.08923C171.038 4.92834 171.024 4.71394 171.07 4.44602C171.043 4.37383 171.062 4.28728 171.126 4.18636C171.19 4.08543 171.306 4.03509 171.475 4.03531C171.605 4.02106 171.751 4.06145 171.911 4.15649C172.088 4.23093 172.209 4.30221 172.273 4.37033C172.339 4.28796 172.46 4.36852 172.637 4.612C172.831 4.83489 173.05 5.2052 173.294 5.72294C173.434 5.97049 173.542 6.18399 173.618 6.36343C173.692 6.52432 173.751 6.71508 173.794 6.9357C173.835 7.13777 173.867 7.43466 173.891 7.82635C173.914 8.1995 173.943 8.7221 173.979 9.39416C174.05 10.0436 174.082 10.7631 174.075 11.5526C174.084 12.3215 174.074 13.0831 174.044 13.8376C174.012 14.5734 173.964 15.2454 173.899 15.8534C173.822 16.3501 173.71 16.9539 173.563 17.6649C173.413 18.3574 173.237 19.0621 173.034 19.7792C172.85 20.4943 172.667 21.1341 172.484 21.6987C172.321 22.2612 172.177 22.6619 172.053 22.9009C172.09 22.8968 172.047 23.0143 171.923 23.2532C171.817 23.4901 171.663 23.7981 171.461 24.1771C171.275 24.5356 171.08 24.9043 170.878 25.2833C170.677 25.6809 170.508 26.0187 170.369 26.2968C170.134 26.7171 169.855 27.0857 169.533 27.4027C169.211 27.7197 168.89 27.9615 168.571 28.128C168.251 28.2946 167.957 28.355 167.689 28.3093Z" fill="#2F94F9"/>
<path d="M166.209 17.7115C165.871 17.8801 165.581 17.9776 165.34 18.0041C165.115 18.0099 164.852 17.9261 164.552 17.7525C164.162 17.4572 164.005 17.1365 164.08 16.7903C164.171 16.4235 164.439 16.0466 164.885 15.6596C165.197 15.4189 165.426 15.2811 165.572 15.2462C165.737 15.2093 165.995 15.2468 166.345 15.3586C166.94 15.65 167.224 16.0132 167.197 16.4481C167.188 16.881 166.859 17.3021 166.209 17.7115ZM164.902 23.7702C164.564 23.9388 164.274 24.0363 164.033 24.0628C163.808 24.0687 163.546 23.9848 163.245 23.8113C162.856 23.516 162.698 23.1952 162.773 22.849C162.864 22.4822 163.133 22.1053 163.578 21.7184C163.89 21.4776 164.119 21.3398 164.265 21.305C164.43 21.2681 164.688 21.3055 165.038 21.4173C165.634 21.7088 165.918 22.072 165.89 22.5069C165.881 22.9397 165.552 23.3609 164.902 23.7702Z" fill="#2F94F9"/>
<path d="M151.172 26.0658C150.416 25.8483 149.898 25.4921 149.618 24.997C149.355 24.4813 149.227 23.6596 149.235 22.532C149.209 21.9528 149.186 21.5703 149.166 21.3848C149.145 21.1992 149.023 21.0249 148.798 20.8617C148.734 20.7936 148.621 20.7028 148.459 20.5892C148.314 20.4735 148.246 20.3683 148.255 20.2735C148.222 20.1457 148.216 20.0055 148.237 19.853C148.256 19.6819 148.302 19.5923 148.376 19.5841C148.451 19.576 148.523 19.5493 148.593 19.504C148.682 19.4567 148.765 19.4476 148.843 19.4765C148.918 19.4684 149.002 19.4685 149.097 19.4769C149.192 19.4853 149.243 19.5265 149.251 19.6008C149.34 19.7225 149.463 19.7278 149.619 19.6167C149.774 19.4871 149.924 19.2265 150.069 18.835C150.222 18.5178 150.43 18.1944 150.695 17.865C150.977 17.5334 151.254 17.2308 151.525 16.957C151.811 16.6626 152.051 16.4485 152.243 16.3148C152.331 16.2675 152.466 16.2058 152.645 16.1298C152.824 16.0538 153.014 15.986 153.214 15.9265C153.433 15.8649 153.617 15.8353 153.768 15.8376C154.104 15.8195 154.392 15.8817 154.633 16.0243C154.893 16.1648 155.137 16.3352 155.365 16.5354C155.625 16.6759 155.798 16.8823 155.884 17.1545C155.989 17.4247 156.04 17.7196 156.038 18.0391C156.035 18.3586 155.983 18.6554 155.882 18.9294C155.846 19.1211 155.713 19.361 155.482 19.6493C155.251 19.9376 154.981 20.2207 154.674 20.4986C154.366 20.7764 154.079 20.9863 153.813 21.1282C153.578 21.2103 153.268 21.2913 152.882 21.3712C152.515 21.4491 152.165 21.5063 151.831 21.543C151.513 21.559 151.296 21.5453 151.178 21.5019C151.04 21.4419 150.949 21.5552 150.906 21.8417C150.862 22.1281 150.85 22.5332 150.87 23.0568C150.878 23.4691 150.91 23.766 150.968 23.9475C151.025 24.1289 151.077 24.2547 151.122 24.3249C151.266 24.4405 151.461 24.5882 151.706 24.7678C151.967 24.9269 152.304 24.9181 152.717 24.7414C153.059 24.6099 153.376 24.331 153.667 23.9047C153.977 23.4763 154.267 23.1253 154.538 22.8514C154.598 22.7134 154.71 22.626 154.875 22.5891C155.056 22.5316 155.252 22.5195 155.463 22.5528C155.681 22.6602 155.782 22.8088 155.765 22.9984C155.765 23.1675 155.7 23.4374 155.572 23.8083C155.531 23.9443 155.419 24.1255 155.238 24.352C155.072 24.558 154.88 24.7762 154.661 25.0068C154.459 25.2168 154.271 25.3876 154.098 25.5193C153.574 25.8773 153.072 26.0921 152.591 26.1636C152.109 26.2165 151.636 26.1839 151.172 26.0658ZM152.194 20.2355C152.592 20.0979 152.91 19.9973 153.147 19.9337C153.384 19.8702 153.605 19.7427 153.809 19.5512C154.011 19.3412 154.252 18.9674 154.531 18.4298C154.583 18.2175 154.579 18.0114 154.52 17.8113C154.479 17.6093 154.417 17.4752 154.335 17.4091C154.147 17.2419 153.937 17.2086 153.704 17.3093C153.487 17.3894 153.285 17.5149 153.097 17.6857C152.974 17.7557 152.794 17.9162 152.559 18.1674C152.34 18.398 152.125 18.6657 151.915 18.9705C151.702 19.2567 151.533 19.5193 151.409 19.7583C151.285 19.9972 151.263 20.1312 151.341 20.1601C151.312 20.2384 151.419 20.2736 151.662 20.2657C151.924 20.2557 152.101 20.2457 152.194 20.2355Z" fill="#2F94F9"/>
<path d="M134.798 27.7503C134.533 27.5541 134.29 27.393 134.069 27.267C133.865 27.1203 133.686 26.9428 133.532 26.7344C133.394 26.5054 133.274 26.1806 133.171 25.7599C133.116 25.428 133.1 25.1105 133.123 24.8075C133.146 24.5045 133.198 24.2077 133.279 23.9172C133.401 23.4906 133.534 23.0724 133.676 22.6623C133.819 22.2523 133.961 21.833 134.102 21.4044C134.28 20.8027 134.485 20.2732 134.716 19.8159C134.946 19.34 135.19 19.0878 135.45 19.0593C135.767 19.0433 136.002 19.1302 136.155 19.32C136.323 19.4893 136.546 19.7184 136.822 20.0074C136.805 20.197 136.76 20.3897 136.688 20.5854C136.613 20.7626 136.519 20.9325 136.406 21.0952C136.191 21.3629 136.016 21.6544 135.882 21.9696C135.748 22.2848 135.651 22.6052 135.593 22.9308C135.494 23.2234 135.394 23.516 135.295 23.8086C135.194 24.0826 135.103 24.3649 135.022 24.6554C134.755 25.3044 134.675 25.6888 134.782 25.8085C134.889 25.9282 135.098 25.8584 135.407 25.599C135.735 25.3377 136.071 24.9722 136.414 24.5027C136.709 24.1135 136.939 23.8159 137.104 23.61C137.269 23.4041 137.423 23.1806 137.566 22.9396C137.615 22.8779 137.727 22.6966 137.901 22.3959C138.091 22.0746 138.28 21.744 138.468 21.4041C138.672 21.0436 138.823 20.7923 138.92 20.6502C139.048 20.4484 139.158 20.2486 139.249 20.0508C139.338 19.8345 139.408 19.6202 139.46 19.4079C139.477 19.2183 139.538 19.0895 139.643 19.0217C139.765 18.9332 139.92 18.8973 140.11 18.9141C140.308 19.005 140.507 19.1146 140.709 19.2426C140.909 19.3522 141.091 19.5575 141.256 19.8587C141.369 20.0341 141.363 20.3257 141.239 20.7337C141.133 21.1397 141 21.5487 140.839 21.9607C140.708 22.3131 140.616 22.6706 140.562 23.0333C140.526 23.394 140.483 23.765 140.431 24.1463C140.403 24.4122 140.492 24.703 140.695 25.0186C141.05 24.8295 141.31 24.6319 141.475 24.426C141.657 24.1995 141.819 23.9657 141.962 23.7247C142.123 23.4817 142.342 23.2511 142.618 23.033C142.687 22.8001 142.806 22.6086 142.978 22.4583C143.166 22.2875 143.283 22.0774 143.331 21.828L144.276 20.4286C144.406 20.2453 144.514 20.0269 144.598 19.7735C144.7 19.4995 144.806 19.2718 144.918 19.0906C145.046 18.8887 145.197 18.8065 145.37 18.8438C145.967 18.9848 146.39 19.3327 146.639 19.8875C146.666 20.1288 146.607 20.5389 146.464 21.118C146.338 21.6764 146.258 22.2298 146.224 22.7781C146.203 23.0996 146.201 23.4284 146.22 23.7645C146.254 24.0799 146.336 24.3995 146.466 24.7233C146.626 24.8184 146.815 24.8258 147.031 24.7457C147.265 24.645 147.474 24.5845 147.659 24.5641C147.828 24.7334 147.919 24.9582 147.931 25.2386C147.943 25.5189 147.937 25.7261 147.914 25.8601C147.757 25.9712 147.6 26.073 147.441 26.1656C147.28 26.2395 147.096 26.2785 146.89 26.2823C146.606 26.2572 146.404 26.2136 146.284 26.1516C146.165 26.0896 146.053 26.0081 145.948 25.9069C145.859 25.7852 145.714 25.6603 145.512 25.5322C145.187 25.305 144.946 24.9934 144.79 24.5974C144.652 24.1994 144.542 23.789 144.458 23.3663C144.381 23.3559 144.269 23.4434 144.12 23.6287C143.972 23.814 143.801 24.0581 143.609 24.3608C143.415 24.645 143.196 24.9601 142.952 25.3061C142.725 25.6315 142.469 25.9507 142.184 26.2636C142 26.4716 141.794 26.6445 141.565 26.7823C141.334 26.9015 141.038 26.9434 140.677 26.9079C140.44 26.8024 140.226 26.6475 140.035 26.4432C139.86 26.2183 139.653 26.0438 139.414 25.9198C139.317 25.7238 139.223 25.5464 139.13 25.3876C139.054 25.2081 138.988 25.0277 138.93 24.8462C138.875 24.6833 138.828 24.5193 138.792 24.3544C138.753 24.1709 138.771 23.9998 138.848 23.8412C138.732 23.8163 138.62 23.9037 138.511 24.1035C138.399 24.2848 138.273 24.5052 138.132 24.7647C137.99 25.0057 137.808 25.2322 137.587 25.4443C137.317 25.7181 137.091 25.9682 136.909 26.1947C136.727 26.4212 136.546 26.6478 136.364 26.8743C136.182 27.1008 135.957 27.3602 135.689 27.6526L134.798 27.7503Z" fill="#2F94F9"/>
<path d="M128.193 28.8134C127.909 28.7883 127.646 28.789 127.405 28.8154C127.182 28.8399 126.966 28.8355 126.755 28.8022C126.562 28.7483 126.38 28.6368 126.212 28.4675C125.987 28.3044 125.814 28.098 125.693 27.8484C125.57 27.5803 125.49 27.2792 125.453 26.9452C125.386 26.3329 125.412 25.6351 125.533 24.852C125.67 24.0482 125.845 23.2496 126.059 22.4563C126.272 21.6629 126.483 20.9356 126.693 20.2741C126.902 19.6127 127.052 19.0986 127.143 18.7318C127.083 18.5318 127.136 18.4133 127.301 18.3764C127.485 18.3375 127.691 18.3336 127.92 18.3649C128.146 18.3775 128.299 18.3984 128.377 18.4273C128.503 18.545 128.629 18.6719 128.757 18.8082C128.883 18.9258 128.964 19.0671 129.001 19.2321C129.058 19.4136 129.032 19.6042 128.923 19.804C128.832 20.0018 128.738 20.1717 128.641 20.3138C128.477 20.5383 128.316 20.8659 128.157 21.2965C127.998 21.7271 127.845 22.2227 127.7 22.7832C127.572 23.3231 127.463 23.8702 127.373 24.4246C127.284 24.979 127.218 25.4932 127.177 25.9673C127.151 26.4208 127.163 26.7857 127.212 27.062C127.75 27.1719 128.275 27.1613 128.786 27.0301C129.298 26.8988 129.743 26.6809 130.123 26.3763C130.519 26.0512 130.809 25.7001 130.993 25.3231C131.208 24.8864 131.251 24.5061 131.121 24.1823C131.008 23.8379 130.681 23.6766 130.139 23.6986C129.858 23.7106 129.6 23.7484 129.362 23.812C129.125 23.8755 128.879 23.9402 128.623 24.0058C128.477 23.8716 128.37 23.7519 128.302 23.6467C128.234 23.5414 128.185 23.4342 128.154 23.3249C128.109 23.0857 128.18 22.8807 128.368 22.7098C128.573 22.5184 128.81 22.3703 129.08 22.2655C129.369 22.1587 129.627 22.1117 129.853 22.1243C130.23 22.1393 130.615 22.2192 131.006 22.364C131.416 22.5068 131.756 22.6948 132.026 22.9281C132.191 23.0603 132.331 23.2233 132.446 23.4172C132.578 23.5905 132.664 23.7783 132.705 23.9803C132.83 24.4361 132.866 24.8546 132.814 25.2359C132.76 25.5986 132.638 25.9406 132.448 26.2619C132.149 26.7831 131.654 27.2411 130.965 27.6359C130.295 28.0288 129.668 28.3887 129.084 28.7156C128.898 28.736 128.749 28.743 128.635 28.7367C128.539 28.7098 128.391 28.7353 128.193 28.8134Z" fill="#2F94F9"/>
<path d="M118.029 29.8444C117.891 29.7844 117.747 29.7533 117.596 29.751C117.464 29.7467 117.323 29.7434 117.173 29.7412C117.028 29.6255 116.903 29.5079 116.796 29.3882C116.705 29.2479 116.631 29.087 116.574 28.9055C116.543 28.7962 116.55 28.6921 116.596 28.5932C116.641 28.4943 116.688 28.4047 116.735 28.3244C116.791 28.3183 116.857 28.3204 116.933 28.3309C117.007 28.3227 117.082 28.3146 117.156 28.3064C117.445 28.0306 117.695 27.7403 117.905 27.4354C118.133 27.1101 118.349 26.7764 118.556 26.4345C118.777 26.0534 118.97 25.6754 119.136 25.3005C119.299 24.907 119.423 24.499 119.508 24.0765C119.546 23.9034 119.565 23.7323 119.565 23.5633C119.563 23.3757 119.591 23.2036 119.649 23.047C119.736 22.8121 119.795 22.5803 119.826 22.3515C119.874 22.1022 119.923 21.8621 119.972 21.6313C119.688 21.6062 119.471 21.5925 119.32 21.5902C119.186 21.5674 119.058 21.5157 118.937 21.4351C118.815 21.3545 118.642 21.2327 118.418 21.0695C118.371 20.8118 118.378 20.6232 118.44 20.5037C118.5 20.3657 118.665 20.2443 118.936 20.1395C119.043 20.0902 119.151 20.0501 119.26 20.0194C119.368 19.97 119.477 19.9392 119.588 19.927C119.79 19.8861 119.993 19.8544 120.198 19.832C120.402 19.8096 120.616 19.7954 120.841 19.7896C120.991 19.7918 121.143 19.8034 121.295 19.8242C121.448 19.845 121.6 19.8658 121.753 19.8866C121.926 19.924 122.101 19.9799 122.278 20.0543C122.453 20.1102 122.627 20.1568 122.801 20.1942C122.932 20.1985 123.058 20.2316 123.178 20.2936C123.297 20.3556 123.427 20.4259 123.567 20.5044C123.923 20.6718 124.212 20.9031 124.432 21.1982C124.65 21.4747 124.779 21.7985 124.82 22.1696C124.883 22.7448 124.859 23.2921 124.747 23.8114C124.693 24.1741 124.629 24.5379 124.557 24.9027C124.503 25.2654 124.439 25.6291 124.367 25.9939C124.319 26.2433 124.27 26.4834 124.22 26.7142C124.171 26.945 124.14 27.183 124.13 27.4283C124.115 27.6365 124.111 27.8529 124.117 28.0776C124.122 28.3023 124.12 28.5373 124.109 28.7826C124.037 28.8093 123.965 28.836 123.893 28.8627C123.839 28.8874 123.768 28.9234 123.679 28.9707C123.467 28.9189 123.246 28.8681 123.015 28.8183C122.782 28.7499 122.603 28.5724 122.477 28.2857C122.473 28.2486 122.469 28.2115 122.465 28.1744C122.478 28.1167 122.48 28.0507 122.472 27.9765C122.466 27.9208 122.459 27.8652 122.453 27.8095C122.447 27.7538 122.441 27.6982 122.435 27.6425C122.435 27.3044 122.455 26.9736 122.495 26.65C122.533 26.3079 122.59 25.973 122.666 25.6453C122.774 25.2579 122.855 24.8829 122.909 24.5201C122.961 24.1388 123.014 23.7668 123.068 23.4041C123.106 23.231 123.124 23.0599 123.125 22.8909C123.141 22.7013 123.15 22.5219 123.15 22.3529C123.146 22.1468 123.074 21.9199 122.935 21.6724C122.733 21.5443 122.526 21.4543 122.313 21.4025C122.099 21.3321 121.869 21.2916 121.624 21.281C121.601 21.415 121.552 21.5612 121.475 21.7199C121.461 21.759 121.457 21.8157 121.466 21.8899C121.472 21.9456 121.457 21.9847 121.422 22.0074C121.319 22.0938 121.256 22.204 121.233 22.338C121.227 22.4513 121.221 22.574 121.217 22.7059C121.209 22.8007 121.191 22.8965 121.164 22.9934C121.137 23.0902 121.101 23.1881 121.056 23.287C120.99 23.3694 120.954 23.4765 120.95 23.6084C120.944 23.7218 120.938 23.8444 120.934 23.9764C120.928 24.2588 120.892 24.535 120.828 24.8049C120.764 25.0749 120.675 25.3757 120.561 25.7074C120.482 25.8475 120.414 25.9958 120.356 26.1524C120.296 26.2905 120.237 26.4378 120.179 26.5944C120.169 26.6706 120.14 26.7489 120.092 26.8292C120.043 26.891 120.004 26.9703 119.978 27.0672C119.905 27.2629 119.824 27.4689 119.736 27.6853C119.645 27.883 119.533 28.0643 119.401 28.229C119.186 28.4967 118.972 28.7737 118.76 29.0599C118.566 29.3442 118.322 29.6056 118.029 29.8444Z" fill="#2F94F9"/>
<path d="M112.961 29.8655C112.579 29.9825 112.332 30.0378 112.218 30.0315C112.121 30.0046 111.961 29.9095 111.736 29.7464C111.423 29.6305 111.152 29.4725 110.924 29.2722C110.714 29.0699 110.549 28.8532 110.43 28.6222C110.327 28.3706 110.276 28.1602 110.276 27.9912C110.261 27.3357 110.342 26.6225 110.52 25.8518C110.698 25.0811 110.936 24.3321 111.231 23.6048C111.527 22.8775 111.862 22.2493 112.236 21.72C112.626 21.1701 113.017 20.7986 113.409 20.6053C113.764 20.4161 114.11 20.3218 114.448 20.3222C114.786 20.3227 115.047 20.4725 115.23 20.7716C115.567 21.2792 115.54 21.6296 115.148 21.8228C115.093 21.8289 115.031 21.8639 114.963 21.9277C114.892 21.973 114.861 22.0327 114.87 22.1069C114.948 22.1359 115.153 22.1228 115.485 22.0676C115.815 21.9938 116.143 21.9015 116.469 21.7906C116.811 21.6591 117.033 21.5409 117.134 21.4359C117.239 21.368 117.32 21.331 117.375 21.3249C117.431 21.3188 117.572 21.3221 117.799 21.3347C118.124 21.3929 118.294 21.4869 118.309 21.6168C118.317 21.691 118.353 21.7622 118.417 21.8303C118.478 21.8799 118.546 21.9006 118.621 21.8924C118.752 21.8967 118.743 21.9823 118.592 22.149C118.46 22.3138 118.223 22.5464 117.88 22.8469C117.552 23.1082 117.346 23.2811 117.261 23.3655C117.193 23.4293 117.198 23.5602 117.276 23.7582C117.463 24.0945 117.517 24.5017 117.438 24.9798C117.359 25.458 117.179 25.9566 116.898 26.4757C116.617 26.9948 116.259 27.4942 115.823 27.9739C115.404 28.433 114.942 28.8406 114.436 29.1965C113.947 29.5319 113.456 29.7549 112.961 29.8655ZM112.353 28.6928C112.427 28.6847 112.553 28.6333 112.731 28.5387C112.906 28.4256 113.046 28.335 113.151 28.2672C113.217 28.1848 113.301 28.0911 113.402 27.9861C113.52 27.8605 113.615 27.7844 113.687 27.7577C113.761 27.7495 113.851 27.7115 113.956 27.6436C114.059 27.5572 114.202 27.4007 114.384 27.1742C114.563 26.9291 114.797 26.5749 115.084 26.1115C115.41 25.6625 115.657 25.2599 115.824 24.9035C115.99 24.5285 116.01 24.1977 115.884 23.911C115.858 23.8388 115.797 23.7985 115.702 23.7901C115.626 23.7797 115.519 23.7445 115.381 23.6846C115.195 23.7049 115.014 23.6779 114.837 23.6035C114.676 23.5084 114.484 23.3886 114.262 23.244L113.756 22.7362L113.334 23.2613C113.07 23.5908 112.803 24.0707 112.535 24.7012C112.282 25.311 112.078 25.9343 111.923 26.5711C111.766 27.1893 111.688 27.6767 111.689 28.0333C111.701 28.3137 111.768 28.4941 111.889 28.5747C112.011 28.6552 112.165 28.6946 112.353 28.6928Z" fill="#2F94F9"/>
<path d="M104.304 31.7451C104.166 31.6852 104.019 31.6262 103.863 31.5683C103.725 31.5083 103.586 31.4484 103.448 31.3884C103.329 31.3264 103.219 31.2634 103.118 31.1993C102.689 30.8896 102.388 30.5377 102.213 30.1437C102.055 29.7292 101.973 29.325 101.968 28.9313C101.962 28.5376 101.981 28.1975 102.025 27.911C102.066 27.606 102.081 27.3978 102.069 27.2865C102.034 27.14 102.046 26.9978 102.106 26.8598C102.164 26.7032 102.222 26.5466 102.28 26.39C102.543 25.7039 102.788 25.1137 103.015 24.6193C103.259 24.1042 103.625 23.5007 104.112 22.8088C104.214 22.7038 104.306 22.6091 104.391 22.5247C104.492 22.4197 104.596 22.3425 104.704 22.2932L105.396 22.6961C105.478 22.7621 105.535 22.8498 105.565 22.9591C105.594 23.0499 105.59 23.1818 105.553 23.3549C105.53 23.4889 105.498 23.6238 105.456 23.7598C105.431 23.8752 105.387 23.9834 105.323 24.0843C105.04 24.4158 104.826 24.7773 104.681 25.1688C104.534 25.5417 104.379 25.9249 104.216 26.3184C104.234 26.4854 104.185 26.6317 104.067 26.7573C103.947 26.8643 103.888 27.0116 103.89 27.1992C103.904 27.3291 103.9 27.461 103.877 27.595C103.854 27.729 103.832 27.8722 103.812 28.0247C103.714 28.3358 103.69 28.6296 103.739 28.9059C103.788 29.1821 103.829 29.4687 103.862 29.7656C104.018 29.8235 104.153 29.8557 104.267 29.862C104.378 29.8498 104.516 29.7407 104.682 29.5348C105.018 29.1786 105.247 28.8718 105.369 28.6143C105.51 28.3547 105.613 28.0993 105.679 27.8479C105.746 27.5965 105.845 27.3039 105.978 26.9701C106.128 26.6343 106.242 26.2181 106.319 25.7214C106.396 25.2247 106.439 24.7599 106.448 24.327C106.455 23.8756 106.422 23.5787 106.35 23.4364C106.321 23.3456 106.319 23.2333 106.341 23.0993C106.364 22.9653 106.294 22.8416 106.132 22.728C106.198 22.6456 106.22 22.5024 106.197 22.2983C106.175 22.0942 106.133 21.8828 106.071 21.6642C106.01 21.4456 105.937 21.294 105.852 21.2094C105.734 20.4713 105.638 19.8527 105.564 19.3538C105.507 18.8342 105.467 18.3879 105.445 18.0147C105.44 17.621 105.446 17.2541 105.465 16.914C105.478 16.8563 105.569 16.6585 105.738 16.3206C105.924 15.9622 106.1 15.68 106.265 15.4741C106.55 15.1612 106.953 14.9009 107.475 14.6934C108.013 14.4654 108.479 14.3485 108.873 14.3428C108.857 14.3634 108.969 14.3605 109.21 14.334C109.47 14.3055 109.757 14.2646 110.07 14.2115C110.383 14.1583 110.613 14.1143 110.76 14.0794C110.904 14.026 111.048 13.9726 111.193 13.9192C111.337 13.8658 111.574 13.7177 111.905 13.4749C112.043 13.3658 112.16 13.3248 112.257 13.3517L113.079 13.9094C113.117 14.431 113.03 14.8349 112.818 15.1211C112.603 15.3888 112.156 15.5975 111.478 15.747C111.367 15.7592 111.246 15.7725 111.116 15.7867C110.984 15.7824 110.855 15.806 110.729 15.8573C110.622 15.9067 110.52 15.9179 110.423 15.8909C110.345 15.862 110.232 15.8556 110.083 15.8719C109.879 15.8943 109.669 15.9456 109.452 16.0257C109.234 16.0872 109.001 16.1034 108.753 16.0742C108.106 16.3331 107.614 16.6406 107.277 16.9968C106.941 17.353 106.812 17.8929 106.892 18.6165C107.041 19.2949 107.201 19.8971 107.372 20.4229C107.56 20.9468 107.691 21.5334 107.762 22.1829C107.817 22.3458 107.879 22.4799 107.947 22.5851C108.015 22.6903 108 22.814 107.903 22.9561C108.043 23.3727 108.135 23.7851 108.18 24.1933C108.222 24.5829 108.199 24.8859 108.11 25.1023C108.088 25.2362 108.086 25.4805 108.106 25.8351C108.143 26.1691 108.089 26.5318 107.944 26.9233C107.613 27.8422 107.263 28.6694 106.893 29.4048C106.521 30.1217 106.017 30.7497 105.381 31.289C105.259 31.3774 105.108 31.4504 104.926 31.5079C104.763 31.5633 104.556 31.6424 104.304 31.7451Z" fill="#2F94F9"/>
<path d="M93.0975 32.1302C92.7445 32.5069 92.3112 32.7517 91.7978 32.8644C91.3029 32.975 90.8031 32.9548 90.2982 32.8036C89.7914 32.6339 89.3558 32.3437 88.9914 31.933C88.6312 31.5594 88.3762 31.1179 88.2264 30.6085C88.0745 30.0806 87.9889 29.3858 87.9694 28.5241C87.9457 27.7944 88.0982 27.0452 88.427 26.2768C88.7537 25.4898 89.1732 24.7771 89.6852 24.1388C90.2159 23.4984 90.7566 23.0353 91.3073 22.7495C91.5653 22.5334 91.7881 22.4244 91.9757 22.4226C92.1798 22.4002 92.488 22.3852 92.9003 22.3775C93.3332 22.3863 93.6578 22.4352 93.8741 22.5241C94.109 22.611 94.3015 22.7401 94.4518 22.9114C94.7607 23.1592 94.9768 23.4171 95.1001 23.6853C95.2214 23.9349 95.2963 24.1896 95.3248 24.4493C95.2954 24.8657 95.072 25.3972 94.6548 26.0439C94.254 26.6701 93.6936 27.2104 92.9736 27.665C92.5796 27.8397 92.1404 27.9443 91.6559 27.9787C91.1715 28.0131 90.7593 27.9362 90.4194 27.7482C90.0506 27.6385 89.8217 27.6917 89.7328 27.9081C89.6418 28.1058 89.5906 28.5809 89.5793 29.3333C89.5825 30.0466 89.6952 30.56 89.9174 30.8736C90.1376 31.1687 90.4084 31.3268 90.73 31.3478C91.1092 31.3813 91.4029 31.4054 91.6111 31.4201C91.8358 31.4142 92.0957 31.3012 92.3908 31.081C92.6673 30.8629 92.8417 30.7405 92.9138 30.7138C92.984 30.6685 93.0356 30.6253 93.0686 30.5841C93.1182 30.5223 93.2255 30.3885 93.3907 30.1826C93.5064 30.0384 93.5982 29.9344 93.6663 29.8706C93.7324 29.7883 93.8118 29.742 93.9046 29.7318C93.9974 29.7216 94.086 29.7588 94.1704 29.8435C94.2528 29.9095 94.3331 29.9571 94.4114 29.986C94.5969 29.9657 94.6463 30.0729 94.5594 30.3078C94.491 30.5407 94.3257 30.8311 94.0635 31.1791C93.7992 31.5086 93.4772 31.8256 93.0975 32.1302ZM92.422 26.2327C92.6159 26.1175 92.8151 25.9642 93.0194 25.7727C93.2217 25.5628 93.3859 25.3476 93.5119 25.1272C93.6545 24.8862 93.7176 24.6915 93.7013 24.543C93.6728 24.2832 93.5288 24.0831 93.2692 23.9426C93.0076 23.7835 92.6428 23.7954 92.1746 23.9782C91.9766 24.0563 91.7599 24.2209 91.5246 24.4721C91.2872 24.7047 91.0622 24.9641 90.8495 25.2504C90.6553 25.5346 90.4952 25.7869 90.3692 26.0073C90.2617 26.2257 90.2285 26.3514 90.2697 26.3844C90.3356 26.4711 90.5014 26.528 90.7673 26.5551C91.0312 26.5637 91.3198 26.5414 91.6332 26.4883C91.9651 26.433 92.2281 26.3478 92.422 26.2327Z" fill="#2F94F9"/>
<path d="M85.0856 36.2488C84.9745 36.092 84.8468 35.9558 84.7027 35.8401C84.5606 35.7431 84.4257 35.6264 84.2981 35.4902C84.1911 35.3705 84.1068 35.2013 84.0452 34.9828C84.2645 34.4141 84.4652 33.8475 84.6474 33.2829C84.8295 32.7183 85.0385 32.1414 85.2743 31.5522L85.126 31.484C84.8909 31.5661 84.6186 31.6523 84.3093 31.7426C84.0165 31.8123 83.7638 31.9057 83.5514 32.023C83.4276 32.0929 83.3131 32.1618 83.2079 32.2297C83.1212 32.2955 82.9996 32.2995 82.843 32.2416C82.5067 32.4287 82.1489 32.59 81.7694 32.7256C81.3899 32.8611 81.0228 33.0235 80.6679 33.2126C80.4349 33.3133 80.1915 33.4058 79.9378 33.49C79.6821 33.5556 79.4264 33.6212 79.1707 33.6868C78.9707 33.7463 78.7624 33.8161 78.5459 33.8962C78.3458 33.9558 78.1438 33.9967 77.9396 34.0191C77.3644 34.0822 76.7502 34.0464 76.0969 33.9115C75.4436 33.7767 74.8793 33.4255 74.4039 32.8579C74.1341 32.6246 73.9427 32.4203 73.8295 32.2449C73.735 32.0675 73.623 31.8169 73.4935 31.4931C73.3888 31.2229 73.3501 30.8704 73.3774 30.4355C73.4234 29.9985 73.5034 29.5296 73.6174 29.0289C73.75 28.5261 73.8867 28.0604 74.0274 27.6318C74.1847 27.1826 74.3243 26.8293 74.4463 26.5718C74.4732 26.4749 74.4816 26.3801 74.4714 26.2873C74.4612 26.1946 74.4799 26.108 74.5274 26.0277C74.6349 25.8093 74.7053 25.595 74.7385 25.3848C74.7718 25.1746 74.8339 24.9706 74.9249 24.7728C75.2774 24.7341 75.5804 24.7572 75.8339 24.8421C76.0873 24.9269 76.3241 25.1169 76.5443 25.412C76.4945 25.6428 76.4188 25.9797 76.3172 26.4228C76.2156 26.8658 76.1037 27.3006 75.9815 27.7272C75.8593 28.1537 75.7424 28.4576 75.6309 28.6389C75.5503 28.7604 75.4737 29.0035 75.4011 29.3683C75.3285 29.7331 75.2661 30.1061 75.2141 30.4874C75.1785 30.8481 75.1699 31.1119 75.1883 31.2789C75.2025 31.4088 75.2446 31.5357 75.3145 31.6594C75.3845 31.7832 75.4626 31.8967 75.5491 31.9999C75.8025 32.0847 76.0281 32.1726 76.2259 32.2636C76.4216 32.336 76.6215 32.361 76.8257 32.3386C76.9184 32.3284 77.1225 32.306 77.438 32.2714C77.772 32.2348 78.1039 32.1795 78.4339 32.1058C78.7823 32.03 79.0082 31.9489 79.1113 31.8624C79.1258 31.8233 79.13 31.7759 79.1239 31.7202C79.1178 31.6645 79.1127 31.6181 79.1086 31.581C79.0801 31.3213 79.0825 31.0863 79.1158 30.876C79.147 30.6473 79.1772 30.4092 79.2064 30.1619C79.2729 29.7415 79.3509 29.254 79.4402 28.6996C79.5461 28.1247 79.6345 27.561 79.7053 27.0086C79.7762 26.4563 79.7902 25.9853 79.7474 25.5956C79.7189 25.3358 79.8603 25.1701 80.1717 25.0983C80.4831 25.0266 80.7046 25.0774 80.8363 25.2508C80.9845 25.4035 81.1616 25.5625 81.3675 25.7276C81.3962 25.8184 81.4063 25.9957 81.3977 26.2595C81.4056 26.5028 81.395 26.7481 81.3658 26.9954C81.3552 27.2407 81.3261 27.4035 81.2786 27.4838C81.303 27.7065 81.283 28.0373 81.2185 28.4763C81.1705 28.8947 81.1133 29.3141 81.0467 29.7346C80.9802 30.155 80.9128 30.4816 80.8444 30.7145C80.834 30.7907 80.8339 30.8753 80.8441 30.968C80.8708 31.0402 80.9068 31.1114 80.952 31.1815C81.4182 30.9801 81.8864 30.7973 82.3566 30.633C82.8268 30.4687 83.2867 30.2962 83.7364 30.1154C83.8622 30.064 83.9097 29.9837 83.8789 29.8744C83.8647 29.7445 83.8349 29.6445 83.7896 29.5744C83.8417 29.1931 83.8659 28.8148 83.8623 28.4397C83.8772 28.0624 83.9581 27.6874 84.105 27.3145C84.1195 27.2753 84.1558 27.0929 84.2139 26.7673C84.2721 26.4417 84.3241 26.0604 84.3701 25.6234C84.4346 25.1845 84.4949 24.7929 84.551 24.4487C84.6051 24.086 84.6363 23.8572 84.6447 23.7624C84.7334 23.7151 84.8231 23.6771 84.9138 23.6483C85.0025 23.601 85.083 23.564 85.1552 23.5373C85.2726 23.5808 85.3808 23.6252 85.4796 23.6707C85.595 23.6956 85.7115 23.7298 85.8289 23.7732C85.8948 23.8599 85.9616 23.9558 86.0295 24.0611C86.1139 24.1457 86.1983 24.2303 86.2827 24.315C86.3463 24.5521 86.3396 24.919 86.2627 25.4157C86.2023 25.8918 86.1181 26.4081 86.0102 26.9645C85.9208 27.5189 85.8356 28.0259 85.7546 28.4855C85.6901 28.9245 85.6856 29.2254 85.741 29.3883C86.0585 29.3723 86.3387 29.4448 86.5818 29.6059C86.8248 29.767 87.043 29.959 87.2365 30.1819C87.413 30.7635 87.4092 31.3273 87.225 31.8733C87.0593 32.4173 86.837 32.9581 86.558 33.4957C86.2955 34.0128 86.1103 34.5495 86.0023 35.106C85.9422 35.413 85.8347 35.6314 85.6799 35.7611C85.5272 35.9093 85.329 36.0719 85.0856 36.2488Z" fill="#2F94F9"/>
<path d="M67.0892 35.2946C66.333 35.0771 65.815 34.7208 65.5353 34.2257C65.2721 33.71 65.1444 32.8884 65.1521 31.7608C65.1261 31.1815 65.1029 30.7991 65.0825 30.6135C65.0622 30.428 64.9397 30.2536 64.7153 30.0905C64.6514 30.0224 64.5382 29.9315 64.3755 29.8179C64.2314 29.7023 64.1635 29.5971 64.1718 29.5023C64.139 29.3744 64.133 29.2342 64.1539 29.0817C64.1726 28.9107 64.2191 28.821 64.2934 28.8129C64.3676 28.8048 64.4398 28.778 64.5099 28.7328C64.5986 28.6855 64.6821 28.6763 64.7604 28.7053C64.8346 28.6972 64.9191 28.6973 65.014 28.7056C65.1088 28.714 65.1602 28.7553 65.1684 28.8295C65.2569 28.9513 65.3795 28.9566 65.5363 28.8455C65.6911 28.7158 65.8409 28.4553 65.9857 28.0638C66.1387 27.7465 66.3473 27.4232 66.6116 27.0937C66.8945 26.7622 67.1711 26.4596 67.4415 26.1857C67.7285 25.8914 67.9679 25.6773 68.1598 25.5436C68.2485 25.4963 68.3825 25.4346 68.562 25.3586C68.7414 25.2825 68.9312 25.2148 69.1312 25.1553C69.3498 25.0937 69.5343 25.0641 69.6848 25.0663C70.0208 25.0482 70.3093 25.1105 70.5503 25.253C70.8099 25.3935 71.0539 25.5639 71.2825 25.7642C71.542 25.9047 71.7149 26.1111 71.8011 26.3833C71.9059 26.6535 71.957 26.9483 71.9545 27.2678C71.952 27.5874 71.9001 27.8841 71.7987 28.1582C71.7634 28.3498 71.6301 28.5898 71.3989 28.8781C71.1676 29.1664 70.8982 29.4494 70.5907 29.7273C70.2832 30.0052 69.9964 30.2151 69.7303 30.3569C69.4952 30.4391 69.1848 30.5201 68.7992 30.6C68.4322 30.6778 68.0817 30.7351 67.7477 30.7717C67.4302 30.7878 67.2127 30.7741 67.0953 30.7307C66.9573 30.6707 66.8664 30.7839 66.8228 31.0704C66.7791 31.3569 66.7672 31.7619 66.7871 32.2856C66.7948 32.6978 66.8274 32.9947 66.8849 33.1762C66.9423 33.3577 66.9937 33.4835 67.039 33.5536C67.1831 33.6693 67.3777 33.8169 67.6228 33.9966C67.8844 34.1557 68.2214 34.1469 68.6339 33.9701C68.9763 33.8387 69.2931 33.5598 69.5843 33.1334C69.8941 32.7051 70.1842 32.354 70.4546 32.0802C70.5146 31.9422 70.627 31.8547 70.792 31.8178C70.9735 31.7604 71.1693 31.7483 71.3795 31.7815C71.5979 31.889 71.6987 32.0376 71.682 32.2272C71.6817 32.3962 71.6175 32.6662 71.4892 33.037C71.4478 33.173 71.3362 33.3543 71.1545 33.5808C70.9893 33.7867 70.7973 34.005 70.5785 34.2356C70.3762 34.4455 70.1884 34.6164 70.015 34.7481C69.491 35.1061 68.9887 35.3208 68.5083 35.3923C68.0259 35.4453 67.5529 35.4127 67.0892 35.2946ZM68.1112 29.4643C68.5092 29.3267 68.8268 29.2261 69.064 29.1625C69.3011 29.0989 69.5219 28.9714 69.7262 28.78C69.9285 28.57 70.1691 28.1962 70.4482 27.6585C70.5 27.4463 70.4961 27.2401 70.4366 27.0401C70.3957 26.838 70.334 26.7039 70.2516 26.6379C70.0643 26.4706 69.854 26.4374 69.621 26.5381C69.4044 26.6182 69.2022 26.7437 69.0144 26.9145C68.8906 26.9844 68.7111 27.145 68.4758 27.3961C68.2569 27.6267 68.0422 27.8944 67.8315 28.1992C67.6188 28.4855 67.4505 28.7481 67.3265 28.987C67.2025 29.226 67.1796 29.3599 67.2579 29.3889C67.2289 29.4672 67.3361 29.5024 67.5793 29.4945C67.8411 29.4845 68.0184 29.4744 68.1112 29.4643Z" fill="#2F94F9"/>
<path d="M43.7676 37.4879C43.7038 37.4198 43.6379 37.3331 43.57 37.2279C43.5207 37.1207 43.492 37.0299 43.4838 36.9557C43.4797 36.9186 43.4654 36.8732 43.4407 36.8196C43.4346 36.7639 43.3944 36.7402 43.3202 36.7483C43.2584 36.6987 43.2721 36.4813 43.3613 36.0959C43.467 35.69 43.6036 35.2243 43.7713 34.6989C43.9575 34.1714 44.1458 33.6625 44.3361 33.1721C44.5429 32.6612 44.7146 32.2574 44.851 31.9607C44.9377 31.8949 44.9852 31.8145 44.9936 31.7197C45.0185 31.6043 45.0124 31.5486 44.9752 31.5527C44.9752 31.5527 45.0125 31.4641 45.0869 31.287C45.1779 31.0892 45.2481 30.9594 45.2977 30.8976C45.4176 30.6216 45.5005 30.3496 45.5462 30.0817C45.5898 29.7952 45.5829 29.5612 45.5255 29.3797C45.4411 29.2951 45.3545 29.2764 45.2658 29.3237C45.1771 29.371 45.1327 29.3947 45.1327 29.3947C45.0606 29.4214 44.9533 29.4707 44.811 29.5426C44.6852 29.594 44.5707 29.6629 44.4675 29.7494C44.0733 30.0931 43.801 30.2638 43.6505 30.2615C43.498 30.2407 43.3045 30.0178 43.0701 29.5929C42.9734 29.3969 42.9293 29.2515 42.9377 29.1567C42.9461 29.0619 43.0091 28.9517 43.1267 28.8261C43.2609 28.6799 43.3909 28.5812 43.5167 28.5298C43.6405 28.4599 43.7365 28.393 43.8046 28.3292C43.9944 28.1769 44.1512 28.0658 44.275 27.9959C44.4174 27.9239 44.5246 27.8746 44.5968 27.8479C45.0629 27.6465 45.4681 27.5739 45.8123 27.63C46.1565 27.6861 46.4334 27.8998 46.6432 28.2712C46.9376 28.5581 47.1072 28.9057 47.152 29.3139C47.1948 29.7035 47.1148 30.1724 46.912 30.7205L46.6795 31.1685C46.6071 31.3642 46.5987 31.459 46.6544 31.4529C46.7286 31.4448 46.805 31.3707 46.8835 31.2306C46.931 31.1503 47.0301 31.0267 47.1808 30.86C47.3315 30.6932 47.4347 30.6067 47.4904 30.6006C47.4904 30.6006 47.5079 30.5893 47.543 30.5667C47.5966 30.542 47.6163 30.4648 47.6021 30.3349C47.6516 30.2731 47.7012 30.2113 47.7507 30.1495C47.8188 30.0857 47.8529 30.0538 47.8529 30.0538C47.9271 30.0457 48.0571 29.9469 48.2429 29.7575C48.4452 29.5475 48.6815 29.3056 48.952 29.0318C49.1398 28.861 49.3172 28.7664 49.4842 28.7481C49.8967 28.5713 50.2552 28.6728 50.5598 29.0525C50.8829 29.4302 51.0802 29.9437 51.1514 30.5932L50.7319 32.1603L51.5995 30.8257C51.6945 30.665 51.7916 30.5229 51.8907 30.3994C52.0084 30.2738 52.1095 30.1688 52.1941 30.0844C52.217 29.9504 52.2645 29.8701 52.3367 29.8434C52.4089 29.8167 52.445 29.8033 52.445 29.8033C52.445 29.8033 52.4635 29.8013 52.5006 29.7972C52.5357 29.7746 52.5502 29.7354 52.5441 29.6798C52.6287 29.5954 52.7236 29.5192 52.8289 29.4514C52.9321 29.3649 52.9981 29.2825 53.0271 29.2042C53.3283 29.0397 53.6138 28.9896 53.8838 29.0539C54.1517 29.0996 54.3998 29.3071 54.6282 29.6764C54.7825 29.8848 54.8781 30.0715 54.915 30.2364C54.9519 30.4014 54.9886 30.6509 55.0253 30.9849C55.0187 31.2673 55.0061 31.494 54.9873 31.6651C54.985 31.8156 54.9838 31.9753 54.9835 32.1444C54.9833 32.3134 54.9809 32.5484 54.9764 32.8493C54.9185 33.0059 54.8894 33.1687 54.8892 33.3378C54.9075 33.5048 54.9248 33.6625 54.9411 33.8109C54.9676 34.0521 54.9952 34.2181 55.0239 34.3089C55.0506 34.3811 55.1289 34.41 55.2588 34.3958C55.5125 34.3116 55.8508 34.143 56.2737 33.89C56.7131 33.6164 57.033 33.3654 57.2332 33.1368C57.4831 32.8465 57.71 32.6902 57.9141 32.6677C58.1348 32.6248 58.2851 32.7115 58.3652 32.9281C58.4105 32.9982 58.3639 33.1724 58.2254 33.4505C58.1055 33.7265 57.9567 33.9964 57.779 34.26C57.62 34.5216 57.494 34.6575 57.4013 34.6676C57.3456 34.6738 57.2868 34.7365 57.2248 34.856C57.1607 34.9569 57.0854 35.0403 56.9987 35.1062C56.8831 35.2503 56.7664 35.3852 56.6488 35.5108C56.5496 35.6343 56.4259 35.7042 56.2774 35.7205C56.2032 35.7287 56.1135 35.7667 56.0083 35.8346C55.9196 35.8819 55.8103 35.9127 55.6804 35.9269C55.5009 36.0029 55.2103 36.0067 54.8084 35.9381C54.4251 35.8675 54.1553 35.6342 53.9992 35.2382C53.9026 35.0422 53.802 34.7247 53.6975 34.2854C53.5909 33.8277 53.5492 33.3628 53.5725 32.8907C53.6101 32.5486 53.6229 32.2374 53.6109 31.957C53.5989 31.6766 53.6146 31.4777 53.6581 31.3603C53.652 31.3046 53.6377 31.1747 53.6153 30.9706C53.5909 30.748 53.5508 30.6397 53.4952 30.6458C53.4209 30.6539 53.2599 30.8124 53.0122 31.1213C52.7809 31.4096 52.5021 31.7782 52.1758 32.2272C51.8681 32.6741 51.5624 33.1395 51.2587 33.6236C50.955 34.1076 50.7112 34.5381 50.5272 34.9151C50.3826 35.1375 50.2617 35.4043 50.1644 35.7154C50.0671 36.0266 49.9926 36.2038 49.941 36.247C49.8274 36.4097 49.6718 36.4455 49.474 36.3546C49.2948 36.2616 49.1177 36.1026 48.9428 35.8777C48.8749 35.7725 48.8276 35.6838 48.8009 35.6116C48.7722 35.5208 48.7589 35.4002 48.7612 35.2497C48.78 35.0787 48.8184 34.8303 48.8766 34.5047C48.9533 34.177 49.0529 33.7154 49.1753 33.1199C49.3102 32.4666 49.4243 31.8813 49.5178 31.364C49.6277 30.8261 49.6827 30.5572 49.6827 30.5572C49.6746 30.483 49.5436 30.5725 49.2897 30.8257C49.0338 31.0603 48.7375 31.3557 48.4011 31.7119C48.2565 31.9344 48.0117 32.2711 47.6669 32.722C47.322 33.173 46.9462 33.6837 46.5393 34.2542C46.1325 34.8247 45.7472 35.4209 45.3836 36.043C44.929 36.8628 44.5995 37.3684 44.3952 37.5599C44.2094 37.7493 44.0002 37.7253 43.7676 37.4879Z" fill="#2F94F9"/>
<path d="M37.5664 39.2952C36.75 39.3848 36.0484 39.152 35.4617 38.5967C34.8729 38.0228 34.5369 37.271 34.4536 36.3412C34.4174 35.6691 34.4689 34.9405 34.608 34.1553C34.7637 33.3495 34.9977 32.5727 35.31 31.8248C35.6202 31.0584 35.9777 30.3807 36.3825 29.7916C36.7874 29.2026 37.2281 28.7693 37.7046 28.4916C37.88 28.3785 38.0667 28.2829 38.2647 28.2048C38.4812 28.1247 38.7008 28.0725 38.9235 28.048C39.1276 28.0256 39.345 28.0393 39.5759 28.0891C39.8046 28.1203 39.9973 28.1649 40.1539 28.2228C40.4836 28.3181 40.7421 28.4493 40.9295 28.6166C41.1168 28.7838 41.2969 29.0551 41.4695 29.4305C41.5639 29.7769 41.6192 30.0244 41.6355 30.1728C41.6518 30.3213 41.6298 30.549 41.5696 30.8561C41.4203 31.5485 41.1958 32.1553 40.8962 32.6764C40.5966 33.1976 40.1683 33.6577 39.6111 34.0569C39.4729 34.1659 39.3048 34.2595 39.1068 34.3376C38.9253 34.395 38.7325 34.435 38.5284 34.4574C38.1573 34.4981 37.7883 34.4729 37.4215 34.3817C37.0712 34.2699 36.7788 34.0861 36.5441 33.8301L36.3248 33.6288L36.2658 33.8607C36.1352 34.382 36.0377 34.8622 35.9732 35.3012C35.9273 35.7381 35.9236 36.1329 35.9623 36.4854C35.9868 36.7081 36.0287 36.9195 36.0883 37.1195C36.1663 37.3175 36.2599 37.4856 36.369 37.6239C36.4554 37.7271 36.5852 37.7973 36.7583 37.8347C36.9479 37.8514 37.1448 37.8486 37.3489 37.8262C37.4788 37.8119 37.6087 37.7977 37.7385 37.7834C37.8849 37.7486 38.02 37.6962 38.1438 37.6263C38.447 37.4803 38.6843 37.3322 38.8556 37.182C39.0454 37.0297 39.2343 36.8681 39.4221 36.6973L39.5273 36.6294L39.4995 36.6324C39.7099 36.4967 39.8925 36.3639 40.0473 36.2343C40.2206 36.1026 40.3073 36.0367 40.3073 36.0367C40.3815 36.0286 40.4507 35.9741 40.5147 35.8731C40.655 35.7826 40.8436 35.7901 41.0805 35.8955C41.336 35.9989 41.4749 36.1527 41.4973 36.3568C41.489 36.4516 41.4218 36.6092 41.2957 36.8296C41.1676 37.0315 41.02 37.2261 40.8528 37.4134C40.7041 37.5988 40.5751 37.7068 40.4658 37.7376C40.4493 37.7582 40.3884 37.8024 40.2832 37.8703C40.176 37.9196 40.1058 37.9649 40.0728 38.0061L40.1006 38.003C39.958 38.244 39.8033 38.3737 39.6363 38.392L39.4136 38.4164C39.3536 38.5545 39.1287 38.7294 38.7388 38.9412C38.3469 39.1344 37.9561 39.2524 37.5664 39.2952ZM38.1469 33.0345C38.4809 32.9979 38.7583 32.8735 38.9791 32.6615C39.2165 32.4289 39.4147 32.1818 39.5738 31.9202C39.8899 31.3785 40.0504 30.8726 40.0551 30.4026C40.0764 29.912 39.9841 29.5841 39.7782 29.419C39.6607 29.3755 39.5556 29.3589 39.4628 29.3691C39.3866 29.3587 39.2319 29.4038 38.9988 29.5045C38.8359 29.5599 38.6192 29.7246 38.3488 29.9984C38.0784 30.2722 37.8111 30.5738 37.5468 30.9033C37.301 31.2307 37.1151 31.5046 36.9891 31.725L36.6914 32.3492C36.8337 32.2773 36.9699 32.2341 37.0997 32.2199C37.2462 32.185 37.3307 32.1852 37.3533 32.2202C37.3716 32.3872 37.4168 32.5419 37.4887 32.6842C37.5772 32.806 37.6719 32.8989 37.7728 32.9629C37.8923 33.0249 38.017 33.0488 38.1469 33.0345Z" fill="#2F94F9"/>
<path d="M28.5895 40.0271C28.5359 40.0518 28.403 40.0382 28.1907 39.9864C27.9764 39.916 27.7415 39.8291 27.4861 39.7257C27.2471 39.6017 27.0556 39.4819 26.9114 39.3662C26.7426 39.197 26.5831 39.0267 26.4328 38.8554C26.2991 38.6635 26.218 38.4377 26.1895 38.1779C26.029 37.9138 25.9232 37.6344 25.8721 37.3395C25.8375 37.0241 25.7946 36.719 25.7435 36.4241C25.674 35.9623 25.7241 35.4779 25.8938 34.971C26.0615 34.4456 26.197 34.0551 26.3005 33.7997C26.3647 33.5297 26.5136 33.1754 26.7471 32.7366C26.9972 32.2772 27.3132 31.82 27.6952 31.365C28.0771 30.9099 28.4878 30.5456 28.9273 30.272C29.2079 30.091 29.4915 29.9378 29.7782 29.8124C30.0814 29.6665 30.4453 29.6453 30.8698 29.749C31.08 29.7822 31.2366 29.8402 31.3396 29.9228C31.4425 30.0054 31.5548 30.0869 31.6763 30.1675C31.8125 30.0399 31.9036 29.7576 31.9495 29.3206C32.012 28.8631 32.0219 28.355 31.9794 27.7963C31.9534 27.217 31.8655 26.6727 31.7157 26.1633C31.5824 25.6333 31.3778 25.2239 31.102 24.9349C30.5894 24.3715 30.0539 24.0265 29.4955 23.9C28.937 23.7735 28.3308 23.8964 27.6768 24.2686C27.444 24.2003 27.2205 24.0464 27.0065 23.807C26.811 23.5656 26.7361 23.3109 26.7818 23.0429C26.916 22.8968 27.0873 22.7465 27.2957 22.5922C27.5041 22.4379 27.7176 22.3299 27.9362 22.2684C28.1898 22.1842 28.4455 22.1186 28.7033 22.0715C28.9796 22.0224 29.2753 22.0651 29.5905 22.1995C30.59 22.409 31.3625 22.7749 31.9081 23.2972C32.4702 23.7989 32.8878 24.4384 33.1609 25.216C33.4341 25.9935 33.6462 26.8997 33.7973 27.9348C33.867 28.2276 33.9059 28.4956 33.9138 28.7388C33.9382 28.9615 33.9521 29.3449 33.9555 29.8892C33.7964 30.1507 33.7538 30.4465 33.8276 30.7764C33.9178 31.0857 33.9133 31.3867 33.814 31.6793C33.83 31.9968 33.7843 32.2647 33.6768 32.483C33.5694 32.7014 33.5258 32.9034 33.5462 33.0889C33.314 34.0533 32.9592 35.0124 32.4817 35.9662C32.0228 36.918 31.4672 37.7583 30.8148 38.4871C30.1624 39.216 29.4207 39.7293 28.5895 40.0271ZM28.224 38.2363C28.4177 38.2902 28.6879 38.1854 29.0345 37.922C29.3792 37.64 29.7249 37.2829 30.0718 36.8504C30.4167 36.3994 30.6986 35.9741 30.9177 35.5745C30.9962 35.4345 31.0934 35.2078 31.2092 34.8947C31.3436 34.5794 31.4605 34.2755 31.5599 33.983C31.6777 33.6883 31.7419 33.5029 31.7523 33.4266C31.8684 32.9444 31.9133 32.4982 31.8871 32.088C31.8773 31.6571 31.8004 31.3839 31.6563 31.2682C31.4257 31.0494 31.0856 31.0304 30.6359 31.2112C30.2049 31.39 29.8015 31.6502 29.4259 31.9919C29.1534 32.2471 28.917 32.5736 28.7165 32.9711C28.5325 33.3481 28.3362 33.6983 28.1276 34.0217C28.1604 34.1495 28.1355 34.2649 28.0529 34.3679C27.9889 34.4688 27.9156 34.5707 27.833 34.6737C27.6427 35.164 27.5328 35.6174 27.5034 36.0338C27.4719 36.4316 27.4613 36.6769 27.4715 36.7696C27.5041 37.0665 27.584 37.3676 27.7114 37.6729C27.8388 37.9781 28.0097 38.1659 28.224 38.2363Z" fill="#2F94F9"/>
<path d="M18.1229 46.9501C17.6918 47.1289 17.2022 47.2014 16.6539 47.1677C16.1262 47.1505 15.6543 47.0427 15.2381 46.8442C14.8034 46.6478 14.542 46.4042 14.4537 46.1134C14.4229 46.0042 14.4468 45.8795 14.5253 45.7394C14.5853 45.6014 14.6772 45.4974 14.801 45.4275C14.9082 45.3781 15.0143 45.4041 15.1193 45.5052C15.278 45.5817 15.5592 45.6635 15.9631 45.7506C16.3691 45.8563 16.8082 45.8363 17.2805 45.6905C17.697 45.5509 18.087 45.2546 18.4505 44.8016C18.8324 44.3465 19.1339 43.9285 19.355 43.5474C19.479 43.3084 19.6857 42.882 19.9752 42.2681C20.2646 41.6542 20.5572 40.9836 20.8529 40.2563C21.1652 39.5085 21.4186 38.8234 21.6132 38.2011C21.6526 38.0466 21.6982 37.8632 21.75 37.6509C21.8018 37.4387 21.8763 37.2615 21.9734 37.1194C22.0602 36.8845 22.1306 36.6702 22.1845 36.4765C22.2548 36.2622 22.2952 36.1169 22.3056 36.0407C22.314 35.9459 22.3772 35.7511 22.4951 35.4565C22.6129 35.1619 22.7216 34.8683 22.8209 34.5757C22.8831 34.2872 22.9775 33.8637 23.104 33.3053C23.2305 32.7468 23.3682 32.2904 23.5171 31.936C23.6929 31.4848 23.8315 31.1222 23.9329 30.8482C24.0508 30.5535 24.1901 30.3692 24.351 30.2952C24.5038 30.147 24.608 30.0699 24.6636 30.0637C24.7379 30.0556 24.8831 30.096 25.0995 30.1849C25.3466 30.3831 25.5102 30.5905 25.5903 30.8071C25.6683 31.0051 25.669 31.2679 25.5923 31.5956C25.5321 31.9026 25.3914 32.3312 25.1701 32.8813C25.0705 33.3429 24.9483 33.7695 24.8035 34.1609C24.6752 34.5318 24.5707 34.778 24.4902 34.8995C24.4219 35.1324 24.338 35.3951 24.2387 35.6877C24.1559 35.9597 24.0803 36.2121 24.0119 36.4449C23.7594 37.2238 23.538 37.8584 23.3477 38.3488C23.1574 38.8391 22.9908 39.2893 22.848 39.6993C22.7053 40.1094 22.5603 40.5854 22.4132 41.1273C22.0618 41.8607 21.7156 42.5559 21.3746 43.2131C21.0542 43.8867 20.7008 44.517 20.3146 45.104C20.1474 45.2914 19.9368 45.5117 19.6829 45.7649C19.429 46.0181 19.1638 46.2537 18.8873 46.4719C18.6293 46.688 18.3745 46.8474 18.1229 46.9501ZM21.1472 39.8579C20.8648 39.8513 20.5681 39.7148 20.2572 39.4485C19.9649 39.1801 19.7261 38.8871 19.541 38.5694C19.3559 38.2517 19.2738 38.0166 19.2946 37.8641C19.2844 37.7713 19.2763 37.6971 19.2702 37.6414C19.2641 37.5857 19.261 37.5579 19.261 37.5579C19.1497 37.5701 19.0323 37.4422 18.909 37.174C18.8043 36.9038 18.7089 36.5481 18.6229 36.1069C18.5369 35.6656 18.4571 35.1955 18.3836 34.6966C18.3286 34.1956 18.2952 33.7204 18.2835 33.271C18.3231 32.9474 18.3225 32.6 18.2818 32.2289C18.239 31.8393 18.2147 31.5321 18.2088 31.3074C18.1577 31.0125 18.1641 30.8147 18.2281 30.7137C18.2901 30.5943 18.3552 30.5026 18.4233 30.4388C18.9184 30.1591 19.277 30.2606 19.4989 30.7433C19.7375 31.2053 19.8836 32.1095 19.9375 33.4556C19.9818 34.2019 20.0633 34.9441 20.1819 35.6822C20.3004 36.4204 20.4738 37.0586 20.7019 37.5969C20.9485 38.1332 21.2408 38.4861 21.5786 38.6556C21.7166 38.7156 21.7928 38.8105 21.807 38.9404C21.8213 39.0703 21.7995 39.2135 21.7415 39.3701C21.6816 39.5081 21.5917 39.6307 21.472 39.7377C21.3688 39.8241 21.2606 39.8642 21.1472 39.8579Z" fill="#2F94F9"/>
<path d="M7.55951 42.5323C7.37599 42.5713 7.09257 42.5554 6.70925 42.4848C6.34244 42.3936 6.08697 42.2902 5.94283 42.1746C5.79257 42.0033 5.64753 41.7939 5.50768 41.5463C5.3864 41.2967 5.28672 41.0729 5.20865 40.8749C5.1471 40.6563 5.11429 40.5285 5.11022 40.4914L5.19066 38.1446C5.26511 37.9674 5.29215 37.786 5.27179 37.6005C5.26998 37.4129 5.29702 37.2315 5.35291 37.0564C5.32417 36.9656 5.33164 36.777 5.37531 36.4906C5.4355 36.1835 5.50192 35.8476 5.57456 35.4828C5.66371 35.0975 5.74766 34.7502 5.82641 34.4411C5.90312 34.1135 5.94566 33.9022 5.95403 33.8074C5.99771 33.5209 6.06921 33.2314 6.16855 32.9388C6.26789 32.6462 6.35795 32.3547 6.43874 32.0641C6.53423 31.5654 6.60687 31.2006 6.65665 30.9698C6.70643 30.739 6.75203 30.5556 6.79344 30.4196C6.8534 30.2816 6.92061 30.124 6.99506 29.9468C7.06747 29.7511 7.16681 29.4585 7.29307 29.069L8.52587 25.1592C8.33013 25.0868 8.14379 24.9288 7.96684 24.6854C7.78785 24.4233 7.68613 24.181 7.66169 23.9583C7.63092 23.849 7.64133 23.7728 7.69292 23.7295C7.74248 23.6678 7.82914 23.6019 7.95292 23.532C8.15703 23.5096 8.36939 23.4769 8.59002 23.4339C8.81065 23.3909 9.03433 23.3758 9.26106 23.3884C9.4301 23.3886 9.54041 23.3672 9.592 23.3239C9.64156 23.2622 9.75187 23.2407 9.92294 23.2594C10.0961 23.2968 10.2651 23.297 10.43 23.2601C10.6136 23.2212 10.7662 23.1575 10.8879 23.069C10.9436 23.0629 11.1096 23.0353 11.3859 22.9862C11.6622 22.9371 11.9663 22.8849 12.2982 22.8297C12.6488 22.7725 12.9529 22.7203 13.2106 22.6733C13.4869 22.6242 13.6529 22.5965 13.7086 22.5904C13.69 22.5925 13.8096 22.57 14.0673 22.5229C14.3436 22.4738 14.6663 22.4196 15.0354 22.3603C15.4024 22.2825 15.7333 22.218 16.0282 22.1668C16.321 22.0971 16.4849 22.051 16.52 22.0284C16.8995 21.8928 17.1726 21.9004 17.3394 22.0511C17.5062 22.2018 17.6348 22.3473 17.7253 22.4876C17.7726 22.5763 17.8302 22.6733 17.8981 22.7785C17.9639 22.8652 18.0102 22.9446 18.0369 23.0168C18.0801 23.0684 18.0749 23.1065 18.0213 23.1311C17.9428 23.2712 17.8231 23.3782 17.6622 23.4522C17.5198 23.5242 17.3425 23.5343 17.1303 23.4825C17.054 23.472 16.785 23.5016 16.3231 23.571C15.8613 23.6405 15.2994 23.7397 14.6376 23.8687C13.9942 23.9957 13.3334 24.1339 12.655 24.2835C11.9931 24.4125 11.4147 24.5323 10.9198 24.6429C10.7465 24.7746 10.6051 24.9404 10.4956 25.1402C10.384 25.3215 10.2838 25.5202 10.1948 25.7366C10.1514 25.854 10.05 26.128 9.89069 26.5587C9.74995 26.9872 9.59471 27.455 9.425 27.9618C9.25529 28.4687 9.11556 28.9066 9.00581 29.2754C8.89403 29.6257 8.83712 29.7916 8.83508 29.773C8.70904 29.9934 8.75939 30.1099 8.98612 30.1226C9.23141 30.1333 9.43756 30.1294 9.60456 30.1111C9.753 30.0948 9.90551 30.1156 10.0621 30.1735C10.2352 30.2109 10.395 30.2121 10.5414 30.1773C10.6321 30.1485 10.8114 30.157 11.0794 30.2027C11.3638 30.2278 11.6698 30.2788 11.9975 30.3555C12.3417 30.4116 12.6498 30.4811 12.9218 30.5639C13.2103 30.6261 13.4143 30.6882 13.5337 30.7502C13.989 30.9632 14.3886 31.1822 14.7326 31.4073C15.0765 31.6325 15.3617 31.9204 15.5879 32.2712C15.8142 32.6219 16.0137 32.985 16.1863 33.3604C16.359 33.7358 16.4502 34.1389 16.4599 34.5698C16.4701 34.6625 16.4637 34.8604 16.4406 35.1634C16.434 35.4458 16.4099 35.7395 16.3683 36.0446C16.3266 36.3496 16.2676 36.5814 16.1911 36.7401C16.0092 37.1356 15.8066 37.5146 15.5835 37.8771C15.3769 38.219 15.1848 38.5218 15.0072 38.7854C14.751 39.1891 14.4331 39.5433 14.0534 39.8478C13.6902 40.1318 13.3064 40.3993 12.9021 40.6502C12.5864 40.8539 12.3409 41.0123 12.1655 41.1254C12.0067 41.218 11.855 41.2909 11.7107 41.3444C11.5663 41.3978 11.3673 41.4665 11.1136 41.5507C11.1322 41.5487 11.0425 41.5867 10.8445 41.6648C10.6444 41.7243 10.4454 41.7931 10.2474 41.8711C10.0494 41.9492 9.95042 41.9882 9.95042 41.9882C9.72346 42.1446 9.48212 42.2556 9.22642 42.3212C8.96869 42.3683 8.70993 42.4061 8.45016 42.4346C8.30172 42.4509 8.15226 42.4579 8.00178 42.4556C7.85334 42.4719 7.70591 42.4975 7.55951 42.5323ZM7.14711 41.0847C7.4234 41.0356 7.70999 40.9947 8.00687 40.9622C8.30375 40.9296 8.59657 40.8599 8.8853 40.7531C9.78455 40.3915 10.6168 40.0184 11.3821 39.634C12.166 39.2475 12.8511 38.6465 13.4377 37.831C13.8425 37.242 14.1308 36.7033 14.3025 36.215C14.4928 35.7246 14.6203 35.1754 14.6851 34.5674C14.7267 34.2624 14.6972 33.9933 14.5965 33.7602C14.4937 33.5086 14.3952 33.2096 14.3008 32.8631C14.0911 32.4918 13.9048 32.2493 13.7421 32.1358C13.5774 32.0036 13.4188 31.9271 13.2663 31.9063C13.1138 31.8855 12.9592 31.8461 12.8026 31.7882C12.539 31.6105 12.1805 31.5091 11.727 31.4837C11.2735 31.4584 10.9623 31.4456 10.7932 31.4454C10.9066 31.4517 10.8788 31.4547 10.7097 31.4545C10.5572 31.4337 10.3305 31.421 10.0295 31.4165C9.72652 31.3934 9.42455 31.3796 9.12359 31.3751C8.82263 31.3706 8.58866 31.3775 8.42166 31.3958C8.32436 31.7069 8.22083 32.0469 8.11108 32.4158C8.01989 32.7826 7.91942 33.1504 7.80967 33.5192C7.71644 33.8675 7.63249 34.2147 7.55782 34.5609C7.43133 35.1194 7.31513 35.6861 7.20923 36.2611C7.10129 36.8175 7.00365 37.3822 6.9163 37.9552C6.8767 38.2788 6.84423 38.6673 6.81888 39.1208C6.79354 39.5742 6.80225 39.9958 6.84502 40.3855C6.90431 40.7545 7.005 40.9876 7.14711 41.0847Z" fill="#2F94F9"/>
<path d="M99.2096 67.55C99.8416 65.4603 100.469 63.3702 101.066 61.2712C101.133 61.0333 101.203 60.7922 101.264 60.5526C101.282 60.4828 101.298 60.4106 101.319 60.3446C101.351 60.1354 101.454 59.9266 101.656 59.7499C101.844 59.5856 102.16 59.4887 102.407 59.5222C102.756 59.5708 103.115 59.783 103.243 60.1311C103.426 60.614 103.239 61.0797 103.112 61.5459C102.954 62.1185 102.788 62.6915 102.618 63.2629C102.422 63.9367 102.219 64.611 102.018 65.282C107.479 61.748 112.14 55.8578 111.984 49.0097C111.932 46.7852 111.307 44.5539 110.358 42.5214C109.798 41.3231 111.663 40.4951 112.225 41.6959C114.082 45.6515 114.546 50.044 113.323 54.2345C112.208 58.0423 109.815 61.3758 106.942 64.0463C105.958 64.9613 104.904 65.7942 103.798 66.5558C105.348 66.2507 106.858 65.7799 108.326 65.1847C109.539 64.6915 110.387 66.567 109.165 67.0615C107.104 67.8996 104.935 68.5336 102.723 68.8088C101.858 68.9187 100.953 69.0035 100.077 68.9332C99.3848 68.8807 99.0271 68.1639 99.212 67.5525L99.2096 67.55ZM101.377 60.9511C101.399 60.9648 101.419 60.9819 101.441 60.9957C101.42 60.9578 101.397 60.9174 101.384 60.8756C101.393 60.9446 101.392 60.9827 101.379 60.949L101.377 60.9511ZM101.305 60.453L101.306 60.4416C101.306 60.4416 101.303 60.4447 101.303 60.4505L101.305 60.453Z" fill="#2F94F9"/>
</svg>
