<svg width="71" height="55" viewBox="0 0 71 55" fill="none" xmlns="http://www.w3.org/2000/svg">
<path d="M62.9552 21.3684C62.6454 21.3151 62.3965 21.2244 62.2087 21.0962C62.0368 20.9667 61.9324 20.7831 61.8957 20.5453C61.9074 20.4961 61.9092 20.4237 61.9008 20.3281C61.8939 20.2484 61.9174 20.15 61.9714 20.0328C61.9714 20.0328 62.0213 20.0526 62.1211 20.0921C62.2369 20.1301 62.4195 20.1062 62.669 20.0202C62.9892 20.0083 63.2095 19.957 63.3301 19.8662C63.4507 19.7754 63.6187 19.5841 63.8342 19.2922C63.9886 19.0379 64.1636 18.7416 64.3589 18.4033C64.5702 18.0637 64.7067 17.7868 64.7683 17.5726C65.0081 17.375 65.1775 17.1997 65.2766 17.0465C65.3742 16.8774 65.4639 16.7089 65.5457 16.5412C65.5387 16.4615 65.5501 16.316 65.5799 16.1046C65.6083 15.8773 65.7049 15.6038 65.8697 15.2843C66.0103 14.8705 66.1485 14.5212 66.2843 14.2363C66.4187 13.9355 66.4824 13.7453 66.4754 13.6656C66.4754 13.6656 66.4945 13.6077 66.5326 13.492C66.5707 13.3762 66.5748 13.2393 66.545 13.0813C66.6364 13.0252 66.7071 12.9146 66.757 12.7497C66.8214 12.5674 66.838 12.3893 66.8067 12.2153C66.8026 12.1675 66.8583 11.978 66.974 11.6467C67.0883 11.2994 67.1388 10.9577 67.1255 10.6216C67.2508 10.0325 67.3339 9.51133 67.3747 9.05807C67.43 8.58749 67.458 8.07914 67.4585 7.53303C67.4591 6.98691 67.4465 6.28937 67.4206 5.44041C67.39 4.72035 67.3673 4.18429 67.3527 3.83223C67.3367 3.46423 67.3044 3.18599 67.2558 2.99749C67.2232 2.8076 67.1348 2.62258 66.9906 2.44243C66.7868 1.94626 66.629 1.70304 66.5175 1.71276C66.4697 1.71693 66.4083 1.65804 66.3334 1.53608C66.2731 1.39679 66.2651 1.21279 66.3094 0.984082C66.2879 0.921714 66.3056 0.847902 66.3624 0.762645C66.4192 0.677389 66.52 0.636478 66.6648 0.63991C66.7764 0.630183 66.9001 0.667579 67.036 0.7521C67.1864 0.819291 67.2883 0.882681 67.3417 0.94227C67.3999 0.872953 67.5025 0.944313 67.6494 1.15635C67.8109 1.35106 67.9915 1.67259 68.1912 2.12094C68.3063 2.33575 68.3947 2.52077 68.4565 2.676C68.5168 2.81529 68.5633 2.97987 68.5959 3.16976C68.6271 3.3437 68.6493 3.59873 68.6626 3.93485C68.6744 4.25503 68.6894 4.70343 68.7076 5.28003C68.7562 5.83791 68.7699 6.45506 68.7485 7.13147C68.7417 7.79055 68.7183 8.44305 68.6783 9.08897C68.6368 9.71895 68.5826 10.2938 68.5155 10.8136C68.44 11.2378 68.3324 11.7531 68.1925 12.3595C68.0513 12.95 67.8868 13.5506 67.6991 14.1612C67.5274 14.7704 67.358 15.3152 67.1911 15.7955C67.0402 16.2744 66.9093 16.6151 66.7984 16.8174C66.8303 16.8147 66.7908 16.9145 66.68 17.1169C66.5851 17.3179 66.4472 17.5788 66.2664 17.8997C66.1001 18.2033 65.9266 18.5156 65.7458 18.8365C65.5664 19.1734 65.4147 19.4596 65.2907 19.6953C65.0807 20.0508 64.8348 20.3614 64.5528 20.6269C64.2708 20.8924 63.9912 21.0934 63.714 21.23C63.4368 21.3666 63.1839 21.4127 62.9552 21.3684Z" fill="#2F94F9"/>
<path d="M58.5355 20.766C58.3761 20.7799 58.2711 20.773 58.2205 20.7453C58.1873 20.7321 58.1339 20.6725 58.0604 20.5665C58.0507 20.4549 58.0663 20.3572 58.1071 20.2734C58.1639 20.1881 58.2433 20.0848 58.3451 19.9635C58.4906 19.7902 58.6565 19.575 58.8429 19.3178C59.0307 19.0766 59.2018 18.8288 59.3563 18.5744C59.5267 18.3187 59.6455 18.1156 59.7127 17.9652C59.7612 17.7843 59.7989 17.5722 59.8259 17.329C59.8688 17.0843 59.9096 16.8157 59.9484 16.5233C59.9373 16.3958 59.9275 16.2842 59.9192 16.1885C59.9254 16.0756 59.9576 15.9844 60.0158 15.9151C60.1177 15.7938 60.2091 15.7377 60.2902 15.7466C60.3872 15.7542 60.4753 15.8429 60.5543 16.0127C60.6493 16.1811 60.728 16.4392 60.7905 16.7871C60.8848 17.1322 60.9126 17.451 60.8739 17.7435C60.8351 18.036 60.7461 18.3971 60.6069 18.8268C60.5848 18.9411 60.4958 19.1175 60.3399 19.356C60.184 19.5944 60.0267 19.8169 59.8681 20.0235C59.7094 20.23 59.6062 20.3354 59.5584 20.3396C59.4946 20.3451 59.4402 20.3659 59.3952 20.402C59.3515 20.454 59.3006 20.5146 59.2424 20.5839C59.1842 20.6532 59.0913 20.6935 58.9638 20.7046C58.8536 20.7302 58.7109 20.7507 58.5355 20.766ZM61.8893 12.2586C61.5962 12.3966 61.346 12.4746 61.1388 12.4926C60.9461 12.4934 60.7226 12.4165 60.4682 12.262C60.1404 12.0015 60.0118 11.7236 60.0824 11.4284C60.1676 11.1158 60.4048 10.798 60.7943 10.4749C61.0659 10.2746 61.2648 10.1609 61.3909 10.1338C61.533 10.1054 61.753 10.1424 62.051 10.2449C62.5556 10.5061 62.792 10.8227 62.7602 11.1949C62.7444 11.5657 62.4541 11.9203 61.8893 12.2586Z" fill="#2F94F9"/>
<path d="M46.5446 19.595C46.0151 19.7857 45.6388 19.8907 45.4157 19.9102C45.1925 19.9296 44.9437 19.8389 44.6692 19.638C44.5826 19.5652 44.5278 19.4897 44.5049 19.4114C44.4807 19.3172 44.4359 19.2648 44.3708 19.2545C44.3451 19.1443 44.3455 19.0559 44.3718 18.9894C44.4126 18.9055 44.51 18.8247 44.6638 18.7471C44.9154 18.8697 45.2218 18.8832 45.5828 18.7874C45.9439 18.6917 46.2907 18.525 46.6233 18.2872C46.9705 18.0321 47.2344 17.744 47.4152 17.4231C47.7007 17.0128 47.9165 16.6326 48.0626 16.2826C48.2074 15.9166 48.2759 15.5975 48.2682 15.3251C48.2544 15.1657 48.2207 15.0562 48.1673 14.9966C48.1285 14.9197 48.0384 14.8071 47.897 14.6588C47.6184 14.7795 47.3651 14.914 47.1372 15.0624C46.9251 15.2093 46.7536 15.3608 46.6227 15.5168C46.1792 15.9569 45.8331 16.3164 45.5844 16.595C45.3516 16.8723 45.1507 17.1468 44.9816 17.4185C44.8285 17.6888 44.6353 18.0509 44.4018 18.5049C44.2882 18.6755 44.1791 18.8054 44.0744 18.8948C43.9858 18.9829 43.8856 19.0318 43.774 19.0415C43.8497 19.3561 43.7548 19.5571 43.4893 19.6445C43.1317 19.5954 42.8677 19.514 42.6971 19.4004C42.5252 19.2708 42.4538 19.004 42.4828 18.6C42.5271 18.3713 42.5679 18.1027 42.6053 17.7943C42.6413 17.4699 42.6901 17.2007 42.7517 16.9865C43.0453 15.933 43.3008 14.9953 43.5183 14.1733C43.7516 13.3499 43.9653 12.7611 44.1593 12.407L44.5665 10.9983C44.8388 10.9906 45.0509 11.0283 45.2027 11.1114C45.3531 11.1786 45.5378 11.3633 45.7569 11.6654C45.7639 11.7451 45.7043 11.9832 45.5783 12.3796C45.4668 12.7587 45.3283 13.1964 45.1627 13.6927C45.0131 14.1875 44.8688 14.6498 44.7295 15.0795C44.6049 15.4919 44.5176 15.7806 44.4678 15.9455C44.4193 16.1264 44.4643 16.0904 44.6029 15.8374C44.7574 15.583 45.0338 15.2538 45.4322 14.8496C45.6214 14.6243 45.8597 14.4108 46.1473 14.2091C46.4335 13.9914 46.676 13.8257 46.8749 13.712C47.0897 13.5969 47.2681 13.5252 47.4102 13.4967C47.5523 13.4683 47.6545 13.4433 47.7169 13.4218C48.1153 13.3871 48.4432 13.4629 48.7003 13.6493C48.9561 13.8197 49.1429 14.0282 49.2608 14.2749C49.3946 14.5202 49.4685 14.7226 49.4823 14.882C49.5524 15.1329 49.6058 15.3771 49.6426 15.6148C49.6939 15.8352 49.6988 16.0757 49.6573 16.3363C49.6206 16.468 49.5482 16.651 49.4402 16.8852C49.3321 17.1195 49.2008 17.3638 49.0464 17.6182C48.9064 17.8552 48.7311 18.0552 48.5205 18.2181C48.3895 18.3741 48.2114 18.5422 47.9863 18.7224C47.7611 18.9027 47.5192 19.0763 47.2608 19.2434C47.0168 19.3932 46.7781 19.5103 46.5446 19.595ZM51.5511 19.5439C51.2614 19.5371 51.0146 19.4702 50.8109 19.3435C50.6216 19.1994 50.474 18.9793 50.3679 18.6834C50.3442 18.4125 50.3546 18.1626 50.3989 17.9339C50.4577 17.6879 50.5013 17.4512 50.5297 17.2239C50.5774 16.8503 50.6571 16.474 50.7686 16.0949C50.88 15.7157 50.9756 15.338 51.0552 14.9617C51.1314 14.7302 51.1923 14.5081 51.238 14.2953C51.2837 14.0825 51.3294 13.8697 51.3751 13.657C51.4326 13.395 51.4907 13.141 51.5496 12.8949C51.6084 12.6489 51.6673 12.4029 51.7261 12.1568C51.7718 11.944 51.8009 11.7247 51.8133 11.4988C51.8417 11.2714 51.8621 11.0448 51.8745 10.8189C52.0332 10.6123 52.2175 10.5159 52.4275 10.5297C52.6534 10.5422 52.9404 10.7019 53.2883 11.0088C53.3847 11.1931 53.4398 11.365 53.4537 11.5244C53.4662 11.6678 53.4396 11.8227 53.3738 11.9891C53.3225 12.1381 53.2536 12.3609 53.1671 12.6576C53.0965 12.9528 53.0179 13.2487 52.9313 13.5454C52.8593 13.8247 52.8056 14.0382 52.7703 14.1858C52.7537 14.3639 52.6911 14.6585 52.5823 15.0695C52.4896 15.4791 52.3902 15.9053 52.2843 16.3482C52.177 16.7751 52.1025 17.1189 52.061 17.3795C51.9862 17.6269 51.9346 17.8643 51.9063 18.0916C51.8779 18.3189 51.8544 18.602 51.8358 18.9409C51.8802 19.0816 51.8667 19.2032 51.7953 19.3058C51.7385 19.3911 51.6571 19.4704 51.5511 19.5439Z" fill="#2F94F9"/>
<path d="M40.3604 19.9655C40.1878 20.0126 40.0132 20.0359 39.8364 20.0352C39.6597 20.0346 39.4868 19.9854 39.3177 19.8877C39.2428 19.7658 39.1506 19.6293 39.0411 19.4782C38.9461 19.3098 38.9249 19.1591 38.9775 19.026C39.0406 18.8278 39.0568 18.5534 39.0262 18.2027C39.0116 17.8506 39.0496 17.5502 39.1404 17.3014C39.1535 17.2681 39.1594 17.2435 39.158 17.2275C39.1712 17.1943 39.1764 17.1617 39.1736 17.1298C39.1756 16.969 39.1981 16.7663 39.241 16.5217C39.2985 16.2597 39.3369 16.0556 39.3563 15.9093C39.3694 15.8761 39.3815 15.7385 39.3926 15.4966C39.4036 15.2548 39.4133 14.997 39.4215 14.7232C39.4298 14.4495 39.429 14.2568 39.4193 14.1452C39.4124 14.0655 39.4307 13.9997 39.4744 13.9477C39.5326 13.8784 39.5256 13.7987 39.4535 13.7086C39.2193 13.9699 38.929 14.3245 38.5826 14.7722C38.2521 15.2186 37.9383 15.6716 37.6411 16.1312C37.3425 16.5748 37.1107 16.9563 36.9459 17.2759C36.9195 17.3424 36.8846 17.4017 36.8409 17.4537C36.7973 17.5056 36.7616 17.5569 36.7339 17.6075C36.6784 17.7087 36.6064 17.8033 36.5177 17.8914C36.429 17.9794 36.3663 18.0893 36.3296 18.221C36.0823 18.5156 35.8814 18.79 35.7269 19.0444C35.5883 19.2974 35.3787 19.5646 35.0981 19.8461C34.8951 19.9119 34.7024 19.9127 34.5201 19.8483C34.3538 19.7825 34.1802 19.7253 33.9993 19.6769C33.9604 19.5999 33.9136 19.5237 33.8589 19.4482C33.8027 19.3567 33.7552 19.2725 33.7164 19.1956C33.7323 18.8248 33.7651 18.3723 33.8149 17.8379C33.8632 17.2876 33.8964 16.7467 33.9143 16.2152C33.9481 15.6822 33.9366 15.2737 33.8797 14.9895C33.8568 14.9112 33.8433 14.8482 33.8391 14.8003C33.8349 14.7525 33.854 14.6946 33.8963 14.6267C33.8935 14.5948 33.8907 14.563 33.8879 14.5311C33.9011 14.4978 33.907 14.4732 33.9056 14.4573C33.8189 14.3845 33.796 14.3062 33.8369 14.2223C33.8778 14.1385 33.8708 14.0588 33.8161 13.9833C33.7987 13.9687 33.7734 13.9548 33.7402 13.9417C33.7228 13.9271 33.6975 13.9133 33.6643 13.9001C33.3608 14.4726 33.0228 15.0161 32.65 15.5304C32.2918 16.0274 31.9437 16.5476 31.6056 17.091C31.3798 17.4479 31.1668 17.86 30.9666 18.3272C30.7823 18.7929 30.5433 19.1831 30.2495 19.4979C30.1477 19.6192 30.0472 19.7564 29.9482 19.9096C29.8636 20.0454 29.7538 20.1674 29.6187 20.2756C29.5966 20.3899 29.5404 20.4832 29.4504 20.5553C29.3748 20.61 29.2733 20.643 29.1458 20.6541C28.9067 20.6749 28.6607 20.6161 28.4077 20.4775C28.1547 20.339 28.0112 20.1668 27.9772 19.961C27.9675 19.8494 28.0055 19.7336 28.0915 19.6137C28.1046 19.5805 28.1098 19.5479 28.107 19.516C28.1202 19.4827 28.134 19.4574 28.1486 19.4401C28.4403 19.2862 28.723 19.0287 28.9967 18.6675C29.2863 18.305 29.5579 17.92 29.8114 17.5124C30.0636 17.0889 30.2981 16.7392 30.515 16.4633C30.7187 16.2207 30.8739 15.9743 30.9805 15.7241C31.0858 15.458 31.2237 15.197 31.3941 14.9412C31.6068 14.6175 31.8174 14.2699 32.0259 13.8984C32.2504 13.5255 32.4676 13.1613 32.6775 12.8057C32.9033 12.4487 33.1327 12.1316 33.3655 11.8543C33.4826 11.9084 33.599 11.9544 33.7148 11.9925C33.8465 12.0292 33.984 12.0413 34.1275 12.0288C34.2155 12.1175 34.2956 12.2069 34.3677 12.297C34.4543 12.3697 34.549 12.4418 34.6515 12.5131C34.8914 12.685 35.065 12.9268 35.1725 13.2386C35.28 13.5505 35.3497 13.8897 35.3817 14.2563C35.4276 14.7823 35.4183 15.3211 35.354 15.8728C35.3042 16.4072 35.2714 16.8597 35.2555 17.2305C35.2569 17.2464 35.2583 17.2624 35.2597 17.2783C35.2756 17.2769 35.2843 17.2842 35.2857 17.3001C35.61 16.9667 35.8902 16.589 36.1264 16.1668C36.3627 15.7447 36.6169 15.3451 36.8892 14.9681C37.3901 14.2659 37.7629 13.7516 38.0074 13.4251C38.2679 13.0972 38.4644 12.8633 38.5967 12.7233C38.729 12.5833 38.8614 12.4432 38.9937 12.3032C39.0983 12.2138 39.2168 12.0991 39.3492 11.959C39.4961 11.8017 39.6859 11.5844 39.9187 11.3071C40.0462 11.296 40.1658 11.2856 40.2773 11.2758C40.4049 11.2647 40.5244 11.2543 40.636 11.2446C40.7704 11.3132 40.8716 11.3686 40.9396 11.4108C41.0061 11.4372 41.1125 11.46 41.2587 11.4794C41.2816 11.5577 41.3239 11.6745 41.3856 11.8297C41.4473 11.9849 41.4657 12.1038 41.4408 12.1862C41.4187 12.3006 41.4124 12.4136 41.4222 12.5251C41.4319 12.6367 41.4018 12.7518 41.3318 12.8703C41.221 13.0727 41.1292 13.4019 41.0565 13.8579C40.9984 14.2966 40.9483 14.7346 40.9061 15.172C40.8785 15.5919 40.8643 15.8903 40.8637 16.067C40.8263 16.3754 40.7806 16.5882 40.7266 16.7053C40.6712 16.8065 40.6324 16.9143 40.6102 17.0287C40.5881 17.143 40.5912 17.2712 40.6197 17.4133C40.6467 17.5394 40.6412 17.6604 40.6031 17.7761C40.5886 17.7934 40.574 17.8108 40.5595 17.8281C40.5595 17.8281 40.5522 17.8368 40.5377 17.8541C40.5516 18.0135 40.5661 18.1809 40.5814 18.3562C40.6113 18.5142 40.5919 18.6604 40.5233 18.7949C40.5649 18.9037 40.5833 19.0225 40.5785 19.1514C40.5737 19.2804 40.6007 19.4065 40.6597 19.5298C40.6015 19.5991 40.5512 19.6678 40.509 19.7357C40.4667 19.8036 40.4172 19.8802 40.3604 19.9655Z" fill="#2F94F9"/>
<path d="M13.3072 21.6254C13.1221 21.5291 12.9502 21.3995 12.7915 21.2367C12.6313 21.0579 12.5388 20.8251 12.5138 20.5382C12.4999 20.3788 12.5081 20.105 12.5385 19.7169C12.5689 19.3288 12.6191 18.8908 12.689 18.4029C12.7588 17.915 12.8315 17.4589 12.907 17.0348C13.0413 16.734 13.1518 16.4353 13.2384 16.1386C13.3249 15.842 13.3654 15.6618 13.3599 15.598C13.3751 15.404 13.3955 15.1773 13.4211 14.9181C13.4626 14.6576 13.5062 14.4209 13.5519 14.2081C13.5976 13.9953 13.635 13.8716 13.6641 13.837C13.7368 13.7503 13.8283 13.6941 13.9385 13.6685C14.0473 13.6269 14.1602 13.6331 14.2774 13.6871C14.4091 13.7238 14.5137 13.8191 14.5914 13.9729C14.7834 14.1489 14.8912 14.3724 14.9148 14.6434C14.9371 14.8984 14.8828 15.2886 14.7519 15.8139C14.6362 16.1452 14.5254 16.5323 14.4195 16.9752C14.3136 17.4181 14.2208 17.8277 14.1412 18.204C14.0761 18.563 14.0412 18.807 14.0363 18.9359L13.5707 19.121C13.8194 18.8424 14.0515 18.5571 14.267 18.2653C14.4811 17.9576 14.6369 17.7191 14.7346 17.55C14.9736 17.1598 15.1783 16.8368 15.3488 16.581C15.5338 16.3079 15.7704 15.9821 16.0586 15.6037C16.3454 15.2093 16.6368 14.959 16.9327 14.8529C17.2431 14.7295 17.486 14.6601 17.6613 14.6448C18.0176 14.678 18.3125 14.837 18.5461 15.1218C18.7943 15.3892 18.9753 15.8071 19.089 16.3754C19.1085 16.5985 19.1075 16.8636 19.0861 17.1706C19.0806 17.4763 19.0779 17.6291 19.0779 17.6291C19.0779 17.6291 19.1908 17.4506 19.4167 17.0936C19.6585 16.7353 19.9851 16.3374 20.3967 15.9C20.6801 15.6504 20.9639 15.4972 21.248 15.4403C21.5307 15.3675 21.7941 15.4409 22.0381 15.6605C22.472 15.8476 22.7728 16.1666 22.9407 16.6178C23.1071 17.053 23.189 17.624 23.1864 18.3309C23.1747 18.7495 23.1938 19.061 23.2438 19.2654C23.2923 19.4539 23.3568 19.641 23.4372 19.8268C23.5703 19.8794 23.606 20.0128 23.5444 20.227C23.4814 20.4252 23.3941 20.5292 23.2825 20.5389C23.1231 20.5528 22.937 20.5369 22.7243 20.4912C22.5274 20.4441 22.3431 20.3558 22.1712 20.2262C22.0138 20.0793 21.9233 19.8704 21.8997 19.5994L21.7704 18.1171C21.7399 17.7664 21.6989 17.4809 21.6476 17.2605C21.6122 17.0387 21.5605 16.9067 21.4926 16.8645C21.3089 16.7841 21.0629 16.91 20.7546 17.242C20.4463 17.574 20.1231 18.0117 19.785 18.5552C19.4469 19.0986 19.1341 19.6559 18.8467 20.227C18.5869 20.7475 18.4206 21.0511 18.3479 21.1377C18.2897 21.2071 18.168 21.1936 17.983 21.0973C17.6226 21.0163 17.3862 20.8843 17.2739 20.7014C17.1761 20.5011 17.148 20.2707 17.1896 20.0101C17.2456 19.7322 17.3093 19.3572 17.3806 18.8852C17.4678 18.4119 17.5484 17.9551 17.6225 17.5151C17.6952 17.059 17.7391 16.734 17.7543 16.5399C17.6794 16.418 17.5644 16.3878 17.4091 16.4496C17.2685 16.4939 17.1233 16.5789 16.9736 16.7043C16.7935 16.8485 16.5832 17.1078 16.3428 17.4821C16.1024 17.8564 15.8589 18.2871 15.6123 18.7744C15.4474 19.0939 15.2746 19.4142 15.0937 19.7351C14.9115 20.04 14.7425 20.3118 14.5866 20.5502C14.4307 20.7886 14.2939 20.9692 14.1761 21.0919C13.9835 21.462 13.8488 21.6665 13.7719 21.7053C13.695 21.7441 13.5401 21.7175 13.3072 21.6254Z" fill="#2F94F9"/>
<path d="M10.522 8.01592C10.7819 8.23417 10.9951 8.56089 11.1615 8.99608C11.3266 9.41533 11.4452 9.85469 11.5174 10.3142C11.6055 10.7722 11.633 11.1794 11.5998 11.5356C11.588 11.5848 11.5853 11.7376 11.5916 11.9941C11.5965 12.2345 11.5969 12.5156 11.5928 12.8371C11.5887 13.1587 11.5825 13.4564 11.5743 13.7301C11.5646 13.9879 11.5394 14.1588 11.4985 14.2426C11.509 14.5469 11.455 14.8487 11.3365 15.1481C11.2326 15.4302 11.1707 15.7327 11.1507 16.0557C11.1493 16.0398 11.1098 16.1396 11.0322 16.3551C10.9546 16.5707 10.8653 16.8354 10.7642 17.1494C10.6617 17.4474 10.5651 17.7209 10.4743 17.9697C10.3981 18.2012 10.3535 18.3336 10.3403 18.3668C10.0563 19.1625 9.66877 19.9672 9.17759 20.7809C8.68641 21.5947 8.15951 22.275 7.59689 22.8219C7.35992 23.0514 7.05919 23.2864 6.69471 23.5269C6.33023 23.7675 6.05165 23.8882 5.85899 23.8889C5.68087 23.8723 5.50415 23.8717 5.32881 23.8869C5.15487 23.9182 4.98092 23.9494 4.80698 23.9806C4.63303 24.0118 4.39047 23.9928 4.07928 23.9236C3.78403 23.853 3.50402 23.773 3.23926 23.6837C2.98905 23.577 2.83865 23.5098 2.78805 23.4821C2.78805 23.4821 2.71943 23.4319 2.58218 23.3314C2.44355 23.215 2.28828 23.092 2.11638 22.9625C1.95903 22.8156 1.8197 22.6912 1.6984 22.5893C1.57709 22.4875 1.51644 22.4366 1.51644 22.4366C1.41385 22.3652 1.36636 22.281 1.37396 22.184C1.38157 22.087 1.35798 22.0007 1.30322 21.9252C1.26578 21.8642 1.27338 21.7672 1.32602 21.6341C1.3946 21.4996 1.47185 21.3724 1.55776 21.2525C1.65961 21.1312 1.73375 21.0605 1.78017 21.0404C1.89731 21.0944 2.00648 21.1491 2.10767 21.2046C2.22342 21.2427 2.33986 21.2887 2.45699 21.3428C2.47923 21.5978 2.62101 21.8424 2.88234 22.0766C3.15821 22.2934 3.42853 22.4465 3.69329 22.5359C3.74389 22.5636 3.84231 22.5871 3.98854 22.6065C4.15072 22.6245 4.3122 22.6345 4.47298 22.6365C4.63238 22.6227 4.72004 22.615 4.73598 22.6136C5.13308 22.5629 5.52634 22.3761 5.91575 22.053C6.32111 21.7286 6.67517 21.3685 6.97794 20.9727C7.29664 20.5755 7.53324 20.2497 7.68774 19.9954C7.89626 19.6238 8.04936 19.3535 8.14704 19.1844C8.24333 18.9993 8.31052 18.8489 8.34861 18.7332C8.40125 18.6001 8.46705 18.4338 8.54601 18.2342C8.62358 18.0186 8.75658 17.7019 8.94499 17.2839C9.04888 17.0018 9.14897 16.7682 9.24526 16.5832C9.34016 16.3822 9.37928 16.186 9.3626 15.9948C9.16577 15.9477 8.89341 15.9554 8.54552 16.0178C8.21218 16.0629 7.84904 16.1348 7.45611 16.2333C7.07773 16.3144 6.70732 16.3949 6.34488 16.4747C5.99699 16.5371 5.70938 16.5542 5.48206 16.5258C5.2679 16.4642 5.11333 16.3492 5.01834 16.1808C4.92197 15.9965 4.84084 15.8028 4.77496 15.5997C4.73196 15.475 4.71357 15.3561 4.71978 15.2432C4.74054 15.1129 4.82784 15.0089 4.98168 14.9312L6.79878 14.7728C7.30468 14.6805 7.79464 14.5896 8.26866 14.5001C8.75861 14.4092 9.20042 14.4109 9.59409 14.505C9.65924 14.5154 9.7223 14.5019 9.78328 14.4645C9.84287 14.4111 9.87785 14.3518 9.88823 14.2867C9.90826 13.9637 9.95289 13.6466 10.0221 13.3354C10.0914 13.0243 10.0961 12.7107 10.0365 12.3946C10.0468 11.9601 10.0415 11.6233 10.0206 11.3842C9.9998 11.1451 9.98104 10.9299 9.96437 10.7386C9.96224 10.53 9.96253 10.257 9.96522 9.91947C9.94438 9.68038 9.87294 9.41358 9.7509 9.11907C9.62747 8.80861 9.4254 8.60941 9.1447 8.52146C8.99569 8.47021 8.80752 8.4304 8.5802 8.40203C8.36742 8.35634 8.17198 8.3252 7.99387 8.30861C7.8303 8.27468 7.74852 8.25772 7.74852 8.25772C7.53297 8.18015 7.27933 8.21832 6.98759 8.37224C6.7118 8.52477 6.44745 8.71646 6.19454 8.9473C5.95757 9.17674 5.76564 9.37014 5.61875 9.5275C5.70401 9.58431 5.75739 9.6439 5.77889 9.70626C5.80038 9.76863 5.77995 9.81057 5.71758 9.83206C5.60739 9.85773 5.50726 9.90661 5.41718 9.97871C5.32571 10.0349 5.2443 10.1142 5.17294 10.2168C5.08564 10.3208 4.95363 10.3725 4.7769 10.3718C4.60018 10.3712 4.48096 10.2932 4.41924 10.138C4.38802 9.96404 4.33566 9.82406 4.26218 9.71804C4.18869 9.61202 4.14708 9.50322 4.13736 9.39165C4.12624 9.26413 4.18546 9.11442 4.31502 8.94252C4.55681 8.58416 4.82529 8.2556 5.12046 7.95684C5.43017 7.64075 5.7593 7.36311 6.10785 7.12393C6.13834 7.10522 6.23189 7.07297 6.38851 7.02719C6.56106 6.98003 6.67644 6.92179 6.73464 6.85247C6.79145 6.76721 6.85382 6.74572 6.92174 6.78798C7.00561 6.82885 7.07664 6.81462 7.13484 6.74531C7.62554 6.84707 8.04103 6.91524 8.38132 6.94982C8.73754 6.98301 9.07403 7.06609 9.39078 7.19909C9.72347 7.33069 10.1005 7.60297 10.522 8.01592Z" fill="#2F94F9"/>
<path d="M20.2701 48.498C21.9018 47.0476 23.5299 45.5945 25.1368 44.1179C25.3178 43.9498 25.5037 43.7811 25.681 43.6086C25.7329 43.5587 25.7844 43.5055 25.837 43.4604C25.9732 43.2985 26.1701 43.1744 26.4351 43.1297C26.6809 43.0878 27.0009 43.1705 27.1941 43.3283C27.4667 43.5526 27.661 43.9209 27.5885 44.2847C27.4916 44.7918 27.0884 45.0908 26.737 45.4222C26.3026 45.8275 25.8612 46.2289 25.4178 46.6272C24.8978 47.0986 24.3726 47.5674 23.8503 48.0342C30.3526 47.8783 37.4065 45.2963 40.8551 39.3779C41.9743 37.4547 42.609 35.2262 42.8631 32.9974C43.0125 31.6832 45.0357 31.9534 44.8868 33.2708C44.4004 37.6135 42.498 41.5997 39.2634 44.5313C36.3216 47.1936 32.5385 48.7831 28.6934 49.5566C27.3757 49.8215 26.0418 49.9801 24.7008 50.0507C26.1811 50.6012 27.7143 50.9897 29.2774 51.2507C30.5694 51.4649 30.3109 53.5068 29.0102 53.2888C26.8157 52.9253 24.6354 52.3311 22.6057 51.4084C21.8117 51.05 20.9954 50.6486 20.2856 50.1305C19.7234 49.7238 19.7935 48.9258 20.2709 48.5014L20.2701 48.498ZM25.569 44.0075C25.5803 44.0306 25.5887 44.0558 25.6 44.0789C25.6023 44.0358 25.6041 43.9895 25.6146 43.9469C25.5857 44.0101 25.5656 44.0425 25.5722 44.007L25.569 44.0075ZM25.7685 43.5456L25.7754 43.5364C25.7754 43.5364 25.7706 43.537 25.7681 43.5423L25.7685 43.5456Z" fill="#2F94F9"/>
</svg>
