<svg width="181" height="39" viewBox="0 0 181 39" fill="none" xmlns="http://www.w3.org/2000/svg">
<path d="M6.39252 23.6652C6.24322 23.6679 6.073 23.5497 5.88189 23.3106C5.69077 23.0714 5.60248 22.8396 5.61701 22.6153C5.63016 22.3164 5.70622 21.8856 5.84518 21.3229C5.98415 20.7602 6.14161 20.1879 6.31756 19.6059C6.49351 19.0239 6.65304 18.5635 6.79615 18.2248C6.86528 17.9248 6.92578 17.6623 6.97764 17.4373C7.04781 17.1933 7.09154 17.0338 7.10882 16.9588C7.16344 16.8831 7.2438 16.6856 7.34992 16.3663C7.47471 16.0466 7.57167 15.7367 7.64081 15.4367C7.67538 15.2867 7.74487 15.0054 7.84926 14.5927C7.97198 14.1611 8.11216 13.6637 8.26979 13.1007C8.44608 12.5374 8.61322 11.9835 8.7712 11.4392C8.94784 10.8945 9.09769 10.4157 9.22075 10.0026C9.34381 9.58964 9.4228 9.31746 9.45772 9.18613C9.60289 8.95941 9.7109 8.74271 9.78177 8.53604C9.85263 8.32936 9.8967 8.18852 9.91399 8.11352C10.0246 8.0368 10.0882 7.94228 10.1048 7.82995C10.121 7.69896 10.1285 7.59614 10.1271 7.52149C10.1254 7.42817 10.152 7.353 10.2069 7.29597C10.2806 7.23861 10.3167 7.17259 10.3153 7.09794C10.3889 7.04057 10.434 6.95572 10.4506 6.8434C10.4669 6.71241 10.5208 6.59939 10.6124 6.50435L10.7436 6.02585L12.3948 5.96735C12.3616 6.192 12.3108 6.47299 12.2423 6.81031C12.1735 7.12897 12.0042 7.5615 11.7342 8.10792C11.6478 8.48291 11.542 8.82092 11.4169 9.12195C11.3104 9.42263 11.2674 9.61946 11.2877 9.71243C11.2511 9.75045 11.1706 9.93863 11.0461 10.277C10.9403 10.615 10.808 11.0282 10.6489 11.5165C10.5086 12.0045 10.3589 12.4927 10.1999 12.9811C10.0596 13.4691 9.92751 13.9009 9.80376 14.2766C9.69833 14.6333 9.62781 14.8586 9.59221 14.9526C9.44841 15.254 9.28854 15.6957 9.11259 16.2777C8.93664 16.8597 8.67116 17.6488 8.31616 18.6448C8.17237 18.9462 7.994 19.3976 7.78107 19.9989C7.5868 20.6 7.42882 21.1443 7.30714 21.632C7.11528 22.3636 6.97528 22.8703 6.88713 23.152C6.81799 23.452 6.7556 23.6118 6.69995 23.6315C6.64465 23.6699 6.54218 23.6811 6.39252 23.6652ZM6.30837 6.9759C5.78614 7.00421 5.39369 6.98346 5.13102 6.91363C4.88702 6.84345 4.79958 6.65837 4.86872 6.35838C4.92058 6.13338 5.03879 5.96317 5.22336 5.84774C5.40792 5.73231 5.67699 5.64333 6.03056 5.58079C6.23517 5.53967 6.4956 5.48819 6.81185 5.42634C7.14675 5.36415 7.463 5.3023 7.76058 5.24079C8.3751 5.15476 8.87781 5.08014 9.26871 5.01691C9.67827 4.95334 10.0973 4.89892 10.5259 4.85367C10.9545 4.80842 11.495 4.76109 12.1476 4.7117C12.6881 4.66438 13.1449 4.62794 13.5178 4.60239C13.909 4.55782 14.1046 4.53554 14.1046 4.53554C14.1606 4.53451 14.3569 4.54955 14.6936 4.58067C15.0302 4.6118 15.395 4.65173 15.788 4.70049C16.1809 4.74924 16.4714 4.80922 16.6594 4.88043C17.0904 4.96582 17.4008 5.09078 17.5905 5.2553C17.7989 5.41948 17.9434 5.65952 18.0239 5.97542C18.084 6.19835 18.0866 6.33833 18.0316 6.39535C17.9763 6.43371 17.8747 6.4916 17.7268 6.56901C17.3 6.70758 16.9839 6.77876 16.7786 6.78255C16.5733 6.78634 16.3391 6.74399 16.0761 6.6555C15.9811 6.56391 15.8675 6.48199 15.7355 6.40975C15.6222 6.33716 15.4158 6.28496 15.1165 6.25315C14.8355 6.20233 14.3868 6.16394 13.7702 6.13799C13.2486 6.20363 12.7919 6.24007 12.4 6.24731C12.008 6.25454 11.8129 6.30482 11.8146 6.39814L10.1645 6.51262L8.79529 6.67793C8.609 6.70004 8.34823 6.73286 8.01298 6.77639C7.67738 6.80126 7.35128 6.83529 7.03469 6.87847C6.71776 6.903 6.47565 6.93547 6.30837 6.9759ZM13.9671 21.873C13.7245 21.8775 13.5276 21.8345 13.3766 21.7439C13.2442 21.653 13.0739 21.5255 12.8655 21.3613C12.504 20.9946 12.2455 20.6446 12.0899 20.3114C11.9341 19.9596 11.8812 19.6245 11.9314 19.3062C11.9846 19.1558 12.0007 19.0155 11.9796 18.8852C11.9768 18.7359 11.9755 18.6613 11.9755 18.6613C11.8804 18.5697 11.8514 18.5142 11.8884 18.4948C11.925 18.4568 11.9613 18.4001 11.9973 18.3248C12.1092 18.3227 12.1447 18.2194 12.1035 18.0148C12.0635 17.8662 12.1321 17.5382 12.3094 17.0308C12.4867 16.5235 12.7112 16.0432 12.9829 15.5901C13.0915 15.4014 13.255 15.1557 13.4734 14.853C13.6915 14.5315 13.9284 14.2191 14.1842 13.9157C14.4583 13.5932 14.7056 13.3366 14.9261 13.1458C15.3855 12.7453 15.7907 12.4484 16.1419 12.2552C16.4931 12.0621 16.8731 11.915 17.2819 11.8141C17.6908 11.7132 17.9699 11.6614 18.1192 11.6586C18.2872 11.6555 18.5139 11.8007 18.7994 12.0941C19.2321 12.2729 19.5442 12.4911 19.7356 12.749C19.9457 13.0065 20.0835 13.3867 20.1488 13.8895C20.2151 14.4484 20.1803 15.0932 20.0444 15.8238C19.9269 16.5354 19.5047 17.43 18.7778 18.5076C18.3236 19.1881 17.9037 19.7 17.5179 20.0432C17.1318 20.3677 16.6711 20.6936 16.1357 21.0208C15.7486 21.2894 15.3976 21.4919 15.0828 21.6284C14.7676 21.7462 14.3957 21.8278 13.9671 21.873ZM16.5998 18.8559C17.0385 18.3437 17.3843 17.8613 17.6373 17.4085C17.909 16.9554 18.1598 16.3814 18.3896 15.6863C18.4605 15.4796 18.5025 15.2268 18.5156 14.9279C18.5284 14.6102 18.5138 14.3211 18.4716 14.0605C18.4478 13.7809 18.3795 13.6235 18.2669 13.5882C18.0405 13.4617 17.7692 13.4294 17.4529 13.4912C17.1363 13.5344 16.7943 13.7181 16.4269 14.0423C15.8573 14.5382 15.3646 15.1541 14.9488 15.8899C14.5326 16.607 14.1277 17.4266 13.734 18.3487C13.4664 19.0258 13.4111 19.5682 13.568 19.9761C13.7432 20.3649 14.0911 20.4985 14.6116 20.3769C15.1504 20.2362 15.8132 19.7293 16.5998 18.8559ZM19.3201 22.0822C19.2448 22.0463 19.1407 21.9735 19.008 21.864C18.894 21.754 18.7892 21.644 18.6939 21.5337C18.6368 21.4787 18.5893 21.433 18.5513 21.3963C18.5129 21.341 18.4749 21.3044 18.4372 21.2864C18.4348 21.1558 18.4611 21.0619 18.5161 21.0049C18.5897 20.9475 18.6631 20.8808 18.7364 20.8048C18.809 20.6914 18.9293 20.6332 19.0972 20.6301C19.2652 20.627 19.395 20.5779 19.4866 20.4829C19.8181 20.2341 20.1587 19.9757 20.5085 19.7079C20.8582 19.4401 21.1512 19.1266 21.3872 18.7675C21.6416 18.3894 21.8955 17.9833 22.1489 17.5492C22.4022 17.1152 22.6464 16.6906 22.8815 16.2755C22.9537 16.1435 23.0707 15.9079 23.2325 15.5689C23.3943 15.2298 23.5469 14.9003 23.6903 14.5803C23.8521 14.2412 23.9411 14.0062 23.9574 13.8752C23.7884 13.8223 23.6288 13.7786 23.4789 13.744C23.3472 13.6905 23.2157 13.6462 23.0843 13.6113C22.9115 13.3531 22.8155 13.2055 22.7961 13.1685C22.7764 13.1129 22.7638 12.9358 22.7583 12.6371C22.7542 12.4132 22.8729 12.271 23.1145 12.2105C23.6533 12.0699 24.1277 11.9771 24.5376 11.9322C24.9662 11.8869 25.3847 11.8045 25.7932 11.6849C26.0531 11.6055 26.3699 11.5716 26.7435 11.5834C27.1171 11.5952 27.492 11.6722 27.868 11.8147C28.0373 11.8862 28.179 11.9769 28.2931 12.0869C28.4071 12.1968 28.5122 12.3255 28.6083 12.4731C28.8571 12.8046 28.9837 13.0916 28.9882 13.3342C29.0114 13.5765 29.0063 13.81 28.9732 14.0346C28.94 14.2593 28.9726 14.5107 29.0711 14.789C28.9498 15.2953 28.8274 15.7456 28.704 16.14C28.5802 16.5156 28.4655 16.8725 28.3597 17.2105C28.2536 17.5299 28.1564 17.8304 28.0683 18.112C27.9801 18.3937 27.9107 18.675 27.8598 18.956C27.7907 19.256 27.7029 19.5564 27.5964 19.857C27.49 20.1577 27.4117 20.4672 27.3615 20.7855C27.3287 21.0289 27.22 21.2082 27.0354 21.3237C26.8695 21.4387 26.6848 21.5448 26.4812 21.6419C26.4069 21.662 26.2759 21.6457 26.0882 21.5932C25.9189 21.5216 25.7583 21.4219 25.6066 21.294C25.5468 21.0898 25.5247 20.9035 25.5403 20.7352C25.5558 20.5668 25.5901 20.3982 25.643 20.2292C25.6962 20.0788 25.7926 19.741 25.9323 19.2157C26.072 18.6903 26.2291 18.0993 26.4036 17.4427C26.5782 16.786 26.7443 16.1762 26.9019 15.6131C27.0596 15.0501 27.1643 14.6561 27.2162 14.4311C27.304 14.1308 27.3278 13.9063 27.2878 13.7577C27.2663 13.6087 27.2358 13.4693 27.196 13.3393C26.8013 13.1973 26.5298 13.1556 26.3816 13.2143C26.2516 13.2541 26.0843 13.2945 25.8797 13.3356C25.7878 13.412 25.7147 13.4974 25.6604 13.5917C25.6061 13.6861 25.5705 13.7801 25.5536 13.8737C25.3583 14.4188 25.1889 14.8513 25.0455 15.1713C24.9207 15.491 24.7954 15.7827 24.6696 16.0464C24.5434 16.2915 24.3991 16.5649 24.2366 16.8666C24.0928 17.1679 23.9045 17.5822 23.6715 18.1092C23.5284 18.4479 23.3474 18.7593 23.1286 19.0434C22.9285 19.3271 22.7474 19.6292 22.5853 19.9496L22.2846 20.3472C22.3032 20.3469 22.23 20.4229 22.0647 20.5753C21.8995 20.7277 21.7343 20.8801 21.5691 21.0325C21.4225 21.1846 21.3493 21.2606 21.3493 21.2606L20.4938 21.9485C20.4019 22.0249 20.2439 22.0652 20.02 22.0693C19.796 22.0734 19.5627 22.0778 19.3201 22.0822ZM31.2527 21.4418C31.0274 21.3713 30.7839 21.3291 30.5223 21.3153C30.2603 21.2828 30.0343 21.1749 29.8442 20.9917C29.5971 20.7536 29.4053 20.4771 29.2688 20.1622C29.1506 19.8283 29.1257 19.4928 29.1942 19.1554C29.2464 18.9491 29.2708 18.7526 29.2673 18.566C29.2635 18.3607 29.3066 18.1639 29.3964 17.9755C29.4113 17.7699 29.4545 17.5824 29.5261 17.413C29.5973 17.225 29.6685 17.037 29.7397 16.849C29.8645 16.5293 29.9706 16.2099 30.058 15.8909C30.1642 15.5716 30.2891 15.2612 30.4329 14.9598C30.7022 14.3761 30.9905 13.8107 31.2978 13.2636C31.6237 12.7161 31.912 12.1507 32.1626 11.5673C32.2345 11.4166 32.3167 11.3218 32.4094 11.2827C32.5203 11.2247 32.6318 11.1946 32.7438 11.1925C32.8931 11.1898 33.0429 11.215 33.1932 11.2682C33.3436 11.3215 33.4751 11.3657 33.5878 11.401C33.6468 11.5679 33.7334 11.7064 33.8475 11.8163C33.9615 11.9262 34.0018 12.0841 33.9682 12.2901C33.7138 12.6682 33.4689 13.0555 33.2336 13.4519C33.0165 13.8293 32.7996 14.216 32.5829 14.6121C32.3845 14.9891 32.1864 15.3849 31.9887 15.7993C31.8632 16.0816 31.7661 16.3821 31.6973 16.7008C31.6285 17.0195 31.5314 17.32 31.4059 17.6023C31.2807 17.9034 31.1933 18.2224 31.1435 18.5593C31.0934 18.8777 31.0246 19.1963 30.9371 19.5153C30.9202 19.609 30.9219 19.7023 30.9423 19.7953C30.981 19.8692 31.0473 19.924 31.1414 19.9596C31.4009 19.8615 31.6607 19.7727 31.9206 19.6932C32.1805 19.6137 32.4115 19.4881 32.6137 19.3163C32.9815 19.0108 33.2753 18.744 33.4951 18.5159C33.7146 18.2692 33.8869 17.9953 34.012 17.6942C34.1368 17.3745 34.2225 16.9622 34.2692 16.4573C34.2858 16.3449 34.2746 16.2425 34.2355 16.1498C34.1961 16.0385 34.1384 15.9463 34.0624 15.873C33.8931 15.8014 33.7329 15.7204 33.5818 15.6298C33.4491 15.5202 33.3442 15.4008 33.2672 15.2716C33.2084 15.1233 33.2053 14.9553 33.2579 14.7677C33.3277 14.505 33.4735 14.3156 33.6954 14.1995C33.936 14.083 34.1591 14.0322 34.3647 14.0471C34.4024 14.0651 34.4308 14.0832 34.4498 14.1015C34.4874 14.1195 34.5159 14.147 34.5353 14.184C34.686 14.2559 34.8372 14.3558 34.9889 14.4836C35.1403 14.5929 35.2728 14.6931 35.3865 14.7844C35.465 14.9883 35.5718 15.2103 35.7069 15.4506C35.842 15.6908 35.9142 16.0628 35.9235 16.5667C35.9428 17.6119 35.6786 18.4663 35.1307 19.1298C34.6015 19.793 33.8935 20.3755 33.0066 20.8773C32.8774 20.9544 32.7384 21.013 32.5898 21.0531C32.4595 21.0741 32.3392 21.1324 32.229 21.2278C32.2099 21.2094 32.1261 21.2203 31.9775 21.2604C31.8286 21.2818 31.6798 21.3126 31.5311 21.3527C31.3825 21.3927 31.2897 21.4225 31.2527 21.4418ZM36.4458 21.2619C36.2568 21.1347 36.1146 21.016 36.0192 20.9057C35.9238 20.7955 35.8835 20.6375 35.8984 20.4319C35.9306 20.1512 35.9812 19.8609 36.0504 19.5609C36.1192 19.2423 36.2068 18.9326 36.3133 18.6319C36.363 18.2949 36.4222 17.9578 36.4906 17.6205C36.5777 17.2828 36.7212 16.9627 36.921 16.6603C37.2217 15.7586 37.495 14.8854 37.7407 14.0408C38.0048 13.1771 38.3595 12.1623 38.8047 10.9966C38.8942 10.7896 38.9755 10.6387 39.0484 10.544C39.1396 10.4303 39.2216 10.3168 39.2941 10.2034C39.3114 10.1284 39.3667 10.0901 39.46 10.0883C39.5717 10.0676 39.6933 10.084 39.825 10.1376C39.9564 10.1725 40.0602 10.236 40.1366 10.3279C40.2109 10.3078 40.3158 10.4273 40.4513 10.6861C40.6054 10.9447 40.6652 11.1489 40.6306 11.2989C40.632 11.3736 40.6152 11.4766 40.5803 11.6079C40.5454 11.7393 40.4916 11.8616 40.419 11.975C40.3458 12.051 40.2732 12.1643 40.2013 12.315C40.129 12.4471 40.0203 12.6264 39.8752 12.8531C39.6982 13.3792 39.5476 13.8207 39.4235 14.1777C39.2994 14.5347 39.1482 14.9389 38.9699 15.3903C38.8427 15.5793 38.7447 15.8332 38.6759 16.1519C38.6071 16.4705 38.5381 16.7798 38.469 17.0798C38.3445 17.4182 38.2289 17.7284 38.1221 18.0104C38.0339 18.2921 37.9906 18.4702 37.9919 18.5449C37.8689 18.9579 37.7738 19.3704 37.7067 19.7824C37.6393 20.1757 37.5244 20.5232 37.3619 20.8249C37.3484 21.1052 37.2679 21.2934 37.1203 21.3895C36.9914 21.4852 36.7666 21.4427 36.4458 21.2619ZM43.145 21.5863C42.8457 21.5545 42.6207 21.5026 42.47 21.4307C42.3189 21.3401 42.0354 21.1493 41.6193 20.8583C41.3912 20.6385 41.0768 20.2989 40.6763 19.8395C40.2757 19.3802 39.8747 18.8929 39.4731 18.3775C39.0712 17.8435 38.7361 17.3923 38.4679 17.0238L39.5873 15.4629C39.8354 15.757 40.0366 16.0334 40.1907 16.2919C40.3448 16.5504 40.4694 16.7255 40.5645 16.8171C41.0054 17.4437 41.3509 17.9508 41.6007 18.3382C41.8693 18.7253 42.1084 19.0383 42.3182 19.2771C42.528 19.516 42.7466 19.7266 42.974 19.9091C43.22 20.0913 43.5223 20.2817 43.8807 20.4805C43.9374 20.5168 43.9944 20.5717 44.0517 20.6454C44.1091 20.719 44.1298 20.8306 44.1139 20.9803C44.0431 21.1869 43.9615 21.3191 43.8692 21.3769C43.7953 21.4156 43.5538 21.4854 43.145 21.5863ZM38.3783 16.7174C38.2604 16.4022 38.2919 16.0843 38.4727 15.7635C38.6718 15.4238 38.8914 15.1864 39.1316 15.0513C39.2039 14.9192 39.277 14.8339 39.3509 14.7952C39.4432 14.7374 39.498 14.6711 39.5153 14.5961C39.5512 14.5207 39.6427 14.4164 39.7896 14.283C39.9551 14.1492 40.1022 14.0252 40.2308 13.9108C40.5259 13.7186 40.8577 13.4884 41.2262 13.2203C41.6129 12.9331 41.981 12.6462 42.3305 12.3597C42.6799 12.0732 42.974 11.8251 43.2129 11.6153C43.4704 11.4052 43.6266 11.2716 43.6816 11.2146C43.7362 11.1389 43.81 11.0909 43.9029 11.0705C44.0142 11.0311 44.1546 11.0472 44.3239 11.1187C44.5489 11.1706 44.6999 11.2611 44.777 11.3904C44.8537 11.501 44.8952 11.7243 44.9014 12.0602C44.9612 12.2645 44.8813 12.49 44.6618 12.7368C44.4607 12.9645 44.148 13.2223 43.724 13.5102C43.5764 13.6063 43.3737 13.75 43.1158 13.9415C42.8766 14.1326 42.6653 14.3139 42.4817 14.4853C42.3525 14.5624 42.1589 14.6966 41.9011 14.8881C41.6616 15.0605 41.45 15.2325 41.2665 15.4039C41.1189 15.5 40.926 15.6716 40.6879 15.9187C40.4494 16.1471 40.2099 16.3196 39.9693 16.436C39.3824 17.007 38.996 17.3128 38.8101 17.3536C38.6241 17.3944 38.4802 17.1823 38.3783 16.7174ZM48.5661 20.59C48.1755 20.6719 47.9241 20.7045 47.8117 20.6879C47.7177 20.6523 47.5664 20.5431 47.3576 20.3603C47.0562 20.2165 46.8008 20.0345 46.5914 19.8143C46.4006 19.5938 46.2563 19.3631 46.1585 19.1222C46.0791 18.8623 46.0471 18.6482 46.0627 18.4799C46.1066 17.8256 46.2523 17.1228 46.4998 16.3714C46.7473 15.6201 47.0513 14.8957 47.4118 14.1982C47.7724 13.5008 48.1628 12.9055 48.5831 12.4123C49.0217 11.9001 49.4449 11.5656 49.8528 11.4087C50.2233 11.2525 50.5768 11.1899 50.9135 11.2211C51.2501 11.2522 51.496 11.425 51.6512 11.7395C51.9411 12.2756 51.8822 12.6221 51.4743 12.779C51.4183 12.78 51.3535 12.8092 51.2799 12.8666C51.206 12.9053 51.1697 12.962 51.171 13.0366C51.2464 13.0726 51.4519 13.0781 51.7875 13.0532C52.1227 13.0097 52.4576 12.9475 52.7922 12.8667C53.1451 12.7668 53.3766 12.6692 53.4869 12.5738C53.5978 12.5157 53.6813 12.4862 53.7373 12.4851C53.7933 12.4841 53.9336 12.5002 54.1583 12.5334C54.4773 12.6208 54.638 12.7299 54.6404 12.8605C54.6418 12.9352 54.6711 13.0093 54.7285 13.0829C54.7855 13.1379 54.8514 13.1647 54.926 13.1633C55.057 13.1796 55.0399 13.2639 54.8747 13.4163C54.7281 13.5684 54.4706 13.7785 54.1022 14.0467C53.7517 14.2772 53.5305 14.4306 53.4386 14.507C53.365 14.5644 53.358 14.6952 53.4178 14.8995C53.5737 15.2513 53.5906 15.6617 53.4686 16.1307C53.3465 16.5997 53.122 17.08 52.795 17.5714C52.4681 18.0629 52.0659 18.5277 51.5886 18.9659C51.1296 19.3851 50.6322 19.749 50.0965 20.0577C49.5791 20.3473 49.0689 20.5247 48.5661 20.59ZM48.0674 19.367C48.142 19.3656 48.272 19.3259 48.4573 19.2478C48.6422 19.151 48.7901 19.0736 48.901 19.0156C48.9743 18.9395 49.0661 18.8538 49.1763 18.7584C49.3049 18.644 49.4064 18.5768 49.4807 18.5568C49.5553 18.5554 49.6481 18.5257 49.7591 18.4676C49.8697 18.3909 50.0257 18.248 50.2272 18.0389C50.4284 17.8111 50.693 17.4795 51.021 17.0441C51.3867 16.6266 51.6691 16.248 51.8682 15.9082C52.0669 15.5498 52.1169 15.2222 52.0181 14.9253C51.998 14.851 51.9412 14.8054 51.8475 14.7884C51.7725 14.7711 51.669 14.7264 51.537 14.6541C51.3503 14.6576 51.1722 14.6142 51.0025 14.524C50.8511 14.4148 50.6712 14.2781 50.4628 14.1139L50.0045 13.5622L49.5374 14.047C49.2443 14.3511 48.9353 14.8049 48.6104 15.4083C48.3038 15.9927 48.0442 16.595 47.8316 17.215C47.6187 17.8164 47.4968 18.2947 47.4661 18.65C47.4526 18.9303 47.5027 19.1161 47.6164 19.2073C47.7301 19.2986 47.8804 19.3518 48.0674 19.367ZM63.3284 21.2135C63.2728 21.2332 63.1416 21.2077 62.9349 21.1368C62.7279 21.0473 62.5019 20.9394 62.2569 20.8133C62.0301 20.6681 61.8503 20.5314 61.7172 20.4032C61.5644 20.2193 61.421 20.0352 61.2869 19.851C61.1712 19.6478 61.1109 19.4155 61.106 19.1542C60.9702 18.8767 60.8902 18.5888 60.866 18.2905C60.8602 17.9732 60.8452 17.6655 60.821 17.3672C60.7937 16.9009 60.8876 16.4231 61.1026 15.9337C61.3172 15.4257 61.4876 15.0492 61.6138 14.8041C61.7023 14.5411 61.8827 14.2017 62.1551 13.7859C62.4458 13.3512 62.802 12.9245 63.2236 12.506C63.6453 12.0875 64.0874 11.7619 64.5498 11.5293C64.8457 11.3745 65.1421 11.2477 65.439 11.1489C65.7542 11.031 66.1185 11.043 66.5318 11.1847C66.7381 11.2369 66.8888 11.3088 66.9839 11.4004C67.0789 11.492 67.1833 11.5834 67.297 11.6747C67.4442 11.5599 67.5605 11.2871 67.6459 10.8561C67.7496 10.4061 67.8057 9.90096 67.814 9.34071C67.8406 8.76145 67.8025 8.21139 67.6995 7.69054C67.6148 7.15068 67.4483 6.72435 67.1998 6.41155C66.7405 5.80392 66.2385 5.41179 65.6938 5.23515C65.1491 5.05851 64.5343 5.12588 63.8492 5.43724C63.6236 5.34806 63.415 5.17455 63.2235 4.91671C63.0507 4.65852 62.9992 4.39809 63.0691 4.13543C63.216 4.00202 63.4002 3.86793 63.6217 3.73315C63.8433 3.59837 64.0657 3.51025 64.289 3.46879C64.5492 3.40797 64.8098 3.36582 65.0708 3.34233C65.3504 3.3185 65.641 3.38781 65.9428 3.55027C66.9191 3.84963 67.6553 4.28411 68.1512 4.85372C68.6654 5.40431 69.0233 6.07916 69.2248 6.87824C69.4262 7.67732 69.5553 8.5991 69.6119 9.64356C69.6547 9.94149 69.6691 10.2119 69.6549 10.4549C69.659 10.6789 69.6381 11.062 69.5921 11.6043C69.4099 11.8503 69.3406 12.141 69.3841 12.4763C69.446 12.7925 69.4142 13.0918 69.2887 13.3742C69.2759 13.6918 69.2061 13.9545 69.0792 14.1622C68.9524 14.3699 68.8907 14.5671 68.8941 14.7537C68.5754 15.6931 68.135 16.616 67.573 17.5226C67.0296 18.4287 66.4001 19.2152 65.6842 19.8818C64.9684 20.5485 64.1832 20.9924 63.3284 21.2135ZM63.1269 19.397C63.3149 19.4682 63.5934 19.3883 63.9626 19.1575C64.3314 18.908 64.7081 18.5836 65.0928 18.1845C65.4772 17.7666 65.7965 17.3687 66.0509 16.9906C66.1418 16.8582 66.2592 16.6413 66.403 16.34C66.5654 16.0382 66.7094 15.7462 66.8349 15.4638C66.979 15.1811 67.0597 15.0023 67.077 14.9273C67.2364 14.4576 67.3216 14.0173 67.3327 13.6063C67.3621 13.1764 67.3102 12.8973 67.1772 12.769C66.9674 12.5302 66.6304 12.4804 66.1662 12.6197C65.7207 12.7586 65.2954 12.9812 64.8904 13.2874C64.5959 13.5168 64.3308 13.8204 64.095 14.1982C63.8776 14.5569 63.6504 14.8879 63.4132 15.191C63.4343 15.3213 63.3991 15.4339 63.3075 15.529C63.2345 15.6237 63.1523 15.7185 63.0607 15.8136C62.8267 16.2846 62.6761 16.7262 62.6091 17.1381C62.5416 17.5314 62.5088 17.7748 62.5105 17.8681C62.516 18.1667 62.5684 18.4738 62.6676 18.7893C62.7667 19.1049 62.9198 19.3074 63.1269 19.397ZM72.47 21.0447C72.2277 21.0679 72.0314 21.0528 71.881 20.9996C71.7303 20.9277 71.5418 20.8285 71.3154 20.702C70.899 20.3923 70.5852 20.0807 70.374 19.7672C70.1812 19.4347 70.0912 19.1097 70.104 18.792C70.1382 18.6234 70.1354 18.4741 70.0957 18.3441C70.0746 18.2138 70.0641 18.1487 70.0641 18.1487C69.9504 18.0574 69.912 18.0021 69.949 17.9828C69.9856 17.9447 70.0126 17.8882 70.0299 17.8132C70.1785 17.7732 70.1953 17.6702 70.0802 17.5043C70.0214 17.356 70.0432 17.0195 70.1456 16.4949C70.2662 15.9512 70.4249 15.4442 70.6216 14.9738C70.7111 14.7668 70.8367 14.4938 70.9985 14.1547C71.1789 13.8153 71.378 13.4756 71.5958 13.1355C71.8132 12.7768 72.0133 12.493 72.1962 12.2843C72.5982 11.8101 72.9557 11.4581 73.2689 11.2283C73.6003 10.9795 73.97 10.7766 74.3778 10.6197C74.7483 10.4635 75.0174 10.3746 75.185 10.3528C75.3526 10.331 75.588 10.4387 75.8911 10.6758C76.3414 10.7982 76.6808 10.9786 76.9093 11.2171C77.156 11.4366 77.3492 11.7877 77.4888 12.2706C77.6481 12.8091 77.7067 13.4521 77.6645 14.1997C77.6406 14.9282 77.3407 15.8766 76.7648 17.0448C76.4237 17.7792 76.0792 18.3363 75.7315 18.7161C75.4025 19.0956 74.9991 19.4951 74.5215 19.9147C74.1724 20.2198 73.8501 20.4592 73.5545 20.6326C73.259 20.8061 72.8975 20.9435 72.47 21.0447ZM74.6481 17.6719C75.011 17.1052 75.2908 16.5866 75.4875 16.1162C75.7025 15.6268 75.8686 15.017 75.9858 14.2867C76.0193 14.0807 76.024 13.8286 75.9998 13.5303C75.9753 13.2133 75.9233 12.9249 75.8438 12.665C75.783 12.4048 75.6964 12.2663 75.5841 12.2497C75.3398 12.1609 75.0691 12.1659 74.7723 12.2647C74.475 12.3449 74.1525 12.5749 73.8048 12.9547C73.4944 13.3338 73.2129 13.7591 72.9602 14.2305C72.7262 14.7016 72.5117 15.219 72.3168 15.7827C72.1218 16.3464 71.9369 16.9472 71.762 17.5852C71.5884 18.2979 71.6078 18.8389 71.82 19.2084C72.0508 19.5776 72.4165 19.6642 72.9169 19.4682C73.4171 19.2536 73.9941 18.6549 74.6481 17.6719ZM84.1893 28.2496C84.0383 28.159 83.8695 28.1155 83.6828 28.1189C83.4962 28.1224 83.3275 28.0881 83.1769 28.0162C82.9131 27.8904 82.6111 27.7093 82.2707 27.4729C81.9489 27.2361 81.7388 26.9786 81.6403 26.7004C81.6209 26.6634 81.6107 26.6169 81.6097 26.5609C81.609 26.5236 81.5992 26.4958 81.5802 26.4775C81.5605 26.4218 81.5221 26.3665 81.4651 26.3116C81.4084 26.2753 81.3702 26.2293 81.3505 26.1736C81.3111 26.0624 81.2902 25.9414 81.2878 25.8107C81.2671 25.6991 81.2557 25.5873 81.2536 25.4753C81.2329 25.3637 81.1935 25.2524 81.1354 25.1414C81.2077 25.0094 81.2706 24.8776 81.3242 24.7459C81.3591 24.6146 81.4126 24.4829 81.4849 24.3509C81.5779 24.3305 81.6708 24.3101 81.7638 24.2897C81.8385 24.2883 81.9129 24.2776 81.9873 24.2576C82.2109 24.2348 82.3443 24.3817 82.3875 24.6983C82.4493 25.0145 82.5303 25.3584 82.6305 25.7299C82.7104 26.0085 82.8363 26.2582 83.0084 26.4791C83.1992 26.6996 83.5001 26.8154 83.911 26.8265C84.3779 26.8365 84.7764 26.6798 85.1065 26.3563C85.4556 26.0512 85.7472 25.6631 85.9812 25.192C86.2152 24.7209 86.3934 24.2602 86.5158 23.8099C86.5517 23.7345 86.5783 23.6594 86.5956 23.5844C86.6129 23.5094 86.6302 23.4344 86.6475 23.3594C86.6838 23.3027 86.7105 23.2369 86.7278 23.1619C86.7247 22.9939 86.7584 22.7972 86.829 22.5719C86.9185 22.3649 86.9709 22.1679 86.9861 21.9809C87.0172 21.6443 87.0666 21.2886 87.1344 20.914C87.2022 20.5393 87.1676 20.1852 87.0308 19.8517C87.0308 19.8517 87.0201 19.7772 86.9986 19.6282C86.9772 19.4793 86.9556 19.321 86.9339 19.1534C86.9121 18.9857 86.901 18.8926 86.9007 18.8739C86.7669 18.7084 86.6517 18.5331 86.5549 18.3482C86.4765 18.1443 86.3611 17.9597 86.2086 17.7945C86.2062 17.6639 86.1947 17.5427 86.1739 17.4311C86.1719 17.3191 86.1696 17.1978 86.1672 17.0672C86.2225 17.0288 86.2683 16.9813 86.3046 16.9246C86.3409 16.8679 86.3962 16.8296 86.4705 16.8095C87.0266 16.5939 87.5535 16.3134 88.0512 15.9682C88.5486 15.6043 88.9796 15.1856 89.3443 14.7121C89.7089 14.2386 89.9699 13.711 90.1272 13.1294C90.1794 12.923 90.2129 12.7171 90.2278 12.5114C90.2427 12.3058 90.2202 12.1008 90.1604 11.8966C90.009 11.7873 89.8499 11.7623 89.6829 11.8214C88.9775 12.0398 88.4506 12.3202 88.1022 12.6627C87.7725 13.0048 87.4901 13.3834 87.255 13.7985C87.0197 14.1949 86.7005 14.6022 86.2974 15.0204C86.1644 14.8922 86.0327 14.8386 85.9024 14.8597C85.7904 14.8617 85.6682 14.8173 85.5359 14.7264C85.4789 14.6715 85.4122 14.598 85.3358 14.5061C85.2777 14.3951 85.2003 14.2472 85.1035 14.0623C85.2681 13.8726 85.3763 13.6652 85.4281 13.4402C85.4983 13.1962 85.5971 12.989 85.7247 12.8186C86.0168 12.4585 86.2813 12.1269 86.5185 11.8238C86.7556 11.5207 87.077 11.2347 87.4828 10.9658C87.9069 10.678 88.351 10.4644 88.8152 10.3251C89.298 10.1855 89.7736 10.1581 90.2419 10.2428C90.7102 10.3275 91.1165 10.5907 91.4607 11.0324C91.8042 11.4368 91.981 11.9096 91.991 12.4509C92.0193 12.9731 91.9358 13.5067 91.7405 14.0517C91.5452 14.5968 91.2745 15.1059 90.9285 15.579C90.5642 16.0711 90.1515 16.4708 89.6905 16.7781C89.2481 17.085 88.7877 17.4295 88.3093 17.8117C88.4493 18.3132 88.5894 18.8241 88.7297 19.3442C88.8696 19.8457 88.9259 20.3675 88.8986 20.9094C88.8547 21.5636 88.7824 22.1998 88.6818 22.8177C88.5999 23.4353 88.4612 24.0167 88.2659 24.5617C88.071 25.1254 87.81 25.653 87.483 26.1444C87.156 26.6359 86.7257 27.0919 86.1921 27.5125C85.8979 27.7606 85.5651 27.9348 85.1935 28.035C84.8407 28.1349 84.5059 28.2064 84.1893 28.2496ZM92.592 19.833C92.5146 19.6851 92.4192 19.5748 92.3058 19.5022C92.1921 19.411 92.1346 19.328 92.1332 19.2534C92.1318 19.1787 92.1211 19.1042 92.1011 19.0299C92.0994 18.9366 92.0605 18.8533 91.9845 18.78C91.8891 18.6698 91.8937 18.4177 91.9985 18.0237C92.1029 17.611 92.2804 17.113 92.531 16.5296C92.7813 15.9275 93.0777 15.2966 93.4202 14.6368C93.5667 14.4848 93.7124 14.286 93.8573 14.0407C94.0021 13.7953 94.1111 13.6346 94.1844 13.5585C94.183 13.4839 94.2098 13.418 94.2648 13.361C94.3194 13.2853 94.384 13.2468 94.4587 13.2454L94.4556 13.0775C94.4539 12.9841 94.5349 12.8239 94.6988 12.5969C94.8813 12.3695 95.1007 12.1227 95.3572 11.8566C95.6133 11.5718 95.8791 11.3055 96.1546 11.0577C96.4297 10.7913 96.6596 10.6003 96.8441 10.4849C97.2312 10.2164 97.6296 10.0503 98.0391 9.98676C98.4674 9.92284 98.833 10.0094 99.1361 10.2466C99.1931 10.3015 99.2882 10.3931 99.4212 10.5213C99.5543 10.6496 99.7064 10.7961 99.8774 10.961C100.067 11.1068 100.256 11.262 100.446 11.4266L101.499 12.3313L101.021 13.7403C100.792 14.4914 100.739 15.1458 100.861 15.7036C101.002 16.2611 101.198 16.7429 101.448 17.149C101.545 17.3526 101.735 17.5451 102.019 17.7266C102.321 17.9077 102.603 18.0145 102.865 18.047C103.014 18.0629 103.155 18.1163 103.288 18.2073C103.42 18.2982 103.488 18.4463 103.492 18.6516C103.495 18.8382 103.461 18.9882 103.388 19.1016C103.316 19.2149 103.186 19.292 103.001 19.3328C102.386 19.4188 101.805 19.2802 101.257 18.9169C100.727 18.5533 100.23 17.9463 99.7667 17.0961C99.69 16.9855 99.5835 16.7821 99.4474 16.4859C99.3295 16.1707 99.2604 15.9666 99.24 15.8736C99.1671 15.9683 99.0304 16.1482 98.8299 16.4133C98.6291 16.6597 98.4737 16.8399 98.3638 16.954C97.0635 18.3222 95.9324 19.2486 94.9706 19.7331C94.027 20.1986 93.2341 20.2319 92.592 19.833ZM93.5709 18.2467C93.5733 18.3773 93.7693 18.3737 94.1588 18.2358C94.5666 18.0789 95.0004 17.8095 95.4601 17.4276C96.0846 16.8747 96.7082 16.2657 97.3307 15.6008C97.9718 14.9355 98.4832 14.3193 98.8648 13.7522L99.4621 12.733C99.2675 12.3071 99.0569 12.0217 98.8302 11.8765C98.6218 11.7123 98.4429 11.6316 98.2936 11.6343C98.051 11.6388 97.6912 11.8695 97.2142 12.3264C96.7559 12.7829 96.263 13.3895 95.7355 14.146C95.2081 14.9025 94.71 15.7332 94.2413 16.638C94.0615 17.0147 93.9003 17.3818 93.7575 17.7391C93.6331 18.0775 93.5709 18.2467 93.5709 18.2467ZM104.631 20.3948C104.406 20.343 104.227 20.2249 104.092 20.0407C103.977 19.8561 103.834 19.6908 103.663 19.5446C103.677 19.2829 103.726 18.9273 103.812 18.4776C103.915 18.0276 104.038 17.5866 104.179 17.1546C104.32 16.7039 104.454 16.3654 104.58 16.139C104.628 15.6714 104.732 15.2214 104.892 14.7891C105.07 14.3564 105.221 13.9055 105.343 13.4365C105.43 13.0988 105.517 12.7612 105.604 12.4235C105.71 12.0855 105.797 11.7478 105.865 11.4105C105.901 11.3165 105.909 11.2323 105.889 11.158C105.887 11.0647 105.904 10.9804 105.94 10.905C106.013 10.7917 106.095 10.6968 106.187 10.6204C106.278 10.5254 106.37 10.4397 106.462 10.3633C106.688 10.4338 106.856 10.4774 106.969 10.494C107.081 10.5106 107.239 10.4796 107.443 10.4012C107.462 10.4009 107.602 10.4076 107.863 10.4214C108.143 10.4163 108.433 10.4203 108.732 10.4334C109.03 10.4279 109.217 10.4245 109.292 10.4231C109.534 10.4186 109.769 10.4609 109.994 10.5501C110.22 10.6206 110.454 10.663 110.697 10.6772C111.129 10.8559 111.507 11.101 111.83 11.4124C112.172 11.7234 112.302 12.1598 112.219 12.7214C112.187 13.0207 112.164 13.3199 112.151 13.6188C112.156 13.8988 112.087 14.1801 111.943 14.4628C111.929 14.7431 111.86 15.0338 111.735 15.3348C111.628 15.6168 111.512 15.9083 111.387 16.2094C111.262 16.5104 111.165 16.8296 111.097 17.1669C111.08 17.2979 111.036 17.4201 110.963 17.5334C110.909 17.6464 110.874 17.7778 110.859 17.9274C110.86 18.0207 110.853 18.1142 110.836 18.2079C110.837 18.2825 110.829 18.3667 110.812 18.4604C110.795 18.5354 110.759 18.62 110.705 18.7144C110.763 18.844 110.711 19.0223 110.547 19.2494C110.402 19.4761 110.197 19.5172 109.933 19.3728C109.895 19.3361 109.848 19.309 109.792 19.2914C109.735 19.2551 109.688 19.2279 109.65 19.21C109.442 19.0644 109.326 18.8425 109.302 18.5443C109.277 18.2273 109.29 17.9097 109.34 17.5914C109.39 17.2544 109.431 16.9736 109.465 16.749C109.501 16.7109 109.581 16.5041 109.705 16.1284C109.829 15.7527 109.961 15.3209 110.101 14.8329C110.26 14.3259 110.392 13.8754 110.496 13.4814C110.619 13.0683 110.68 12.8245 110.679 12.7499C110.659 12.6569 110.638 12.5732 110.618 12.4989C110.598 12.4246 110.569 12.3505 110.53 12.2765C110.063 12.2478 109.577 12.2194 109.072 12.1914C108.586 12.1631 108.121 12.209 107.675 12.3293C107.619 12.349 107.564 12.3873 107.509 12.4443C107.472 12.4824 107.445 12.5295 107.427 12.5859C107.324 13.0545 107.192 13.505 107.032 13.9374C106.872 14.3698 106.741 14.8203 106.637 15.2889C106.517 15.8699 106.323 16.4523 106.053 17.036C105.784 17.6011 105.627 18.1921 105.582 18.809C105.491 18.9414 105.429 19.1199 105.396 19.3445C105.363 19.5692 105.32 19.7753 105.267 19.963C105.233 20.1317 105.132 20.2455 104.965 20.3046C104.891 20.3247 104.826 20.3352 104.77 20.3363C104.714 20.3373 104.668 20.3568 104.631 20.3948ZM113.076 27.2121C112.666 27.2943 112.387 27.3088 112.236 27.2556C112.086 27.2023 111.879 27.1128 111.615 26.987C111.407 26.8415 111.247 26.7324 111.133 26.6598C111.02 26.5873 110.962 26.5136 110.961 26.439C110.96 26.383 110.977 26.3173 111.013 26.242C111.05 26.1853 111.114 26.1281 111.206 26.0704C111.318 26.031 111.467 26.0096 111.653 26.0061C111.785 26.0784 112.001 26.1117 112.299 26.1062C112.616 26.1004 112.812 26.0594 112.885 25.9834C112.885 25.9834 112.968 25.9258 113.134 25.8108C113.319 25.714 113.56 25.6349 113.858 25.5734C114.431 25.2827 114.938 24.9186 115.378 24.4811C115.818 24.0436 116.237 23.4757 116.634 22.7776C116.798 22.5132 116.969 22.202 117.149 21.8439C117.33 21.5046 117.454 21.1662 117.523 20.8289C117.665 20.4529 117.824 19.9458 117.999 19.3078C118.192 18.6695 118.358 18.041 118.496 17.4223C118.633 16.785 118.709 16.3075 118.721 15.9899C118.814 14.9427 118.974 13.9783 119.2 13.0966C119.445 12.1959 119.65 11.1933 119.817 10.0887C119.924 9.82534 120.005 9.67448 120.06 9.63612C120.115 9.57909 120.236 9.54886 120.423 9.54541C120.628 9.54162 120.778 9.55753 120.872 9.59313C120.984 9.60972 121.107 9.71946 121.242 9.92235C121.435 10.2735 121.508 10.6922 121.461 11.1785C121.432 11.6458 121.3 12.059 121.064 12.4181C120.882 12.6828 120.722 13.0965 120.583 13.6592C120.462 14.2028 120.344 14.8864 120.229 15.71C120.143 16.1224 120.049 16.6095 119.947 17.1715C119.864 17.7144 119.773 18.3229 119.673 18.9969C119.602 19.1849 119.505 19.4761 119.381 19.8704C119.257 20.2461 119.179 20.5462 119.146 20.7709C119.129 20.8459 119.075 20.9962 118.986 21.2219C118.897 21.4476 118.808 21.664 118.718 21.871C118.629 22.0967 118.566 22.2472 118.53 22.3225C117.83 23.8477 117.021 25.0202 116.103 25.8399C115.185 26.6597 114.175 27.1171 113.076 27.2121ZM115.053 19.0542C114.848 19.058 114.631 18.9499 114.403 18.7301C114.194 18.5099 114.051 18.3352 113.974 18.206C113.895 18.0207 113.799 17.8451 113.684 17.6792C113.569 17.5133 113.481 17.3096 113.42 17.068C113.379 16.826 113.392 16.5271 113.46 16.1711C113.53 15.9271 113.626 15.5799 113.749 15.1296C113.889 14.6602 114.039 14.1534 114.197 13.6091C114.373 13.0644 114.55 12.529 114.727 12.003C114.922 11.458 115.1 10.9786 115.261 10.5649C115.421 10.1325 115.564 9.82183 115.692 9.63278C115.801 9.4814 115.92 9.38585 116.05 9.34611C116.199 9.30602 116.349 9.32193 116.499 9.39382C116.65 9.44706 116.783 9.56596 116.898 9.75052C117.108 10.008 117.196 10.2304 117.162 10.4178C117.128 10.6051 116.967 10.9721 116.679 11.5189C116.608 11.7256 116.519 11.9512 116.411 12.1959C116.303 12.422 116.25 12.5723 116.251 12.647C116.233 12.6846 116.198 12.816 116.147 13.041C116.113 13.2469 116.07 13.4438 116.017 13.6314C115.965 13.8191 115.911 13.9135 115.855 13.9145C115.781 13.9905 115.701 14.2067 115.615 14.563C115.527 14.9007 115.451 15.2849 115.384 15.7155C115.317 16.1275 115.277 16.4923 115.264 16.8099C115.251 17.1089 115.282 17.2576 115.356 17.2563C115.935 17.2456 116.528 17.0106 117.136 16.5513C117.762 16.0917 118.384 15.4267 119.003 14.5565L119.516 16.5353C119.257 16.6708 119.017 16.8153 118.796 16.9687C118.574 17.1035 118.372 17.2659 118.188 17.456C118.134 17.5317 118.005 17.6368 117.802 17.7712C117.599 17.9056 117.396 18.0307 117.193 18.1465C117.008 18.2433 116.888 18.2922 116.832 18.2932C116.832 18.2932 116.804 18.3031 116.748 18.3228C116.711 18.3234 116.693 18.3611 116.694 18.4358C116.695 18.4731 116.575 18.55 116.334 18.6664C116.094 18.7642 115.843 18.8529 115.583 18.9324C115.323 19.0118 115.147 19.0524 115.053 19.0542ZM125.146 19.932C124.607 20.0353 124.112 20.0164 123.661 19.8754C123.21 19.7157 122.841 19.4518 122.554 19.0837C122.286 18.6966 122.146 18.2044 122.135 17.6072C122.069 17.0483 122.122 16.4032 122.295 15.6719C122.468 14.9219 122.725 14.1704 123.066 13.4173C123.425 12.6638 123.815 12.0125 124.234 11.4634C124.599 11.0086 124.964 10.5911 125.331 10.2109C125.697 9.83074 126.029 9.57258 126.325 9.43642C126.584 9.31962 126.825 9.24981 127.049 9.22701C127.291 9.18521 127.487 9.16292 127.636 9.16017C127.936 9.22931 128.256 9.36342 128.595 9.56252C128.953 9.7426 129.135 9.94463 129.139 10.1686C129.139 10.1686 129.158 10.1962 129.196 10.2515C129.253 10.2878 129.281 10.306 129.281 10.306C129.393 10.3039 129.489 10.4235 129.568 10.6648C129.666 10.9057 129.727 11.1846 129.751 11.5015C129.776 11.7998 129.734 12.0526 129.625 12.26C129.557 12.6159 129.432 12.9263 129.251 13.191C129.069 13.4558 128.903 13.5895 128.754 13.5923C128.679 13.5937 128.605 13.6044 128.53 13.6244C128.474 13.6254 128.447 13.6726 128.449 13.7659C128.451 13.8593 128.395 13.8976 128.283 13.881C128.189 13.8641 128.086 13.81 127.972 13.7187C127.858 13.6088 127.772 13.4797 127.713 13.3315C127.711 13.2381 127.746 13.0788 127.816 12.8535C127.887 12.6281 127.956 12.3375 128.024 11.9815C128.126 11.4568 128.111 11.1211 127.977 10.9742C127.844 10.8086 127.592 10.8039 127.221 10.9601C126.759 11.23 126.318 11.6022 125.897 12.0768C125.495 12.5509 125.124 13.1646 124.783 13.9176C124.442 14.6521 124.142 15.5724 123.882 16.6788C123.778 17.1101 123.738 17.4842 123.763 17.8012C123.806 18.1177 123.856 18.2849 123.912 18.3025C124.175 18.3723 124.53 18.3844 124.977 18.3388C125.424 18.2746 125.749 18.1845 125.952 18.0688C126.248 17.914 126.58 17.7118 126.949 17.4623C127.317 17.1941 127.64 16.9548 127.916 16.7443C128.008 16.6866 128.118 16.5912 128.247 16.4581C128.375 16.3251 128.513 16.2198 128.661 16.1424C128.806 15.9157 128.934 15.7827 129.046 15.7433C129.157 15.7039 129.325 15.6821 129.549 15.678C129.699 15.7125 129.84 15.7659 129.972 15.8382C130.104 15.9104 130.189 15.9835 130.228 16.0575C130.285 16.1311 130.258 16.1969 130.147 16.255C130.073 16.2564 130.026 16.2852 130.009 16.3416C130.01 16.3789 130.01 16.3976 130.01 16.3976C130.049 16.4715 129.968 16.6317 129.767 16.8781C129.584 17.1055 129.346 17.362 129.053 17.6475C128.759 17.9329 128.475 18.1809 128.198 18.3914C127.941 18.5828 127.756 18.6796 127.644 18.6816C127.457 18.6851 127.365 18.7428 127.367 18.8548C127.367 18.8921 127.229 18.988 126.952 19.1425C126.694 19.2966 126.388 19.4516 126.036 19.6075C125.703 19.763 125.407 19.8712 125.146 19.932ZM131.545 19.9818C131.395 19.9286 131.234 19.8195 131.063 19.6547C130.892 19.4711 130.748 19.2591 130.631 19.0185C130.515 18.778 130.455 18.5551 130.451 18.3498C130.541 18.1427 130.655 17.7859 130.795 17.2792C130.935 16.7539 131.111 16.1532 131.322 15.4772C131.468 15.2691 131.575 15.0244 131.645 14.7431C131.733 14.4614 131.812 14.2079 131.883 13.9826C132.027 13.6812 132.197 13.2953 132.393 12.825C132.59 12.3359 132.777 11.847 132.954 11.3583C133.15 10.8506 133.32 10.4274 133.463 10.0887C133.659 9.59969 133.775 9.29884 133.81 9.18617C133.845 9.05483 133.872 8.95167 133.889 8.87667C133.886 8.72736 133.921 8.60536 133.994 8.51066C134.067 8.3973 134.14 8.33993 134.215 8.33856C134.288 8.26252 134.371 8.22365 134.465 8.22192C134.576 8.20119 134.67 8.19014 134.744 8.18876C134.95 8.18497 135.129 8.32167 135.284 8.59886C135.438 8.85739 135.517 9.09864 135.521 9.3226C135.525 9.54656 135.447 9.86539 135.287 10.2791C135.145 10.6738 134.975 11.0877 134.778 11.5207C134.599 11.9534 134.447 12.3296 134.323 12.6493C134.198 12.969 134.164 13.1563 134.221 13.2113C134.221 13.2113 134.35 13.1529 134.61 13.0361C134.869 12.9006 135.145 12.7181 135.44 12.4886C135.643 12.3729 135.864 12.2288 136.104 12.0563C136.343 11.8839 136.574 11.7209 136.795 11.5675C137.016 11.3954 137.201 11.2893 137.349 11.2492C137.57 11.0957 137.801 10.9515 138.041 10.8163C138.281 10.6625 138.438 10.5476 138.511 10.4716C138.826 10.3164 139.058 10.2655 139.208 10.3187C139.377 10.3716 139.548 10.5085 139.72 10.7293C139.93 10.9682 139.971 11.1821 139.844 11.3711C139.716 11.5415 139.413 11.7805 138.933 12.0881C138.545 12.3379 138.075 12.636 137.521 12.9823C136.986 13.3282 136.506 13.6358 136.082 13.905C135.676 14.1739 135.446 14.3369 135.391 14.3939C135.391 14.3939 135.468 14.5325 135.623 14.8097C135.777 15.0869 135.931 15.3361 136.085 15.5573C136.239 15.8531 136.403 16.1301 136.576 16.3883C136.767 16.6275 136.863 16.7938 136.865 16.8871C137.022 17.2763 137.214 17.5994 137.443 17.8566C137.672 18.0951 137.927 18.249 138.208 18.3185C138.508 18.369 138.805 18.3262 139.102 18.19C139.472 18.0338 139.742 17.9822 139.911 18.035C140.099 18.0876 140.232 18.2251 140.311 18.4477C140.388 18.5957 140.409 18.7073 140.373 18.7826C140.355 18.839 140.236 18.9812 140.017 19.2093C139.669 19.5704 139.309 19.8011 138.937 19.9013C138.584 20.0012 138.257 19.9792 137.956 19.8354C137.769 19.8389 137.553 19.7682 137.308 19.6234C137.062 19.4599 136.758 19.1948 136.397 18.8281C136.054 18.461 135.625 17.9462 135.108 17.2836C135.107 17.2089 135.068 17.107 134.991 16.9777C134.932 16.8294 134.864 16.6907 134.787 16.5614C134.709 16.4135 134.613 16.2566 134.498 16.0906C134.383 15.9061 134.325 15.8138 134.325 15.8138C134.324 15.7578 134.304 15.7115 134.266 15.6749C134.247 15.6192 134.208 15.5546 134.151 15.481C134.112 15.407 134.064 15.3239 134.006 15.2316C133.706 15.1438 133.492 15.2037 133.365 15.4114C133.239 15.6192 133.102 15.8364 132.957 16.0631C132.868 16.3074 132.754 16.655 132.613 17.1056C132.49 17.5373 132.386 17.9593 132.3 18.3716C132.233 18.7836 132.219 19.0639 132.259 19.2125C132.265 19.5111 132.222 19.7173 132.131 19.831C132.039 19.926 131.844 19.9763 131.545 19.9818ZM142.316 18.9988C142.092 19.0403 141.849 19.0074 141.586 18.9003C141.322 18.7931 141.086 18.6388 140.877 18.4373C140.687 18.2354 140.561 18.023 140.501 17.8001C140.419 17.4095 140.457 16.9234 140.614 16.3418C140.79 15.7411 141.04 15.111 141.364 14.4516C141.706 13.7732 142.086 13.122 142.504 12.4982C142.94 11.8741 143.388 11.3337 143.846 10.8772C144.323 10.4016 144.765 10.0761 145.172 9.90051C145.375 9.76608 145.532 9.67916 145.643 9.63977C145.773 9.58137 145.904 9.56962 146.035 9.60454C146.185 9.63911 146.401 9.72846 146.684 9.8726C146.947 9.94243 147.144 10.0228 147.276 10.1137C147.409 10.2046 147.58 10.3881 147.791 10.6643C147.945 10.9415 148.062 11.2194 148.142 11.498C148.222 11.7765 148.293 12.0926 148.356 12.4462C148.514 12.91 148.575 13.2169 148.541 13.3669C148.506 13.4982 148.452 13.6019 148.378 13.678C148.233 13.8674 148.197 13.9614 148.272 13.96C148.272 13.96 148.263 13.9975 148.246 14.0725C148.247 14.1285 148.211 14.2225 148.139 14.3545C148.016 14.7675 147.921 15.1987 147.855 15.648C147.807 16.0783 147.823 16.4327 147.902 16.7113C148.059 17.1191 148.334 17.3567 148.728 17.4242C149.121 17.4916 149.519 17.3162 149.922 16.898C150.125 16.7449 150.318 16.6106 150.503 16.4952C150.687 16.3611 150.781 16.3687 150.783 16.518C150.783 16.518 150.812 16.5455 150.869 16.6005C150.926 16.6368 150.991 16.6542 151.066 16.6528C151.159 16.6511 151.216 16.6874 151.236 16.7617C151.275 16.8357 151.277 16.9383 151.242 17.0697C151.225 17.182 151.171 17.3137 151.081 17.4647C150.806 17.7498 150.67 17.9391 150.671 18.0324C150.671 18.0324 150.635 18.0704 150.561 18.1464C150.506 18.2034 150.405 18.2987 150.259 18.4321C149.926 18.6436 149.499 18.7541 148.976 18.7638C148.473 18.7731 148.079 18.6777 147.795 18.4776C147.511 18.2774 147.245 18.0023 146.996 17.6522C146.765 17.3017 146.61 16.9965 146.531 16.7366L146.385 16.4592L145.583 17.0061C145.382 17.2152 145.162 17.4153 144.922 17.6064C144.702 17.7972 144.555 17.9306 144.482 18.0066C144.427 18.0823 144.363 18.1489 144.289 18.2062C144.234 18.2633 144.17 18.2925 144.095 18.2938C144.02 18.2952 143.955 18.2964 143.899 18.2975C143.843 18.2985 143.815 18.299 143.815 18.299C143.816 18.3737 143.725 18.4687 143.54 18.5841C143.374 18.6992 143.171 18.7963 142.93 18.8755C142.707 18.9542 142.502 18.9954 142.316 18.9988ZM142.008 17.4922C142.12 17.4902 142.314 17.4026 142.591 17.2294C142.886 17.0373 143.209 16.8166 143.559 16.5674C143.928 16.3179 144.25 16.0693 144.525 15.8215C144.82 15.5733 145.021 15.3829 145.131 15.2502C145.204 15.1742 145.323 15.0506 145.488 14.8795C145.653 14.6898 145.799 14.5284 145.927 14.3953C146.348 13.9022 146.636 13.3647 146.794 12.7831C146.951 12.1827 146.923 11.7165 146.712 11.3843C146.633 11.1804 146.538 11.0702 146.426 11.0536C146.313 11.037 146.081 11.1066 145.729 11.2625C145.508 11.3972 145.233 11.6544 144.904 12.0338C144.593 12.3943 144.255 12.8206 143.891 13.3128C143.545 13.7859 143.218 14.2773 142.91 14.7871C142.602 15.2969 142.349 15.7683 142.152 16.2014C141.955 16.6344 141.858 16.9722 141.863 17.2149C141.864 17.2895 141.884 17.3545 141.922 17.4098C141.979 17.4648 142.008 17.4922 142.008 17.4922Z" fill="#2F94F9"/>
<path d="M174.481 35.0574C172.864 33.5904 171.245 32.1274 169.605 30.6881C169.418 30.526 169.231 30.3593 169.04 30.2016C168.985 30.1553 168.927 30.1098 168.876 30.0623C168.701 29.9442 168.556 29.7618 168.483 29.5031C168.415 29.2632 168.463 28.9361 168.599 28.7271C168.793 28.4321 169.138 28.1995 169.508 28.2326C170.023 28.2746 170.363 28.6434 170.73 28.9573C171.18 29.3457 171.626 29.7416 172.07 30.1398C172.594 30.6062 173.116 31.0782 173.636 31.5474C172.785 25.0993 169.462 18.3627 163.208 15.5682C161.176 14.6614 158.892 14.2692 156.649 14.2555C155.326 14.2478 155.378 12.2072 156.704 12.2141C161.074 12.2323 165.241 13.6967 168.502 16.5984C171.464 19.238 173.45 22.829 174.631 26.5691C175.036 27.8508 175.336 29.16 175.55 30.4858C175.939 28.955 176.161 27.3891 176.253 25.807C176.327 24.4995 178.385 24.5377 178.308 25.8542C178.182 28.075 177.824 30.3064 177.124 32.4233C176.853 33.2512 176.542 34.1058 176.103 34.867C175.759 35.4695 174.958 35.4854 174.484 35.0562L174.481 35.0574ZM169.449 30.2702C169.47 30.2564 169.495 30.2454 169.516 30.2316C169.473 30.234 169.427 30.2372 169.384 30.2313C169.45 30.2533 169.484 30.2697 169.448 30.267L169.449 30.2702ZM168.968 30.1213L168.958 30.1154C168.958 30.1154 168.959 30.1201 168.965 30.1221L168.968 30.1213Z" fill="#2F94F9"/>
</svg>
