<svg width="104" height="61" viewBox="0 0 104 61" fill="none" xmlns="http://www.w3.org/2000/svg">
<path d="M86.0221 7.65291C85.6999 7.70297 85.4529 7.87115 85.2811 8.15746C85.0921 8.42373 85.0319 8.71864 85.1006 9.04221C85.1278 9.17536 85.1728 9.31925 85.2358 9.47387C85.2816 9.60846 85.326 9.76165 85.3689 9.93346C85.4805 10.1854 85.6193 10.5706 85.7853 11.0889C85.9528 11.5886 86.136 12.1269 86.3349 12.7039C86.5166 13.2608 86.684 13.7605 86.8372 14.2029C86.9903 14.6453 87.0991 14.9345 87.1635 15.0705C87.3209 15.4571 87.4876 15.8444 87.6637 16.2324C87.8397 16.6204 88.0251 17.0091 88.2197 17.3986C88.4759 17.9613 88.7507 18.5254 89.0441 19.0909C89.3375 19.6565 89.6402 20.2227 89.9523 20.7897C90.0496 20.9845 90.2314 21.298 90.4976 21.7304C90.7466 22.1428 91.005 22.5558 91.2727 22.9696C91.5418 23.3648 91.7443 23.6519 91.8803 23.8309C92.1766 24.3592 92.5215 24.8632 92.9152 25.3429C93.2916 25.8025 93.6774 26.2628 94.0725 26.7239C94.2085 26.9028 94.3537 27.0825 94.5083 27.263C94.6629 27.4434 94.8175 27.6238 94.9721 27.8042C95.1067 28.0018 95.2605 28.1915 95.4337 28.3733C95.6699 28.7098 95.9827 28.7807 96.3722 28.5861C96.5669 28.4888 96.7251 28.3793 96.8468 28.2576C96.9685 28.1359 97.0001 27.9698 96.9414 27.7594C96.9271 27.7021 96.8169 27.5532 96.6107 27.3126C96.406 27.0535 96.1756 26.7643 95.9194 26.445C95.6445 26.1242 95.3955 25.8336 95.1722 25.573C94.9317 25.2923 94.7678 25.1112 94.6805 25.0296C94.4428 24.7117 94.1959 24.3931 93.9397 24.0738C93.6849 23.7359 93.4509 23.3715 93.2376 22.9807C93.713 22.6428 94.0996 22.242 94.3974 21.7782C94.6767 21.313 94.9108 20.8255 95.0999 20.3159C95.15 20.1512 95.218 19.9973 95.304 19.8542C95.3713 19.7096 95.4021 19.5528 95.3964 19.3839L96.0603 16.9638C96.0159 16.8106 96.0181 16.661 96.0668 16.5149C96.1155 16.3689 96.1549 16.2222 96.185 16.0747L96.6431 11.2236C96.6388 11.2794 96.6438 11.2143 96.6582 11.0281C96.6553 10.822 96.6561 10.5693 96.6604 10.2701C96.6662 9.95225 96.6705 9.65303 96.6734 9.37242C96.6577 9.09038 96.6449 8.89281 96.6348 8.77971C96.6248 8.66661 96.6356 8.52702 96.6671 8.36095C96.68 8.19345 96.6629 8.05171 96.6156 7.93574C96.5512 7.79972 96.4353 7.72526 96.2678 7.71235C96.0101 7.65504 95.7631 7.70154 95.5269 7.85183C95.2906 8.00212 95.1088 8.17533 94.9813 8.37145C94.8353 8.56613 94.7952 8.72218 94.861 8.83959C94.9569 9.05292 94.9869 9.27054 94.9511 9.49244C94.9153 9.71434 94.9081 9.92909 94.9295 10.1367C94.9367 10.287 94.9331 10.5769 94.9187 11.0064C94.9057 11.4173 94.8885 11.884 94.8669 12.4066C94.8468 12.9105 94.8181 13.4045 94.7808 13.8884C94.745 14.3536 94.7077 14.7158 94.669 14.975C94.6991 14.8275 94.6962 14.8647 94.6604 15.0866C94.626 15.2899 94.5766 15.567 94.5121 15.9177C94.4476 16.2685 94.3846 16.6006 94.323 16.9141C94.2614 17.2276 94.2184 17.4209 94.194 17.4939C94.1754 17.7359 94.1031 18.0673 93.977 18.4882C93.8524 18.8905 93.6977 19.3185 93.513 19.7723C93.3282 20.2261 93.1463 20.6427 92.9673 21.0221C92.7883 21.4015 92.6344 21.6985 92.5055 21.9132L92.1512 21.4085C92.0038 21.1351 91.8449 20.8888 91.6746 20.6697C91.5057 20.432 91.3754 20.1786 91.2838 19.9094C91.1608 19.563 91.0083 19.2329 90.8266 18.9194C90.6448 18.6058 90.4823 18.2844 90.3392 17.9551C90.1975 17.6072 90.0358 17.2764 89.854 16.9629C89.6737 16.6307 89.5212 16.3007 89.3967 15.9728L87.8468 12.3991C87.7065 11.7892 87.527 11.0827 87.308 10.2795C87.0705 9.47485 86.9317 8.72464 86.8917 8.02884C86.8517 7.81981 86.7386 7.70813 86.5525 7.69378C86.4594 7.68661 86.3671 7.67013 86.2755 7.64435C86.1838 7.61857 86.0994 7.62142 86.0221 7.65291ZM73.3121 17.0079C73.3121 17.0079 73.4072 17.1089 73.5976 17.3108C73.7894 17.4941 74.0242 17.7275 74.3019 18.011C74.581 18.2759 74.8595 18.5501 75.1372 18.8336C75.3977 19.097 75.6232 19.3297 75.8135 19.5316C75.9867 19.7135 76.0733 19.8044 76.0733 19.8044L78.0101 21.6386C77.9915 21.8806 77.9392 22.0731 77.8533 22.2163C77.7688 22.3408 77.6213 22.5541 77.4108 22.8562C77.1803 23.1754 76.9032 23.491 76.5796 23.8031C76.2374 24.1137 75.9267 24.38 75.6475 24.6018C75.3496 24.8223 75.1599 24.9762 75.0783 25.0635C74.9537 25.2224 74.963 25.3448 75.1062 25.4307C75.2493 25.5166 75.4311 25.5868 75.6516 25.6412C75.8735 25.6771 76.0389 25.7179 76.1477 25.7637C76.4684 25.7323 76.8091 25.5619 77.1699 25.2528C77.5308 24.9436 77.8665 24.595 78.1773 24.2071C78.4694 23.8177 78.6713 23.5056 78.783 23.2708C79.0694 22.9559 79.2863 22.6918 79.4338 22.4785C79.5813 22.2652 79.7474 21.9317 79.9322 21.4778C80.0338 21.6167 80.1175 21.7449 80.1834 21.8623C80.2492 21.9797 80.3279 22.173 80.4195 22.4421C80.4767 22.6712 80.5497 22.9389 80.6384 23.2453C80.7286 23.5331 80.8116 23.7923 80.8874 24.0228C80.9461 24.2332 80.9568 24.337 80.9196 24.3342C80.8609 24.6105 80.8551 24.8066 80.9023 24.9226C80.9496 25.0385 81.0505 25.1867 81.2051 25.3671L81.9567 25.4532C82.329 25.2385 82.5609 25.0223 82.6526 24.8047C82.7457 24.5685 82.8008 24.3387 82.818 24.1154C82.6606 23.7288 82.5039 23.3329 82.3479 22.9277C82.1747 22.5025 82.0588 22.063 82.0002 21.6091C82.1119 21.6177 82.2221 21.645 82.3309 21.6908C82.4411 21.718 82.5972 21.7581 82.799 21.8111C83.0567 22.1118 83.2986 22.3738 83.5248 22.5972C83.7338 22.8005 83.9771 23.0439 84.2548 23.3275C84.5139 23.6095 84.8668 24.0112 85.3134 24.5324C85.5896 24.8345 85.8652 25.1459 86.14 25.4666C86.4149 25.7874 86.6596 26.1339 86.8743 26.5061C87.0418 26.7624 87.4305 26.8205 88.0404 26.6802L88.7277 25.7784C88.7392 25.6295 88.712 25.4964 88.6462 25.3789C88.5803 25.2615 88.4851 25.1606 88.3606 25.0761C88.2905 25.0145 88.1251 24.852 87.8646 24.5886C87.6055 24.3065 87.3206 23.9943 87.01 23.6521C86.6808 23.3085 86.4124 23.0257 86.2048 22.8037C86.1533 22.7436 86.0316 22.6219 85.8398 22.4386C85.6308 22.2353 85.4304 22.042 85.2386 21.8587C85.0282 21.674 84.9136 21.5809 84.895 21.5795C84.7576 21.4191 84.5229 21.1857 84.1907 20.8793C83.8586 20.5729 83.6067 20.3194 83.4349 20.119C83.644 19.8355 83.8645 19.5249 84.0965 19.187C84.3113 18.8292 84.5612 18.5021 84.8461 18.2057C85.0552 17.9223 85.265 17.6296 85.4755 17.3275C85.6673 17.024 85.8786 16.7127 86.1091 16.3934C86.0361 16.1257 85.8701 15.9725 85.611 15.9338C85.3518 15.8951 85.087 15.9309 84.8164 16.0411C84.3381 16.4161 83.9529 16.92 83.6608 17.5527C83.3472 17.9779 83.0866 18.3229 82.879 18.5877C82.6728 18.8339 82.4766 19.0716 82.2904 19.3006C82.1043 19.5296 81.8852 19.8217 81.6332 20.1767C81.5502 19.5525 81.4587 18.9182 81.3586 18.274C81.2584 17.6297 81.1862 17.1093 81.1419 16.7127C81.1161 16.5609 81.0997 16.4099 81.0926 16.2596C81.0668 16.1078 81.079 15.9496 81.1291 15.785C81.1549 15.6934 81.1614 15.6096 81.1485 15.5337C81.1184 15.4378 81.0963 15.3612 81.082 15.3039C81.0548 15.1708 80.9868 15.0813 80.878 15.0355C80.7692 14.9896 80.6461 15.0082 80.5086 15.0912C80.2151 15.2559 79.9366 15.4684 79.6731 15.7289C79.3911 15.988 79.2836 16.2887 79.3509 16.6308C79.3495 16.6495 79.3802 16.8578 79.4431 17.2558C79.5075 17.6352 79.5762 18.0804 79.6491 18.5916C79.7235 19.0841 79.7929 19.52 79.8572 19.8994C79.9216 20.2788 79.9531 20.4778 79.9516 20.4964L79.6682 20.5308C79.3146 20.2601 78.9524 19.9795 78.5816 19.6888C78.2123 19.3795 77.9317 19.1332 77.7399 18.9499C77.4937 18.7437 77.1888 18.4488 76.8252 18.065C76.4616 17.6813 76.1081 17.2889 75.7645 16.888C75.421 16.4871 75.1547 16.1764 74.9658 15.9559C74.8098 15.7941 74.7053 15.6924 74.6523 15.6509C74.5821 15.5893 74.4461 15.5321 74.2443 15.4791C74.0295 15.5936 73.8205 15.7553 73.6172 15.9643C73.3966 16.1532 73.2599 16.3487 73.2069 16.5505C73.1739 16.7352 73.209 16.8877 73.3121 17.0079ZM67.9579 24.1216C68.3229 24.4867 68.7639 24.7173 69.2807 24.8133C69.7789 24.9078 70.2778 24.8714 70.7775 24.7039C71.2786 24.5179 71.7046 24.2137 72.0554 23.7914C72.4033 23.4064 72.6439 22.9569 72.7771 22.4429C72.9118 21.9103 72.9749 21.2131 72.9664 20.3513C72.9665 19.6211 72.7898 18.8773 72.4363 18.1199C72.0842 17.3439 71.6419 16.6452 71.1094 16.0238C70.5583 15.4009 70.0029 14.9556 69.4432 14.6878C69.1783 14.4802 68.9522 14.3785 68.7646 14.3828C68.5599 14.367 68.2514 14.3619 67.839 14.3676C67.4067 14.3904 67.0838 14.4498 66.8705 14.5457C66.6385 14.6402 66.4503 14.7754 66.3056 14.9515C66.005 15.2092 65.7973 15.474 65.6827 15.746C65.5696 15.9994 65.503 16.2564 65.4829 16.5169C65.5258 16.9321 65.7663 17.4561 66.2043 18.089C66.6251 18.7018 67.2027 19.2237 67.9371 19.6548C68.3365 19.8166 68.7789 19.9069 69.2642 19.9255C69.7495 19.9442 70.159 19.8541 70.4926 19.6551C70.8577 19.5335 71.0882 19.5793 71.1841 19.7927C71.2814 19.9874 71.3479 20.4606 71.3836 21.2122C71.4035 21.9252 71.3075 22.442 71.0956 22.7626C70.8851 23.0647 70.6195 23.2315 70.2988 23.2629C69.9208 23.3087 69.6281 23.3423 69.4205 23.3637C69.1957 23.3651 68.9323 23.2606 68.6302 23.0501C68.3468 22.841 68.1686 22.7243 68.0956 22.6999C68.024 22.657 67.971 22.6155 67.9367 22.5754C67.8851 22.5152 67.7735 22.3849 67.6017 22.1845C67.4815 22.0442 67.3863 21.9432 67.3161 21.8816C67.2474 21.8014 67.1665 21.7578 67.0735 21.7506C66.9804 21.7434 66.8931 21.7835 66.8115 21.8708C66.7313 21.9395 66.6525 21.9896 66.5752 22.0211C66.3891 22.0068 66.3433 22.1156 66.4377 22.3475C66.5136 22.578 66.6882 22.863 66.9616 23.2023C67.2364 23.523 67.5685 23.8295 67.9579 24.1216ZM68.4419 18.2053C68.2444 18.0964 68.0404 17.9497 67.83 17.7649C67.621 17.5616 67.4499 17.3519 67.3168 17.1357C67.1665 16.8994 67.0971 16.7068 67.1086 16.5579C67.1287 16.2974 67.2661 16.0927 67.521 15.9438C67.7773 15.7764 68.1424 15.7764 68.6162 15.944C68.8166 16.0156 69.0385 16.1731 69.2819 16.4165C69.5267 16.6413 69.76 16.8933 69.9818 17.1725C70.1851 17.4503 70.3533 17.6973 70.4864 17.9135C70.6009 18.1283 70.6381 18.2528 70.598 18.2872C70.535 18.3759 70.3711 18.4382 70.1062 18.4739C69.8428 18.4911 69.5536 18.4782 69.2386 18.4352C68.9051 18.3907 68.6395 18.3141 68.4419 18.2053ZM55.7495 23.5177C56.1589 23.5493 56.4675 23.5543 56.6751 23.5329C56.8827 23.5114 57.0452 23.4678 57.1626 23.4019C57.28 23.3361 57.4181 23.2438 57.5771 23.125C57.663 22.9818 57.7682 22.8308 57.8928 22.6719C58.0174 22.513 58.1198 22.3992 58.2 22.3305C58.2959 22.0571 58.3611 21.697 58.3955 21.2503C58.4114 20.8022 58.3928 20.314 58.3399 19.7857C58.2684 19.256 58.1568 18.7606 58.0051 18.2996C57.9421 18.145 57.8885 17.9911 57.8441 17.8379C57.7998 17.6847 57.7776 17.6081 57.7776 17.6081C57.7848 17.515 57.6903 17.2831 57.4942 16.9122C57.2795 16.54 57.0476 16.1477 56.7986 15.7353C56.5309 15.3215 56.3105 15.0237 56.1373 14.8419C56.0185 14.6829 55.8352 14.5097 55.5876 14.3221C55.3213 14.1331 55.0887 13.9934 54.8897 13.9032C54.6907 13.813 54.491 13.7321 54.2906 13.6605C54.0716 13.5874 53.8225 13.5401 53.5433 13.5186C53.2827 13.4985 53.0365 13.5357 52.8045 13.6302C52.5726 13.7246 52.3435 13.9036 52.1173 14.167C51.7564 14.4762 51.5445 14.7968 51.4815 15.129C51.4012 15.441 51.3854 15.7675 51.4341 16.1082C51.4984 16.4876 51.5972 16.7854 51.7303 17.0016C51.8649 17.1992 52.0259 17.2959 52.2134 17.2916C52.401 17.2873 52.6258 17.1642 52.8878 16.9223C52.9737 16.7792 53.0203 16.6611 53.0275 16.568C53.0361 16.4563 53.011 16.2953 52.9524 16.0848C52.898 15.8185 52.9188 15.5486 53.0148 15.2752C53.1107 15.0018 53.2424 14.8715 53.41 14.8844C53.6519 14.9031 53.9132 15.0355 54.1937 15.2818C54.4571 15.5081 54.7255 15.7908 54.9989 16.1302C55.1177 16.2891 55.2859 16.5361 55.5035 16.8712C55.7039 17.1861 55.9014 17.5384 56.096 17.9278C56.2921 18.2986 56.4517 18.6573 56.5748 19.0038C56.7322 19.6337 56.8617 20.1398 56.9633 20.5221C57.0462 20.9029 57.0877 21.0934 57.0877 21.0934C57.082 21.1678 57.0577 21.2408 57.0147 21.3124C56.9546 21.3639 56.9216 21.4269 56.9159 21.5014C56.8987 21.7247 56.7548 21.8915 56.4842 22.0017C56.2694 22.1162 56.0217 22.172 55.7411 22.1691C55.4619 22.1476 55.1248 22.028 54.7297 21.8103C54.4434 21.6385 54.1793 21.4215 53.9373 21.1595C53.6768 20.896 53.4048 20.6598 53.1214 20.4507C52.9267 20.3046 52.7771 20.1808 52.6726 20.0791C52.5495 19.976 52.4851 19.9617 52.4793 20.0361C52.4736 20.1106 52.4428 20.1457 52.387 20.1414C52.3312 20.1371 52.2689 20.0948 52.2002 20.0146C52.1 19.8571 51.9862 19.7547 51.8588 19.7075C51.7328 19.6416 51.6226 19.6144 51.5281 19.6258C51.4164 19.6172 51.3584 19.6408 51.3541 19.6967C51.3784 19.867 51.3304 20.0038 51.2102 20.1068C51.2044 20.1813 51.2245 20.2858 51.2702 20.4204C51.2989 20.5349 51.3475 20.6323 51.4162 20.7125C51.4993 20.8499 51.6274 21.0096 51.8006 21.1914C51.9552 21.3718 52.1019 21.5329 52.2407 21.6746C52.381 21.7978 52.4512 21.8594 52.4512 21.8594C52.5271 21.8465 52.6001 21.8708 52.6702 21.9324C52.7217 21.9925 52.7819 22.0627 52.8506 22.1429C52.9894 22.2846 53.1211 22.3978 53.2457 22.4823C53.3716 22.5481 53.4718 22.5839 53.5463 22.5897C53.6708 22.6742 53.7696 22.7286 53.8426 22.7529C53.897 22.7758 53.9214 22.8245 53.9156 22.899C54.0874 23.0994 54.31 23.2476 54.5834 23.3436C54.8397 23.4195 55.2284 23.4775 55.7495 23.5177ZM49.5334 23.0667C49.7295 22.9508 49.8784 22.8406 49.9801 22.7361C50.0818 22.6316 50.1312 22.4763 50.1283 22.2701C50.1126 21.9881 50.079 21.6953 50.0275 21.3918C49.9775 21.0696 49.9081 20.7554 49.8194 20.449C49.7893 20.1097 49.75 19.7696 49.7014 19.4289C49.6341 19.0867 49.5096 18.7588 49.3279 18.4453C49.0803 17.5275 48.8585 16.6399 48.6625 15.7823C48.4493 14.9046 48.1545 13.8709 47.7782 12.6812C47.7009 12.4693 47.6286 12.3139 47.5614 12.2151C47.4769 12.0963 47.4018 11.9782 47.3359 11.8608C47.323 11.7849 47.2701 11.7433 47.177 11.7362C47.0668 11.709 46.9444 11.7182 46.8098 11.764C46.6766 11.7912 46.5693 11.8485 46.4876 11.9358C46.4146 11.9114 46.3029 12.0245 46.1526 12.2751C45.9836 12.5241 45.912 12.7246 45.9378 12.8763C45.932 12.9508 45.9427 13.0546 45.9699 13.1877C45.9971 13.3209 46.0436 13.4461 46.1095 13.5635C46.1782 13.6437 46.244 13.7611 46.307 13.9158C46.3714 14.0518 46.4694 14.2372 46.6011 14.472C46.7471 15.0075 46.8715 15.457 46.9746 15.8207C47.0776 16.1844 47.205 16.5967 47.3567 17.0577C47.4726 17.2539 47.5556 17.513 47.6057 17.8351C47.6557 18.1573 47.7065 18.4701 47.758 18.7736C47.8625 19.1187 47.9598 19.4351 48.0499 19.7229C48.1215 20.0092 48.1544 20.1896 48.1486 20.264C48.2474 20.6835 48.3182 21.1009 48.3611 21.5161C48.4054 21.9126 48.4998 22.2663 48.6444 22.577C48.6415 22.8576 48.7109 23.0502 48.8526 23.1547C48.9757 23.2578 49.2026 23.2285 49.5334 23.0667ZM42.8267 22.9992C43.1274 22.9849 43.355 22.9463 43.5096 22.8833C43.6657 22.8018 43.9599 22.6278 44.3923 22.3616C44.6329 22.1555 44.9665 21.8348 45.3932 21.3997C45.8199 20.9645 46.2488 20.5014 46.6798 20.0104C47.1122 19.5008 47.473 19.0699 47.7623 18.7178L46.736 17.0941C46.4711 17.3733 46.2542 17.6374 46.0852 17.8865C45.9162 18.1356 45.7816 18.303 45.6814 18.3889C45.2046 18.9887 44.8301 19.4747 44.5581 19.8469C44.2674 20.2177 44.0104 20.5161 43.787 20.7423C43.5636 20.9685 43.3331 21.166 43.0954 21.3349C42.8391 21.5024 42.5263 21.6749 42.1569 21.8523C42.0982 21.8853 42.038 21.9368 41.9765 22.0069C41.9149 22.0771 41.8877 22.1873 41.8948 22.3376C41.9535 22.5481 42.0272 22.6848 42.1159 22.7478C42.1875 22.7908 42.4244 22.8746 42.8267 22.9992ZM47.8697 18.4172C48.0058 18.1094 47.9929 17.7901 47.8312 17.4594C47.6523 17.1086 47.4469 16.8587 47.215 16.7098C47.1506 16.5738 47.0826 16.4843 47.011 16.4413C46.9222 16.3783 46.8714 16.3089 46.8586 16.233C46.8271 16.1557 46.7419 16.0462 46.603 15.9044C46.4456 15.7612 46.306 15.6288 46.1843 15.507C45.9009 15.298 45.5831 15.0488 45.231 14.7596C44.8616 14.4503 44.5109 14.1424 44.1788 13.836C43.8467 13.5296 43.5676 13.2647 43.3414 13.0413C43.0966 12.8165 42.9485 12.674 42.8969 12.6139C42.8468 12.5351 42.776 12.4829 42.6843 12.4571C42.5755 12.4113 42.4345 12.4191 42.2613 12.4807C42.0336 12.5193 41.8776 12.6009 41.7931 12.7254C41.71 12.8313 41.6556 13.0518 41.6298 13.3868C41.5582 13.5872 41.6247 13.817 41.8294 14.0762C42.0169 14.3153 42.314 14.5909 42.7205 14.9031C42.8622 15.0076 43.0562 15.163 43.3024 15.3692C43.53 15.574 43.7304 15.7673 43.9036 15.9491C44.0282 16.0336 44.2136 16.1789 44.4598 16.3851C44.6888 16.5713 44.8899 16.7553 45.0631 16.9371C45.2049 17.0417 45.3874 17.2242 45.6107 17.4848C45.8354 17.7268 46.0645 17.9129 46.2978 18.0433C46.8503 18.6475 47.2182 18.9754 47.4015 19.027C47.5847 19.0785 47.7408 18.8753 47.8697 18.4172ZM37.4731 21.688C37.8582 21.7925 38.1073 21.8398 38.2204 21.8298C38.3163 21.7998 38.4738 21.6996 38.6929 21.5292C39.0022 21.4033 39.2678 21.2365 39.4897 21.029C39.693 20.82 39.8505 20.5981 39.9622 20.3633C40.0568 20.1085 40.1012 19.8966 40.0955 19.7277C40.0898 19.072 39.9854 18.3618 39.7822 17.5973C39.5791 16.8328 39.3179 16.0918 38.9987 15.3745C38.6796 14.6572 38.3246 14.0401 37.9338 13.5232C37.5259 12.9863 37.1229 12.6276 36.7249 12.4472C36.3642 12.2696 36.0149 12.1865 35.677 12.1979C35.3391 12.2093 35.0835 12.3675 34.9103 12.6724C34.5895 13.1906 34.6281 13.5399 35.0261 13.7204C35.0819 13.7247 35.1449 13.7576 35.215 13.8192C35.2866 13.8622 35.3195 13.9209 35.3138 13.9953C35.2365 14.0268 35.031 14.0203 34.6975 13.9759C34.3653 13.9128 34.0346 13.8312 33.7054 13.7309C33.3589 13.6106 33.1334 13.4996 33.0289 13.398C32.9216 13.3335 32.84 13.2992 32.7841 13.2949C32.7283 13.2906 32.5873 13.2984 32.3611 13.3184C32.0375 13.3871 31.8707 13.4866 31.8607 13.6168C31.8549 13.6913 31.8213 13.7636 31.7597 13.8337C31.6996 13.8853 31.6323 13.9082 31.5578 13.9024C31.4261 13.911 31.4383 13.9962 31.5943 14.158C31.7317 14.3183 31.9765 14.5432 32.3287 14.8324C32.6651 15.083 32.8769 15.2491 32.9642 15.3307C33.0344 15.3923 33.0337 15.5233 32.962 15.7237C32.7859 16.0658 32.745 16.4746 32.8395 16.9499C32.9339 17.4252 33.1299 17.9178 33.4277 18.4275C33.7254 18.9372 34.0997 19.4247 34.5506 19.8901C34.9843 20.3354 35.4596 20.7277 35.9764 21.0671C36.476 21.3865 36.9749 21.5934 37.4731 21.688ZM38.0423 20.4962C37.9679 20.4904 37.8405 20.4432 37.6601 20.3544C37.4812 20.247 37.338 20.1611 37.2306 20.0966C37.1619 20.0164 37.0753 19.9255 36.9708 19.8239C36.8492 19.7021 36.7518 19.6291 36.6788 19.6048C36.6044 19.599 36.5135 19.5639 36.4061 19.4995C36.3002 19.4165 36.1527 19.2647 35.9638 19.0442C35.7763 18.8051 35.5315 18.4586 35.2295 18.0047C34.8888 17.5665 34.629 17.1721 34.4501 16.8213C34.2726 16.4519 34.2419 16.1219 34.3579 15.8313C34.3822 15.7583 34.4417 15.716 34.5362 15.7046C34.612 15.6917 34.718 15.6531 34.854 15.5887C35.0401 15.603 35.2205 15.5701 35.3952 15.49C35.5527 15.3898 35.7403 15.2638 35.9579 15.1121L36.4476 14.5882L36.8856 15.0993C37.1604 15.4201 37.4424 15.8911 37.7315 16.5125C38.0035 17.1139 38.2274 17.7302 38.4034 18.3616C38.5809 18.9744 38.6746 19.459 38.6845 19.8155C38.6816 20.0961 38.6208 20.2786 38.5019 20.3631C38.3831 20.4476 38.2299 20.4919 38.0423 20.4962ZM31.9251 28.6181C31.9995 28.6239 32.0926 28.6311 32.2043 28.6397C32.3145 28.6669 32.4226 28.6003 32.5286 28.44C32.6102 28.3527 32.6675 28.2167 32.7004 28.032C32.7148 27.8459 32.694 27.5073 32.6383 27.0162C32.5696 26.6926 32.5195 26.3705 32.4881 26.0498C32.4552 25.7477 32.4445 25.5222 32.456 25.3733C32.4617 25.2989 32.4546 25.1486 32.4346 24.9224C32.3945 24.7133 32.3781 24.5623 32.3852 24.4692C32.3037 24.3132 32.245 24.1027 32.2092 23.8379C32.1735 23.573 32.1635 23.3382 32.1793 23.1335C32.1965 22.9101 32.1006 22.6968 31.8916 22.4935C31.9031 22.3446 31.8895 22.1563 31.8509 21.9287C31.7936 21.6996 31.7679 21.5478 31.7736 21.4734C31.7379 21.2085 31.652 20.7432 31.5161 20.0775C31.363 19.3917 31.1792 18.6193 30.9646 17.7602C30.7313 16.8998 30.5059 16.0586 30.2884 15.2368C30.071 14.415 29.8721 13.7163 29.6917 13.1408C29.5086 12.6025 29.3941 12.1443 29.3483 11.7663C29.2854 11.3683 29.2611 11.0763 29.2754 10.8901C29.2812 10.8157 29.2669 10.7584 29.2325 10.7183C29.1996 10.6596 29.1237 10.5508 29.0049 10.3919C28.8332 10.1914 28.6793 10.1234 28.5432 10.1878C28.3886 10.2508 28.2032 10.3488 27.987 10.4819C27.8195 10.7124 27.7013 10.9092 27.6326 11.0724C27.5452 11.2342 27.523 11.5227 27.5659 11.9379C27.5444 12.2171 27.5723 12.4626 27.6495 12.6745C27.7268 12.8864 27.7984 13.051 27.8642 13.1684C27.9315 13.2672 27.9472 13.3059 27.9114 13.2844C27.1756 12.872 26.52 12.6342 25.9444 12.5712C25.3517 12.488 24.8506 12.5524 24.4412 12.7642C24.0145 12.956 23.683 13.2487 23.4467 13.6424C23.2105 14.0361 23.0715 14.5028 23.0299 15.0425C23.0127 15.2659 23.0384 15.5393 23.1071 15.8629C23.1772 16.1678 23.2767 16.4563 23.4055 16.7284C23.5171 16.9804 23.6245 17.1665 23.7275 17.2868C23.802 17.2925 23.8714 17.3634 23.9358 17.4994C24.0017 17.6168 24.0661 17.7528 24.129 17.9074C24.2636 18.105 24.489 18.3377 24.8054 18.6055C25.1046 18.8532 25.4066 19.0637 25.7116 19.237C26.0179 19.3916 26.2477 19.4468 26.4009 19.4024C26.4009 19.4024 26.4281 19.4139 26.4825 19.4368C26.5197 19.4397 26.5347 19.4876 26.5276 19.5807C26.5247 19.6179 26.6671 19.7131 26.9549 19.8664C27.244 20.001 27.5798 20.1392 27.962 20.281C28.3457 20.4042 28.6864 20.4772 28.9842 20.5002C29.375 20.5303 29.6599 20.4774 29.8389 20.3414C29.8732 20.3815 29.9155 20.4409 29.9656 20.5196C29.9971 20.597 30.0106 20.6635 30.0063 20.7194C29.9977 20.831 30.0278 21.0487 30.0964 21.3722C30.1479 21.6757 30.2188 21.9714 30.3089 22.2592C30.3991 22.5469 30.4907 22.6944 30.5837 22.7016C30.5837 22.7016 30.6002 22.7309 30.6331 22.7896C30.666 22.8483 30.6417 22.9214 30.5601 23.0087C30.5601 23.0087 30.5615 23.1118 30.5643 23.3179C30.5471 23.5413 30.5793 23.731 30.6609 23.887C30.6494 24.0359 30.6601 24.2614 30.693 24.5635C30.7259 24.8656 30.7738 25.0939 30.8368 25.2486C30.8196 25.4719 30.8403 25.6888 30.899 25.8993C30.9376 26.1269 30.9941 26.2436 31.0686 26.2493C31.1416 26.2737 31.1795 26.3889 31.1823 26.5951C31.1837 26.8199 31.1809 26.9788 31.1737 27.0718C31.1564 27.5386 31.2215 27.9087 31.3689 28.1821C31.5164 28.4556 31.7017 28.6009 31.9251 28.6181ZM29.2657 19.0335C29.1168 19.022 28.8147 18.9332 28.3595 18.767C27.9042 18.6009 27.4418 18.4061 26.9723 18.1827C26.4856 17.9393 26.1291 17.7059 25.9029 17.4825C25.452 17.0171 25.1171 16.5046 24.8981 15.9447C24.662 15.3649 24.7215 14.8359 25.0766 14.3578C25.2456 14.1087 25.5233 14.0271 25.9099 14.1131C26.2978 14.1804 26.7144 14.3623 27.1596 14.6587C27.6048 14.9551 28.0171 15.3145 28.3964 15.7369C28.6011 15.9961 28.7829 16.3097 28.9418 16.6776C29.1006 17.0456 29.2316 17.4114 29.3346 17.775C29.419 18.1373 29.4612 18.4401 29.4612 18.6835C29.4611 18.9268 29.396 19.0435 29.2657 19.0335ZM18.7983 21.1474C19.0388 21.1847 19.2357 21.1811 19.3889 21.1368C19.5435 21.0738 19.7375 20.9858 19.9709 20.8727C20.4047 20.5879 20.7362 20.2951 20.9653 19.9945C21.1772 19.6739 21.2861 19.3546 21.2918 19.0368C21.2675 18.8664 21.279 18.7175 21.3263 18.5901C21.3549 18.4613 21.3692 18.3968 21.3692 18.3968C21.4881 18.3124 21.5296 18.2594 21.4938 18.2379C21.4595 18.1978 21.4359 18.1399 21.423 18.064C21.277 18.0153 21.2662 17.9115 21.3908 17.7526C21.4581 17.608 21.456 17.2708 21.3845 16.7411C21.2958 16.1913 21.167 15.6759 20.9982 15.1949C20.9209 14.983 20.8114 14.7031 20.6697 14.3551C20.5094 14.0058 20.3305 13.655 20.133 13.3028C19.9369 12.932 19.7537 12.637 19.5834 12.4179C19.2098 11.9211 18.8734 11.5488 18.5742 11.3011C18.2578 11.0333 17.9007 10.8092 17.5027 10.6288C17.1419 10.4512 16.8785 10.3466 16.7125 10.3151C16.5464 10.2836 16.3051 10.3773 15.9887 10.5963C15.532 10.6922 15.1826 10.8525 14.9407 11.0772C14.6815 11.2819 14.4681 11.6212 14.3006 12.0951C14.1101 12.6233 14.0141 13.2618 14.0125 14.0106C13.9938 14.7393 14.2378 15.7036 14.7444 16.9034C15.0421 17.6565 15.3534 18.2328 15.6783 18.6322C15.9846 19.0303 16.364 19.4527 16.8163 19.8994C17.147 20.2245 17.4548 20.4822 17.7396 20.6727C18.0245 20.8631 18.3774 21.0214 18.7983 21.1474ZM16.8209 17.6531C16.4917 17.0661 16.2427 16.5321 16.0738 16.051C15.8878 15.5499 15.7576 14.9314 15.6833 14.1955C15.6618 13.9879 15.6719 13.7359 15.7134 13.4396C15.7564 13.1246 15.8252 12.8397 15.9197 12.5849C15.9956 12.3287 16.0901 12.1955 16.2032 12.1855C16.4524 12.1111 16.7222 12.1319 17.0128 12.2479C17.3049 12.3453 17.6134 12.5937 17.9383 12.9932C18.226 13.3898 18.4822 13.8308 18.7069 14.3162C18.913 14.8001 19.0969 15.3292 19.2586 15.9033C19.4203 16.4774 19.5698 17.088 19.7072 17.7352C19.8388 18.4567 19.7879 18.9958 19.5545 19.3522C19.3024 19.7072 18.9323 19.7723 18.4442 19.5475C17.9574 19.304 17.4164 18.6726 16.8209 17.6531ZM11.2329 19.2726C11.5765 19.4301 11.8692 19.5182 12.1112 19.5368C12.336 19.5354 12.5958 19.4431 12.8908 19.2599C13.2702 18.9522 13.417 18.6265 13.3311 18.2829C13.2281 17.9192 12.9476 17.5512 12.4895 17.1789C12.1702 16.9484 11.9369 16.8181 11.7894 16.788C11.6234 16.7565 11.3671 16.8022 11.0206 16.9253C10.435 17.2359 10.163 17.6081 10.2044 18.0419C10.2273 18.4743 10.5701 18.8845 11.2329 19.2726ZM6.53604 18.9106C6.87962 19.0681 7.17238 19.1562 7.41433 19.1749C7.6391 19.1735 7.89896 19.0812 8.19391 18.8979C8.57335 18.5902 8.72014 18.2645 8.63429 17.9209C8.53126 17.5572 8.25071 17.1893 7.79263 16.817C7.4734 16.5864 7.24005 16.4561 7.0926 16.426C6.92653 16.3945 6.67025 16.4403 6.32377 16.5633C5.73817 16.8739 5.4661 17.2461 5.50756 17.6799C5.53041 18.1123 5.87323 18.5225 6.53604 18.9106ZM1.83918 18.5486C2.18276 18.7062 2.47552 18.7942 2.71747 18.8129C2.94224 18.8115 3.2021 18.7192 3.49705 18.536C3.87649 18.2282 4.02328 17.9025 3.93743 17.5589C3.8344 17.1953 3.55385 16.8273 3.09577 16.455C2.77654 16.2244 2.5432 16.0941 2.39574 16.064C2.22967 16.0325 1.97339 16.0783 1.62691 16.2014C1.04132 16.512 0.769247 16.8842 0.810703 17.318C0.833548 17.7503 1.17637 18.1605 1.83918 18.5486Z" fill="#2F94F9"/>
<path d="M86.187 54.9855C84.6371 53.4481 83.0909 51.908 81.5673 50.3457C81.3957 50.168 81.2193 49.9893 81.0518 49.8074C81.0026 49.7547 80.9541 49.6988 80.9041 49.651C80.7769 49.4818 80.5871 49.3471 80.3249 49.288C80.0818 49.2326 79.7577 49.2978 79.5562 49.4448C79.2718 49.6538 79.0576 50.0109 79.1101 50.3782C79.1791 50.8898 79.5654 51.2104 79.8981 51.5605C80.3096 51.989 80.7284 52.4139 81.1494 52.8359C81.6428 53.335 82.1416 53.8319 82.6375 54.3265C76.1534 53.8151 69.2515 50.851 66.1319 44.7527C65.1195 42.7713 64.6077 40.5113 64.476 38.272C64.3988 36.9515 62.3637 37.1106 62.4404 38.4342C62.6884 42.7971 64.3699 46.8813 67.4392 49.9855C70.2309 52.8048 73.9213 54.599 77.7184 55.5817C79.0196 55.9183 80.3428 56.1496 81.6779 56.2935C80.1697 56.7622 78.6176 57.0662 77.0426 57.2413C75.7408 57.3845 75.8872 59.4375 77.1978 59.291C79.4089 59.0481 81.6185 58.5741 83.6956 57.7638C84.508 57.4494 85.3451 57.0933 86.0822 56.6148C86.6658 56.2395 86.6395 55.4388 86.186 54.9889L86.187 54.9855ZM81.1417 50.2118C81.1291 50.2343 81.1194 50.259 81.1068 50.2815C81.1069 50.2383 81.1077 50.1919 81.0995 50.1488C81.1249 50.2136 81.1432 50.247 81.1386 50.2112L81.1417 50.2118ZM80.9678 49.7397L80.9614 49.7301C80.9614 49.7301 80.9662 49.7311 80.9684 49.7365L80.9678 49.7397Z" fill="#2F94F9"/>
</svg>
