<svg width="148" height="55" viewBox="0 0 148 55" fill="none" xmlns="http://www.w3.org/2000/svg">
<path d="M9.80964 11.2576C10.0254 11.3286 10.2709 11.3286 10.5462 11.2576C10.8215 11.1866 11.0763 11.0653 11.3104 10.8935C11.5261 10.719 11.6787 10.5252 11.7681 10.3123C11.9015 9.93625 11.9291 9.44946 11.851 8.85198C11.7574 8.23322 11.5941 7.57543 11.3613 6.87861C11.1129 6.16051 10.8234 5.4644 10.4927 4.7903C10.1435 4.11335 9.77239 3.51801 9.37925 3.00428C8.97049 2.46926 8.57595 2.08751 8.19559 1.85904C8.01251 1.69868 7.86845 1.59153 7.76343 1.53761C7.6428 1.4624 7.51507 1.43331 7.38024 1.45034C7.22697 1.46454 7.0006 1.52416 6.70115 1.62919C6.43151 1.66327 6.22502 1.7165 6.08168 1.78888C5.93835 1.86127 5.74392 2.02023 5.49841 2.26576C5.30825 2.5198 5.15499 2.77952 5.03863 3.04492C4.92227 3.31032 4.80945 3.61403 4.70019 3.95606C4.48165 4.39461 4.37948 4.69051 4.39368 4.84379C4.41072 4.97861 4.45046 5.0886 4.51291 5.17375C4.63213 5.38094 4.65484 5.47887 4.58104 5.46752C4.58104 5.46752 4.58459 5.50583 4.59169 5.58247C4.58318 5.63782 4.60589 5.73574 4.65983 5.87624C4.72655 6.302 4.76276 6.74195 4.76845 7.19609C4.75854 7.62895 4.6954 7.97808 4.57904 8.24347C4.36901 8.62667 4.06461 8.82537 3.66581 8.83958C3.26702 8.85379 2.89588 8.62673 2.55241 8.15841C2.37216 7.9796 2.19831 7.82066 2.03083 7.68158C1.8662 7.52406 1.77253 7.51909 1.74983 7.66669C1.74983 7.66669 1.7179 7.69011 1.65404 7.73695C1.59302 7.76533 1.5256 7.77385 1.45181 7.7625C1.35956 7.74831 1.29853 7.7767 1.26873 7.84766C1.22048 7.91579 1.20488 8.01726 1.22191 8.15208C1.22334 8.26562 1.25882 8.40328 1.32837 8.56507C1.56255 8.88438 1.67255 9.09015 1.65836 9.1824C1.65836 9.1824 1.68959 9.22498 1.75203 9.31013C1.79887 9.37399 1.88615 9.48184 2.01389 9.63369C2.31477 9.88772 2.72352 10.0545 3.24011 10.1339C3.73825 10.2105 4.1413 10.1686 4.44926 10.0083C4.75722 9.84787 5.05807 9.61085 5.35184 9.29719C5.62715 8.9807 5.82156 8.69898 5.93509 8.45203L6.11602 8.19657L6.83773 8.84582C7.00946 9.07998 7.20106 9.30776 7.41253 9.52914C7.60555 9.74769 7.73328 9.89954 7.79573 9.98469C7.83973 10.067 7.89437 10.1415 7.95966 10.2082C8.0065 10.2721 8.06681 10.3097 8.14061 10.321C8.21441 10.3324 8.27898 10.3423 8.33433 10.3508C8.38968 10.3593 8.41736 10.3636 8.41736 10.3636C8.40601 10.4374 8.48407 10.5438 8.65154 10.6829C8.80056 10.8191 8.98932 10.9426 9.21781 11.0533C9.42786 11.1611 9.62514 11.2292 9.80964 11.2576ZM10.3162 9.80576C10.2055 9.78873 10.0246 9.67591 9.77337 9.4673C9.50655 9.2374 9.2163 8.97557 8.90265 8.68181C8.57054 8.38521 8.28456 8.09571 8.04471 7.8133C7.7864 7.52805 7.61183 7.31234 7.521 7.16617C7.45855 7.08102 7.35707 6.94265 7.21656 6.75107C7.07889 6.54103 6.95541 6.36151 6.84613 6.2125C6.49556 5.66754 6.28122 5.09632 6.20314 4.49884C6.1279 3.88291 6.21729 3.4245 6.47131 3.12362C6.57632 2.93202 6.68559 2.83551 6.79913 2.83409C6.91267 2.83267 7.13337 2.93271 7.46121 3.13422C7.66275 3.29742 7.90118 3.58906 8.17652 4.00913C8.43626 4.40791 8.71373 4.87553 9.00894 5.41197C9.28855 5.92713 9.54688 6.4579 9.78391 7.00428C10.0209 7.55066 10.2083 8.05163 10.346 8.50719C10.4837 8.96274 10.5341 9.31045 10.4972 9.55029C10.4858 9.62409 10.4574 9.68583 10.412 9.7355C10.3482 9.78234 10.3162 9.80576 10.3162 9.80576Z" fill="#2F94F9"/>
<path d="M20.3515 13.6722C20.5076 13.6396 20.6814 13.553 20.873 13.4125C21.0674 13.2535 21.2384 13.0626 21.386 12.8398C21.5336 12.617 21.623 12.4041 21.6542 12.2012C21.5932 11.984 21.5272 11.615 21.4562 11.0942C21.3881 10.5549 21.2944 9.93614 21.1751 9.2379C21.0587 9.01225 20.9849 8.75538 20.9537 8.46728C20.904 8.17635 20.8593 7.91451 20.8195 7.68176C20.7173 7.36387 20.6002 6.95869 20.4682 6.46623C20.3391 5.95533 20.2191 5.44584 20.1084 4.93777C19.9821 4.40841 19.8706 3.96634 19.7741 3.61154C19.6449 3.10063 19.5704 2.78699 19.5506 2.67062C19.5335 2.5358 19.5214 2.43007 19.5143 2.35343C19.537 2.20583 19.5186 2.08023 19.459 1.97664C19.4022 1.85459 19.3369 1.78789 19.2631 1.77654C19.2007 1.69139 19.1233 1.64172 19.0311 1.62753C18.9232 1.59206 18.8324 1.56864 18.7586 1.55729C18.5556 1.52608 18.3591 1.6375 18.1689 1.89154C17.9816 2.12714 17.8709 2.35563 17.8369 2.57703C17.8028 2.79843 17.8376 3.12484 17.9412 3.55627C18.0292 3.96642 18.1421 4.39927 18.2798 4.85483C18.399 5.30755 18.4991 5.70066 18.58 6.03417C18.6609 6.36768 18.6694 6.55785 18.6055 6.60469C18.6055 6.60469 18.4849 6.52947 18.2436 6.37905C18.0052 6.21018 17.7554 5.99234 17.4943 5.72554C17.3084 5.58363 17.1082 5.41121 16.8939 5.20827C16.6796 5.00533 16.4731 4.81304 16.2744 4.63139C16.0786 4.4313 15.9097 4.30144 15.7677 4.24184C15.569 4.06019 15.3597 3.88635 15.1397 3.72032C14.9226 3.53583 14.7828 3.40101 14.7203 3.31586C14.4294 3.12003 14.2059 3.03843 14.0498 3.07108C13.8752 3.10089 13.6879 3.21373 13.4878 3.40959C13.2479 3.61822 13.1784 3.82472 13.2792 4.02908C13.3828 4.21499 13.6517 4.49243 14.086 4.8614C14.4366 5.16084 14.8631 5.51916 15.3655 5.93639C15.8494 6.35077 16.2837 6.71975 16.6684 7.04331C17.0345 7.36403 17.241 7.55632 17.2879 7.62018C17.2879 7.62018 17.1928 7.74721 17.0026 8.00125C16.8125 8.2553 16.6266 8.48167 16.4449 8.68036C16.2519 8.95286 16.0525 9.20549 15.8468 9.43824C15.6254 9.64972 15.5076 9.80158 15.4934 9.89382C15.2862 10.2586 15.052 10.5531 14.7909 10.7773C14.5326 10.9831 14.2594 11.1016 13.9713 11.1329C13.6676 11.1428 13.3781 11.0605 13.1028 10.886C12.7565 10.6816 12.4961 10.5943 12.3215 10.6241C12.1285 10.6511 11.9781 10.7696 11.8702 10.9797C11.7737 11.1159 11.7382 11.2238 11.7638 11.3033C11.7737 11.3614 11.8724 11.5183 12.0597 11.7737C12.3563 12.1782 12.6821 12.4549 13.0369 12.6039C13.3732 12.7501 13.7003 12.772 14.0182 12.6698C14.2027 12.6982 14.4263 12.6571 14.6888 12.5463C14.9542 12.4172 15.2905 12.1951 15.6978 11.88C16.0867 11.5621 16.5813 11.1093 17.1816 10.5217C17.1929 10.4479 17.2454 10.3521 17.3391 10.2343C17.4171 10.0953 17.503 9.96682 17.5966 9.84902C17.6931 9.71278 17.8095 9.57014 17.9457 9.42112C18.0848 9.25365 18.1543 9.16991 18.1543 9.16991C18.1629 9.11456 18.1884 9.07128 18.231 9.04005C18.2579 8.98754 18.3048 8.92864 18.3715 8.86335C18.4197 8.79523 18.4786 8.7193 18.5482 8.63556C18.8575 8.58872 19.0612 8.6767 19.1591 8.89951C19.2571 9.12232 19.3628 9.35577 19.4764 9.59987C19.5317 9.85391 19.5991 10.2137 19.6786 10.6792C19.7425 11.1234 19.7894 11.5555 19.8192 11.9756C19.8306 12.3928 19.8065 12.6724 19.7469 12.8143C19.7015 13.1095 19.7164 13.3196 19.7916 13.4445C19.8697 13.5509 20.0563 13.6268 20.3515 13.6722Z" fill="#2F94F9"/>
<path d="M26.6999 14.4786C27.2207 14.6532 27.7139 14.7007 28.1794 14.6212C28.6477 14.5232 29.0486 14.3111 29.3821 13.9846C29.7 13.6369 29.9044 13.1678 29.9952 12.5775C30.1356 12.0325 30.169 11.386 30.0951 10.6381C30.0241 9.87175 29.8701 9.09262 29.6331 8.30071C29.3776 7.50597 29.0788 6.80845 28.7368 6.20814C28.4359 5.7086 28.1293 5.24595 27.817 4.82021C27.5048 4.39446 27.211 4.09431 26.9357 3.91976C26.6944 3.76934 26.4645 3.66787 26.2459 3.61537C26.0118 3.54159 25.8209 3.49334 25.6733 3.47064C25.3667 3.49904 25.0318 3.58917 24.6685 3.74104C24.2896 3.87163 24.0831 4.04762 24.0491 4.26901C24.0491 4.26901 24.0263 4.29385 23.9809 4.34353C23.9199 4.37191 23.8894 4.38611 23.8894 4.38611C23.7787 4.36908 23.668 4.47481 23.5573 4.70331C23.4282 4.92897 23.3303 5.1972 23.2636 5.50801C23.1997 5.80037 23.2075 6.05653 23.287 6.27651C23.3069 6.6384 23.3892 6.96269 23.534 7.24936C23.6788 7.53603 23.825 7.69072 23.9726 7.71342C24.0464 7.72477 24.1187 7.74534 24.1897 7.77514C24.2451 7.78366 24.2656 7.83404 24.2515 7.92628C24.2373 8.01853 24.2869 8.06395 24.4005 8.06252C24.4956 8.05826 24.6055 8.01852 24.7304 7.94329C24.8582 7.84962 24.961 7.73324 25.0391 7.59416C25.0533 7.50191 25.0405 7.33941 25.0007 7.10666C24.961 6.87392 24.9312 6.57659 24.9113 6.2147C24.8801 5.68108 24.9404 5.3504 25.0922 5.22267C25.2469 5.07649 25.4974 5.10557 25.8437 5.30992C26.2652 5.63915 26.6527 6.06702 27.0061 6.59353C27.341 7.1172 27.627 7.77499 27.8641 8.56689C28.1039 9.34035 28.2785 10.2926 28.3879 11.4237C28.4333 11.8651 28.4227 12.2412 28.356 12.552C28.2708 12.86 28.1992 13.0189 28.141 13.0288C27.8713 13.0629 27.518 13.0275 27.0808 12.9225C26.6466 12.799 26.3365 12.6663 26.1505 12.5244C25.878 12.3314 25.5758 12.0866 25.2436 11.79C24.9144 11.475 24.627 11.1947 24.3814 10.9492C24.2977 10.8796 24.2012 10.7704 24.0919 10.6214C23.9826 10.4723 23.8599 10.3496 23.7236 10.2531C23.6101 10.009 23.5008 9.85998 23.3958 9.80605C23.2907 9.75213 23.1275 9.70814 22.9061 9.67409C22.7529 9.68829 22.606 9.72235 22.4655 9.77629C22.325 9.83023 22.2306 9.89126 22.1823 9.95938C22.1156 10.0247 22.1334 10.0935 22.2356 10.1659C22.3094 10.1772 22.3512 10.212 22.3612 10.2702C22.3555 10.3071 22.3527 10.3255 22.3527 10.3255C22.3044 10.3937 22.3633 10.5632 22.5294 10.8343C22.6798 11.0841 22.8814 11.37 23.134 11.6922C23.3866 12.0143 23.6357 12.2982 23.8812 12.5437C24.1112 12.7679 24.2815 12.8885 24.3922 12.9055C24.5767 12.9339 24.6604 13.0035 24.6434 13.1142C24.6377 13.1511 24.7619 13.2646 25.0159 13.4547C25.2515 13.6421 25.5332 13.8365 25.8611 14.038C26.1705 14.2367 26.4501 14.3835 26.6999 14.4786Z" fill="#2F94F9"/>
<path d="M37.6882 23.3076C38.0827 23.4438 38.358 23.4956 38.5141 23.463C38.6702 23.4303 38.8874 23.3693 39.1655 23.2799C39.3912 23.1635 39.565 23.0769 39.6871 23.0201C39.8091 22.9634 39.8758 22.8981 39.8872 22.8243C39.8957 22.7689 39.8872 22.7015 39.8616 22.622C39.8332 22.561 39.7772 22.4957 39.6934 22.4262C39.5884 22.3723 39.4437 22.3311 39.2592 22.3028C39.1187 22.3567 38.9008 22.361 38.6056 22.3156C38.292 22.2673 38.1039 22.2006 38.0415 22.1155C38.0415 22.1155 37.967 22.0474 37.8179 21.9111C37.6476 21.7905 37.4191 21.6798 37.1325 21.5791C36.6031 21.2143 36.1496 20.7858 35.7721 20.2933C35.3946 19.8009 35.0554 19.1821 34.7544 18.4371C34.6281 18.1532 34.4997 17.8218 34.3691 17.4429C34.2357 17.0825 34.1576 16.7305 34.1349 16.387C34.044 15.9954 33.9546 15.4717 33.8666 14.816C33.7601 14.1575 33.6799 13.5125 33.6259 12.8809C33.5748 12.2309 33.5641 11.7477 33.5939 11.4312C33.6421 10.381 33.613 9.4039 33.5065 8.49987C33.3844 7.57456 33.3149 6.55345 33.2978 5.43653C33.2268 5.16121 33.1665 5.00085 33.1168 4.95543C33.07 4.89157 32.9543 4.84545 32.7698 4.81708C32.5668 4.78586 32.4164 4.78161 32.3185 4.80432C32.205 4.80575 32.068 4.898 31.9076 5.08109C31.6692 5.40326 31.5408 5.80844 31.5224 6.29665C31.4883 6.76357 31.5643 7.19074 31.7502 7.57818C31.895 7.86485 31.9986 8.29628 32.0611 8.87247C32.1079 9.42738 32.1335 10.1207 32.1378 10.9523C32.1676 11.3724 32.1953 11.8677 32.2209 12.4382C32.2309 12.9874 32.2401 13.6027 32.2487 14.2839C32.2941 14.4797 32.3516 14.7813 32.4211 15.1886C32.4935 15.5775 32.5312 15.8854 32.534 16.1125C32.5411 16.1891 32.5737 16.3453 32.6319 16.5808C32.6901 16.8164 32.7498 17.0428 32.8108 17.2599C32.869 17.4955 32.9109 17.653 32.9364 17.7325C33.4261 19.3376 34.0712 20.6078 34.8717 21.543C35.6721 22.4782 36.611 23.0664 37.6882 23.3076ZM36.8192 14.9585C37.0222 14.9897 37.2514 14.9117 37.5068 14.7243C37.7438 14.5341 37.9091 14.3801 38.0028 14.2623C38.105 14.0892 38.2242 13.9281 38.3604 13.7791C38.4967 13.6301 38.6109 13.4399 38.7031 13.2085C38.7769 12.9744 38.8039 12.6763 38.784 12.3144C38.7471 12.0632 38.6981 11.7063 38.6371 11.2437C38.5604 10.7597 38.4802 10.2375 38.3964 9.67688C38.2942 9.11346 38.1906 8.55927 38.0856 8.0143C37.9649 7.44804 37.8528 6.9492 37.7491 6.51777C37.6484 6.06788 37.5476 5.74076 37.4468 5.5364C37.3588 5.37178 37.2531 5.26109 37.1296 5.20433C36.9877 5.14473 36.8372 5.14047 36.6783 5.19157C36.5222 5.22422 36.3746 5.32428 36.2355 5.49175C35.9928 5.71884 35.8758 5.92746 35.8843 6.11764C35.8928 6.30781 36.0035 6.69312 36.2164 7.27356C36.259 7.48786 36.3172 7.72344 36.391 7.98031C36.4677 8.21874 36.5003 8.37485 36.489 8.44865C36.5017 8.48838 36.5188 8.62321 36.5401 8.85312C36.5458 9.06174 36.5621 9.26255 36.5891 9.45556C36.616 9.64858 36.6572 9.74934 36.7126 9.75785C36.775 9.843 36.8254 10.0679 36.8637 10.4327C36.9049 10.779 36.9298 11.1699 36.9383 11.6056C36.9497 12.0229 36.9405 12.3897 36.9107 12.7062C36.8837 13.0043 36.8333 13.1476 36.7595 13.1363C36.1876 13.0483 35.6313 12.7361 35.0905 12.1997C34.5313 11.6604 34.0034 10.9182 33.5066 9.973L32.7339 11.8655C32.9724 12.0344 33.1909 12.2097 33.3896 12.3913C33.5911 12.5545 33.77 12.7426 33.9261 12.9554C33.9701 13.0377 34.0836 13.1591 34.2667 13.3194C34.4498 13.4798 34.6343 13.6309 34.8202 13.7729C34.9905 13.8935 35.1034 13.958 35.1587 13.9666C35.1587 13.9666 35.185 13.98 35.2375 14.007C35.2744 14.0127 35.2872 14.0524 35.2758 14.1262C35.2701 14.1631 35.3787 14.2554 35.6015 14.4029C35.8272 14.5321 36.0635 14.6534 36.3104 14.7669C36.5574 14.8805 36.727 14.9443 36.8192 14.9585Z" fill="#2F94F9"/>
<path d="M46.9687 17.681C47.1987 17.6597 47.3924 17.5667 47.5499 17.4021C47.689 17.2346 47.8529 17.0898 48.0416 16.9678C48.0629 16.7066 48.0615 16.3476 48.0373 15.8906C47.9947 15.4308 47.9323 14.9774 47.8499 14.5303C47.7704 14.0648 47.6831 13.7114 47.588 13.4702C47.6036 13.0004 47.561 12.5406 47.4602 12.0907C47.341 11.638 47.2523 11.1711 47.1941 10.69C47.1529 10.3437 47.1117 9.99742 47.0706 9.65114C47.0109 9.30202 46.9698 8.95573 46.947 8.61229C46.9243 8.51436 46.9279 8.42992 46.9577 8.35896C46.9719 8.26671 46.9662 8.18085 46.9406 8.10138C46.8839 7.97933 46.815 7.87431 46.7341 7.78632C46.6561 7.67989 46.5766 7.58267 46.4957 7.49469C46.2629 7.53444 46.0898 7.55502 45.9763 7.55645C45.8627 7.55787 45.7102 7.50607 45.5186 7.40106C45.5001 7.39823 45.3603 7.38617 45.0992 7.36489C44.8225 7.32233 44.5351 7.28757 44.237 7.26062C43.9418 7.21522 43.7573 7.18684 43.6835 7.17549C43.4437 7.1386 43.206 7.14926 42.9704 7.20746C42.7376 7.2472 42.4999 7.25786 42.2572 7.23942C41.8045 7.35865 41.3972 7.55097 41.0353 7.81638C40.655 8.07895 40.4684 8.49407 40.4755 9.06175C40.467 9.36262 40.4493 9.66207 40.4223 9.96011C40.3798 10.2369 40.411 10.525 40.516 10.8244C40.4919 11.104 40.5217 11.4013 40.6055 11.7164C40.6736 12.0101 40.7496 12.3145 40.8333 12.6296C40.9171 12.9447 40.9703 13.2739 40.993 13.6174C40.9916 13.7493 41.0193 13.8764 41.0761 13.9984C41.1144 14.1176 41.1314 14.2524 41.1272 14.4029C41.113 14.4951 41.108 14.5888 41.1123 14.6839C41.1009 14.7577 41.0974 14.8421 41.1016 14.9372C41.1087 15.0139 41.1329 15.1025 41.174 15.2033C41.0988 15.3239 41.1272 15.5077 41.2592 15.7547C41.3728 15.9988 41.57 16.0669 41.851 15.959C41.8936 15.9278 41.944 15.9072 42.0022 15.8973C42.0632 15.8689 42.1136 15.8483 42.1533 15.8355C42.379 15.7191 42.5237 15.5148 42.5876 15.2224C42.6542 14.9116 42.684 14.5951 42.6769 14.273C42.6727 13.9324 42.6691 13.6485 42.6662 13.4214C42.635 13.3789 42.5832 13.1631 42.5108 12.7743C42.4384 12.3854 42.3653 11.9398 42.2915 11.4374C42.2021 10.9137 42.1318 10.4497 42.0807 10.0452C42.014 9.61943 41.9863 9.36965 41.9976 9.29585C42.0303 9.20644 42.0615 9.12625 42.0913 9.05529C42.1211 8.98433 42.1601 8.91479 42.2083 8.84667C42.6753 8.88071 43.1606 8.91758 43.6645 8.9573C44.1498 8.99418 44.6054 9.10202 45.0312 9.28082C45.0837 9.30778 45.1333 9.35319 45.1802 9.41705C45.2114 9.45963 45.232 9.51001 45.2419 9.56819C45.2817 10.0465 45.352 10.5105 45.4527 10.9604C45.5535 11.4103 45.6238 11.8744 45.6636 12.3526C45.7047 12.9445 45.8197 13.5476 46.0085 14.1621C46.2001 14.7582 46.2768 15.3649 46.2385 15.9822C46.3109 16.1256 46.3485 16.3108 46.3513 16.5378C46.3542 16.7649 46.3691 16.975 46.3961 17.168C46.4074 17.3397 46.4919 17.466 46.6494 17.5469C46.7204 17.5767 46.7835 17.5958 46.8389 17.6043C46.8942 17.6129 46.9375 17.6384 46.9687 17.681Z" fill="#2F94F9"/>
<path d="M58.9749 18.7343C59.0714 18.5981 59.1806 18.5016 59.3027 18.4448C59.4276 18.3696 59.4957 18.295 59.507 18.2212C59.5184 18.1474 59.539 18.0751 59.5688 18.0041C59.583 17.9119 59.6326 17.8345 59.7178 17.7721C59.827 17.6755 59.8561 17.4251 59.805 17.0206C59.7567 16.5977 59.6474 16.0804 59.4771 15.4687C59.3096 14.8386 59.1003 14.1737 58.849 13.4741C58.7241 13.3038 58.6063 13.0873 58.4956 12.8248C58.3849 12.5622 58.2983 12.3884 58.2359 12.3032C58.2472 12.2294 58.2295 12.1606 58.1827 12.0967C58.1387 12.0144 58.0798 11.9676 58.006 11.9563L58.0315 11.7902C58.0457 11.698 57.9868 11.5284 57.8548 11.2814C57.7043 11.0317 57.5198 10.7578 57.3013 10.4597C57.0855 10.1433 56.8577 9.84382 56.6179 9.56141C56.3809 9.26055 56.1786 9.04059 56.0111 8.90151C55.6634 8.58363 55.2909 8.3658 54.8935 8.24802C54.4777 8.12741 54.1037 8.16432 53.7716 8.35877C53.7077 8.4056 53.6013 8.48367 53.4523 8.59295C53.3033 8.70224 53.133 8.82713 52.9414 8.96764C52.7342 9.08686 52.5256 9.21531 52.3156 9.35298L51.1511 10.1088L51.4365 11.5691C51.5628 12.344 51.5281 12.9997 51.3322 13.5361C51.118 14.0697 50.8597 14.5211 50.5574 14.8901C50.4339 15.0788 50.2197 15.2442 49.9145 15.3861C49.591 15.5252 49.2972 15.5933 49.0332 15.5905C48.8828 15.5863 48.7359 15.6203 48.5926 15.6927C48.4492 15.7651 48.362 15.9028 48.3307 16.1057C48.3024 16.2902 48.3166 16.4435 48.3733 16.5655C48.4301 16.6876 48.5479 16.7812 48.7267 16.8465C49.3242 17.014 49.9189 16.9543 50.5107 16.6676C51.084 16.3781 51.6573 15.843 52.2307 15.0624C52.3215 14.9631 52.4542 14.7757 52.6287 14.5004C52.7877 14.2038 52.8834 14.0108 52.9161 13.9214C52.9757 14.025 53.0871 14.2215 53.2503 14.511C53.4164 14.7821 53.5463 14.9815 53.6399 15.1092C54.7456 16.6391 55.7426 17.7084 56.631 18.3172C57.5039 18.9047 58.2851 19.0437 58.9749 18.7343ZM58.2169 17.0313C58.1971 17.1605 58.0033 17.1307 57.6358 16.9419C57.2526 16.7319 56.8587 16.4069 56.4542 15.967C55.9092 15.3355 55.3727 14.6486 54.8448 13.9064C54.2983 13.1613 53.874 12.4823 53.5717 11.8692L53.116 10.7792C53.3658 10.3833 53.6127 10.1285 53.8568 10.015C54.0853 9.88014 54.2734 9.82407 54.421 9.84677C54.6608 9.88366 54.9865 10.1604 55.3981 10.677C55.7913 11.1907 56.1986 11.8577 56.6201 12.678C57.0417 13.4983 57.4242 14.3881 57.7677 15.3474C57.8954 15.7448 58.0061 16.1301 58.0998 16.5034C58.1779 16.8553 58.2169 17.0313 58.2169 17.0313Z" fill="#2F94F9"/>
<path d="M66.1763 28.199C66.3381 28.1295 66.5113 28.1089 66.6958 28.1373C66.8803 28.1657 67.052 28.1543 67.2109 28.1032C67.4891 28.0138 67.8127 27.8747 68.1817 27.6859C68.5322 27.4943 68.7749 27.2672 68.9097 27.0047C68.9338 26.9706 68.9501 26.9259 68.9586 26.8705C68.9643 26.8336 68.9778 26.8074 68.9991 26.7918C69.026 26.7393 69.0714 26.6896 69.1353 26.6428C69.1963 26.6144 69.2403 26.5739 69.2673 26.5214C69.3212 26.4164 69.3581 26.2993 69.378 26.1702C69.4134 26.0623 69.4397 25.953 69.4567 25.8423C69.4922 25.7345 69.5461 25.6294 69.6185 25.5272C69.5646 25.3867 69.5198 25.2477 69.4844 25.11C69.4673 24.9752 69.4318 24.8375 69.3779 24.697C69.2885 24.6644 69.1991 24.6317 69.1097 24.5991C69.0359 24.5878 68.9635 24.5672 68.8925 24.5374C68.674 24.4849 68.5221 24.6126 68.437 24.9206C68.3334 25.2257 68.2071 25.5557 68.0581 25.9105C67.9417 26.1759 67.7835 26.4065 67.5834 26.6024C67.3649 26.7954 67.0512 26.8699 66.6425 26.8259C66.1784 26.7735 65.8044 26.5648 65.5206 26.2001C65.2154 25.851 64.9784 25.4274 64.8095 24.9293C64.6406 24.4311 64.5256 23.9507 64.4646 23.4881C64.439 23.4086 64.4227 23.3306 64.4156 23.2539C64.4085 23.1773 64.4014 23.1006 64.3943 23.024C64.3659 22.963 64.3482 22.8942 64.3411 22.8175C64.3666 22.6515 64.3595 22.4521 64.3198 22.2193C64.2587 22.0022 64.2332 21.8 64.2431 21.6126C64.2573 21.2748 64.2558 20.9158 64.2388 20.5354C64.2217 20.1551 64.3033 19.8088 64.4836 19.4966C64.4836 19.4966 64.5041 19.4242 64.5453 19.2794C64.5864 19.1347 64.629 18.9807 64.673 18.8175C64.717 18.6543 64.7404 18.5634 64.7432 18.545C64.8979 18.3988 65.0356 18.2406 65.1562 18.0703C65.2612 17.8787 65.4003 17.7112 65.5734 17.5678C65.5933 17.4387 65.6209 17.3202 65.6564 17.2123C65.6735 17.1016 65.6919 16.9817 65.7118 16.8526C65.6621 16.8071 65.6231 16.7539 65.5947 16.6929C65.5663 16.6319 65.5166 16.5865 65.4456 16.5567C64.9234 16.2686 64.4387 15.9202 63.9916 15.5115C63.5474 15.0843 63.1763 14.6118 62.8782 14.0938C62.5802 13.5758 62.3921 13.018 62.314 12.4205C62.2899 12.2091 62.2842 12.0005 62.2969 11.7947C62.3097 11.5889 62.3594 11.3888 62.4459 11.1943C62.6106 11.1064 62.7716 11.1028 62.9292 11.1837C63.599 11.4945 64.0837 11.8429 64.3832 12.2289C64.6642 12.612 64.8934 13.025 65.0708 13.4678C65.2511 13.8921 65.513 14.3385 65.8564 14.8068C66.0054 14.6975 66.1431 14.662 66.2694 14.7003C66.3801 14.7173 66.5071 14.6897 66.6505 14.6173C66.7143 14.5704 66.7903 14.5066 66.8782 14.4257C66.9506 14.3235 67.0471 14.1872 67.1677 14.0169C67.0301 13.8069 66.9506 13.5869 66.9293 13.357C66.8924 13.1058 66.8221 12.8873 66.7185 12.7013C66.4772 12.3054 66.2594 11.9414 66.0649 11.6093C65.8705 11.2772 65.5902 10.9508 65.224 10.6301C64.8422 10.2881 64.4306 10.017 63.9892 9.81695C63.5294 9.61402 63.0618 9.52321 62.5864 9.54452C62.1109 9.56583 61.6731 9.77234 61.2729 10.1641C60.8784 10.5189 60.64 10.9638 60.5577 11.4989C60.4598 12.0126 60.4712 12.5526 60.5918 13.1189C60.7125 13.6851 60.9126 14.2258 61.1922 14.741C61.4874 15.2774 61.843 15.7287 62.2588 16.0949C62.6562 16.4582 63.0664 16.8612 63.4893 17.304C63.2835 17.7822 63.0764 18.2697 62.8678 18.7665C62.662 19.2448 62.5364 19.7543 62.491 20.295C62.4471 20.9492 62.4336 21.5893 62.4507 22.2151C62.4493 22.8382 62.5089 23.4328 62.6296 23.9991C62.7474 24.5838 62.9355 25.1415 63.1938 25.6723C63.4521 26.2031 63.8176 26.7125 64.2902 27.2007C64.5485 27.486 64.855 27.7031 65.2099 27.8521C65.5462 27.9983 65.8684 28.1139 66.1763 28.199Z" fill="#2F94F9"/>
<path d="M78.7544 22.6263C78.9914 22.6816 79.1879 22.6929 79.344 22.6603C79.503 22.6092 79.7031 22.5361 79.9444 22.441C80.3985 22.1898 80.7511 21.923 81.0023 21.6405C81.2379 21.3368 81.3706 21.0267 81.4004 20.7102C81.389 20.5385 81.4117 20.3909 81.4685 20.2674C81.5068 20.1411 81.5259 20.078 81.5259 20.078C81.6508 20.0027 81.6962 19.9531 81.6622 19.9289C81.631 19.8864 81.6118 19.8268 81.6047 19.7501C81.4628 19.6905 81.4599 19.5862 81.5962 19.4372C81.6742 19.2981 81.6976 18.9617 81.6664 18.4281C81.6195 17.8732 81.5301 17.3495 81.3981 16.8571C81.337 16.64 81.249 16.3526 81.1341 15.9949C81.0007 15.6345 80.8488 15.2712 80.6785 14.905C80.511 14.5204 80.3506 14.2125 80.1973 13.9811C79.8624 13.4575 79.5551 13.0608 79.2755 12.7912C78.9803 12.5002 78.6411 12.2498 78.2579 12.0398C77.9116 11.8354 77.6568 11.7112 77.4936 11.6672C77.3304 11.6233 77.0828 11.6985 76.7507 11.8929C76.288 11.954 75.9276 12.0874 75.6693 12.2932C75.3954 12.4777 75.157 12.7999 74.954 13.2597C74.7242 13.772 74.5801 14.4015 74.522 15.148C74.4482 15.8732 74.6186 16.8531 75.033 18.0878C75.2729 18.8613 75.5397 19.4595 75.8335 19.8824C76.1089 20.3024 76.4552 20.7523 76.8724 21.232C77.1776 21.5811 77.465 21.8614 77.7346 22.0728C78.0043 22.2843 78.3442 22.4687 78.7544 22.6263ZM77.0469 18.9925C76.763 18.3822 76.5551 17.8309 76.4231 17.3384C76.2755 16.8247 76.1924 16.1981 76.1739 15.4587C76.1683 15.2501 76.1973 14.9996 76.2612 14.7072C76.3279 14.3964 76.418 14.1175 76.5315 13.8706C76.6266 13.6208 76.7309 13.4952 76.8444 13.4938C77.0985 13.4384 77.366 13.4796 77.647 13.6172C77.9308 13.7364 78.2197 14.0075 78.5134 14.4304C78.7703 14.8476 78.9925 15.3067 79.1798 15.8077C79.3487 16.3058 79.4921 16.8472 79.6099 17.4319C79.7277 18.0166 79.8306 18.6368 79.9187 19.2925C79.9953 20.022 79.9038 20.5556 79.6441 20.8934C79.366 21.2283 78.992 21.2652 78.5222 21.0041C78.0553 20.7246 77.5635 20.054 77.0469 18.9925Z" fill="#2F94F9"/>
<path d="M87.791 24.0161C87.8436 24.0431 87.977 24.0353 88.1913 23.9927C88.4084 23.9316 88.6468 23.855 88.9065 23.7627C89.1506 23.6492 89.3472 23.5378 89.4962 23.4285C89.6722 23.2667 89.8389 23.1035 89.9964 22.9388C90.1383 22.7529 90.2292 22.5308 90.2689 22.2725C90.4406 22.0156 90.5584 21.741 90.6222 21.4486C90.6705 21.135 90.7265 20.832 90.7904 20.5396C90.8798 20.0812 90.8506 19.5952 90.703 19.0814C90.5582 18.5492 90.4397 18.1533 90.3475 17.8936C90.2949 17.6211 90.1615 17.2606 89.9472 16.8121C89.7173 16.3424 89.4213 15.8719 89.0594 15.4008C88.6975 14.9296 88.303 14.5479 87.8758 14.2556C87.6033 14.0626 87.3265 13.8972 87.0455 13.7596C86.7489 13.6006 86.3863 13.5638 85.9577 13.6489C85.7462 13.6731 85.5873 13.7242 85.4808 13.8022C85.3744 13.8803 85.2587 13.9569 85.1339 14.0321C85.0033 13.8987 84.9245 13.6128 84.8975 13.1743C84.8549 12.7144 84.867 12.2064 84.9336 11.65C84.9847 11.0724 85.0961 10.5324 85.2678 10.03C85.4239 9.5063 85.646 9.10608 85.9341 8.82932C86.4705 8.28858 87.0204 7.96711 87.5838 7.8649C88.1473 7.76269 88.7476 7.91168 89.3848 8.31187C89.6204 8.25367 89.8503 8.10961 90.0745 7.87969C90.2803 7.64693 90.3662 7.39573 90.3321 7.12609C90.2044 6.97424 90.0397 6.81671 89.8382 6.65351C89.6366 6.49032 89.428 6.37324 89.2123 6.30229C88.9625 6.20722 88.7099 6.13059 88.4544 6.07241C88.1805 6.0114 87.8832 6.04122 87.5625 6.16186C86.5548 6.32795 85.7672 6.66008 85.1995 7.15825C84.6163 7.63512 84.1714 8.25604 83.8649 9.02101C83.5584 9.78597 83.3072 10.6822 83.1114 11.7097C83.0291 11.9992 82.9787 12.2653 82.9603 12.508C82.9262 12.7294 82.8957 13.1119 82.8688 13.6555C83.0164 13.9237 83.0462 14.221 82.9583 14.5474C82.8547 14.8525 82.8462 15.1534 82.9327 15.45C82.903 15.7665 82.937 16.0362 83.035 16.259C83.1329 16.4818 83.1677 16.6854 83.1393 16.8699C83.3295 17.8435 83.6425 18.817 84.0782 19.7906C84.4955 20.7613 85.0143 21.6249 85.6345 22.3813C86.2547 23.1377 86.9736 23.6826 87.791 24.0161ZM88.2338 22.2428C88.0379 22.2882 87.7725 22.1719 87.4376 21.8937C87.1055 21.5971 86.7755 21.2253 86.4476 20.7783C86.1226 20.3128 85.8593 19.8757 85.6578 19.467C85.5854 19.3236 85.4981 19.093 85.3959 18.7751C85.2753 18.4544 85.1717 18.1457 85.0851 17.8491C84.98 17.5496 84.924 17.3616 84.9169 17.285C84.8218 16.7982 84.7962 16.3504 84.8402 15.9417C84.8685 15.5117 84.9572 15.242 85.1062 15.1327C85.3461 14.9241 85.6867 14.9198 86.1281 15.1199C86.551 15.3172 86.9427 15.5946 87.3032 15.9522C87.5643 16.219 87.7865 16.5554 87.9696 16.9613C88.137 17.3458 88.318 17.7042 88.5124 18.0363C88.4741 18.1626 88.494 18.279 88.5721 18.3854C88.6317 18.489 88.7005 18.594 88.7786 18.7004C88.9475 19.1986 89.0376 19.6563 89.049 20.0735C89.0632 20.4723 89.0632 20.7178 89.049 20.8101C89.0036 21.1053 88.9107 21.4026 88.7702 21.7021C88.6297 22.0015 88.4509 22.1818 88.2338 22.2428Z" fill="#2F94F9"/>
<path d="M102.504 25.3725C102.88 25.5059 103.125 25.5718 103.239 25.5704C103.337 25.5477 103.501 25.4597 103.733 25.3064C104.05 25.2042 104.328 25.058 104.565 24.8679C104.783 24.6748 104.957 24.4655 105.086 24.2398C105.2 23.9929 105.26 23.785 105.267 23.6161C105.311 22.9618 105.261 22.2459 105.116 21.4681C104.971 20.6904 104.767 19.9319 104.503 19.1925C104.239 18.4531 103.932 17.8109 103.581 17.266C103.215 16.6997 102.84 16.3116 102.457 16.1016C102.111 15.8972 101.769 15.7879 101.431 15.7738C101.093 15.7596 100.826 15.898 100.631 16.1889C100.271 16.6814 100.284 17.0326 100.667 17.2427C100.722 17.2512 100.782 17.2888 100.848 17.3555C100.916 17.4037 100.944 17.4648 100.933 17.5386C100.853 17.5641 100.649 17.5421 100.32 17.4726C99.9934 17.3846 99.6698 17.2782 99.349 17.1533C99.0127 17.0072 98.7962 16.8794 98.6997 16.7702C98.5976 16.6978 98.5188 16.6573 98.4634 16.6488C98.4081 16.6403 98.2669 16.6375 98.0398 16.6403C97.712 16.6843 97.5381 16.7709 97.5183 16.9001C97.5069 16.9739 97.4679 17.0434 97.4012 17.1087C97.3373 17.1555 97.2685 17.1733 97.1947 17.1619C97.0627 17.1605 97.0684 17.2464 97.2117 17.4195C97.3366 17.5898 97.5637 17.8325 97.893 18.1475C98.2095 18.4228 98.4082 18.6045 98.4891 18.6925C98.5544 18.7592 98.5437 18.8897 98.4572 19.0842C98.2556 19.412 98.184 19.8165 98.2422 20.2976C98.3004 20.7787 98.4587 21.2847 98.717 21.8154C98.9753 22.3462 99.3117 22.8606 99.7261 23.3588C100.125 23.8356 100.569 24.2627 101.059 24.6402C101.533 24.9964 102.015 25.2405 102.504 25.3725ZM103.162 24.2272C103.088 24.2158 102.965 24.159 102.792 24.0569C102.621 23.9362 102.485 23.8397 102.383 23.7674C102.32 23.6822 102.241 23.585 102.144 23.4757C102.032 23.3452 101.941 23.265 101.87 23.2352C101.796 23.2238 101.708 23.182 101.606 23.1096C101.506 23.0188 101.371 22.8563 101.199 22.6221C101.03 22.3695 100.812 22.0055 100.546 21.5301C100.239 21.0674 100.01 20.6545 99.858 20.2911C99.7089 19.9094 99.7032 19.578 99.8409 19.297C99.8707 19.226 99.9331 19.1884 100.028 19.1842C100.105 19.1771 100.213 19.1465 100.354 19.0926C100.538 19.121 100.721 19.1018 100.901 19.0351C101.066 18.9471 101.262 18.8357 101.491 18.7009L102.019 18.2155L102.417 18.7583C102.667 19.0989 102.912 19.5899 103.153 20.2314C103.379 20.8516 103.556 21.4831 103.683 22.126C103.814 22.7504 103.871 23.2408 103.854 23.597C103.83 23.8766 103.755 24.054 103.63 24.1292C103.505 24.2044 103.349 24.2371 103.162 24.2272Z" fill="#2F94F9"/>
<path d="M114.426 27.6593C114.63 27.5585 114.787 27.4598 114.896 27.3633C115.005 27.2668 115.066 27.1157 115.079 26.9099C115.085 26.6275 115.074 26.333 115.045 26.0264C115.02 25.7014 114.974 25.3828 114.909 25.0706C114.905 24.73 114.891 24.388 114.868 24.0445C114.827 23.6982 114.728 23.3619 114.57 23.0355C114.393 22.1017 114.239 21.1998 114.108 20.3298C113.962 19.4386 113.746 18.3855 113.461 17.1707C113.4 16.9536 113.34 16.7932 113.28 16.6896C113.205 16.5647 113.139 16.4412 113.082 16.3192C113.075 16.2426 113.025 16.1971 112.933 16.183C112.825 16.1475 112.702 16.1475 112.565 16.183C112.43 16.2 112.318 16.249 112.23 16.3299C112.159 16.3001 112.04 16.4044 111.871 16.6428C111.683 16.8784 111.597 17.0729 111.611 17.2261C111.6 17.2999 111.602 17.4042 111.619 17.5391C111.637 17.6739 111.673 17.8023 111.73 17.9244C111.793 18.0095 111.849 18.1316 111.901 18.2905C111.954 18.431 112.038 18.6233 112.152 18.8674C112.257 19.4124 112.347 19.8701 112.422 20.2405C112.497 20.6109 112.593 21.0317 112.71 21.5028C112.81 21.7072 112.874 21.9719 112.899 22.2969C112.925 22.6219 112.952 22.9376 112.98 23.2442C113.058 23.5961 113.131 23.919 113.199 24.2128C113.249 24.5037 113.268 24.6861 113.257 24.7599C113.324 25.1856 113.363 25.6071 113.374 26.0244C113.388 26.4232 113.456 26.7829 113.576 27.1037C113.552 27.3833 113.607 27.5805 113.74 27.6955C113.855 27.8076 114.084 27.7955 114.426 27.6593ZM107.743 27.0848C108.044 27.0933 108.274 27.072 108.433 27.0209C108.595 26.9513 108.901 26.8002 109.353 26.5674C109.608 26.3801 109.965 26.0856 110.423 25.6839C110.882 25.2823 111.344 24.8529 111.811 24.3959C112.281 23.9205 112.674 23.5181 112.989 23.1888L112.088 21.4922C111.803 21.7505 111.566 21.9975 111.379 22.2331C111.192 22.4687 111.045 22.6255 110.939 22.7036C110.418 23.2656 110.008 23.7219 109.708 24.0724C109.39 24.4202 109.111 24.6983 108.872 24.907C108.632 25.1156 108.387 25.2951 108.137 25.4456C107.869 25.5932 107.544 25.7415 107.162 25.8905C107.101 25.9189 107.037 25.9658 106.971 26.0311C106.904 26.0963 106.868 26.2042 106.864 26.3546C106.907 26.5689 106.97 26.7109 107.054 26.7804C107.122 26.8286 107.352 26.9301 107.743 27.0848ZM113.118 22.8972C113.277 22.6006 113.289 22.2812 113.152 21.9392C113.001 21.5759 112.815 21.3112 112.595 21.1452C112.541 21.0047 112.48 20.9103 112.412 20.8621C112.328 20.7925 112.282 20.7195 112.275 20.6428C112.25 20.5633 112.173 20.4477 112.045 20.2958C111.899 20.1412 111.77 19.9985 111.658 19.868C111.391 19.6381 111.093 19.3656 110.764 19.0505C110.419 18.7142 110.092 18.3807 109.784 18.0501C109.477 17.7194 109.218 17.4341 109.01 17.1943C108.782 16.9516 108.646 16.7984 108.599 16.7345C108.555 16.6522 108.488 16.5947 108.399 16.5621C108.294 16.5082 108.152 16.5053 107.975 16.5536C107.745 16.5749 107.583 16.6444 107.49 16.7622C107.399 16.8616 107.328 17.0773 107.277 17.4094C107.19 17.6038 107.239 17.838 107.424 18.1119C107.593 18.3645 107.868 18.6618 108.25 19.0038C108.383 19.1188 108.565 19.2884 108.795 19.5126C109.006 19.734 109.191 19.9419 109.35 20.1363C109.468 20.23 109.642 20.3889 109.872 20.6131C110.086 20.8161 110.273 21.0147 110.432 21.2092C110.565 21.3241 110.733 21.52 110.936 21.7967C111.142 22.055 111.356 22.2579 111.579 22.4055C112.085 23.0498 112.427 23.4046 112.605 23.4699C112.784 23.5351 112.955 23.3442 113.118 22.8972Z" fill="#2F94F9"/>
<path d="M119.548 28.5321C119.781 28.4923 120.027 28.4831 120.289 28.5044C120.553 28.5072 120.791 28.4305 121.004 28.2744C121.281 28.0715 121.508 27.8231 121.685 27.5293C121.847 27.2142 121.916 26.885 121.894 26.5415C121.869 26.3301 121.872 26.1321 121.9 25.9476C121.931 25.7447 121.915 25.5438 121.851 25.3452C121.864 25.1394 121.846 24.9478 121.798 24.7704C121.752 24.5745 121.707 24.3787 121.661 24.1828C121.581 23.8493 121.518 23.5187 121.474 23.1908C121.412 22.8602 121.329 22.5359 121.227 22.218C121.038 21.6035 120.828 21.0046 120.597 20.4213C120.347 19.8352 120.137 19.2363 119.967 18.6246C119.916 18.4657 119.847 18.3606 119.76 18.3096C119.658 18.2372 119.552 18.1925 119.441 18.1755C119.293 18.1528 119.141 18.1577 118.985 18.1904C118.829 18.223 118.693 18.2493 118.577 18.2692C118.496 18.4267 118.391 18.5523 118.264 18.646C118.136 18.7396 118.075 18.8908 118.081 19.0994C118.282 19.5081 118.473 19.9247 118.653 20.349C118.818 20.752 118.981 21.1643 119.143 21.5858C119.289 21.986 119.433 22.4047 119.573 22.8418C119.66 23.1384 119.716 23.4492 119.741 23.7742C119.767 24.0992 119.823 24.41 119.909 24.7066C119.993 25.0217 120.037 25.3495 120.042 25.6901C120.049 26.0123 120.074 26.3373 120.118 26.6651C120.122 26.7602 120.108 26.8524 120.076 26.9418C120.027 27.01 119.954 27.0554 119.856 27.0781C119.612 26.9461 119.367 26.8234 119.12 26.7098C118.873 26.5963 118.661 26.4409 118.483 26.2437C118.16 25.8917 117.904 25.588 117.717 25.3326C117.532 25.0587 117.398 24.7642 117.314 24.4491C117.234 24.1156 117.204 23.6955 117.225 23.1889C117.224 23.0753 117.248 22.9753 117.299 22.8887C117.353 22.7837 117.423 22.7 117.508 22.6375C117.686 22.5893 117.855 22.5303 118.017 22.4608C118.163 22.37 118.283 22.2656 118.377 22.1478C118.455 22.0088 118.48 21.8427 118.453 21.6497C118.419 21.3801 118.3 21.1729 118.096 21.0281C117.873 20.8805 117.658 20.8003 117.453 20.7876C117.413 20.8004 117.382 20.8146 117.361 20.8302C117.321 20.8429 117.289 20.8664 117.265 20.9004C117.106 20.9515 116.943 21.0303 116.776 21.1367C116.611 21.2247 116.466 21.3063 116.341 21.3816C116.236 21.5732 116.101 21.779 115.935 21.9989C115.769 22.2189 115.648 22.578 115.571 23.0761C115.412 24.1093 115.56 24.9913 116.014 25.7222C116.45 26.4502 117.073 27.1222 117.885 27.7381C118.003 27.8318 118.133 27.9084 118.275 27.968C118.401 28.0063 118.512 28.0801 118.609 28.1894C118.63 28.1738 118.712 28.1958 118.854 28.2554C118.999 28.2965 119.142 28.3469 119.284 28.4065C119.426 28.4661 119.514 28.5079 119.548 28.5321Z" fill="#2F94F9"/>
<path d="M131.288 30.7626C131.367 30.7371 131.48 30.6789 131.626 30.588C131.754 30.4944 131.872 30.3993 131.982 30.3028C132.045 30.2559 132.099 30.2169 132.141 30.1857C132.187 30.136 132.229 30.1048 132.269 30.092C132.289 29.9628 132.275 29.8663 132.228 29.8025C132.163 29.7358 132.099 29.6598 132.037 29.5747C131.98 29.4526 131.869 29.3789 131.703 29.3533C131.537 29.3278 131.415 29.2618 131.336 29.1554C131.041 28.8644 130.738 28.5629 130.427 28.2507C130.117 27.9384 129.868 27.5886 129.682 27.2012C129.481 26.7925 129.283 26.3561 129.09 25.892C128.897 25.4279 128.712 24.9745 128.535 24.5317C128.481 24.3912 128.396 24.1422 128.281 23.7845C128.166 23.4269 128.059 23.0799 127.96 22.7436C127.845 22.3859 127.788 22.1411 127.79 22.0091C127.964 21.9793 128.128 21.9573 128.281 21.9431C128.419 21.9076 128.555 21.8814 128.69 21.8643C128.896 21.6316 129.011 21.4982 129.035 21.4641C129.062 21.4116 129.098 21.2377 129.143 20.9425C129.177 20.7211 129.079 20.5643 128.848 20.4721C128.332 20.2607 127.875 20.1053 127.474 20.0059C127.056 19.9038 126.652 19.7661 126.263 19.593C126.016 19.4795 125.707 19.4036 125.335 19.3653C124.963 19.327 124.581 19.3532 124.19 19.4441C124.012 19.4923 123.86 19.5633 123.732 19.657C123.604 19.7507 123.483 19.8642 123.368 19.9976C123.077 20.2928 122.913 20.5603 122.876 20.8002C122.821 21.0372 122.795 21.2692 122.798 21.4963C122.8 21.7234 122.734 21.9682 122.6 22.2308C122.652 22.7488 122.713 23.2114 122.783 23.6187C122.855 24.0076 122.921 24.3766 122.981 24.7257C123.043 25.0564 123.099 25.3672 123.149 25.6581C123.199 25.949 123.23 26.2371 123.243 26.5224C123.271 26.8289 123.318 27.1383 123.383 27.4505C123.448 27.7628 123.485 28.08 123.492 28.4021C123.492 28.6476 123.576 28.8399 123.743 28.979C123.892 29.1152 124.061 29.2451 124.25 29.3686C124.321 29.3984 124.453 29.3998 124.646 29.3728C124.823 29.3245 124.995 29.2472 125.163 29.1407C125.25 28.9463 125.296 28.7646 125.303 28.5958C125.311 28.4269 125.299 28.2551 125.269 28.0806C125.237 27.9245 125.186 27.5768 125.118 27.0375C125.05 26.4982 124.973 25.8915 124.888 25.2174C124.803 24.5432 124.72 23.9167 124.639 23.3376C124.558 22.7586 124.507 22.3541 124.486 22.1242C124.439 21.8148 124.445 21.5892 124.505 21.4473C124.546 21.3025 124.595 21.1684 124.652 21.0449C125.062 20.9569 125.336 20.9519 125.476 21.03C125.599 21.0867 125.759 21.1492 125.957 21.2173C126.038 21.3053 126.099 21.3997 126.14 21.5004C126.181 21.6012 126.204 21.6991 126.208 21.7942C126.329 22.3604 126.439 22.8117 126.538 23.1481C126.619 23.4816 126.704 23.7874 126.793 24.0656C126.886 24.3253 126.992 24.6155 127.113 24.9363C127.215 25.2542 127.346 25.6898 127.507 26.2433C127.603 26.5981 127.741 26.9309 127.92 27.2417C128.08 27.5497 128.219 27.8732 128.337 28.2124L128.582 28.6467C128.563 28.6439 128.626 28.729 128.769 28.9021C128.912 29.0753 129.056 29.2484 129.199 29.4216C129.324 29.5918 129.387 29.677 129.387 29.677L130.142 30.4731C130.223 30.5611 130.374 30.6221 130.596 30.6562C130.817 30.6902 131.048 30.7257 131.288 30.7626Z" fill="#2F94F9"/>
<path d="M136.621 31.2712C136.861 31.3081 137.061 31.2917 137.223 31.2222C137.367 31.1498 137.552 31.0462 137.781 30.9114C138.188 30.5963 138.491 30.284 138.69 29.9746C138.891 29.6468 138.989 29.3218 138.981 28.9996C138.949 28.8435 138.952 28.7023 138.99 28.576C139.013 28.4284 139.024 28.3546 139.024 28.3546C139.13 28.2765 139.167 28.2255 139.133 28.2013C139.101 28.1588 139.073 28.0977 139.047 28.0183C138.937 28.0012 138.915 27.8941 138.984 27.6968C139.043 27.5549 139.019 27.2207 138.911 26.6941C138.803 26.1676 138.645 25.6617 138.436 25.1763C138.354 24.9748 138.225 24.7094 138.049 24.3802C137.876 24.0325 137.683 23.6912 137.47 23.3563C137.241 23 137.03 22.7127 136.837 22.4941C136.436 22.0357 136.074 21.6873 135.752 21.4489C135.43 21.2105 135.073 21.014 134.681 20.8593C134.289 20.7046 134.02 20.6159 133.872 20.5932C133.706 20.5677 133.462 20.6812 133.14 20.9339C132.687 21.0531 132.348 21.2277 132.124 21.4576C131.882 21.6847 131.694 22.043 131.562 22.5327C131.422 23.0777 131.37 23.7213 131.407 24.4635C131.428 25.1845 131.727 26.1275 132.303 27.2926C132.662 28.0278 133.01 28.5912 133.347 28.9829C133.686 29.3561 134.099 29.7407 134.586 30.1366C134.933 30.4545 135.254 30.7021 135.548 30.8795C135.844 31.0385 136.202 31.169 136.621 31.2712ZM134.415 27.9291C134.049 27.3628 133.771 26.8384 133.581 26.3559C133.372 25.8705 133.2 25.2681 133.065 24.5486C133.023 24.3343 133.015 24.0781 133.042 23.7801C133.072 23.4636 133.125 23.179 133.202 22.9264C133.263 22.6525 133.351 22.5056 133.468 22.4858C133.709 22.3907 133.982 22.3949 134.287 22.4985C134.595 22.5836 134.91 22.8114 135.23 23.1818C135.728 23.7494 136.134 24.4257 136.448 25.2105C136.765 25.9768 137.056 26.8432 137.323 27.8097C137.498 28.5165 137.48 29.0614 137.27 29.4446C137.044 29.8065 136.682 29.8924 136.182 29.7023C135.667 29.4908 135.078 28.8998 134.415 27.9291Z" fill="#2F94F9"/>
<path d="M143.887 34.0603C144.035 34.083 144.219 33.9886 144.441 33.7771C144.662 33.5656 144.781 33.3478 144.796 33.1236C144.823 32.8255 144.806 32.3884 144.743 31.8122C144.681 31.236 144.601 30.6478 144.505 30.0474C144.408 29.4471 144.311 28.9696 144.215 28.6148C144.187 28.3082 144.162 28.04 144.14 27.8101C144.104 27.5589 144.082 27.395 144.074 27.3183C144.03 27.236 143.977 27.0295 143.915 26.6989C143.834 26.3654 143.779 26.0453 143.751 25.7388C143.737 25.5855 143.705 25.2974 143.657 24.8745C143.593 24.4303 143.521 23.9187 143.44 23.3396C143.34 22.7578 143.249 22.1866 143.165 21.626C143.063 21.0626 142.978 20.568 142.912 20.1422C142.845 19.7165 142.803 19.4362 142.786 19.3013C142.673 19.0572 142.595 18.828 142.552 18.6137C142.509 18.3994 142.485 18.254 142.477 18.1773C142.378 18.0865 142.328 17.9843 142.326 17.8708C142.328 17.7388 142.334 17.6359 142.345 17.5621C142.36 17.4699 142.343 17.3918 142.296 17.328C142.231 17.2613 142.204 17.191 142.216 17.1172C142.15 17.0505 142.117 16.9604 142.115 16.8469C142.117 16.7149 142.079 16.5957 142 16.4892L141.934 15.9975L140.306 15.7187C140.309 15.9457 140.322 16.231 140.344 16.5745C140.37 16.8994 140.48 17.3508 140.674 17.9284C140.71 18.3115 140.769 18.6607 140.853 18.9757C140.918 19.2879 140.935 19.4888 140.902 19.5782C140.933 19.6207 140.988 19.818 141.066 20.17C141.126 20.5191 141.202 20.9463 141.294 21.4515C141.368 21.9539 141.451 22.4577 141.543 22.9629C141.617 23.4653 141.69 23.9109 141.762 24.2998C141.819 24.6674 141.859 24.9001 141.882 24.998C141.984 25.3159 142.083 25.7751 142.18 26.3754C142.276 26.9757 142.434 27.7931 142.652 28.8277C142.755 29.1456 142.871 29.6168 143.002 30.2412C143.114 30.8628 143.198 31.4234 143.253 31.923C143.345 32.6737 143.416 33.1946 143.466 33.4855C143.494 33.7921 143.535 33.9588 143.587 33.9858C143.637 34.0312 143.737 34.056 143.887 34.0603ZM146.203 17.5322C146.717 17.6301 147.108 17.662 147.378 17.6279C147.629 17.591 147.74 17.4193 147.712 17.1127C147.691 16.8828 147.596 16.6983 147.429 16.5592C147.261 16.4202 147.007 16.296 146.665 16.1867C146.467 16.1186 146.216 16.0328 145.911 15.9292C145.587 15.8228 145.282 15.7192 144.996 15.6184C144.398 15.451 143.91 15.3098 143.531 15.1948C143.134 15.0771 142.726 14.9671 142.307 14.8649C141.888 14.7628 141.359 14.6436 140.719 14.5074C140.189 14.3882 139.742 14.291 139.376 14.2158C138.994 14.1193 138.803 14.0711 138.803 14.0711C138.748 14.0625 138.551 14.0512 138.213 14.037C137.875 14.0228 137.509 14.0136 137.113 14.0094C136.717 14.0052 136.421 14.0257 136.225 14.0712C135.786 14.0982 135.462 14.1805 135.252 14.3182C135.024 14.453 134.848 14.6716 134.726 14.9738C134.637 15.1867 134.616 15.3251 134.662 15.389C134.712 15.4344 134.805 15.5053 134.941 15.6018C135.346 15.7962 135.65 15.9091 135.852 15.9403C136.055 15.9715 136.293 15.9608 136.566 15.9083C136.672 15.8302 136.796 15.7642 136.936 15.7103C137.058 15.6535 137.27 15.6294 137.57 15.6379C137.856 15.6251 138.306 15.6471 138.92 15.7038C139.428 15.8386 139.876 15.9358 140.263 15.9954C140.651 16.055 140.837 16.1309 140.823 16.2232L142.443 16.5573L143.778 16.9043C143.96 16.9511 144.214 17.0185 144.54 17.1065C144.869 17.176 145.188 17.2533 145.496 17.3385C145.807 17.4052 146.042 17.4697 146.203 17.5322Z" fill="#2F94F9"/>
<path d="M53.4167 49.0141C55.2306 47.7993 57.0413 46.5812 58.8342 45.3371C59.0364 45.1952 59.2435 45.0533 59.4426 44.9066C59.5008 44.8642 59.5591 44.8185 59.6174 44.781C59.7743 44.6392 59.9863 44.543 60.2549 44.5348C60.5041 44.5267 60.8099 44.6522 60.9798 44.8349C61.2193 45.0941 61.3617 45.4855 61.2404 45.836C61.0753 46.3252 60.6352 46.5666 60.242 46.847C59.7565 47.1895 59.2646 47.527 58.7711 47.8613C58.1918 48.2575 57.6076 48.6505 57.0267 49.0418C63.4898 49.7723 70.8293 48.1744 75.0513 42.7803C76.4219 41.0274 77.3539 38.906 77.9089 36.7324C78.2358 35.4508 80.2035 35.9938 79.8766 37.2787C78.8038 41.5149 76.3766 45.205 72.7731 47.6691C69.4964 49.9063 65.5321 50.9662 61.6175 51.2092C60.2761 51.2924 58.933 51.2679 57.5949 51.1554C58.9865 51.9022 60.4525 52.4957 61.9655 52.967C63.2164 53.3551 62.6824 55.3428 61.4235 54.9498C59.2988 54.2911 57.2197 53.4056 55.3345 52.2153C54.5966 51.7522 53.8425 51.2434 53.2099 50.6336C52.7083 50.1542 52.8862 49.3731 53.417 49.0176L53.4167 49.0141ZM59.2774 45.2865C59.2855 45.311 59.2903 45.3371 59.2984 45.3615C59.3065 45.3191 59.3146 45.2735 59.3308 45.2327C59.2936 45.2914 59.2693 45.3208 59.2806 45.2865L59.2774 45.2865ZM59.5379 44.856L59.546 44.8479C59.546 44.8479 59.5412 44.8479 59.5379 44.8528V44.856Z" fill="#2F94F9"/>
</svg>
