<svg width="135" height="121" viewBox="0 0 135 121" fill="none" xmlns="http://www.w3.org/2000/svg">
<path d="M116.062 52.6271C116.237 52.4275 116.392 52.2554 116.528 52.1105C116.663 51.9843 116.761 51.8476 116.822 51.7002C116.864 51.5709 116.868 51.4309 116.836 51.2804C116.835 51.3177 116.801 51.2045 116.735 50.9408C116.669 50.6958 116.596 50.3758 116.516 49.9809C116.416 49.604 116.345 49.2374 116.301 48.881L115.896 46.7662C115.975 46.6381 115.97 46.4978 115.882 46.3454C115.776 46.1738 115.66 46.0018 115.535 45.8295L113.671 45.4584C113.375 45.3737 113.045 45.1664 112.683 44.8367C112.302 44.5063 111.941 44.1393 111.599 43.7355C111.258 43.3318 110.981 42.9769 110.767 42.6709C110.162 41.7913 109.658 40.9431 109.256 40.1264C108.836 39.2905 108.472 38.4377 108.166 37.5682C107.841 36.6794 107.536 35.7353 107.253 34.7358C106.951 33.7171 106.615 32.5851 106.246 31.34C106.084 31.185 105.971 30.9104 105.91 30.5161C105.849 30.1219 105.821 29.8314 105.827 29.6449C105.998 29.5759 106.138 29.562 106.249 29.6031C106.36 29.6441 106.49 29.6486 106.641 29.6163C106.944 29.4771 107.166 29.2605 107.307 28.9664C107.429 28.6717 107.457 28.4018 107.39 28.1567C107.298 28.1349 107.195 28.1408 107.082 28.1743C106.969 28.1892 106.829 28.1938 106.661 28.1881C106.493 28.1825 106.298 28.1572 106.075 28.1123C105.89 28.0687 105.602 28.0123 105.212 27.9432C104.823 27.874 104.461 27.8057 104.127 27.7384C103.774 27.6705 103.571 27.6169 103.516 27.5777C102.735 27.4767 102.046 27.3974 101.451 27.3399C100.837 27.2632 100.25 27.2061 99.6914 27.1685C99.133 27.1123 98.5273 27.0732 97.8744 27.0512C97.5572 27.0405 97.2649 27.124 96.9974 27.3017C96.7113 27.4789 96.5368 27.6691 96.4739 27.8724C96.4483 28.077 96.5 28.4803 96.6291 29.0823C96.7583 29.6844 96.9302 30.3999 97.145 31.229C97.3599 32.058 97.6011 32.9346 97.8688 33.8589C98.137 34.7644 98.4246 35.652 98.7315 36.5215C99.0197 37.3903 99.2927 38.156 99.5505 38.8184C99.684 39.2898 99.8448 39.7809 100.033 40.2915C100.203 40.8015 100.381 41.3305 100.568 41.8784C100.632 42.1795 100.715 42.4904 100.817 42.8114C100.9 43.113 100.991 43.4523 101.09 43.8292C101.049 43.9585 100.99 44.0499 100.913 44.1033C100.837 44.1381 100.679 44.1328 100.437 44.0873C99.9554 43.9776 99.6684 43.9026 99.5764 43.8621C99.4663 43.8024 99.3572 43.7147 99.2491 43.5989C99.231 43.5797 99.1754 43.5684 99.0821 43.5653C98.9702 43.5615 98.8763 43.577 98.8004 43.6118C98.4042 43.7292 98.0991 43.915 97.8851 44.1693C97.6717 44.4049 97.5624 44.5973 97.5574 44.7465C97.5746 45.3448 97.7018 46.0028 97.939 46.7205C98.157 47.4563 98.4316 48.1753 98.7628 48.8775C99.0753 49.5792 99.3714 50.2148 99.651 50.7846C99.7174 51.0296 99.7503 51.1615 99.7497 51.1801C99.7298 51.2168 99.7285 51.2541 99.7459 51.2921C99.7446 51.3294 99.8329 51.4818 100.011 51.7493C100.119 51.865 100.268 51.8793 100.457 51.7924C100.628 51.7047 100.801 51.5705 100.975 51.3896C101.13 51.2267 101.237 51.1089 101.295 51.0362C101.358 50.8329 101.366 50.6183 101.317 50.3926C101.269 50.1668 101.158 49.8642 100.984 49.4848C100.634 48.7633 100.303 48.061 99.99 47.3781C99.6769 46.6951 99.4815 46.1189 99.404 45.6493L99.6074 45.4321C99.6802 45.4906 99.9118 45.5451 100.302 45.5956C100.693 45.6275 101.131 45.6609 101.616 45.696C102.081 45.7303 102.491 45.7629 102.845 45.7935C103.181 45.8048 103.349 45.8105 103.349 45.8105C103.445 45.739 103.53 45.7045 103.604 45.707C103.661 45.6903 103.8 45.7136 104.022 45.7772L105.783 45.8926C105.914 45.897 106.026 45.9008 106.119 45.904C106.213 45.8884 106.315 45.9012 106.426 45.9423C106.797 46.0295 107.085 46.0766 107.29 46.0835C107.477 46.0712 107.775 46.0999 108.183 46.1697C108.221 46.171 108.407 46.1959 108.741 46.2446C109.076 46.2932 109.476 46.3441 109.941 46.3971C110.387 46.4495 110.833 46.5113 111.279 46.5824C111.707 46.6342 112.07 46.6837 112.367 46.7311C112.646 46.7592 112.767 46.7726 112.73 46.7714C113.177 46.7865 113.492 46.8625 113.675 46.9994C113.856 47.1549 114.068 47.2554 114.309 47.3009C114.474 47.9415 114.638 48.6101 114.801 49.3067C114.945 50.0213 115.074 50.6326 115.188 51.1408C115.283 51.6483 115.339 51.9303 115.355 51.9869C115.37 52.1181 115.431 52.2323 115.54 52.3293C115.629 52.4444 115.803 52.5437 116.062 52.6271ZM110.518 45.0718C110.257 45.063 109.847 45.0305 109.288 44.9743C108.711 44.9175 108.079 44.8494 107.39 44.7702C106.683 44.6903 106.013 44.6116 105.381 44.5343C104.731 44.4376 104.182 44.3631 103.736 44.3107C103.289 44.2582 103.048 44.2221 103.011 44.2022C102.917 43.676 102.811 43.1962 102.695 42.7627C102.561 42.3099 102.426 41.8851 102.29 41.4883C102.136 41.0722 101.991 40.6657 101.855 40.2689C101.836 40.2683 101.767 40.1165 101.646 39.8136C101.526 39.4921 101.39 39.0953 101.238 38.6232C101.068 38.1318 100.898 37.6405 100.727 37.1491C100.558 36.6391 100.414 36.186 100.297 35.7898C100.161 35.393 100.068 35.1191 100.017 34.9679C99.5446 33.4578 99.158 32.184 98.8568 31.1466C98.5376 30.0899 98.3417 29.2522 98.2692 28.6334C98.5883 28.5881 99.0087 28.5836 99.5304 28.6199C100.034 28.6369 100.565 28.6735 101.124 28.7297C101.682 28.7859 102.202 28.8688 102.684 28.9785C103.147 29.0875 103.517 29.2027 103.793 29.3241L104.28 30.6573C104.315 30.7518 104.415 31.1007 104.581 31.704C104.729 32.3067 104.946 33.0704 105.232 33.9953C105.5 34.9195 105.821 35.9202 106.196 36.9975C106.571 38.0561 106.983 39.1159 107.433 40.177C107.884 41.2195 108.374 42.1699 108.906 43.0283C109.419 43.8861 109.956 44.5672 110.518 45.0718ZM90.9401 45.1956C91.3206 45.5447 91.771 45.756 92.2915 45.8296C92.7933 45.9025 93.2902 45.8446 93.7822 45.6557C94.2748 45.4482 94.6873 45.126 95.0195 44.6889C95.3505 44.2892 95.5715 43.8297 95.6824 43.3105C95.7939 42.7726 95.8269 42.0733 95.7812 41.2126C95.7498 40.4832 95.5411 39.7477 95.1553 39.0063C94.77 38.2462 94.298 37.5672 93.7391 36.9694C93.1617 36.3709 92.5875 35.9499 92.0167 35.7065C91.7432 35.5105 91.5128 35.4187 91.3256 35.4311C91.1204 35.4242 90.812 35.4324 90.4003 35.4559C89.9693 35.4974 89.6493 35.5706 89.4403 35.6756C89.2127 35.78 89.0304 35.9233 88.8935 36.1054C88.6042 36.3758 88.4082 36.6494 88.3055 36.9261C88.2034 37.1841 88.148 37.4437 88.1391 37.7049C88.1999 38.1179 88.4628 38.631 88.9277 39.2444C89.3746 39.8385 89.9742 40.335 90.7265 40.7339C91.1325 40.8783 91.5784 40.9494 92.064 40.9471C92.5497 40.9448 92.9549 40.8371 93.2796 40.6239C93.6391 40.4866 93.8714 40.5225 93.9764 40.7315C94.082 40.9218 94.1689 41.3917 94.237 42.1411C94.2877 42.8525 94.2141 43.373 94.0162 43.7025C93.819 44.0134 93.5608 44.1914 93.2418 44.2367C92.8661 44.2987 92.5751 44.345 92.3686 44.3753C92.1441 44.3864 91.8764 44.2934 91.5656 44.0961C91.2734 43.8995 91.0903 43.7906 91.0163 43.7694C90.9429 43.7296 90.8882 43.6904 90.8521 43.6518C90.7981 43.5939 90.6809 43.4686 90.5006 43.2757C90.3744 43.1407 90.275 43.044 90.2022 42.9855C90.1301 42.9084 90.0474 42.8682 89.9542 42.8651C89.8609 42.8619 89.7754 42.9057 89.6976 42.9965C89.6204 43.0686 89.5439 43.122 89.468 43.1568C89.2815 43.1505 89.2404 43.2612 89.3448 43.4889C89.4305 43.7159 89.6173 43.993 89.9051 44.3202C90.1935 44.6288 90.5385 44.9206 90.9401 45.1956ZM91.1683 39.264C90.9662 39.1638 90.7561 39.0259 90.5379 38.8505C90.3203 38.6563 90.1404 38.4542 89.998 38.2439C89.8377 38.0144 89.76 37.825 89.7651 37.6757C89.7739 37.4145 89.9024 37.2041 90.1506 37.0444C90.3994 36.866 90.7641 36.8503 91.2448 36.9972C91.4481 37.0601 91.6766 37.2079 91.9302 37.4406C92.1845 37.6546 92.4285 37.8963 92.6622 38.1657C92.8772 38.4345 93.0559 38.6739 93.1983 38.8842C93.3219 39.0938 93.3645 39.2167 93.3259 39.2527C93.2668 39.3441 93.1057 39.4134 92.8426 39.4605C92.5802 39.489 92.2907 39.4886 91.9742 39.4592C91.639 39.4293 91.3704 39.3642 91.1683 39.264ZM89.0519 46.0004C89.1278 45.9656 89.2329 45.8945 89.3673 45.7869C89.483 45.6788 89.5894 45.5703 89.6864 45.4615C89.7443 45.4074 89.7925 45.3624 89.8311 45.3263C89.8703 45.2716 89.9088 45.2355 89.9468 45.2181C89.9512 45.0876 89.9263 44.9933 89.8723 44.9355C89.7995 44.877 89.7271 44.8092 89.655 44.732C89.5841 44.6176 89.4648 44.5575 89.2969 44.5519C89.129 44.5462 88.9999 44.4951 88.9098 44.3987C88.5822 44.1449 88.2455 43.8813 87.8999 43.6082C87.5542 43.3351 87.2661 43.0172 87.0356 42.6545C86.787 42.2726 86.5393 41.8627 86.2926 41.4248C86.0459 40.9869 85.8082 40.5586 85.5795 40.14C85.5093 40.0069 85.3959 39.7696 85.2394 39.4281C85.0828 39.0866 84.9352 38.7548 84.7967 38.4326C84.6401 38.0911 84.5547 37.8548 84.5404 37.7236C84.7102 37.6733 84.8704 37.632 85.0209 37.5997C85.1534 37.5481 85.2855 37.5059 85.4174 37.473C85.5941 37.2175 85.6924 37.0714 85.7123 37.0347C85.7329 36.9793 85.7482 36.8024 85.7583 36.5039C85.7658 36.2801 85.6493 36.1361 85.4086 36.0719C84.872 35.923 84.3991 35.823 83.9899 35.7719C83.5621 35.7201 83.1449 35.6313 82.7382 35.5055C82.4796 35.4221 82.1633 35.3834 81.7896 35.3895C81.4158 35.3955 81.0399 35.4669 80.6617 35.6035C80.4913 35.6725 80.3482 35.7611 80.2325 35.8692C80.1168 35.9774 80.0098 36.1045 79.9115 36.2506C79.6576 36.5782 79.5266 36.8633 79.5184 37.1058C79.4916 37.3477 79.493 37.5813 79.5228 37.8064C79.5526 38.0315 79.5161 38.2824 79.4133 38.5591C79.5269 39.0672 79.6424 39.5194 79.7598 39.9156C79.8778 40.2931 79.9871 40.6517 80.0877 40.9912C80.1889 41.3122 80.2815 41.6141 80.3653 41.8971C80.4492 42.1801 80.5143 42.4625 80.5609 42.7442C80.6254 43.0452 80.7086 43.3469 80.8105 43.6491C80.9123 43.9514 80.9859 44.2621 81.0312 44.5811C81.0603 44.8249 81.1663 45.0059 81.349 45.1241C81.5132 45.2417 81.6963 45.3506 81.8983 45.4508C81.9723 45.472 82.1036 45.4578 82.292 45.4081C82.4624 45.3391 82.6245 45.2419 82.7781 45.1163C82.841 44.913 82.866 44.7271 82.853 44.5585C82.84 44.39 82.8083 44.2208 82.758 44.051C82.7071 43.8999 82.6158 43.5606 82.4842 43.0332C82.3526 42.5058 82.2045 41.9125 82.04 41.2532C81.8755 40.594 81.7187 39.9817 81.5697 39.4163C81.4206 38.851 81.3219 38.4554 81.2735 38.2297C81.1903 37.928 81.1699 37.7032 81.2122 37.5552C81.2359 37.4066 81.2686 37.2676 81.3103 37.1383C81.7072 37.0023 81.9792 36.9648 82.1266 37.0258C82.2559 37.0675 82.4226 37.1105 82.6265 37.1547C82.7173 37.2325 82.7891 37.3189 82.8419 37.4141C82.8947 37.5093 82.9289 37.6038 82.9444 37.6977C83.1314 38.2457 83.2941 38.6807 83.4327 39.0029C83.5526 39.3245 83.6734 39.6181 83.7952 39.8837C83.9176 40.1306 84.0577 40.4061 84.2155 40.7103C84.3547 41.0138 84.5367 41.4309 84.7616 41.9614C84.8996 42.3023 85.0757 42.6164 85.2902 42.9038C85.4859 43.1906 85.6624 43.4953 85.8196 43.8182L86.1142 44.2203C86.0956 44.2197 86.1677 44.2968 86.3306 44.4518C86.4934 44.6067 86.6563 44.7616 86.8192 44.9165C86.9634 45.0708 87.0355 45.1479 87.0355 45.1479L87.8803 45.8488C87.9711 45.9266 88.1284 45.9693 88.3523 45.9768C88.5761 45.9844 88.8093 45.9922 89.0519 46.0004ZM70.9673 45.166C71.5905 44.9629 72.0804 44.5592 72.437 43.9549C72.7942 43.3319 73.0295 42.7235 73.1429 42.1297C73.1616 42.1303 73.2163 42.1695 73.3071 42.2473C73.3798 42.3058 73.4699 42.4022 73.5775 42.5366C73.8298 42.8066 74.1453 43.1441 74.5238 43.5491C74.903 43.9354 75.3021 44.2851 75.7211 44.598C76.1221 44.8917 76.5098 45.0262 76.8842 45.0015C77.0366 44.9132 77.1986 44.816 77.3703 44.7097C77.524 44.5842 77.6776 44.4586 77.8313 44.3331C77.9084 44.2609 77.9762 44.1885 78.0347 44.1158C78.0746 44.0424 78.1147 43.9597 78.1552 43.8677C78.3793 43.315 78.5079 42.8243 78.541 42.3959C78.5748 41.9488 78.5429 41.5088 78.4455 41.0759C78.33 40.6238 78.1974 40.1243 78.0478 39.5776C78.031 39.5211 77.9736 39.2856 77.8755 38.8714C77.7588 38.4566 77.6253 37.9852 77.475 37.4571C77.3247 36.9291 77.1819 36.4573 77.0465 36.0419C76.8924 35.6258 76.7793 35.3791 76.7072 35.302C76.6512 35.3001 76.5953 35.2982 76.5393 35.2963C76.4653 35.2752 76.4003 35.2636 76.3444 35.2617C76.1578 35.2555 76.0157 35.316 75.918 35.4435C75.8396 35.5529 75.7435 35.6337 75.6297 35.6859C75.4972 35.7374 75.4014 35.8089 75.3423 35.9003C75.2427 36.0837 75.2944 36.487 75.4975 37.1102C75.7013 37.7148 75.9208 38.4039 76.1562 39.1776C76.3754 39.8761 76.557 40.5826 76.701 41.2972C76.8456 41.9931 76.8355 42.5718 76.6705 43.0332C76.5399 43.0288 76.3664 42.9108 76.1501 42.6794C75.9158 42.4287 75.7349 42.2545 75.6074 42.1568C75.4246 42.0386 75.1893 41.8159 74.9015 41.4886C74.5957 41.1421 74.2992 40.7959 74.0121 40.45C73.7255 40.0855 73.5294 39.8081 73.4238 39.6177C73.353 39.5033 73.2479 39.2943 73.1088 38.9907C72.9702 38.6686 72.8323 38.3277 72.695 37.9682C72.5397 37.5894 72.4208 37.2399 72.3382 36.9196C72.2369 36.5987 72.1979 36.3732 72.2209 36.2432C72.2459 36.0573 72.2319 35.9168 72.1791 35.8216C72.1083 35.7071 71.9998 35.6008 71.8537 35.5024C71.7604 35.4993 71.6578 35.4958 71.5459 35.492C71.4339 35.4883 71.331 35.4941 71.2371 35.5096C71.1208 35.6365 70.9954 35.7536 70.861 35.8612C70.7267 35.9687 70.592 36.0855 70.457 36.2117C70.3517 36.5631 70.3917 37.0407 70.5767 37.6446C70.7618 38.2485 70.9453 38.8991 71.1272 39.5963C71.3091 40.2935 71.4161 40.9975 71.4482 41.7083C71.4808 42.4005 71.2738 43.0005 70.8271 43.5084C70.441 43.3272 70.1479 43.1586 69.9477 43.0024C69.7295 42.827 69.5206 42.6518 69.321 42.477C69.1221 42.2835 68.8672 42.0881 68.5564 41.8909C68.366 41.9965 68.2186 42.2157 68.1139 42.5483C68.0093 42.881 67.9536 43.1499 67.9466 43.3551C68.0194 43.4136 68.0921 43.4721 68.1648 43.5306C68.2196 43.5698 68.2643 43.6273 68.2991 43.7032C68.4029 43.9495 68.6185 44.1996 68.9462 44.4535C69.2738 44.7073 69.6216 44.9152 69.9897 45.077C70.3584 45.2202 70.6843 45.2499 70.9673 45.166ZM66.4481 44.3131C66.5066 44.2404 66.5657 44.149 66.6254 44.039C66.6665 43.9283 66.6883 43.8356 66.6908 43.761C66.6921 43.7237 66.703 43.6774 66.7235 43.622C66.7254 43.5661 66.7637 43.5393 66.8383 43.5419C66.8962 43.4878 66.8661 43.272 66.7481 42.8945C66.6121 42.4976 66.4406 42.0436 66.2337 41.5323C66.0082 41.0204 65.782 40.5272 65.5553 40.0526C65.3104 39.5587 65.1088 39.1691 64.9503 38.8835C64.8589 38.8244 64.8055 38.7479 64.79 38.654C64.7565 38.5408 64.7583 38.4848 64.7957 38.4861C64.7957 38.4861 64.7518 38.4006 64.6642 38.2295C64.5586 38.0392 64.4787 37.9151 64.4247 37.8572C64.2842 37.591 64.1811 37.326 64.1153 37.0623C64.0501 36.78 64.0393 36.5462 64.0829 36.3609C64.1607 36.2701 64.2456 36.2449 64.3376 36.2854C64.4296 36.3259 64.4756 36.3461 64.4756 36.3461C64.5496 36.3673 64.6603 36.4084 64.8077 36.4694C64.937 36.5111 65.0564 36.5711 65.1658 36.6495C65.5848 36.9625 65.8693 37.1122 66.0191 37.0986C66.1697 37.0663 66.3457 36.8294 66.5474 36.388C66.629 36.1853 66.662 36.037 66.6465 35.9431C66.631 35.8492 66.5598 35.744 66.433 35.6277C66.2881 35.4921 66.1511 35.4034 66.0217 35.3617C65.893 35.3013 65.7923 35.2419 65.7196 35.1834C65.5188 35.0459 65.354 34.9469 65.2253 34.8865C65.0779 34.8255 64.9673 34.7844 64.8933 34.7633C64.4132 34.5977 64.0037 34.5558 63.6648 34.6378C63.3258 34.7197 63.0658 34.9538 62.8847 35.3399C62.6128 35.6482 62.4699 36.0076 62.4561 36.418C62.4428 36.8098 62.558 37.2713 62.8016 37.8025L63.0673 38.2317C63.1542 38.4214 63.1697 38.5153 63.1138 38.5134C63.0392 38.5109 62.9574 38.4427 62.8685 38.309C62.8151 38.2325 62.7069 38.1168 62.5441 37.9619C62.3812 37.807 62.2718 37.7286 62.2158 37.7267C62.2158 37.7267 62.1975 37.7167 62.1608 37.6968C62.1054 37.6762 62.08 37.6007 62.0844 37.4701C62.0303 37.4122 61.9762 37.3544 61.9221 37.2965C61.8494 37.238 61.813 37.2088 61.813 37.2088C61.7384 37.2063 61.6013 37.1176 61.4018 36.9428C61.1842 36.7487 60.9302 36.5253 60.6399 36.2727C60.4398 36.1165 60.2557 36.0356 60.0878 36.0299C59.6631 35.8849 59.3133 36.0131 59.0382 36.4148C58.7445 36.8157 58.5867 37.3427 58.5646 37.9957L59.1013 39.5267L58.1354 38.2614C58.0285 38.1083 57.921 37.974 57.8129 37.8583C57.686 37.7419 57.5773 37.6449 57.4865 37.5671C57.4536 37.4352 57.4001 37.3587 57.3261 37.3375C57.2521 37.3164 57.2151 37.3058 57.2151 37.3058C57.2151 37.3058 57.1965 37.3051 57.1592 37.3039C57.1225 37.284 57.1051 37.246 57.107 37.1901C57.0162 37.1123 56.9158 37.0435 56.8058 36.9838C56.6964 36.9054 56.6242 36.8282 56.5895 36.7524C56.2767 36.6111 55.9882 36.5827 55.7238 36.6671C55.4601 36.7329 55.2284 36.9586 55.0286 37.3441C54.8905 37.5635 54.8092 37.7569 54.7849 37.9242C54.7606 38.0914 54.7428 38.343 54.7314 38.6788C54.7593 38.9599 54.7891 39.185 54.8207 39.3542C54.8343 39.5041 54.8476 39.6633 54.8606 39.8318C54.8736 40.0003 54.8937 40.2345 54.921 40.5342C54.9906 40.686 55.0318 40.8462 55.0448 41.0147C55.0392 41.1826 55.0338 41.3412 55.0288 41.4904C55.0206 41.733 55.0056 41.9005 54.9838 41.9932C54.9626 42.0672 54.8867 42.102 54.7561 42.0976C54.4968 42.0328 54.1468 41.8902 53.706 41.6699C53.2471 41.4303 52.9092 41.2041 52.6923 40.9913C52.4213 40.7207 52.1831 40.5819 51.9779 40.575C51.7547 40.5488 51.6113 40.6467 51.5478 40.8687C51.5079 40.942 51.5676 41.1121 51.7267 41.379C51.8671 41.6452 52.0358 41.9031 52.2329 42.1525C52.4112 42.4013 52.5471 42.5273 52.6403 42.5305C52.6963 42.5324 52.7597 42.5905 52.8306 42.705C52.902 42.8008 52.9835 42.8782 53.0749 42.9374C53.2011 43.0724 53.3276 43.198 53.4544 43.3144C53.5625 43.4301 53.6912 43.4905 53.8405 43.4955C53.9151 43.498 54.0074 43.5291 54.1175 43.5889C54.2095 43.6293 54.3208 43.6518 54.4514 43.6562C54.6361 43.7184 54.9262 43.7002 55.3217 43.6015C55.6986 43.5022 55.95 43.2492 56.0758 42.8425C56.1573 42.6398 56.2336 42.3155 56.3047 41.8697C56.3764 41.4052 56.3828 40.9384 56.3239 40.4695C56.2607 40.1312 56.2244 39.8218 56.2152 39.5413C56.206 39.2609 56.1753 39.0637 56.1231 38.9499C56.125 38.8939 56.1294 38.7633 56.1363 38.5581C56.1439 38.3342 56.1756 38.2232 56.2316 38.2251C56.3062 38.2276 56.4787 38.3736 56.7491 38.6628C57.0015 38.9328 57.3073 39.2793 57.6666 39.7024C58.0072 40.1248 58.3472 40.5658 58.6865 41.0255C59.0259 41.4852 59.3015 41.8961 59.5134 42.2581C59.6744 42.469 59.8152 42.7259 59.9357 43.0288C60.0562 43.3317 60.1438 43.5027 60.1985 43.5419C60.3241 43.6956 60.482 43.7196 60.6724 43.614C60.8441 43.5077 61.0086 43.3358 61.166 43.0983C61.2258 42.9883 61.2662 42.8962 61.2874 42.8223C61.3092 42.7296 61.3133 42.6083 61.2997 42.4585C61.2681 42.2893 61.2109 42.0446 61.1284 41.7243C61.0271 41.4033 60.893 40.9506 60.7259 40.3659C60.5421 39.7247 60.3841 39.1497 60.2518 38.641C60.1016 38.1129 60.0264 37.8489 60.0264 37.8489C60.0289 37.7743 60.1663 37.8536 60.4386 38.0869C60.7116 38.3016 61.0292 38.5738 61.3916 38.9035C61.5526 39.1144 61.8221 39.4317 62.2 39.8553C62.5779 40.279 62.9913 40.7599 63.4401 41.298C63.8888 41.8361 64.318 42.4016 64.7276 42.9944C65.2428 43.7775 65.6095 44.2568 65.8277 44.4323C66.0273 44.6071 66.234 44.5674 66.4481 44.3131ZM48.9652 44.0874C49.7029 43.8135 50.1924 43.4191 50.4339 42.9043C50.6574 42.3702 50.7227 41.5412 50.6299 40.4175C50.6121 39.8379 50.6064 39.4548 50.6127 39.2682C50.619 39.0817 50.7279 38.8986 50.9394 38.7189C50.9979 38.6462 51.1039 38.5471 51.2576 38.4215C51.3926 38.2953 51.4523 38.1853 51.4368 38.0914C51.4599 37.9614 51.4553 37.8212 51.423 37.6706C51.3914 37.5015 51.3382 37.4156 51.2636 37.4131C51.189 37.4106 51.115 37.3894 51.0416 37.3496C50.9496 37.3091 50.8656 37.3063 50.7898 37.3411C50.7151 37.3386 50.6309 37.3451 50.537 37.3606C50.4431 37.3761 50.3948 37.4212 50.3923 37.4958C50.3133 37.6239 50.1914 37.6384 50.0266 37.5395C49.8625 37.4219 49.6935 37.1734 49.5195 36.794C49.343 36.4892 49.1106 36.1825 48.8221 35.8739C48.515 35.5647 48.2164 35.2838 47.926 35.0312C47.6177 34.7593 47.3628 34.564 47.1614 34.4451C47.0693 34.4046 46.931 34.3533 46.7463 34.291C46.5617 34.2287 46.3673 34.1755 46.1634 34.1313C45.9408 34.0864 45.7545 34.0708 45.6046 34.0844C45.2682 34.0917 44.9852 34.1755 44.7557 34.3359C44.5075 34.4956 44.277 34.684 44.0642 34.9009C43.816 35.0606 43.6592 35.2795 43.5938 35.5574C43.5098 35.8347 43.481 36.1326 43.5076 36.451C43.5343 36.7694 43.6084 37.0614 43.7302 37.327C43.7799 37.5155 43.9309 37.7447 44.1833 38.0147C44.4357 38.2847 44.7257 38.5466 45.0533 38.8005C45.3809 39.0543 45.6828 39.242 45.9588 39.3633C46.1995 39.4275 46.515 39.4848 46.9056 39.5354C47.2774 39.5853 47.6313 39.6159 47.9671 39.6272C48.2848 39.6193 48.5006 39.5892 48.6145 39.537C48.7476 39.4668 48.8467 39.5728 48.9119 39.8552C48.9771 40.1376 49.0195 40.5406 49.0392 41.0642C49.0627 41.4759 49.0526 41.7744 49.009 41.9597C48.9654 42.145 48.9237 42.2743 48.8838 42.3477C48.7488 42.4739 48.5659 42.6358 48.3351 42.8334C48.0863 43.0118 47.7496 43.0285 47.3249 42.8834C46.9736 42.7782 46.6366 42.524 46.314 42.1209C45.9728 41.7171 45.657 41.389 45.3667 41.1364C45.2965 41.0033 45.1777 40.9245 45.0104 40.9002C44.8251 40.8566 44.6289 40.8593 44.4218 40.9084C44.2122 41.032 44.1229 41.1878 44.1539 41.3756C44.1669 41.5441 44.2514 41.8085 44.4073 42.1686C44.4589 42.3011 44.5838 42.4734 44.7821 42.6855C44.9624 42.8784 45.1703 43.0815 45.4059 43.2949C45.6235 43.489 45.8237 43.6452 46.0065 43.7634C46.5561 44.0808 47.0731 44.257 47.5575 44.2921C48.0426 44.3084 48.5118 44.2402 48.9652 44.0874ZM47.5058 38.3509C47.0986 38.2438 46.7743 38.1675 46.533 38.122C46.2917 38.0765 46.062 37.966 45.8438 37.7906C45.6262 37.5964 45.358 37.2419 45.0392 36.7268C44.9715 36.5191 44.9598 36.3132 45.004 36.1093C45.0296 35.9047 45.081 35.7663 45.1581 35.6942C45.3323 35.5133 45.5394 35.4643 45.7794 35.5471C46.0014 35.6106 46.2125 35.7205 46.4127 35.8767C46.5414 35.937 46.7325 36.0836 46.9862 36.3162C47.2218 36.5296 47.4561 36.7804 47.6892 37.0684C47.9229 37.3378 48.1106 37.5869 48.2523 37.8158C48.394 38.0447 48.4269 38.1766 48.351 38.2114C48.3858 38.2872 48.2816 38.3304 48.0385 38.3409C47.7767 38.3507 47.5991 38.3541 47.5058 38.3509ZM38.6355 43.6828C38.8743 43.8029 39.1525 43.859 39.4703 43.8511C39.7881 43.8431 40.2207 43.755 40.768 43.5867C40.8053 43.5879 40.8905 43.5535 41.0236 43.4832C41.1381 43.4124 41.2625 43.3232 41.3968 43.2157C41.5132 43.0889 41.6112 42.9521 41.6908 42.8054C42.0038 42.3863 42.1465 41.7561 42.1189 40.9147C42.0912 40.0733 41.864 39.0571 41.4373 37.866C41.3161 37.5817 41.1322 37.2207 40.8855 36.7828C40.6201 36.3442 40.3628 35.9433 40.1136 35.5801C39.8464 35.1975 39.6577 34.9763 39.5477 34.9166C39.5477 34.9166 39.4463 34.8758 39.2436 34.7943C39.0409 34.7127 38.7838 34.5826 38.4723 34.404C38.3803 34.3636 38.279 34.3228 38.1683 34.2817C38.039 34.24 37.9093 34.2076 37.7794 34.1845C37.6494 34.1615 37.5375 34.1577 37.4435 34.1732C37.0698 34.1793 36.6826 34.3063 36.282 34.5542C35.8634 34.7829 35.5179 35.0608 35.2453 35.3878C34.9734 35.6961 34.8801 35.9731 34.9652 36.2188C34.9639 36.2561 35.0173 36.3326 35.1255 36.4483C35.2156 36.5447 35.3241 36.6511 35.4509 36.7675C35.5597 36.8645 35.6498 36.961 35.7213 37.0568C35.8108 37.1718 35.9398 37.2229 36.1084 37.2099C36.2583 37.1963 36.4007 37.1264 36.5357 37.0002C36.6527 36.8547 36.7243 36.6704 36.7505 36.4471C36.7928 36.2991 36.9375 36.1639 37.1844 36.0415C37.4127 35.9185 37.5268 35.857 37.5268 35.857C37.6761 35.862 37.8859 36.0092 38.1563 36.2984C38.4087 36.5684 38.6591 36.8944 38.9077 37.2763C39.2322 37.6235 39.5078 38.0344 39.7346 38.5089C39.962 38.9649 40.1435 39.4006 40.2789 39.816C40.3962 40.2122 40.4801 40.4952 40.5304 40.665C40.5987 40.8541 40.5992 41.1156 40.5319 41.4495C40.4646 41.7834 40.3924 41.9864 40.3152 42.0585C40.2394 42.0933 40.0525 42.0964 39.7546 42.0676C39.4381 42.0383 39.0662 41.9884 38.639 41.9179C38.2125 41.8288 37.7955 41.7307 37.3883 41.6236C36.981 41.5164 36.6486 41.4025 36.3912 41.2818C36.0443 41.0459 35.7409 40.9049 35.481 40.8588C35.221 40.8127 35.0251 40.8061 34.8933 40.839C34.6856 40.9067 34.5608 41.0052 34.5191 41.1345C34.4774 41.2639 34.519 41.4147 34.6439 41.587C34.7695 41.7407 34.988 41.9068 35.2995 42.0854C35.593 42.2447 35.8578 42.4217 36.094 42.6165C36.3122 42.792 36.4198 42.9263 36.4166 43.0196C36.4912 43.0221 36.5743 43.0529 36.6656 43.1121C36.739 43.1519 36.804 43.1634 36.8606 43.1466C36.8979 43.1479 37.0462 43.1809 37.3055 43.2457C37.5648 43.3105 37.8331 43.3849 38.1104 43.469C38.3691 43.5524 38.5441 43.6237 38.6355 43.6828ZM33.205 41.8466C33.2363 41.4741 33.2044 41.0341 33.1095 40.5267C32.9959 40.0185 32.854 39.5188 32.6838 39.0274C32.5136 38.5361 32.3589 38.1386 32.2198 37.8351C32.2087 37.6106 32.15 37.4125 32.0437 37.2408C31.9188 37.0685 31.8225 36.8785 31.7548 36.6708C31.7045 36.501 31.583 36.2261 31.3904 35.846C31.1984 35.4473 30.9877 35.048 30.7584 34.648C30.5291 34.2481 30.3427 33.9616 30.1991 33.7887C30.1693 33.5635 30.0917 33.3741 29.9661 33.2205C29.8412 33.0482 29.7256 32.8762 29.6193 32.7045C29.4675 32.7741 29.3444 32.826 29.2499 32.8601C29.1553 32.8943 29.0402 32.9838 28.9046 33.1286C28.8069 33.2561 28.7002 33.3739 28.5845 33.482C28.4508 33.5709 28.3524 33.717 28.2896 33.9203C28.2839 34.0882 28.3435 34.2584 28.4684 34.4307C28.5753 34.5837 28.6822 34.7367 28.7891 34.8897C28.9682 35.1199 29.1021 35.3019 29.191 35.4356C29.2618 35.5501 29.3504 35.6931 29.4566 35.8648C29.5449 36.0172 29.6953 36.2651 29.9078 36.6084C29.8133 36.6426 29.7091 36.6858 29.5953 36.738C29.4821 36.7715 29.3788 36.7867 29.2856 36.7836C29.1183 36.7592 28.9591 36.7725 28.8079 36.8235C28.6568 36.8744 28.5054 36.9347 28.3536 37.0043C28.2024 37.0552 28.0516 37.0968 27.9011 37.1291C27.6747 37.1961 27.4365 37.3375 27.1864 37.5532C26.9177 37.7683 26.6763 38.0029 26.4623 38.2572C26.2482 38.5114 26.1104 38.7216 26.0488 38.8876C25.9896 38.979 25.909 39.1537 25.8069 39.4117C25.6868 39.6505 25.6606 39.8737 25.7283 40.0815C25.7445 40.1567 25.7603 40.2413 25.7758 40.3352C25.7913 40.4291 25.7975 40.5227 25.7943 40.616C26.0609 41.0172 26.2744 41.3326 26.4348 41.5621C26.5951 41.7917 26.8761 42.044 27.2777 42.319C27.8814 42.6942 28.4879 42.9855 29.0973 43.1929C29.688 43.3996 30.2915 43.504 30.9078 43.5061C31.001 43.5092 31.0934 43.5404 31.1848 43.5995C31.2581 43.6393 31.3427 43.6235 31.4385 43.552C31.8116 43.5646 32.0949 43.4714 32.2884 43.2725C32.4819 43.0736 32.6857 42.847 32.8997 42.5928C33.0559 42.3926 33.1577 42.1439 33.205 41.8466ZM31.6351 41.8777C31.298 41.9037 30.9908 41.8746 30.7135 41.7906C30.4175 41.7059 30.1306 41.6308 29.8526 41.5654C29.5373 41.4987 29.2056 41.3661 28.8575 41.1676C28.5099 40.9504 28.201 40.6972 27.9306 40.4079C27.6421 40.0994 27.4563 39.7942 27.3731 39.4926C27.3222 39.3415 27.3185 39.1732 27.3621 38.9879C27.4057 38.8026 27.4941 38.6749 27.6272 38.6047C27.8182 38.4804 28.0091 38.3561 28.2001 38.2318C28.3911 38.1075 28.6168 38.0591 28.8774 38.0865C28.9327 38.1071 28.998 38.1093 29.0733 38.0931C29.1305 38.0577 29.1874 38.0316 29.244 38.0149C29.3945 37.9826 29.5444 37.969 29.6936 37.974C29.8242 37.9784 29.9635 38.0018 30.1115 38.0441C30.2775 38.1058 30.4342 38.1671 30.5816 38.2281C30.7289 38.2891 30.7892 38.4405 30.7624 38.6824C30.7611 38.7198 30.8055 38.7866 30.8957 38.8831C30.9317 38.9216 31.0094 39.111 31.1286 39.4512C31.2292 39.7908 31.3292 40.1491 31.4286 40.526C31.5279 40.9029 31.6027 41.1762 31.653 41.346C31.6692 41.4213 31.6757 41.5055 31.6725 41.5988C31.6513 41.6728 31.6389 41.7658 31.6351 41.8777ZM66.2897 65.2997C66.4826 65.1195 66.6776 64.8739 66.8749 64.5631C67.0728 64.2335 67.2349 63.8561 67.3614 63.4308C67.4037 63.2828 67.4293 63.0782 67.4381 62.8171C67.4283 62.5552 67.4346 62.3687 67.457 62.2574C67.5085 62.3899 67.5971 62.5329 67.7227 62.6866C67.8302 62.8209 67.9383 62.9367 68.0471 63.0337C68.1192 63.1109 68.2821 63.2658 68.5357 63.4985C68.79 63.7125 69.0455 63.8892 69.3023 64.0286C69.9047 64.4412 70.4105 64.673 70.8197 64.7242C71.2102 64.7747 71.5903 64.5821 71.9598 64.1463C72.2665 63.9139 72.4902 63.6506 72.6309 63.3565C72.7529 63.0618 72.7667 62.6513 72.6724 62.1252C72.6571 61.471 72.5853 60.8335 72.4568 60.2128C72.3289 59.5735 72.0494 58.7236 71.6183 57.6631C71.2523 56.885 70.9727 56.3152 70.7795 55.9538C70.5868 55.5738 70.4638 55.3455 70.4103 55.269C70.1337 55.1663 69.9001 55.1677 69.7098 55.2734C69.5201 55.3604 69.4022 55.5338 69.356 55.7937C69.2378 55.9765 69.2458 56.2943 69.3799 56.7471C69.4954 57.1992 69.71 57.7575 70.0238 58.4218C70.2636 59.0649 70.4847 59.7074 70.6872 60.3492C70.871 60.9905 70.974 61.5356 70.9962 61.9846C71.0184 62.4336 70.8973 62.7003 70.633 62.7848C70.462 62.8724 70.1737 62.8347 69.7683 62.6716C69.3443 62.5078 68.8811 62.1187 68.3789 61.504C67.858 60.8888 67.3662 59.9663 66.9034 58.7367C66.7667 58.3585 66.6658 58.0283 66.6006 57.7459C66.5361 57.4449 66.5005 57.1169 66.4938 56.7618C66.5386 56.5392 66.5359 56.3429 66.4856 56.1732C66.4173 55.9841 66.2734 55.8205 66.0539 55.6823C65.9825 55.5865 65.8827 55.4991 65.7546 55.4201C65.6272 55.3224 65.5432 55.3196 65.5027 55.4116L65.0559 55.3685C64.982 55.3473 64.9337 55.3924 64.9113 55.5037C64.8708 55.5957 64.8027 55.6775 64.7069 55.7489C64.496 55.9099 64.4278 56.2718 64.5022 56.8346C64.5766 57.3975 64.8113 58.1898 65.2064 59.2117C65.5351 59.9886 65.7581 60.5751 65.8755 60.9713C65.9742 61.3669 66.0266 61.7515 66.0326 62.1253C66.0213 62.4611 65.9453 62.776 65.8046 63.0701C65.664 63.3642 65.4496 63.6278 65.1616 63.8609C64.952 63.9845 64.835 64.13 64.8107 64.2973C64.7677 64.4639 64.7518 64.6595 64.7629 64.884C64.7945 65.0532 64.9017 65.1969 65.0845 65.3151C65.2493 65.414 65.4436 65.4673 65.6675 65.4749C65.8913 65.4824 66.0987 65.424 66.2897 65.2997ZM61.0227 65.0099C61.078 65.0305 61.2095 65.0069 61.4173 64.9392C61.6256 64.8529 61.8533 64.7485 62.1002 64.6261C62.3291 64.4844 62.5111 64.3504 62.6461 64.2242C62.8016 64.0427 62.9478 63.8609 63.0847 63.6787C63.2036 63.4773 63.2674 63.246 63.2762 62.9848C63.4163 62.7094 63.5006 62.4227 63.5294 62.1248C63.5401 61.8077 63.5598 61.5002 63.5885 61.2023C63.6229 60.7365 63.5364 60.2573 63.3289 59.7647C63.122 59.2535 62.9573 58.8744 62.8349 58.6274C62.7505 58.3631 62.5752 58.021 62.3092 57.6011C62.0252 57.162 61.6756 56.7299 61.2604 56.305C60.8451 55.8801 60.4081 55.5478 59.9492 55.3082C59.6558 55.1489 59.3614 55.0176 59.066 54.9142C58.7526 54.7916 58.3882 54.798 57.9727 54.9334C57.7656 54.9824 57.6139 55.052 57.5174 55.1421C57.421 55.2323 57.3153 55.3221 57.2002 55.4116C57.0547 55.2946 56.9426 55.02 56.8638 54.5878C56.7669 54.1362 56.7186 53.6303 56.7189 53.07C56.7011 52.4904 56.7476 51.941 56.8585 51.4218C56.9514 50.8833 57.1245 50.4595 57.3777 50.1506C57.8462 49.55 58.3541 49.1656 58.9015 48.9973C59.4488 48.829 60.0626 48.9057 60.7428 49.2275C60.9698 49.1418 61.181 48.9715 61.3763 48.7166C61.5531 48.4611 61.6085 48.2015 61.5427 47.9378C61.3979 47.8021 61.2157 47.6653 60.9962 47.5271C60.7768 47.389 60.5557 47.2975 60.3331 47.2526C60.0738 47.1878 59.8139 47.1417 59.5533 47.1142C59.2741 47.0861 58.9824 47.151 58.6783 47.3088C57.6975 47.5932 56.9548 48.0164 56.4502 48.5784C55.9276 49.1211 55.5595 49.7904 55.3459 50.5863C55.1322 51.3822 54.9891 52.3019 54.9166 53.3454C54.8692 53.6426 54.8507 53.9128 54.8612 54.156C54.8536 54.3798 54.8687 54.7632 54.9064 55.3062C55.0848 55.555 55.1497 55.8467 55.101 56.1812C55.0344 56.4965 55.0616 56.7962 55.1827 57.0805C55.1907 57.3983 55.2565 57.662 55.3802 57.8716C55.5038 58.0812 55.5625 58.2793 55.5562 58.4659C55.8606 59.41 56.2868 60.3396 56.8349 61.2546C57.3644 62.169 57.9819 62.9649 58.6874 63.6424C59.393 64.3199 60.1714 64.7758 61.0227 65.0099ZM61.2519 63.1966C61.0629 63.265 60.7855 63.1809 60.42 62.9444C60.055 62.6893 59.6833 62.3593 59.3047 61.9543C58.9268 61.5306 58.6135 61.1278 58.3649 60.7459C58.2761 60.6121 58.162 60.3935 58.0229 60.09C57.865 59.7858 57.7255 59.4916 57.6044 59.2074C57.4646 58.9225 57.3866 58.7424 57.3705 58.6672C57.2183 58.1951 57.1398 57.7535 57.135 57.3425C57.1122 56.9121 57.1683 56.6339 57.3033 56.5077C57.5167 56.2721 57.8544 56.2274 58.3164 56.3738C58.7597 56.5195 59.1816 56.7485 59.5819 57.0608C59.8729 57.2948 60.1333 57.6024 60.3632 57.9837C60.5751 58.3457 60.7973 58.6801 61.0298 58.9868C61.0067 59.1167 61.0403 59.2299 61.1304 59.3263C61.2019 59.4221 61.2827 59.5183 61.3728 59.6147C61.5996 60.0893 61.7434 60.533 61.8042 60.946C61.8656 61.3403 61.8947 61.5841 61.8915 61.6774C61.8815 61.9758 61.8244 62.2821 61.7205 62.5961C61.6165 62.9101 61.4603 63.1103 61.2519 63.1966ZM52.0162 64.9582C52.837 64.9859 53.5191 64.7007 54.0622 64.1027C54.606 63.486 54.8843 62.711 54.8971 61.7775C54.8824 61.1046 54.7761 60.382 54.578 59.6095C54.3619 58.8178 54.07 58.0608 53.7021 57.3387C53.3349 56.5979 52.9272 55.9491 52.4791 55.3923C52.0309 54.8356 51.5588 54.4368 51.0626 54.1959C50.8792 54.0963 50.6858 54.0151 50.4825 53.9522C50.2605 53.8887 50.0376 53.8531 49.8137 53.8456C49.6085 53.8386 49.3927 53.8687 49.1663 53.9358C48.9405 53.9842 48.7518 54.0432 48.6 54.1128C48.2784 54.2327 48.0306 54.3831 47.8564 54.564C47.6822 54.7449 47.5232 55.029 47.3793 55.4164C47.3114 55.7689 47.2749 56.0199 47.2699 56.1691C47.2649 56.3184 47.3039 56.5438 47.3871 56.8454C47.5884 57.5246 47.858 58.1127 48.1961 58.6097C48.5342 59.1067 48.9961 59.5332 49.5817 59.8892C49.7278 59.9875 49.9026 60.0681 50.1059 60.131C50.2912 60.1746 50.4865 60.1999 50.6917 60.2068C51.0648 60.2194 51.4308 60.1664 51.7897 60.0477C52.1305 59.9098 52.4083 59.7044 52.6229 59.4315L52.8264 59.2142L52.9028 59.4409C53.0723 59.9509 53.2058 60.4224 53.3033 60.8552C53.3821 61.2875 53.4155 61.6808 53.4035 62.0353C53.396 62.2592 53.3701 62.4731 53.3259 62.677C53.263 62.8804 53.1824 63.0551 53.084 63.2012C53.0056 63.3106 52.8815 63.3905 52.7118 63.4408C52.5239 63.4718 52.3274 63.4838 52.1222 63.4769C51.9916 63.4725 51.861 63.4681 51.7304 63.4637C51.5818 63.44 51.4431 63.398 51.3144 63.3376C51.0011 63.2149 50.7533 63.0852 50.5711 62.9483C50.3703 62.8108 50.1698 62.6639 49.9697 62.5078L49.8596 62.448L49.8876 62.449C49.6675 62.3295 49.4754 62.2109 49.3113 62.0933C49.1285 61.9751 49.0371 61.916 49.0371 61.916C48.9625 61.9135 48.8894 61.8643 48.8179 61.7685C48.6712 61.6888 48.4837 61.7105 48.2554 61.8336C48.0085 61.956 47.8816 62.1198 47.8746 62.325C47.8901 62.4189 47.9691 62.571 48.1114 62.7812C48.2543 62.9728 48.4163 63.1557 48.5971 63.3299C48.7594 63.5035 48.8962 63.6015 49.0075 63.6239C49.0255 63.6432 49.0895 63.6827 49.1996 63.7425C49.3103 63.7836 49.3836 63.8234 49.4197 63.862L49.3917 63.861C49.552 64.0906 49.7162 64.2082 49.8841 64.2138L50.1079 64.2214C50.1782 64.3545 50.4157 64.5119 50.8204 64.6937C51.2258 64.8568 51.6244 64.945 52.0162 64.9582ZM50.9646 58.7592C50.6288 58.7479 50.3428 58.6448 50.1066 58.4501C49.8523 58.236 49.636 58.0046 49.4576 57.7558C49.1015 57.2395 48.9033 56.7472 48.8631 56.2789C48.8048 55.7913 48.8721 55.4574 49.065 55.2771C49.1788 55.2249 49.2824 55.2004 49.3757 55.2036C49.4509 55.1874 49.6085 55.2208 49.8485 55.3036C50.0152 55.3466 50.2437 55.4943 50.534 55.7469C50.8243 55.9995 51.1137 56.2801 51.4021 56.5887C51.6719 56.8966 51.8779 57.1557 52.0202 57.366L52.3642 57.9659C52.2168 57.9049 52.0779 57.8722 51.9473 57.8678C51.7986 57.8441 51.7144 57.8506 51.6945 57.8873C51.6888 58.0552 51.6555 58.2128 51.5945 58.3602C51.5154 58.4883 51.428 58.588 51.3322 58.6595C51.2178 58.7304 51.0952 58.7636 50.9646 58.7592ZM39.2394 54.0491C38.9924 54.1715 38.8294 54.2967 38.7504 54.4248C38.672 54.5342 38.5155 54.7437 38.2809 55.0533C38.3126 55.2225 38.3601 55.4762 38.4233 55.8146C38.4686 56.1336 38.5235 56.4436 38.5881 56.7446C38.6526 57.0457 38.7197 57.272 38.7893 57.4238C38.7432 57.6837 38.7955 58.0684 38.9465 58.5778C39.0793 59.0679 39.2206 59.5863 39.3702 60.1329C39.5205 60.661 39.6431 61.1787 39.7381 61.6862C39.833 62.1937 39.8369 62.6328 39.7497 63.0034C39.8044 63.0426 39.8588 63.0911 39.9128 63.149C39.9483 63.2062 40.0027 63.2547 40.076 63.2945C40.2961 63.414 40.5197 63.4309 40.7467 63.3452C40.9737 63.2595 41.1563 63.1069 41.2945 62.8874C41.4332 62.6493 41.479 62.3987 41.4319 62.1356C41.3841 61.8912 41.3031 61.5243 41.1889 61.0348C41.0753 60.5267 40.9539 59.9716 40.8248 59.3696C40.6957 58.7675 40.5753 58.1845 40.4636 57.6204C40.3525 57.0376 40.2573 56.5395 40.1778 56.1259C40.0984 55.7123 40.0609 55.4402 40.0653 55.3096C40.071 55.1417 40.2047 55.0529 40.4665 55.043C40.7103 55.0139 40.9805 55.0324 41.2771 55.0984C41.5557 55.1451 41.741 55.1888 41.833 55.2292C42.2191 55.4103 42.5378 55.6546 42.7889 55.9619C43.04 56.2692 43.2432 56.6122 43.3985 56.991C43.5538 57.3698 43.6995 57.7576 43.8355 58.1544C43.8131 58.2657 43.8003 58.368 43.7971 58.4613C43.7946 58.5359 43.7545 58.6186 43.6767 58.7094C43.579 58.8368 43.436 58.9254 43.2475 58.975C43.0591 59.0247 42.8616 59.0648 42.6551 59.0951C42.4486 59.1255 42.2695 59.1755 42.1178 59.2451C42.0612 59.2619 42.0142 59.2696 41.9769 59.2684C41.9402 59.2484 41.9032 59.2379 41.8659 59.2366C41.8099 59.2347 41.762 59.2705 41.7222 59.3438C41.5841 59.5633 41.4845 59.7467 41.4235 59.8941C41.3625 60.0414 41.4208 60.2488 41.5986 60.5163C42.0543 60.8492 42.501 61.1725 42.9386 61.4861C43.3763 61.7997 43.8034 62.1503 44.2199 62.5379C44.3461 62.6729 44.5012 62.7808 44.6852 62.8617C44.8513 62.9234 44.997 63.031 45.1226 63.1847C45.2301 63.319 45.3566 63.4447 45.5021 63.5617C45.6295 63.6594 45.7564 63.7757 45.8825 63.9107C45.9547 63.9879 46.0271 64.0557 46.0998 64.1142C46.1732 64.154 46.2578 64.1382 46.3536 64.0667C46.634 64.0575 46.8433 63.9431 46.9815 63.7237C47.1196 63.5042 47.2314 63.2372 47.3167 62.9225C47.1203 62.6544 46.8129 62.3545 46.3945 62.0229C45.9767 61.6726 45.5124 61.3208 45.0013 60.9673C44.4722 60.5946 43.9789 60.2698 43.5213 59.9929C44.0077 59.9719 44.3842 59.8819 44.6511 59.7228C44.9186 59.5451 45.1581 59.3664 45.3696 59.1867C45.6035 58.8958 45.7178 58.5541 45.7123 58.1617C45.6882 57.7687 45.5985 57.3828 45.4432 57.004C45.2885 56.6065 45.1317 56.2744 44.9726 56.0075C44.9365 55.969 44.9191 55.931 44.9204 55.8937C44.903 55.8558 44.8853 55.8272 44.8672 55.8079C44.6392 55.3706 44.4444 55.0558 44.2828 54.8636C44.1025 54.6708 43.8115 54.4368 43.4099 54.1618C43.2638 54.0635 43.1074 53.9928 42.9408 53.9498C42.7748 53.8882 42.6081 53.8452 42.4409 53.8209C42.2556 53.7773 42.0043 53.7501 41.6872 53.7394C41.37 53.7287 41.0523 53.7367 40.7338 53.7633C40.4161 53.7713 40.172 53.8097 40.0015 53.8787C39.8697 53.9116 39.7468 53.9541 39.633 54.0063C39.5005 54.0579 39.3693 54.0721 39.2394 54.0491ZM24.5584 63.3873C24.7624 63.4315 24.9673 63.4478 25.1731 63.436C25.379 63.4243 25.5774 63.3563 25.7683 63.232C25.848 63.0853 25.9469 62.9205 26.0652 62.7377C26.1654 62.5356 26.1807 62.3587 26.1111 62.207C26.0254 61.9799 25.9894 61.6612 26.0033 61.2508C25.9985 60.8397 25.9355 60.4921 25.8144 60.2078C25.797 60.1699 25.7886 60.1416 25.7892 60.1229C25.7718 60.085 25.7637 60.0474 25.765 60.01C25.7526 59.8229 25.7139 59.5881 25.6487 59.3057C25.5655 59.0041 25.508 58.7687 25.4764 58.5995C25.459 58.5616 25.4364 58.402 25.4085 58.1209C25.3806 57.8398 25.3534 57.5401 25.3268 57.2217C25.3002 56.9033 25.2891 56.6788 25.2935 56.5482C25.2966 56.4549 25.2712 56.3793 25.2171 56.3215C25.145 56.2443 25.1481 56.151 25.2265 56.0416C25.5156 56.3315 25.8758 56.7266 26.3072 57.2267C26.7199 57.7263 27.1136 58.2345 27.4884 58.7514C27.8638 59.2497 28.1575 59.6799 28.3694 60.0419C28.4042 60.1178 28.4486 60.1846 28.5027 60.2425C28.5568 60.3004 28.6015 60.3579 28.637 60.4151C28.7078 60.5296 28.7976 60.6353 28.9064 60.7324C29.0152 60.8295 29.0951 60.9536 29.146 61.1047C29.4525 61.4325 29.7036 61.7399 29.8993 62.0266C30.0765 62.3128 30.3372 62.6111 30.6816 62.9215C30.9222 62.9857 31.1467 62.9746 31.3551 62.8882C31.5448 62.8012 31.7435 62.7239 31.9513 62.6562C31.9917 62.5642 32.0415 62.4724 32.1006 62.3811C32.1604 62.271 32.2105 62.17 32.2509 62.078C32.2095 61.647 32.1431 61.1218 32.052 60.5023C31.9614 59.8643 31.8892 59.2361 31.8354 58.618C31.7629 57.9992 31.751 57.5225 31.7996 57.188C31.8214 57.0953 31.8333 57.021 31.8351 56.965C31.837 56.9091 31.8112 56.8428 31.7578 56.7663C31.7591 56.729 31.7603 56.6917 31.7616 56.6544C31.7442 56.6164 31.7358 56.5881 31.7364 56.5695C31.8329 56.4793 31.8547 56.3867 31.8018 56.2915C31.749 56.1963 31.7522 56.1031 31.8113 56.0117C31.8306 55.9937 31.8592 55.9759 31.8971 55.9585C31.9164 55.9405 31.945 55.9228 31.983 55.9054C32.372 56.5536 32.7996 57.1657 33.2658 57.7417C33.7139 58.2985 34.1518 58.8829 34.5794 59.495C34.8647 59.8969 35.1384 60.3637 35.4006 60.8955C35.6442 61.4267 35.9468 61.8665 36.3086 62.2149C36.4348 62.3499 36.5604 62.5035 36.6853 62.6758C36.7922 62.8289 36.9277 62.9642 37.0918 63.0818C37.1248 63.2136 37.1959 63.3188 37.3053 63.3972C37.3967 63.4563 37.517 63.4884 37.6663 63.4934C37.9461 63.5028 38.2291 63.419 38.5153 63.2419C38.8014 63.0648 38.9579 62.8553 38.9847 62.6134C38.9891 62.4828 38.9376 62.3503 38.83 62.2159C38.8126 62.178 38.8046 62.1403 38.8058 62.103C38.7884 62.0651 38.7707 62.0365 38.7527 62.0172C38.4033 61.856 38.0579 61.5735 37.7167 61.1698C37.3568 60.7654 37.0165 60.3337 36.6958 59.8746C36.3757 59.3969 36.0808 59.004 35.811 58.6961C35.5587 58.4261 35.3626 58.1487 35.2228 57.8638C35.0836 57.5602 34.9068 57.2648 34.6924 56.9774C34.4245 56.6135 34.1575 56.2216 33.8915 55.8017C33.6069 55.3812 33.3313 54.9703 33.0646 54.5691C32.7794 54.1673 32.4925 53.8121 32.2041 53.5035C32.071 53.5737 31.9382 53.6346 31.8057 53.6862C31.6546 53.7371 31.495 53.7597 31.3271 53.7541C31.2301 53.8629 31.1424 53.972 31.064 54.0814C30.9675 54.1715 30.8618 54.2613 30.7467 54.3508C30.4779 54.5659 30.2906 54.8584 30.1848 55.2284C30.0789 55.5984 30.0187 55.9979 30.0042 56.427C29.9835 57.0426 30.0277 57.6698 30.1369 58.3085C30.228 58.9279 30.2944 59.4531 30.3358 59.8841C30.3352 59.9028 30.3346 59.9214 30.334 59.9401C30.3153 59.9395 30.3057 59.9485 30.305 59.9671C29.9066 59.5988 29.5566 59.1761 29.2552 58.699C28.9538 58.2219 28.6328 57.7721 28.2922 57.3498C27.665 56.5628 27.1988 55.9868 26.8936 55.6216C26.5698 55.2558 26.3264 54.9955 26.1636 54.8405C26.0007 54.6856 25.8378 54.5307 25.675 54.3758C25.5475 54.2781 25.4024 54.1518 25.2395 53.9969C25.0586 53.8227 24.8239 53.5813 24.5355 53.2727C24.3863 53.2677 24.2463 53.263 24.1157 53.2586C23.9665 53.2535 23.8266 53.2488 23.696 53.2444C23.5436 53.3327 23.4291 53.4035 23.3526 53.457C23.2767 53.4918 23.1542 53.525 22.9851 53.5566C22.9633 53.6493 22.9212 53.7879 22.859 53.9726C22.7967 54.1573 22.7826 54.2969 22.8168 54.3914C22.8497 54.5233 22.864 54.6545 22.8596 54.7851C22.8551 54.9157 22.8974 55.0478 22.9863 55.1816C23.1279 55.4105 23.2553 55.7883 23.3682 56.3151C23.4632 56.8226 23.5488 57.3298 23.6251 57.8366C23.6833 58.3242 23.7183 58.6709 23.7301 58.8768C23.7927 59.2338 23.8592 59.4788 23.9294 59.6119C24.0002 59.7264 24.0521 59.8495 24.085 59.9814C24.1179 60.1132 24.1222 60.2628 24.0979 60.4301C24.0742 60.5787 24.0881 60.7192 24.1397 60.8517C24.1577 60.871 24.1757 60.8903 24.1938 60.9096C24.1938 60.9096 24.2028 60.9192 24.2208 60.9385C24.2145 61.1251 24.2079 61.3209 24.201 61.5262C24.176 61.7121 24.2077 61.8813 24.2959 62.0336C24.2542 62.163 24.2401 62.3026 24.2538 62.4525C24.2674 62.6023 24.2437 62.751 24.1827 62.8983C24.2548 62.9755 24.3176 63.0523 24.371 63.1288C24.4245 63.2053 24.4869 63.2915 24.5584 63.3873ZM15.5577 63.5878C15.7505 63.4076 15.9456 63.162 16.1428 62.8512C16.3407 62.5216 16.5029 62.1442 16.6293 61.7189C16.6716 61.5709 16.6972 61.3663 16.706 61.1052C16.6962 60.8433 16.7025 60.6568 16.7249 60.5455C16.7765 60.678 16.865 60.821 16.9906 60.9747C17.0981 61.109 17.2063 61.2248 17.3151 61.3218C17.3872 61.399 17.5501 61.5539 17.8037 61.7866C18.0579 62.0006 18.3135 62.1773 18.5702 62.3167C19.1727 62.7293 19.6785 62.9611 20.0876 63.0123C20.4782 63.0628 20.8582 62.8702 21.2278 62.4344C21.5345 62.2019 21.7581 61.9387 21.8988 61.6446C22.0208 61.3499 22.0347 60.9394 21.9404 60.4133C21.9251 59.7591 21.8532 59.1216 21.7247 58.5009C21.5969 57.8616 21.3174 57.0117 20.8862 55.9512C20.5203 55.1731 20.2407 54.6033 20.0474 54.2419C19.8548 53.8619 19.7317 53.6336 19.6783 53.5571C19.4016 53.4544 19.1681 53.4558 18.9777 53.5615C18.788 53.6485 18.6701 53.8219 18.624 54.0818C18.5058 54.2646 18.5137 54.5824 18.6479 55.0352C18.7633 55.4873 18.978 56.0456 19.2917 56.7099C19.5315 57.353 19.7526 57.9955 19.9551 58.6373C20.1389 59.2786 20.2419 59.8237 20.2641 60.2727C20.2863 60.7217 20.1653 60.9884 19.9009 61.0729C19.7299 61.1605 19.4417 61.1228 19.0363 60.9597C18.6122 60.7959 18.1491 60.4068 17.6469 59.7921C17.126 59.1769 16.6341 58.2544 16.1713 57.0248C16.0347 56.6466 15.9338 56.3164 15.8686 56.034C15.804 55.733 15.7684 55.405 15.7617 55.0499C15.8066 54.8272 15.8039 54.631 15.7536 54.4613C15.6852 54.2722 15.5413 54.1086 15.3219 53.9704C15.2504 53.8746 15.1506 53.7872 15.0225 53.7082C14.8951 53.6105 14.8111 53.6076 14.7707 53.6997L14.3239 53.6566C14.2499 53.6354 14.2017 53.6805 14.1792 53.7918C14.1388 53.8838 14.0707 53.9655 13.9749 54.037C13.764 54.198 13.6957 54.5599 13.7701 55.1227C13.8445 55.6856 14.0793 56.4779 14.4744 57.4998C14.803 58.2767 15.026 58.8632 15.1434 59.2594C15.2421 59.655 15.2945 60.0396 15.3006 60.4134C15.2892 60.7492 15.2132 61.0641 15.0726 61.3582C14.9319 61.6523 14.7176 61.9159 14.4295 62.149C14.2199 62.2726 14.1029 62.4181 14.0786 62.5854C14.0356 62.752 14.0197 62.9476 14.0308 63.1721C14.0625 63.3413 14.1697 63.485 14.3525 63.6032C14.5172 63.7021 14.7115 63.7554 14.9354 63.7629C15.1593 63.7705 15.3667 63.7121 15.5577 63.5878ZM10.1722 58.6994C10.6914 58.8103 11.045 58.5701 11.2331 57.9788C11.4211 57.3875 11.4022 56.565 11.1763 55.5115C11.0719 55.2838 10.9858 55.0661 10.9181 54.8584C10.8511 54.632 10.8197 54.4535 10.8241 54.3229C10.7577 54.0779 10.6739 53.7949 10.5726 53.474C10.4534 53.1337 10.3332 52.8215 10.212 52.5373C10.0915 52.2344 10.0048 52.0353 9.952 51.9402C9.87738 51.9376 9.80496 51.8698 9.73474 51.7367C9.64587 51.603 9.60363 51.4708 9.60804 51.3402C9.61308 51.191 9.59076 51.0221 9.54108 50.8337C9.47276 50.6446 9.40254 50.5115 9.33043 50.4343C9.33358 50.3411 9.29973 50.2372 9.22888 50.1227C9.15804 50.0083 9.12387 49.9137 9.12639 49.8391C9.12891 49.7645 9.11246 49.6986 9.07703 49.6413C9.02295 49.5835 8.99717 49.5172 8.99969 49.4426C8.84186 49.1385 8.64211 48.6928 8.40044 48.1057C8.14074 47.4992 7.89132 46.8651 7.65217 46.2033C7.39436 45.5409 7.18068 44.9547 7.01111 44.4447C6.84155 43.9347 6.75866 43.6237 6.76243 43.5118C6.73016 43.3613 6.67797 43.2475 6.60586 43.1703C6.53375 43.0932 6.42245 43.0707 6.27194 43.103C6.1992 43.0445 6.12552 43.014 6.0509 43.0115C5.97691 42.9903 5.9026 42.9785 5.82797 42.976C5.82797 42.976 5.79873 43.0123 5.74024 43.0851C5.6631 43.1572 5.55671 43.2657 5.42109 43.4105C5.26743 43.5361 5.17844 43.6825 5.15412 43.8498C5.1298 44.017 5.11386 44.2126 5.10631 44.4365C5.113 44.7916 5.23006 45.1971 5.45748 45.653C5.6849 46.1089 5.93873 46.6124 6.21897 47.1635C6.39357 47.5243 6.5688 47.8664 6.74466 48.1899C6.90186 48.5127 6.9792 48.7114 6.97668 48.786C6.97416 48.8606 7.0077 48.9738 7.07729 49.1256C7.14688 49.2774 7.22453 49.4668 7.31026 49.6938C7.4159 49.8841 7.52961 50.1121 7.65139 50.3777C7.77317 50.6433 7.88625 50.8899 7.99063 51.1175C8.07698 51.3259 8.11922 51.4581 8.11733 51.514C8.13347 51.5893 8.15893 51.6649 8.19373 51.7407C8.20987 51.816 8.25399 51.8922 8.32609 51.9693C8.40072 51.9719 8.44547 52.0294 8.46035 52.142C8.4572 52.2352 8.45563 52.2819 8.45563 52.2819C8.45311 52.3565 8.49377 52.5353 8.57761 52.8183C8.64342 53.082 8.76331 53.4036 8.93728 53.783C9.25838 54.7837 9.48348 55.5851 9.61258 56.1871C9.74231 56.7705 9.81891 57.268 9.84237 57.6797C9.86458 58.1287 9.89308 58.3912 9.92787 58.4671C9.94401 58.5423 10.0254 58.6198 10.1722 58.6994ZM11.5322 63.2279C11.8823 63.3704 12.1786 63.4458 12.4211 63.454C12.6456 63.4429 12.9012 63.3394 13.188 63.1437C13.5538 62.8198 13.6864 62.4881 13.5858 62.1485C13.4672 61.7896 13.171 61.4341 12.6973 61.0819C12.3684 60.8654 12.1296 60.7453 11.981 60.7216C11.8137 60.6973 11.5597 60.7541 11.2188 60.892C10.6472 61.2276 10.3914 61.6111 10.4516 62.0428C10.4931 62.4737 10.8533 62.8688 11.5322 63.2279Z" fill="#2F94F9"/>
<path d="M116.128 91.5533C114.417 90.1969 112.71 88.8375 111.023 87.4536C110.832 87.296 110.637 87.1379 110.451 86.9757C110.396 86.9288 110.342 86.8786 110.286 86.8365C110.141 86.6825 109.938 86.5696 109.671 86.54C109.423 86.5119 109.108 86.6125 108.924 86.7809C108.665 87.0201 108.491 87.3988 108.584 87.758C108.709 88.2588 109.129 88.5347 109.498 88.8458C109.955 89.226 110.418 89.6019 110.883 89.9747C111.429 90.4161 111.979 90.8547 112.527 91.2914C106.026 91.5012 98.8384 89.3197 95.0627 83.6044C93.8371 81.7472 93.0782 79.5579 92.6993 77.3469C92.4763 76.0431 90.4714 76.4266 90.6942 77.7336C91.4238 82.0421 93.5472 85.915 96.9414 88.6602C100.028 91.153 103.895 92.5274 107.777 93.0836C109.108 93.2741 110.448 93.3574 111.791 93.3526C110.344 93.9854 108.835 94.4594 107.289 94.8078C106.011 95.0943 106.384 97.1184 107.671 96.8277C109.841 96.3415 111.985 95.6256 113.959 94.5903C114.732 94.1879 115.524 93.7412 116.204 93.1841C116.742 92.7465 116.628 91.9536 116.127 91.5567L116.128 91.5533ZM110.585 87.3676C110.575 87.3914 110.568 87.417 110.558 87.4407C110.553 87.3978 110.549 87.3517 110.536 87.3097C110.568 87.3712 110.59 87.4024 110.582 87.3674L110.585 87.3676ZM110.36 86.9177L110.352 86.9089C110.352 86.9089 110.357 86.9093 110.36 86.9144L110.36 86.9177Z" fill="#2F94F9"/>
</svg>
