<svg width="128" height="71" viewBox="0 0 128 71" fill="none" xmlns="http://www.w3.org/2000/svg">
<path d="M122.543 29.7703C123.122 29.7776 123.475 29.7017 123.599 29.5428C123.705 29.3825 123.765 29.2093 123.78 29.0232C123.708 28.7368 123.626 28.4591 123.535 28.1899C123.425 27.9193 123.353 27.6329 123.32 27.3309C123.283 27.0846 123.244 26.857 123.204 26.6479C123.164 26.4389 123.116 26.2105 123.061 25.9629C122.946 25.5047 122.821 24.9428 122.685 24.277C122.531 23.6098 122.367 22.9419 122.194 22.2733C122.02 21.6047 121.867 21.0499 121.732 20.609C121.616 20.1694 121.523 19.7972 121.453 19.4922C121.364 19.1858 121.275 18.8887 121.185 18.601C121.095 18.3132 120.999 17.9689 120.899 17.568C120.825 17.3188 120.759 17.0798 120.702 16.8507C120.646 16.603 120.59 16.3553 120.534 16.1076C120.46 15.8585 120.394 15.6194 120.337 15.3903C120.263 15.1412 120.197 14.8928 120.142 14.6451C119.97 14.2013 119.825 13.7782 119.706 13.3759C119.568 12.9721 119.453 12.5326 119.358 12.0573C119.297 11.884 119.315 11.7638 119.414 11.6965C119.494 11.6278 119.544 11.4724 119.562 11.2305C119.598 11.0086 119.554 10.8461 119.431 10.743C119.291 10.6199 119.107 10.5776 118.879 10.6162C118.615 10.652 118.248 10.6705 117.78 10.6719C117.293 10.6718 116.854 10.6567 116.464 10.6266C116.056 10.5764 115.834 10.5406 115.798 10.5191C115.708 10.4747 115.405 10.3952 114.889 10.2806C114.376 10.1474 113.751 9.99629 113.015 9.82725C112.279 9.65821 111.524 9.49704 110.749 9.34374C109.956 9.189 109.255 9.05075 108.647 8.92897C108.445 8.87597 108.25 8.86091 108.061 8.88379C107.853 8.90523 107.655 8.9274 107.466 8.95028C107.221 8.96885 106.969 9.08049 106.71 9.28518C106.451 9.48987 106.346 9.75328 106.396 10.0754C106.455 10.2859 106.604 10.4097 106.845 10.447C107.087 10.4656 107.415 10.4535 107.831 10.4106C107.868 10.4135 107.899 10.4908 107.925 10.6426C107.951 10.7943 107.984 10.9747 108.024 11.1838C108.045 11.3914 108.094 11.6104 108.17 11.8409C108.271 11.9798 108.382 12.2411 108.502 12.6248C108.604 13.0071 108.712 13.4273 108.827 13.8854C108.941 14.3436 109.03 14.7624 109.095 15.1418C109.159 15.5212 109.186 15.7853 109.174 15.9342C109.403 16.3637 109.555 16.8247 109.629 17.3173C109.685 17.8083 109.771 18.2736 109.887 18.7132C109.9 18.789 109.954 19.0553 110.05 19.5121C110.128 19.9487 110.228 20.4806 110.348 21.1077C110.468 21.7348 110.588 22.3619 110.709 22.989C110.83 23.5974 110.93 24.12 111.009 24.5567C111.088 24.9933 111.125 25.2396 111.121 25.2954C111.111 25.6691 111.128 26.0542 111.172 26.4508C111.198 26.8459 111.206 27.2303 111.195 27.604C111.171 27.677 111.157 27.7414 111.152 27.7973C111.15 27.8345 111.184 27.8746 111.256 27.9176C111.394 28.0593 111.641 28.1438 111.994 28.1711C112.349 28.1797 112.578 28.1318 112.679 28.0273C112.765 27.8841 112.84 27.7589 112.905 27.6515C112.971 27.5255 113 27.3874 112.993 27.237C112.996 26.7131 112.971 26.1869 112.918 25.6586C112.865 25.1303 112.82 24.6214 112.783 24.1317C112.727 23.6407 112.649 23.1947 112.549 22.7938C112.449 22.3929 112.372 22.1717 112.319 22.1302L111.942 20.1072C111.78 19.5331 111.683 19.0857 111.652 18.765C111.622 18.4256 111.591 18.0956 111.56 17.7749C111.51 17.4528 111.411 17.0333 111.264 16.5165C111.113 16.0368 111 15.5601 110.924 15.0862C110.831 14.5922 110.738 14.1076 110.643 13.6323C110.548 13.1756 110.447 12.7747 110.343 12.4296C110.24 12.066 110.161 11.751 110.107 11.4847C110.034 11.217 110.014 10.9908 110.047 10.8061C110.453 10.8749 110.831 10.9508 111.181 11.0339C111.511 11.1155 111.861 11.1986 112.229 11.2831C112.579 11.3476 113.012 11.4372 113.528 11.5518C113.841 11.6134 114.255 11.7108 114.769 11.844C115.284 11.9586 115.763 12.0703 116.203 12.1792C116.627 12.268 116.895 12.3168 117.007 12.3254C117.135 12.354 117.244 12.3998 117.333 12.4628C117.422 12.5259 117.463 12.6039 117.455 12.6969C117.692 13.2768 117.918 13.8653 118.134 14.4623C118.351 15.0407 118.542 15.5984 118.707 16.1353C118.854 16.6521 118.959 17.1096 119.022 17.5076C119.054 17.5849 119.114 17.7767 119.203 18.0831C119.291 18.3895 119.395 18.7439 119.514 19.1462C119.633 19.5485 119.744 19.9315 119.847 20.2951C119.95 20.6588 120.03 20.9459 120.089 21.1563C120.131 21.3467 120.146 21.3947 120.134 21.3002C120.345 22.2151 120.523 22.9403 120.669 23.4757C120.797 23.9911 120.906 24.402 120.995 24.7084C121.084 25.0148 121.157 25.2825 121.214 25.5116C121.271 25.7407 121.325 26.0163 121.375 26.3384C121.463 26.6448 121.533 26.9591 121.583 27.2812C121.633 27.6034 121.683 27.9255 121.733 28.2476C121.745 28.3421 121.765 28.4466 121.793 28.5612C121.803 28.6743 121.823 28.9098 121.851 29.2677C121.914 29.4223 121.999 29.5412 122.104 29.6242C122.19 29.7244 122.336 29.7731 122.543 29.7703ZM105.33 27.3766C105.572 27.3953 105.771 27.3638 105.927 27.2822C106.064 27.1992 106.242 27.0818 106.459 26.9301C106.842 26.5851 107.12 26.2509 107.295 25.9273C107.471 25.5852 107.543 25.2538 107.512 24.9331C107.468 24.7799 107.46 24.6389 107.488 24.51C107.5 24.3611 107.506 24.2867 107.506 24.2867C107.606 24.2008 107.638 24.1471 107.602 24.1256C107.568 24.0855 107.535 24.0268 107.504 23.9495C107.392 23.9409 107.363 23.8357 107.416 23.6338C107.464 23.4878 107.415 23.1564 107.267 22.6395C107.12 22.1227 106.924 21.6301 106.679 21.162C106.582 20.9672 106.433 20.7124 106.233 20.3974C106.034 20.0638 105.815 19.738 105.578 19.4202C105.323 19.0823 105.091 18.8116 104.882 18.6083C104.447 18.1816 104.06 17.8616 103.721 17.6482C103.381 17.4348 103.01 17.2659 102.608 17.1412C102.206 17.0166 101.93 16.9486 101.781 16.9371C101.614 16.9242 101.379 17.0559 101.077 17.3322C100.635 17.4853 100.31 17.685 100.104 17.9312C99.8793 18.176 99.7196 18.5474 99.6251 19.0457C99.5262 19.5997 99.5232 20.2454 99.6162 20.9827C99.692 21.7 100.061 22.6177 100.724 23.736C101.138 24.4418 101.527 24.9773 101.892 25.3425C102.258 25.689 102.699 26.0412 103.215 26.3992C103.585 26.6899 103.924 26.9126 104.23 27.0672C104.538 27.2033 104.905 27.3064 105.33 27.3766ZM102.878 24.2109C102.47 23.6739 102.153 23.1721 101.927 22.7053C101.682 22.2371 101.465 21.6494 101.276 20.9421C101.218 20.7317 101.19 20.4768 101.195 20.1776C101.2 19.8598 101.232 19.572 101.289 19.3143C101.329 19.0366 101.407 18.8834 101.521 18.8548C101.755 18.7417 102.027 18.7253 102.34 18.8055C102.653 18.8671 102.984 19.0705 103.332 19.4156C103.871 19.9439 104.327 20.5875 104.699 21.3464C105.073 22.0866 105.429 22.9285 105.768 23.872C105.996 24.5635 106.019 25.1083 105.839 25.5062C105.641 25.8842 105.286 25.9972 104.774 25.8454C104.244 25.6735 103.612 25.1287 102.878 24.2109ZM93.5337 26.4675C93.7069 26.406 93.8809 26.3352 94.0555 26.255C94.2116 26.1734 94.3433 26.0432 94.4507 25.8642C94.6168 25.6524 94.7214 25.389 94.7644 25.074C94.7888 24.7576 94.8089 24.3753 94.8247 23.9272C94.8304 23.8528 94.8054 23.6917 94.7496 23.444C94.6938 23.1963 94.6301 22.9293 94.5586 22.643C94.4698 22.3366 94.3962 22.0782 94.3375 21.8677C94.2802 21.6386 94.2523 21.5148 94.2538 21.4962C94.437 21.5477 94.5902 21.6251 94.7133 21.7282C94.8364 21.8313 94.9595 21.9344 95.0826 22.0375C95.2544 22.2379 95.4913 22.4434 95.7934 22.6539C96.0954 22.8644 96.3731 23.0262 96.6265 23.1394C96.8069 23.2281 97.0696 23.2203 97.4147 23.1158C97.7425 22.9913 97.991 22.8045 98.1599 22.5555C98.2258 22.4295 98.2817 22.3121 98.3275 22.2033C98.3561 22.0744 98.3848 21.9456 98.4134 21.8168C98.5352 21.2083 98.4788 20.6049 98.2441 20.0064C98.058 19.5053 97.8619 19.0128 97.6558 18.5288C97.4512 18.0263 97.2551 17.5338 97.0676 17.0513C96.9861 16.8952 96.9038 16.7484 96.8207 16.611C96.7392 16.4549 96.6855 16.301 96.6597 16.1492C96.6454 16.092 96.5961 16.0039 96.5116 15.8851C96.4272 15.7662 96.3291 15.7025 96.2174 15.6939C96.0113 15.6967 95.8216 15.7289 95.6483 15.7905C95.4579 15.832 95.2897 15.95 95.1436 16.1447C95.0219 16.2664 94.9546 16.411 94.9417 16.5785C94.9302 16.7274 94.9917 16.9006 95.1263 17.0982C95.4426 17.6094 95.7289 18.1463 95.9851 18.709C96.2226 19.2702 96.4509 19.8307 96.6699 20.3906C96.7329 20.5452 96.7844 20.727 96.8244 20.936C96.8645 21.1451 96.8587 21.3412 96.8072 21.5245C96.528 21.5029 96.1594 21.306 95.7013 20.9337C95.2446 20.5428 94.7637 20.1032 94.2583 19.615C93.753 19.1267 93.3086 18.6993 92.9249 18.3327C92.5241 17.9461 92.1849 17.4894 91.9072 16.9625C91.8256 16.8064 91.7226 16.6861 91.598 16.6016C91.4749 16.4985 91.3024 16.4291 91.0805 16.3933C91.0232 16.4076 90.9459 16.4391 90.8486 16.4877C90.7512 16.5364 90.6453 16.575 90.5307 16.6036C90.4204 16.8198 90.3231 16.9902 90.2386 17.1147C90.1355 17.2378 90.0882 17.3652 90.0968 17.4969C90.1054 17.6287 90.2206 17.8341 90.4424 18.1133C90.5341 18.1391 90.6801 18.3095 90.8805 18.6245C91.0823 18.9209 91.2812 19.2545 91.4773 19.6253C91.6749 19.9775 91.8208 20.2696 91.9153 20.5016C91.964 20.5989 92.0305 20.707 92.115 20.8259C92.1822 20.9246 92.2481 21.0421 92.3125 21.1781L93.1754 23.8282C93.1811 23.9972 93.1947 24.1854 93.2161 24.393C93.239 24.582 93.2089 24.7295 93.1259 24.8354C92.977 24.8239 92.8481 24.7953 92.7393 24.7494C92.6305 24.7036 92.5339 24.743 92.4494 24.8675C92.3334 25.1581 92.2704 25.3686 92.2603 25.4988C92.2331 25.6091 92.3469 25.8331 92.6017 26.1711C92.8407 26.4703 93.1514 26.5691 93.5337 26.4675ZM89.14 25.5111C89.2015 25.441 89.2646 25.3522 89.329 25.2448C89.3748 25.136 89.4006 25.0444 89.4063 24.97C89.4092 24.9328 89.4221 24.8869 89.445 24.8325C89.4493 24.7767 89.4887 24.7517 89.5631 24.7574C89.6233 24.7059 89.6026 24.489 89.501 24.1067C89.3822 23.7044 89.2305 23.2434 89.0459 22.7236C88.8427 22.2025 88.638 21.6999 88.4319 21.216C88.2086 20.712 88.024 20.314 87.878 20.0219C87.7893 19.9589 87.7392 19.8802 87.7277 19.7857C87.6991 19.6711 87.7034 19.6153 87.7406 19.6182C87.7406 19.6182 87.7006 19.5308 87.6204 19.3562C87.5231 19.1614 87.4487 19.034 87.3971 18.9739C87.2683 18.7018 87.1767 18.4327 87.1224 18.1664C87.0694 17.8815 87.0688 17.6474 87.1203 17.4641C87.2019 17.3768 87.2878 17.3554 87.378 17.3997C87.4682 17.4441 87.5133 17.4663 87.5133 17.4663C87.5863 17.4907 87.6951 17.5365 87.8397 17.6038C87.9671 17.6511 88.0838 17.7162 88.1897 17.7993C88.5948 18.1301 88.8726 18.2919 89.0229 18.2848C89.1747 18.259 89.3608 18.03 89.5813 17.5976C89.6716 17.3986 89.711 17.2519 89.6995 17.1574C89.6881 17.0629 89.6215 16.9548 89.4998 16.8331C89.361 16.6914 89.2279 16.5968 89.1005 16.5496C88.9745 16.4837 88.8764 16.42 88.8063 16.3584C88.6116 16.2124 88.4513 16.1064 88.3253 16.0405C88.1807 15.9732 88.0719 15.9274 87.9989 15.903C87.5265 15.7168 87.1191 15.6574 86.777 15.7246C86.4348 15.7918 86.1649 16.0144 85.9673 16.3924C85.6823 16.6887 85.5241 17.0416 85.4925 17.451C85.4624 17.8419 85.5575 18.3079 85.7779 18.8491L86.0248 19.2894C86.1036 19.4826 86.115 19.5771 86.0592 19.5728C85.9847 19.5671 85.906 19.4955 85.823 19.358C85.7729 19.2793 85.6698 19.159 85.5138 18.9972C85.3577 18.8354 85.2518 18.7524 85.196 18.7481C85.196 18.7481 85.1781 18.7373 85.1423 18.7158C85.0879 18.6929 85.0657 18.6163 85.0758 18.4861C85.0242 18.4259 84.9727 18.3658 84.9212 18.3056C84.851 18.2441 84.8159 18.2133 84.8159 18.2133C84.7415 18.2075 84.6084 18.113 84.4166 17.9298C84.2076 17.7264 83.9635 17.4923 83.6844 17.2274C83.4911 17.0627 83.3107 16.974 83.1432 16.9611C82.7252 16.7978 82.3701 16.9108 82.078 17.3002C81.7673 17.6881 81.5868 18.2078 81.5366 18.8592L82.0067 20.4119L81.0963 19.1061C80.9962 18.9486 80.8945 18.8097 80.7915 18.6895C80.6698 18.5677 80.5653 18.4661 80.478 18.3845C80.4508 18.2513 80.4007 18.1726 80.3277 18.1482C80.2547 18.1239 80.2182 18.1117 80.2182 18.1117C80.2182 18.1117 80.1995 18.1103 80.1623 18.1074C80.1265 18.0859 80.1108 18.0473 80.1151 17.9914C80.0278 17.9098 79.9304 17.8368 79.8231 17.7723C79.7171 17.6893 79.6484 17.6091 79.6169 17.5318C79.3106 17.3771 79.0235 17.3363 78.7558 17.4093C78.4895 17.4636 78.2482 17.6791 78.032 18.0555C77.8845 18.2688 77.795 18.4585 77.7635 18.6246C77.732 18.7907 77.7033 19.0412 77.6775 19.3762C77.6932 19.6583 77.7132 19.8845 77.7375 20.0548C77.7447 20.2052 77.7511 20.3648 77.7568 20.5337C77.7625 20.7027 77.7725 20.9375 77.7867 21.2381C77.8497 21.3927 77.8841 21.5545 77.8898 21.7235C77.8768 21.891 77.8647 22.0492 77.8532 22.1981C77.8345 22.44 77.8123 22.6068 77.7865 22.6984C77.7622 22.7714 77.6849 22.8029 77.5546 22.7929C77.2983 22.717 76.9548 22.5594 76.5239 22.3203C76.0758 22.0611 75.748 21.8205 75.5404 21.5986C75.2813 21.3165 75.0494 21.1676 74.8447 21.1518C74.6228 21.116 74.4753 21.2076 74.4023 21.4266C74.3593 21.4982 74.4115 21.6707 74.5589 21.9442C74.6878 22.2162 74.8452 22.4811 75.0313 22.7388C75.1988 22.9951 75.329 23.1268 75.4221 23.134C75.4779 23.1383 75.5387 23.1992 75.6046 23.3166C75.6719 23.4154 75.7499 23.4963 75.8386 23.5593C75.9589 23.6996 76.0798 23.8306 76.2015 23.9523C76.3046 24.0726 76.4305 24.1385 76.5794 24.15C76.6539 24.1557 76.7448 24.1908 76.8521 24.2552C76.9423 24.2996 77.0526 24.3268 77.1829 24.3369C77.3647 24.407 77.6553 24.4014 78.0547 24.3198C78.4356 24.2368 78.6976 23.9949 78.8408 23.5941C78.9311 23.3951 79.0213 23.0744 79.1116 22.632C79.2032 22.171 79.2298 21.705 79.1912 21.234C79.1426 20.8933 79.1197 20.5826 79.1226 20.302C79.1255 20.0214 79.1034 19.8231 79.0561 19.7071C79.0604 19.6513 79.0705 19.521 79.0863 19.3163C79.1035 19.0929 79.14 18.9834 79.1958 18.9877C79.2703 18.9935 79.4363 19.1467 79.694 19.4474C79.9345 19.728 80.225 20.0874 80.5657 20.5255C80.8878 20.9622 81.2084 21.4176 81.5276 21.8915C81.8468 22.3654 82.1044 22.7878 82.3005 23.1586C82.4522 23.3763 82.5818 23.639 82.6891 23.9468C82.7964 24.2546 82.8766 24.4293 82.9295 24.4708C83.0484 24.6298 83.2051 24.6606 83.3998 24.5632C83.5759 24.4645 83.7478 24.2999 83.9153 24.0694C83.9797 23.962 84.0241 23.8718 84.0485 23.7988C84.0743 23.7072 84.0836 23.5862 84.0765 23.4359C84.0521 23.2655 84.0057 23.0186 83.937 22.695C83.8497 22.37 83.7352 21.9118 83.5936 21.3205C83.4376 20.672 83.3046 20.0907 83.1944 19.5767C83.067 19.0427 83.0034 18.7757 83.0034 18.7757C83.0091 18.7012 83.143 18.7864 83.4049 19.0313C83.6683 19.2575 83.9739 19.5432 84.3218 19.8883C84.4735 20.1059 84.729 20.4345 85.0883 20.8741C85.4476 21.3137 85.8398 21.8119 86.2649 22.3689C86.69 22.9259 87.0944 23.5093 87.478 24.1193C87.9589 24.924 88.3046 25.4187 88.515 25.6034C88.7069 25.7866 88.9152 25.7559 89.14 25.5111ZM65.7947 24.4141C66.4261 24.238 66.933 23.8559 67.3153 23.2675C67.6991 22.6605 67.9605 22.0628 68.0994 21.4744C68.118 21.4759 68.171 21.5174 68.2583 21.599C68.3285 21.6606 68.4143 21.7608 68.516 21.8997C68.7564 22.1804 69.057 22.5312 69.4178 22.9521C69.7799 23.3545 70.1636 23.721 70.5687 24.0518C70.9566 24.3625 71.3381 24.5136 71.7132 24.5051C71.8693 24.4235 72.0354 24.3333 72.2115 24.2346C72.3704 24.1158 72.5293 23.997 72.6883 23.8782C72.7685 23.8094 72.8393 23.74 72.9009 23.6699C72.9439 23.5983 72.9876 23.5174 73.0319 23.4272C73.2797 22.8847 73.4294 22.4001 73.481 21.9734C73.534 21.5282 73.5212 21.0872 73.4425 20.6506C73.3467 20.1939 73.2358 19.6892 73.1099 19.1365C73.0956 19.0793 73.0483 18.8416 72.9682 18.4235C72.8695 18.0041 72.7565 17.5273 72.6291 16.9933C72.5018 16.4592 72.3795 15.9817 72.2621 15.5608C72.1262 15.1385 72.0238 14.8872 71.9551 14.807C71.8993 14.8027 71.8435 14.7984 71.7876 14.7941C71.7146 14.7697 71.6502 14.7554 71.5944 14.7511C71.4082 14.7368 71.2636 14.7912 71.1605 14.9143C71.0775 15.0202 70.978 15.0968 70.862 15.144C70.7274 15.1898 70.6286 15.2571 70.5656 15.3458C70.4582 15.5248 70.4925 15.9299 70.6685 16.5613C70.846 17.1741 71.0356 17.8721 71.2373 18.6552C71.4262 19.3625 71.5771 20.0762 71.6901 20.7964C71.8046 21.4979 71.7694 22.0756 71.5847 22.5294C71.4544 22.5193 71.2862 22.394 71.08 22.1535C70.8567 21.8929 70.6835 21.711 70.5604 21.6079C70.3829 21.4819 70.1575 21.2493 69.8841 20.9099C69.5935 20.5505 69.3122 20.1918 69.0403 19.8339C68.7697 19.4573 68.5858 19.1717 68.4885 18.977C68.4226 18.8596 68.3267 18.6462 68.2008 18.337C68.0763 18.0091 67.9532 17.6626 67.8316 17.2975C67.6928 16.9124 67.589 16.558 67.5203 16.2345C67.433 15.9095 67.4037 15.6825 67.4324 15.5537C67.4653 15.369 67.4575 15.228 67.4088 15.1306C67.343 15.0132 67.2392 14.9023 67.0975 14.7977C67.0044 14.7906 66.9021 14.7827 66.7904 14.7741C66.6787 14.7655 66.5756 14.7669 66.4811 14.7783C66.3594 14.9 66.2291 15.0116 66.0903 15.1133C65.9514 15.2149 65.8118 15.3258 65.6714 15.4461C65.5511 15.7925 65.5704 16.2714 65.7292 16.8828C65.8881 17.4941 66.0433 18.152 66.195 18.8564C66.3466 19.5608 66.4231 20.2687 66.4244 20.9803C66.4272 21.6732 66.1945 22.2637 65.7262 22.7519C65.3483 22.5543 65.0627 22.3731 64.8695 22.2084C64.659 22.0237 64.4579 21.8397 64.2661 21.6564C64.0757 21.4545 63.8295 21.2484 63.5274 21.0379C63.3327 21.1352 63.1759 21.3478 63.057 21.6756C62.9382 22.0034 62.8708 22.2697 62.8551 22.4744C62.9252 22.536 62.9954 22.5976 63.0655 22.6592C63.1185 22.7007 63.1607 22.7601 63.1922 22.8374C63.2852 23.088 63.4899 23.3471 63.8063 23.6149C64.1226 23.8827 64.4612 24.1053 64.8219 24.2829C65.1841 24.4419 65.5084 24.4856 65.7947 24.4141ZM54.536 22.732C54.6821 22.7807 54.8295 22.8108 54.9784 22.8222C55.1101 22.8137 55.2526 22.7872 55.4058 22.7428C55.6363 22.667 55.8031 22.5675 55.9062 22.4444C55.9907 22.3199 56.0394 22.1738 56.0523 22.0063C56.058 21.6885 56.0094 21.3478 55.9064 20.9841C55.8048 20.6018 55.7848 20.2539 55.8464 19.9404C55.8121 19.6569 55.752 19.3434 55.6661 18.9998C55.5631 18.6361 55.4601 18.2725 55.3571 17.9088C55.2555 17.5265 55.1711 17.1643 55.1038 16.8221C55.038 16.4613 55.0058 16.1499 55.0073 15.888C55.0016 15.719 55.041 15.5723 55.1255 15.4477C55.1928 15.3031 55.2408 15.1664 55.2694 15.0376C55.2795 14.9073 55.2072 14.752 55.0526 14.5715C54.9324 14.4312 54.8207 14.3009 54.7176 14.1806C54.6146 14.0604 54.5122 13.9308 54.4106 13.7919C54.2832 13.7446 54.1637 13.7167 54.052 13.7081C53.9403 13.6995 53.8179 13.7088 53.6848 13.736C53.6475 13.7331 53.6196 13.7309 53.601 13.7295C53.5652 13.708 53.538 13.6966 53.5194 13.6951C53.2517 13.5247 52.8702 13.3736 52.3748 13.2419C51.8809 13.0915 51.3827 12.9969 50.8802 12.9582C50.3591 12.918 49.9532 12.9616 49.6626 13.089C49.4106 13.2006 49.2316 13.3366 49.1256 13.4969C49.0211 13.6387 48.9953 13.852 49.0482 14.1369C49.1012 14.1784 49.1628 14.23 49.2329 14.2915C49.2844 14.3517 49.3367 14.4025 49.3896 14.444C49.5056 14.3968 49.6273 14.3968 49.7547 14.4441C49.865 14.4713 49.9859 14.4806 50.1176 14.4721C50.3267 14.432 50.6259 14.4363 51.0153 14.4851C51.3861 14.5324 51.7454 14.6069 52.0933 14.7086C52.4426 14.7916 52.7046 14.9148 52.8793 15.078C52.8921 15.1539 52.9415 15.3637 53.0273 15.7073C53.096 16.0308 53.1804 16.3931 53.2806 16.794C53.3807 17.1948 53.4745 17.5578 53.5618 17.8828C53.6304 18.2063 53.6726 18.3875 53.6884 18.4261C53.9317 19.1563 54.1012 19.8714 54.197 20.5715C54.2943 21.253 54.4073 21.9732 54.536 22.732ZM46.8193 23.1202C47.0598 23.1574 47.2566 23.1539 47.4098 23.1095C47.5645 23.0466 47.7585 22.9585 47.9918 22.8455C48.4257 22.5606 48.7571 22.2679 48.9863 21.9673C49.1982 21.6466 49.307 21.3274 49.3128 21.0095C49.2885 20.8392 49.3 20.6903 49.3472 20.5629C49.3759 20.434 49.3902 20.3696 49.3902 20.3696C49.5091 20.2851 49.5506 20.2322 49.5148 20.2107C49.4804 20.1706 49.4568 20.1126 49.4439 20.0367C49.2979 19.988 49.2872 19.8842 49.4118 19.7253C49.4791 19.5808 49.477 19.2436 49.4055 18.7139C49.3168 18.1641 49.188 17.6487 49.0191 17.1676C48.9419 16.9557 48.8324 16.6758 48.6907 16.3279C48.5304 15.9785 48.3515 15.6278 48.154 15.2755C47.9579 14.9047 47.7747 14.6098 47.6043 14.3907C47.2307 13.8939 46.8944 13.5216 46.5952 13.2738C46.2788 13.0061 45.9216 12.782 45.5237 12.6015C45.1629 12.4239 44.8995 12.3194 44.7334 12.2879C44.5674 12.2564 44.3261 12.3501 44.0097 12.5691C43.553 12.665 43.2036 12.8253 42.9616 13.05C42.7025 13.2547 42.4891 13.594 42.3215 14.0678C42.131 14.5961 42.035 15.2346 42.0335 15.9833C42.0148 16.7121 42.2587 17.6763 42.7654 18.8761C43.0631 19.6292 43.3744 20.2055 43.6993 20.605C44.0056 21.0031 44.3849 21.4255 44.8373 21.8722C45.168 22.1972 45.4757 22.455 45.7606 22.6454C46.0455 22.8359 46.3984 22.9941 46.8193 23.1202ZM44.8419 19.6259C44.5127 19.0389 44.2637 18.5048 44.0948 18.0238C43.9088 17.5227 43.7786 16.9042 43.7042 16.1683C43.6828 15.9607 43.6928 15.7087 43.7344 15.4124C43.7774 15.0974 43.8462 14.8125 43.9407 14.5577C44.0166 14.3014 44.1111 14.1683 44.2242 14.1583C44.4733 14.0839 44.7432 14.1047 45.0338 14.2207C45.3259 14.3181 45.6343 14.5665 45.9593 14.966C46.247 15.3626 46.5032 15.8036 46.7279 16.289C46.934 16.7729 47.1179 17.3019 47.2796 17.876C47.4413 18.4502 47.5908 19.0608 47.7281 19.7079C47.8597 20.4295 47.8088 20.9685 47.5754 21.325C47.3234 21.68 46.9533 21.7451 46.4651 21.5202C45.9784 21.2768 45.4373 20.6453 44.8419 19.6259ZM39.8337 21.3743C40.0484 21.2597 40.2475 21.1066 40.4307 20.9148C40.6155 20.7043 40.7207 20.4316 40.7465 20.0966C40.7609 19.9105 40.748 19.5912 40.708 19.1388C40.668 18.6864 40.6044 18.176 40.5171 17.6076C40.4299 17.0392 40.3397 16.5081 40.2468 16.0141C40.0865 15.6648 39.9541 15.3176 39.8496 14.9726C39.7452 14.6275 39.6958 14.4178 39.7015 14.3433C39.6815 14.1171 39.6551 13.853 39.6222 13.5509C39.5707 13.2474 39.517 12.9717 39.4612 12.7241C39.4054 12.4764 39.3604 12.3325 39.326 12.2924C39.2401 12.1922 39.1328 12.1277 39.0039 12.0991C38.8765 12.0518 38.7448 12.0604 38.6088 12.1248C38.4556 12.1691 38.3346 12.2815 38.2458 12.4619C38.0239 12.6695 37.9007 12.9314 37.8763 13.2478C37.8534 13.5456 37.9213 14.0002 38.0801 14.6115C38.2189 14.9967 38.3527 15.4469 38.4815 15.9624C38.6103 16.4778 38.7233 16.9545 38.8206 17.3926C38.9007 17.8107 38.9444 18.0949 38.9515 18.2452L39.4969 18.4557C39.2035 18.1336 38.9294 17.8035 38.6746 17.4656C38.4212 17.1091 38.2366 16.8328 38.1206 16.6366C37.8372 16.1842 37.5946 15.8098 37.3928 15.5134C37.1738 15.1969 36.894 14.8197 36.5533 14.3815C36.214 13.9248 35.8712 13.6362 35.5248 13.5159C35.1611 13.3756 34.877 13.2975 34.6722 13.2817C34.257 13.3246 33.9148 13.5136 33.6456 13.8485C33.3593 14.1634 33.153 14.653 33.027 15.3173C33.0069 15.5779 33.0111 15.8871 33.0397 16.245C33.0497 16.6015 33.0547 16.7798 33.0547 16.7798C33.0547 16.7798 32.9208 16.5729 32.6532 16.1591C32.3669 15.7439 31.9811 15.2835 31.4959 14.7781C31.1623 14.4903 30.8295 14.3148 30.4973 14.2518C30.1666 14.1702 29.8603 14.2589 29.5782 14.518C29.0742 14.7412 28.727 15.117 28.5365 15.6453C28.3474 16.1549 28.2586 16.822 28.2699 17.6467C28.2884 18.1349 28.2698 18.4985 28.2139 18.7376C28.1595 18.9581 28.0864 19.1771 27.9948 19.3947C27.8401 19.4577 27.8 19.6137 27.8744 19.8629C27.9503 20.0934 28.0534 20.2136 28.1836 20.2237C28.3698 20.238 28.5867 20.2173 28.8343 20.1615C29.0634 20.1043 29.2775 19.9991 29.4765 19.8459C29.6583 19.6727 29.7614 19.4279 29.7858 19.1115L29.9192 17.3806C29.9508 16.9712 29.9952 16.6376 30.0525 16.3799C30.0912 16.1208 30.1499 15.9662 30.2287 15.9161C30.442 15.8202 30.7305 15.9641 31.0941 16.3479C31.4576 16.7316 31.8398 17.2385 32.2406 17.8684C32.6414 18.4984 33.0128 19.1449 33.3549 19.8078C33.664 20.412 33.8616 20.7642 33.9474 20.8645C34.0161 20.9446 34.1579 20.9275 34.3727 20.813C34.7921 20.7142 35.0663 20.5575 35.1952 20.3428C35.3069 20.108 35.337 19.8389 35.2855 19.5353C35.2169 19.2118 35.1382 18.7751 35.0495 18.2253C34.9422 17.6741 34.8428 17.1422 34.7512 16.6297C34.6611 16.0985 34.606 15.7198 34.586 15.4936C34.6719 15.3505 34.8058 15.314 34.9876 15.3842C35.1522 15.4343 35.3226 15.5317 35.4987 15.6763C35.7105 15.8424 35.9589 16.1424 36.2437 16.5762C36.5286 17.0101 36.8177 17.5097 37.1111 18.0753C37.3072 18.4461 37.5126 18.8177 37.7273 19.1899C37.9434 19.5436 38.1438 19.8586 38.3284 20.1349C38.5131 20.4113 38.6748 20.6203 38.8137 20.7621C39.0427 21.1916 39.2023 21.4286 39.2925 21.473C39.3827 21.5174 39.5631 21.4845 39.8337 21.3743ZM24.8159 21.1717C25.0578 21.1904 25.2568 21.1589 25.4129 21.0773C25.5503 20.9943 25.7279 20.8769 25.9455 20.7252C26.3278 20.3802 26.6063 20.046 26.781 19.7224C26.9572 19.3803 27.0295 19.0489 26.9981 18.7282C26.9537 18.575 26.9459 18.4339 26.9745 18.3051C26.986 18.1562 26.9917 18.0818 26.9917 18.0818C27.092 17.9959 27.1242 17.9422 27.0884 17.9207C27.054 17.8806 27.0211 17.8219 26.9896 17.7446C26.878 17.736 26.8486 17.6308 26.9016 17.4289C26.9503 17.2829 26.901 16.9514 26.7536 16.4346C26.6062 15.9177 26.4101 15.4252 26.1654 14.957C26.0681 14.7623 25.9192 14.5074 25.7188 14.1925C25.5199 13.8588 25.3016 13.5331 25.064 13.2152C24.8092 12.8773 24.5773 12.6067 24.3683 12.4034C23.9331 11.9767 23.5459 11.6567 23.2066 11.4433C22.8673 11.2299 22.4966 11.0609 22.0943 10.9363C21.692 10.8117 21.4164 10.7437 21.2675 10.7322C21.1 10.7193 20.8652 10.851 20.5631 11.1272C20.1207 11.2804 19.7964 11.48 19.5902 11.7262C19.3654 11.971 19.2057 12.3425 19.1111 12.8407C19.0123 13.3948 19.0093 14.0405 19.1023 14.7778C19.178 15.4951 19.5473 16.4128 20.21 17.531C20.6236 18.2369 21.013 18.7724 21.378 19.1375C21.7445 19.484 22.1854 19.8363 22.7007 20.1943C23.0715 20.485 23.41 20.7076 23.7164 20.8623C24.0242 20.9984 24.3907 21.1015 24.8159 21.1717ZM22.3639 18.0059C21.9559 17.469 21.6389 16.9672 21.4127 16.5004C21.168 16.0322 20.9512 15.4445 20.7623 14.7372C20.7036 14.5267 20.6765 14.2719 20.6808 13.9727C20.6866 13.6549 20.7181 13.3671 20.7754 13.1094C20.8155 12.8317 20.8929 12.6785 21.0074 12.6499C21.2408 12.5368 21.5135 12.5204 21.8256 12.6006C22.1391 12.6622 22.4698 12.8655 22.8177 13.2106C23.3573 13.739 23.8132 14.3826 24.1854 15.1414C24.5589 15.8817 24.9153 16.7235 25.2545 17.667C25.482 18.3586 25.5055 18.9033 25.3251 19.3013C25.1275 19.6792 24.7724 19.7923 24.2599 19.6405C23.7302 19.4686 23.0982 18.9237 22.3639 18.0059ZM17.2874 16.6318C17.2917 16.3326 17.2645 15.9561 17.2059 15.5022C17.1473 15.0484 17.0965 14.6138 17.0536 14.1986C16.9921 13.782 16.9864 13.4914 17.0366 13.3268C17.1182 13.2394 17.2084 13.1621 17.3072 13.0949C17.406 13.0276 17.5048 12.9603 17.6036 12.893C17.5821 12.6855 17.5592 12.4965 17.5349 12.3261C17.492 12.1543 17.3632 12.0039 17.1484 11.8751L16.9466 11.9438C16.8922 11.9208 16.8378 11.8979 16.7834 11.875C16.7304 11.8335 16.686 11.802 16.6502 11.7805C16.4899 11.4312 16.3504 11.0553 16.2316 10.653C16.1143 10.2321 16.0134 9.8405 15.929 9.47828C15.8603 9.15471 15.7487 8.78103 15.5942 8.35724C15.4396 7.93344 15.2793 7.58409 15.1133 7.30919C15.0131 7.15169 14.9308 7.00493 14.8664 6.86891C14.8034 6.71428 14.7404 6.55966 14.6775 6.40503C14.5358 6.05711 14.3311 5.67626 14.0634 5.26247C13.7972 4.83007 13.5009 4.42343 13.1745 4.04256C12.831 3.64164 12.5082 3.33594 12.2061 3.12544C11.9055 2.89633 11.6443 2.76386 11.4224 2.72804C11.2019 2.6736 10.9156 2.62345 10.5634 2.57759C10.3687 2.67492 10.131 2.84382 9.85034 3.0843C9.55109 3.32334 9.39286 3.55454 9.37564 3.77788C9.3613 3.96399 9.34552 4.16872 9.32831 4.39205C9.31253 4.59678 9.34472 4.78648 9.42487 4.96116C9.39622 5.09 9.39476 5.2303 9.42051 5.38207C9.4477 5.51521 9.48347 5.65839 9.52783 5.81158C9.5407 5.88746 9.56216 5.97336 9.59222 6.06929C9.60366 6.16378 9.6151 6.25827 9.62653 6.35276C9.92421 7.10587 10.2026 7.74514 10.4616 8.2706C10.7035 8.77602 10.9776 9.22775 11.2839 9.62579C11.5731 10.0038 11.9259 10.4054 12.3425 10.8307C12.7419 11.2359 13.2293 11.7134 13.8047 12.2633C13.4812 12.332 13.1898 12.4686 12.9306 12.6733C12.6729 12.8594 12.5204 13.1379 12.4731 13.5086C12.4659 13.6017 12.4673 13.7048 12.4774 13.8179C12.4687 13.9296 12.4508 14.0405 12.4236 14.1507C12.3677 14.3898 12.3312 14.621 12.314 14.8444C12.2796 15.0477 12.2445 15.2603 12.2087 15.4822C12.1542 15.7026 12.1334 15.9725 12.1463 16.2918C12.1591 16.611 12.1756 16.8838 12.1956 17.11C12.2084 17.1858 12.2328 17.2345 12.2686 17.256C12.2872 17.2574 12.2929 17.3047 12.2857 17.3977C12.2628 17.6955 12.3078 17.9611 12.4209 18.1945C12.534 18.4279 12.6542 18.6899 12.7816 18.9805C12.8302 19.0779 12.8982 19.1674 12.9855 19.249C13.0743 19.312 13.1523 19.3929 13.2196 19.4917C13.5073 19.8883 13.8165 20.1274 14.1472 20.2091C14.4593 20.2893 14.8251 20.4017 15.2445 20.5464L15.2961 20.6065C15.4936 20.472 15.6404 20.3897 15.7363 20.3596C15.8136 20.3282 15.9575 20.2831 16.168 20.2244C16.2439 19.9682 16.3943 19.7176 16.6191 19.4729C16.8253 19.2266 16.9577 18.9654 17.0165 18.6891C17.0451 18.5602 17.0638 18.44 17.0724 18.3283C17.0638 18.1966 17.1103 18.0785 17.212 17.974C17.0889 17.8709 17.0789 17.7578 17.182 17.6347C17.2851 17.5116 17.2851 17.3899 17.182 17.2696C17.1849 17.2324 17.1878 17.1951 17.1906 17.1579C17.1749 17.1193 17.1677 17.0906 17.1692 17.072C17.1907 17.0362 17.2136 16.9818 17.2379 16.9088C17.2637 16.8172 17.2802 16.7249 17.2874 16.6318ZM14.7616 18.7961C14.3479 18.3336 14.0838 17.8733 13.9694 17.4152C13.8563 16.9384 13.8184 16.4581 13.8557 15.9742C13.8759 15.4702 13.9074 14.9391 13.9505 14.3807C13.9576 14.2877 13.9834 14.1961 14.0278 14.1059C14.0536 14.0143 14.0507 13.9298 14.0193 13.8525C14.1095 13.6535 14.2011 13.4359 14.2942 13.1997C14.3888 12.9448 14.5456 12.7323 14.7646 12.5619C14.9078 12.6478 15.0223 12.7409 15.1082 12.8412C15.1941 12.9414 15.3029 13.1089 15.4345 13.3437C15.5132 13.537 15.5798 13.8885 15.6341 14.3982C15.6698 14.9064 15.6826 15.4691 15.6725 16.0861C15.6638 16.6845 15.6208 17.2429 15.5434 17.7611C15.4474 18.278 15.3078 18.6323 15.1245 18.8241L14.7616 18.7961ZM12.3175 5.3245C12.8972 6.06189 13.3953 6.8866 13.8118 7.79863C14.2283 8.71066 14.5417 9.62411 14.752 10.539L14.432 10.6828L13.1244 9.43063C13.0714 9.38911 12.9691 9.25953 12.8173 9.04189C12.6656 8.82426 12.5239 8.59803 12.3922 8.36322C12.2434 8.10836 12.1618 7.9523 12.1475 7.89503C11.99 7.75184 11.8412 7.49698 11.7009 7.13046C11.542 6.7625 11.4047 6.35875 11.2888 5.91921C11.1743 5.46106 11.0949 5.03369 11.0506 4.63711C10.9891 4.22049 10.9848 3.91125 11.0378 3.70939L11.2268 3.8082C11.3943 4.0645 11.571 4.32151 11.7571 4.57923C11.9446 4.81835 12.1314 5.06677 12.3175 5.3245ZM7.65089 19.203C8.036 19.3075 8.2851 19.3548 8.3982 19.3448C8.49413 19.3147 8.65163 19.2145 8.8707 19.0442C9.17996 18.9183 9.44555 18.7515 9.66749 18.544C9.87082 18.335 10.0283 18.1131 10.14 17.8783C10.2346 17.6235 10.279 17.4116 10.2733 17.2427C10.2676 16.587 10.1632 15.8768 9.96004 15.1123C9.75685 14.3477 9.49568 13.6068 9.17652 12.8895C8.85736 12.1722 8.50239 11.5551 8.11162 11.0382C7.70367 10.5013 7.30071 10.1426 6.90273 9.96214C6.54198 9.78456 6.19266 9.70148 5.85479 9.71288C5.51691 9.72429 5.26134 9.88245 5.08806 10.1874C4.76729 10.7056 4.8059 11.0549 5.20388 11.2354C5.25971 11.2397 5.3227 11.2726 5.39284 11.3342C5.46442 11.3771 5.49734 11.4358 5.4916 11.5103C5.41429 11.5418 5.20885 11.5353 4.87527 11.4909C4.54313 11.4278 4.21243 11.3462 3.88316 11.2459C3.53672 11.1256 3.31124 11.0146 3.20675 10.913C3.09938 10.8485 3.01778 10.8141 2.96195 10.8098C2.90611 10.8055 2.76509 10.8134 2.53888 10.8334C2.21532 10.9021 2.04851 11.0016 2.03847 11.1318C2.03274 11.2063 1.99908 11.2786 1.93751 11.3487C1.87737 11.4003 1.81008 11.4231 1.73564 11.4174C1.60392 11.426 1.61608 11.5112 1.77211 11.673C1.90952 11.8333 2.15431 12.0581 2.50646 12.3474C2.84286 12.598 3.05473 12.7641 3.14205 12.8457C3.21219 12.9073 3.21145 13.0383 3.13984 13.2387C2.9637 13.5808 2.92284 13.9896 3.01726 14.4649C3.11168 14.9402 3.30775 15.4327 3.60546 15.9425C3.90318 16.4522 4.27749 16.9397 4.7284 17.4051C5.16213 17.8504 5.63739 18.2427 6.15417 18.5821C6.65378 18.9014 7.15269 19.1084 7.65089 19.203ZM8.22015 18.0112C8.14571 18.0054 8.01829 17.9582 7.83792 17.8694C7.65897 17.762 7.51582 17.6761 7.40845 17.6116C7.33974 17.5314 7.25314 17.4405 7.14864 17.3388C7.02697 17.2171 6.92963 17.1441 6.85661 17.1198C6.78217 17.114 6.69126 17.0789 6.5839 17.0145C6.47797 16.9314 6.33053 16.7797 6.14158 16.5592C5.95406 16.32 5.7093 15.9735 5.40728 15.5197C5.0666 15.0815 4.80681 14.6871 4.6279 14.3363C4.45043 13.9669 4.4197 13.6369 4.5357 13.3463C4.56005 13.2733 4.61947 13.231 4.71396 13.2196C4.78984 13.2067 4.89579 13.1681 5.03181 13.1037C5.21793 13.118 5.39832 13.0851 5.573 13.005C5.73049 12.9048 5.91806 12.7788 6.13569 12.6271L6.6254 12.1032L7.06342 12.6143C7.33825 12.9351 7.62022 13.4061 7.90933 14.0275C8.18126 14.6288 8.40523 15.2452 8.58124 15.8766C8.75868 16.4894 8.85238 16.974 8.86235 17.3305C8.85945 17.6111 8.79858 17.7936 8.67974 17.8781C8.5609 17.9625 8.4077 18.0069 8.22015 18.0112Z" fill="#2F94F9"/>
<path d="M53.5972 66.2737C53.4533 64.0953 53.314 61.9174 53.2062 59.7378C53.1953 59.491 53.1813 59.2404 53.1762 58.9931C53.1743 58.9211 53.1749 58.8471 53.1691 58.7781C53.1858 58.5672 53.1327 58.3405 52.9753 58.1227C52.8297 57.9202 52.5437 57.7545 52.2953 57.7312C51.9438 57.6996 51.5468 57.8255 51.3431 58.1355C51.0561 58.5647 51.1334 59.0607 51.151 59.5434C51.1758 60.1369 51.2084 60.7326 51.2445 61.3276C51.2839 62.0283 51.3289 62.7309 51.3731 63.43C46.8518 58.7542 43.6409 51.9636 45.3398 45.3277C45.8928 43.1724 47.0053 41.1398 48.389 39.3741C49.2052 38.3333 47.5747 37.1054 46.7559 38.1482C44.0536 41.5823 42.6101 45.7566 42.8556 50.1151C43.0816 54.0763 44.6599 57.8641 46.8553 61.1143C47.6077 62.228 48.4463 63.2773 49.3518 64.269C47.9111 63.6219 46.5465 62.8223 45.2501 61.9108C44.1796 61.1563 42.9303 62.792 44.0096 63.5498C45.8276 64.8315 47.7975 65.9389 49.8907 66.7067C50.7078 67.0089 51.5709 67.2961 52.4401 67.4254C53.1259 67.5304 53.6363 66.913 53.5942 66.2756L53.5972 66.2737ZM52.9759 59.3558C52.9516 59.3643 52.928 59.3764 52.9037 59.3849C52.9323 59.3526 52.9636 59.3183 52.986 59.2807C52.9622 59.3459 52.9537 59.3831 52.974 59.3532L52.9759 59.3558ZM53.1581 58.8868L53.1596 58.8754C53.1596 58.8754 53.1626 58.8792 53.1607 58.8848L53.1581 58.8868Z" fill="#2F94F9"/>
</svg>
