<svg width="83" height="64" viewBox="0 0 83 64" fill="none" xmlns="http://www.w3.org/2000/svg">
<path d="M8.67884 25.2655C9.04333 25.2249 9.33938 25.1365 9.56702 25.0002C9.77618 24.8612 9.91041 24.6546 9.9697 24.3803C9.9594 24.3221 9.96241 24.2377 9.97874 24.1269C9.99235 24.0345 9.97174 23.9183 9.91692 23.7781C9.91692 23.7781 9.85744 23.7977 9.73847 23.8368C9.60104 23.8731 9.39003 23.8326 9.10544 23.7152C8.73337 23.6792 8.48028 23.6042 8.34615 23.4901C8.21202 23.3759 8.02958 23.1415 7.79884 22.7867C7.63652 22.4798 7.45331 22.1226 7.2492 21.7152C7.02662 21.305 6.88685 20.9731 6.82989 20.7194C6.56436 20.4727 6.3792 20.2567 6.27442 20.0715C6.17237 19.8678 6.07955 19.6654 5.99596 19.4644C6.00957 19.3721 6.00636 19.2018 5.98634 18.9535C5.96904 18.6868 5.87544 18.3617 5.70554 17.9782C5.57044 17.4865 5.43368 17.0702 5.29528 16.729C5.15959 16.3694 5.09856 16.1434 5.11216 16.0511C5.11216 16.0511 5.09399 15.9823 5.05764 15.8449C5.02129 15.7075 5.02595 15.5478 5.07164 15.3658C4.969 15.2941 4.89435 15.1605 4.8477 14.9649C4.7853 14.7482 4.7783 14.5396 4.82671 14.3392C4.83487 14.2838 4.78307 14.0591 4.67129 13.6653C4.56224 13.253 4.52705 12.8516 4.56573 12.461C4.46057 11.7663 4.39992 11.1536 4.38379 10.6229C4.35191 10.071 4.35454 9.47702 4.39167 8.84098C4.4288 8.20493 4.49178 7.39344 4.58062 6.40651C4.66616 5.57004 4.72963 4.94731 4.77103 4.53831C4.81516 4.11084 4.87202 3.78903 4.94161 3.57286C4.99274 3.35398 5.1085 3.14462 5.28889 2.94479C5.56065 2.38105 5.76117 2.10871 5.89044 2.12776C5.94584 2.13592 6.02136 2.07158 6.117 1.93473C6.1969 1.77669 6.21896 1.56295 6.18319 1.29353C6.21255 1.22238 6.19709 1.13519 6.13683 1.03197C6.07657 0.928749 5.96198 0.874125 5.79305 0.868098C5.66378 0.849048 5.51711 0.884038 5.35305 0.97307C5.17324 1.04091 5.05019 1.10769 4.9839 1.17339C4.92092 1.08864 4.79651 1.16464 4.61067 1.40141C4.40908 1.61699 4.17649 1.97895 3.91289 2.48728C3.76399 2.72949 3.64823 2.93885 3.56561 3.11536C3.48572 3.2734 3.4202 3.46186 3.36908 3.68075C3.32068 3.88117 3.27713 4.17664 3.23845 4.56717C3.20248 4.93924 3.15398 5.4604 3.09294 6.13067C2.99769 6.77702 2.93908 7.49481 2.91711 8.28404C2.87939 9.05208 2.86151 9.81361 2.86345 10.5686C2.86811 11.3052 2.89153 11.9785 2.93372 12.5885C2.99223 13.0877 3.08194 13.6952 3.20285 14.4112C3.32649 15.1086 3.47645 15.8194 3.65277 16.5436C3.81061 17.2649 3.97011 17.9111 4.13126 18.482C4.27394 19.0502 4.40282 19.456 4.5179 19.6994C4.48097 19.694 4.52004 19.8129 4.63512 20.0563C4.73173 20.297 4.87422 20.6104 5.06258 20.9967C5.2352 21.3617 5.4157 21.7374 5.60406 22.1237C5.7897 22.5284 5.94657 22.8723 6.07468 23.1553C6.29453 23.5839 6.55949 23.9626 6.86955 24.2913C7.1796 24.6201 7.4913 24.8735 7.80466 25.0518C8.11802 25.2301 8.40942 25.3013 8.67884 25.2655Z" fill="#2F94F9"/>
<path d="M13.8671 24.8697C14.0518 24.8969 14.1745 24.8961 14.2354 24.8674C14.275 24.8543 14.3413 24.7886 14.4342 24.6702C14.4533 24.541 14.4419 24.4261 14.4001 24.3256C14.3398 24.2224 14.2546 24.0966 14.1444 23.9483C13.9869 23.7364 13.8086 23.4743 13.6093 23.1619C13.4074 22.8679 13.2252 22.5675 13.0629 22.2606C12.8821 21.9509 12.7578 21.7062 12.69 21.5263C12.646 21.3123 12.6168 21.0627 12.6022 20.7775C12.5691 20.4897 12.5402 20.1741 12.5153 19.8308C12.5371 19.683 12.5561 19.5538 12.5725 19.443C12.573 19.311 12.5418 19.2026 12.4789 19.1178C12.3686 18.9695 12.266 18.8978 12.1709 18.9026C12.0574 18.9048 11.9487 19.002 11.8449 19.1942C11.7227 19.3838 11.6131 19.6789 11.5163 20.0798C11.3826 20.4752 11.3281 20.8445 11.353 21.1878C11.3779 21.5311 11.4565 21.9578 11.5889 22.4679C11.6068 22.6026 11.6983 22.8142 11.8633 23.1027C12.0283 23.3911 12.1961 23.6612 12.3666 23.9127C12.5371 24.1642 12.65 24.2941 12.7054 24.3023C12.7793 24.3131 12.8412 24.3411 12.8911 24.3862C12.9384 24.4498 12.9935 24.524 13.0565 24.6087C13.1195 24.6935 13.2248 24.7467 13.3726 24.7685C13.4991 24.806 13.6639 24.8398 13.8671 24.8697ZM10.55 14.7297C10.8818 14.9107 11.1678 15.0189 11.4079 15.0543C11.6322 15.0685 11.8978 14.9944 12.2048 14.8321C12.6046 14.5514 12.7737 14.2367 12.7118 13.8879C12.6343 13.518 12.3799 13.1314 11.9488 12.7283C11.6463 12.4761 11.4225 12.33 11.2775 12.2897C11.114 12.2468 10.8552 12.2747 10.501 12.3734C9.8953 12.6426 9.59808 12.9951 9.60935 13.4307C9.60216 13.8636 9.91571 14.2966 10.55 14.7297Z" fill="#2F94F9"/>
<path d="M27.9132 24.3359C28.5166 24.5946 28.9476 24.743 29.2061 24.7811C29.4647 24.8192 29.7607 24.7308 30.0943 24.5158C30.2002 24.4371 30.2693 24.3529 30.3013 24.2633C30.3361 24.1552 30.3918 24.0974 30.4684 24.0898C30.5059 23.9632 30.5117 23.8603 30.4856 23.781C30.4438 23.6805 30.336 23.5797 30.1622 23.4786C29.8607 23.604 29.5031 23.5985 29.0892 23.462C28.6753 23.3255 28.283 23.1073 27.9121 22.8074C27.5254 22.4862 27.2379 22.1325 27.0495 21.7463C26.7455 21.2486 26.5205 20.791 26.3745 20.3732C26.2313 19.937 26.1735 19.5605 26.2013 19.2439C26.2285 19.0592 26.2753 18.934 26.3416 18.8683C26.3921 18.7814 26.5049 18.6565 26.6798 18.4936C26.9959 18.6534 27.2816 18.8276 27.5368 19.0162C27.7736 19.202 27.9628 19.3903 28.1045 19.581C28.5905 20.1243 28.9687 20.5668 29.2391 20.9086C29.491 21.2476 29.706 21.5812 29.8841 21.9093C30.0437 22.2347 30.2437 22.6699 30.4842 23.2147C30.6047 23.4212 30.7228 23.5801 30.8384 23.6915C30.9356 23.8001 31.0489 23.864 31.1781 23.8831C31.0683 24.2442 31.1649 24.4849 31.468 24.605C31.8879 24.5726 32.201 24.4961 32.4075 24.3755C32.6166 24.2366 32.7183 23.9308 32.7125 23.4582C32.6767 23.1888 32.6477 22.8732 32.6256 22.5114C32.6061 22.1312 32.5679 21.8142 32.511 21.5606C32.2419 20.3133 32.0093 19.2036 31.8129 18.2312C31.5981 17.2561 31.39 16.5557 31.1886 16.1297L30.8119 14.461C30.4953 14.4332 30.2457 14.4624 30.0631 14.5487C29.8833 14.6166 29.6554 14.8189 29.3793 15.1555C29.3657 15.2479 29.4186 15.5293 29.538 15.9997C29.6416 16.4489 29.7726 16.9682 29.931 17.5576C30.071 18.1443 30.2072 18.6927 30.3395 19.2028C30.4562 19.6917 30.5378 20.0339 30.5845 20.2295C30.6284 20.4435 30.5784 20.3984 30.4346 20.0942C30.2723 19.7872 29.9731 19.3846 29.5371 18.8864C29.3324 18.611 29.0696 18.3458 28.7486 18.091C28.4304 17.8176 28.1594 17.6079 27.9357 17.4617C27.6935 17.3128 27.4906 17.2169 27.3271 17.1739C27.1637 17.1309 27.0463 17.0948 26.9752 17.0654C26.5135 16.9974 26.1265 17.063 25.8141 17.2623C25.5044 17.443 25.2724 17.673 25.1181 17.9521C24.9453 18.2286 24.8452 18.4591 24.818 18.6438C24.7191 18.9311 24.64 19.2119 24.5807 19.4862C24.5056 19.7393 24.4833 20.019 24.5136 20.3254C24.5472 20.4813 24.6189 20.6994 24.7285 20.9797C24.8381 21.26 24.9741 21.5536 25.1364 21.8606C25.283 22.1463 25.4733 22.3914 25.7074 22.5957C25.8491 22.7864 26.0448 22.9945 26.2946 23.22C26.5444 23.4455 26.814 23.6645 27.1035 23.8769C27.3772 24.0682 27.6471 24.2212 27.9132 24.3359ZM22.0861 23.93C22.424 23.942 22.716 23.8813 22.9621 23.7477C23.1924 23.593 23.3796 23.347 23.5237 23.0097C23.5699 22.6958 23.5752 22.4041 23.5394 22.1347C23.4879 21.8441 23.4535 21.5654 23.4362 21.2987C23.4064 20.8603 23.3398 20.4165 23.2362 19.9673C23.1326 19.5181 23.0474 19.0716 22.9807 18.6278C22.908 18.3529 22.8524 18.09 22.814 17.839C22.7755 17.588 22.737 17.3371 22.6985 17.0861C22.6497 16.777 22.5995 16.4772 22.548 16.1866C22.4965 15.896 22.445 15.6053 22.3935 15.3147C22.355 15.0638 22.3363 14.8063 22.3375 14.5423C22.3202 14.2756 22.3121 14.0103 22.3133 13.7463C22.1428 13.4947 21.9348 13.3697 21.6893 13.3713C21.4253 13.3701 21.0801 13.5362 20.6536 13.8696C20.5286 14.0776 20.4525 14.274 20.4253 14.4586C20.4008 14.6248 20.4211 14.8071 20.4862 15.0054C20.5356 15.1824 20.6004 15.4467 20.6807 15.7982C20.7425 16.1469 20.8136 16.497 20.8939 16.8485C20.9584 17.1788 21.0061 17.4311 21.037 17.6054C21.044 17.814 21.0966 18.1614 21.1948 18.6476C21.2745 19.131 21.3607 19.6343 21.4534 20.1574C21.5488 20.6621 21.6117 21.0676 21.6421 21.3739C21.712 21.6673 21.7557 21.9473 21.773 22.214C21.7903 22.4807 21.7981 22.812 21.7963 23.208C21.7349 23.3688 21.7422 23.5114 21.8182 23.6358C21.8784 23.739 21.9678 23.8371 22.0861 23.93Z" fill="#2F94F9"/>
<path d="M35.0892 25.1953C35.2869 25.2621 35.4886 25.3013 35.6945 25.3128C35.9004 25.3243 36.1052 25.279 36.3089 25.1769C36.4045 25.0401 36.5214 24.8875 36.6594 24.7191C36.7816 24.5296 36.8167 24.3555 36.7646 24.1969C36.705 23.9617 36.7051 23.6409 36.7649 23.2346C36.8063 22.8256 36.7828 22.4731 36.6944 22.177C36.6813 22.1374 36.6762 22.1083 36.6789 22.0899C36.6659 22.0502 36.6621 22.0119 36.6675 21.975C36.6763 21.7876 36.6641 21.5499 36.6311 21.262C36.5823 20.953 36.5517 20.7126 36.5392 20.541C36.5262 20.5013 36.5217 20.3402 36.5255 20.0578C36.5294 19.7753 36.536 19.4744 36.5454 19.155C36.5547 18.8356 36.5689 18.6113 36.5879 18.4821C36.6016 18.3897 36.5847 18.3118 36.5375 18.2482C36.4745 18.1634 36.4881 18.0711 36.5783 17.9712C36.833 18.2917 37.1465 18.7248 37.519 19.2702C37.873 19.813 38.2071 20.3622 38.5215 20.918C38.8385 21.4553 39.082 21.9157 39.2519 22.2992C39.2779 22.3785 39.3146 22.45 39.3618 22.5135C39.409 22.5771 39.4471 22.6393 39.4758 22.7002C39.5334 22.8219 39.6107 22.937 39.7079 23.0457C39.8051 23.1544 39.8705 23.2866 39.9042 23.4425C40.1718 23.8028 40.3868 24.1363 40.5492 24.4433C40.693 24.7475 40.9186 25.0732 41.2259 25.4204C41.4578 25.5112 41.6822 25.5254 41.8989 25.463C42.0972 25.3978 42.3033 25.3433 42.5174 25.2994C42.5679 25.2125 42.6277 25.127 42.6967 25.0428C42.7684 24.9401 42.8296 24.8454 42.8801 24.7585C42.8873 24.3256 42.8804 23.7962 42.8594 23.1705C42.8411 22.5263 42.84 21.894 42.8559 21.2737C42.8534 20.6507 42.8951 20.1757 42.981 19.8487C43.0131 19.7591 43.0332 19.6866 43.0414 19.6312C43.0495 19.5758 43.0314 19.5071 42.9868 19.4251C42.9923 19.3881 42.9977 19.3512 43.0032 19.3143C42.9901 19.2746 42.985 19.2455 42.9877 19.2271C43.0937 19.1483 43.1257 19.0587 43.0839 18.9582C43.0421 18.8577 43.0557 18.7654 43.1248 18.6812C43.1459 18.6655 43.1764 18.6511 43.216 18.6381C43.2372 18.6223 43.2676 18.6079 43.3073 18.5949C43.621 19.2827 43.9772 19.9389 44.3757 20.5637C44.7584 21.1673 45.1279 21.7972 45.484 22.4535C45.7223 22.8848 45.9419 23.3795 46.1427 23.9374C46.325 24.4926 46.5764 24.9636 46.8967 25.3504C47.0069 25.4987 47.1144 25.6655 47.2192 25.8508C47.3082 26.0148 47.4277 26.1645 47.5776 26.2998C47.5955 26.4345 47.6544 26.547 47.7543 26.6372C47.8384 26.7062 47.9544 26.7516 48.1021 26.7734C48.3791 26.8142 48.6698 26.7627 48.974 26.6188C49.2782 26.475 49.4572 26.2844 49.5111 26.047C49.5301 25.9178 49.4938 25.7803 49.402 25.6347C49.389 25.5951 49.3852 25.5568 49.3907 25.5198C49.3776 25.4802 49.3633 25.4498 49.3475 25.4286C49.0184 25.2291 48.707 24.9096 48.4133 24.4701C48.1011 24.0279 47.8114 23.5607 47.5443 23.0685C47.28 22.5578 47.031 22.1343 46.7976 21.798C46.5771 21.5014 46.4135 21.2037 46.3066 20.9049C46.2024 20.5876 46.0599 20.2742 45.8791 19.9645C45.6538 19.5728 45.4326 19.1534 45.2154 18.7063C44.9798 18.2565 44.7521 17.8172 44.5323 17.3886C44.2939 16.9573 44.0488 16.5721 43.7969 16.2331C43.6567 16.2879 43.5179 16.3335 43.3805 16.3698C43.2246 16.4034 43.0635 16.408 42.8973 16.3835C42.7887 16.4807 42.6892 16.5793 42.599 16.6792C42.4931 16.7579 42.3779 16.8353 42.2535 16.9113C41.9623 17.0948 41.7433 17.3644 41.5965 17.7201C41.4498 18.0759 41.3451 18.4661 41.2825 18.8909C41.1927 19.5003 41.1662 20.1285 41.2029 20.7754C41.2239 21.4011 41.2308 21.9305 41.2236 22.3634C41.2209 22.3819 41.2182 22.4003 41.2154 22.4188C41.197 22.4161 41.1864 22.4239 41.1836 22.4424C40.8291 22.0317 40.5288 21.5723 40.2829 21.0644C40.037 20.5564 39.7686 20.0734 39.4776 19.6155C38.9428 18.763 38.5443 18.1383 38.2821 17.7411C38.0014 17.3413 37.7888 17.0552 37.6444 16.883C37.4999 16.7108 37.3555 16.5385 37.2111 16.3663C37.0954 16.2549 36.9654 16.1131 36.8209 15.9409C36.6608 15.7474 36.4547 15.4812 36.2028 15.1422C36.055 15.1204 35.9165 15.1 35.7873 15.081C35.6395 15.0592 35.501 15.0388 35.3717 15.0197C35.2104 15.0903 35.0887 15.1478 35.0067 15.1924C34.9274 15.2184 34.8019 15.2376 34.6302 15.2501C34.5982 15.3397 34.5408 15.4728 34.4582 15.6493C34.3756 15.8258 34.3459 15.9629 34.3693 16.0607C34.3871 16.1954 34.3866 16.3274 34.3675 16.4567C34.3485 16.5859 34.3756 16.722 34.4489 16.8649C34.5639 17.1083 34.648 17.498 34.7011 18.0342C34.7384 18.5491 34.7665 19.0627 34.7853 19.5749C34.7885 20.066 34.7843 20.4144 34.7728 20.6203C34.795 20.982 34.8335 21.233 34.8883 21.3731C34.9458 21.4948 34.9835 21.623 35.0014 21.7577C35.0193 21.8925 35.0068 22.0416 34.9638 22.205C34.9236 22.3501 34.9216 22.4913 34.958 22.6287C34.9737 22.6499 34.9895 22.6711 35.0052 22.6923C35.0052 22.6923 35.0131 22.7029 35.0288 22.7241C35.0016 22.9087 34.973 23.1026 34.9431 23.3058C34.8974 23.4877 34.9098 23.6594 34.9804 23.8207C34.9244 23.9446 34.8948 24.0817 34.8915 24.2322C34.8882 24.3826 34.8479 24.5276 34.7708 24.6672C34.8337 24.752 34.8875 24.8354 34.932 24.9174C34.9765 24.9994 35.0289 25.092 35.0892 25.1953Z" fill="#2F94F9"/>
<path d="M66.4814 29.0008C66.7036 28.9015 66.9128 28.7625 67.1089 28.5839C67.3078 28.3868 67.4317 28.122 67.4807 27.7896C67.5079 27.6049 67.5172 27.2855 67.5087 26.8314C67.5001 26.3773 67.4721 25.8637 67.4244 25.2907C67.3768 24.7176 67.3237 24.1815 67.2652 23.6823C67.1295 23.3227 67.0216 22.9671 66.9413 22.6157C66.861 22.2642 66.8263 22.0515 66.8372 21.9777C66.8329 21.7506 66.8248 21.4853 66.813 21.1816C66.7827 20.8753 66.7483 20.5966 66.7098 20.3456C66.6713 20.0947 66.6363 19.948 66.6048 19.9056C66.5261 19.7997 66.4234 19.728 66.2969 19.6904C66.173 19.6345 66.0411 19.6339 65.9009 19.6887C65.745 19.7223 65.6165 19.826 65.5154 19.9998C65.2796 20.1915 65.1386 20.4443 65.0923 20.7582C65.0488 21.0537 65.085 21.5119 65.2011 22.1328C65.3129 22.5266 65.4151 22.9851 65.5078 23.5082C65.6006 24.0313 65.6803 24.5148 65.7469 24.9586C65.7979 25.3812 65.8217 25.6677 65.8184 25.8182L66.3479 26.066C66.0775 25.7243 65.8269 25.376 65.5962 25.0212C65.3682 24.648 65.2031 24.3595 65.1011 24.1558C64.8497 23.6848 64.6337 23.2945 64.4529 22.9848C64.2563 22.6539 64.0033 22.2582 63.6939 21.7975C63.3871 21.3183 63.0651 21.0067 62.7278 20.8626C62.3748 20.6974 62.0967 20.5998 61.8936 20.5699C61.4764 20.5839 61.122 20.7486 60.8302 21.0641C60.5227 21.3584 60.283 21.8325 60.1111 22.4865C60.073 22.745 60.0558 23.0538 60.0595 23.4128C60.0447 23.7692 60.0374 23.9473 60.0374 23.9473C60.0374 23.9473 59.9182 23.7316 59.6799 23.3003C59.4231 22.8662 59.0702 22.3802 58.6211 21.8423C58.3083 21.5321 57.9885 21.334 57.6615 21.2481C57.3373 21.1437 57.0255 21.211 56.7261 21.4499C56.2078 21.6376 55.8354 21.9884 55.6087 22.5022C55.3848 22.9975 55.2499 23.6569 55.204 24.4803C55.1886 24.9686 55.1448 25.3301 55.0725 25.5647C55.0029 25.7809 54.9148 25.9944 54.8083 26.2051C54.6497 26.2572 54.5989 26.4101 54.6558 26.6637C54.7155 26.899 54.81 27.0261 54.9392 27.0451C55.1239 27.0724 55.3417 27.0667 55.5927 27.0282C55.8252 26.987 56.046 26.8969 56.2552 26.7579C56.4486 26.5977 56.5684 26.3607 56.6147 26.0467L56.8678 24.3293C56.9277 23.923 56.9951 23.5933 57.0702 23.3402C57.1267 23.0844 57.196 22.9342 57.2781 22.8897C57.4975 22.8089 57.7753 22.9724 58.1114 23.3805C58.4475 23.7885 58.7936 24.3206 59.1498 24.9769C59.5059 25.6332 59.8316 26.3038 60.1269 26.9889C60.3934 27.6131 60.566 27.9781 60.6447 28.0841C60.7077 28.1688 60.8503 28.1615 61.0725 28.0622C61.4978 27.9928 61.7822 27.8555 61.9257 27.6502C62.0534 27.4237 62.1021 27.1573 62.0718 26.851C62.0257 26.5234 61.9775 26.0823 61.9271 25.5277C61.8583 24.9704 61.796 24.4329 61.7402 23.9153C61.6872 23.3791 61.6585 22.9975 61.6542 22.7705C61.7499 22.6336 61.8859 22.6065 62.0624 22.6891C62.2232 22.7506 62.3864 22.8595 62.552 23.016C62.7518 23.1964 62.9788 23.5129 63.2329 23.9654C63.4869 24.418 63.7407 24.9365 63.9942 25.521C64.1641 25.9046 64.3432 26.2895 64.5316 26.6757C64.7227 27.0435 64.9007 27.3716 65.0658 27.6601C65.2308 27.9486 65.3777 28.1684 65.5064 28.3194C65.705 28.7638 65.8478 29.0112 65.9347 29.0618C66.0216 29.1123 66.2038 29.092 66.4814 29.0008Z" fill="#2F94F9"/>
<path d="M70.667 13.3437C70.3492 13.5799 70.0783 13.9457 69.8544 14.441C69.6331 14.9178 69.4646 15.4213 69.3487 15.9514C69.2144 16.4788 69.1543 16.951 69.1683 17.3682C69.1786 17.4263 69.1712 17.6045 69.1461 17.9027C69.1237 18.1824 69.1038 18.5097 69.0863 18.8845C69.0688 19.2593 69.0554 19.6063 69.0461 19.9257C69.0395 20.2266 69.0571 20.4274 69.0988 20.5279C69.0656 20.8815 69.1076 21.2367 69.2248 21.5936C69.3263 21.9293 69.3775 22.2859 69.3785 22.6634C69.3812 22.645 69.4203 22.7639 69.4957 23.0203C69.5711 23.2767 69.6568 23.5913 69.7529 23.9639C69.8516 24.3181 69.9452 24.6432 70.0337 24.9393C70.1064 25.2142 70.1492 25.3714 70.1623 25.4111C70.4379 26.3574 70.8336 27.3214 71.3493 28.303C71.865 29.2847 72.4316 30.1135 73.049 30.7894C73.3091 31.073 73.643 31.3675 74.0509 31.6729C74.4587 31.9783 74.7748 32.1381 74.9991 32.1523C75.2077 32.1453 75.4135 32.1568 75.6167 32.1867C75.8171 32.2351 76.0175 32.2835 76.2179 32.3319C76.4184 32.3803 76.7022 32.375 77.0694 32.3159C77.4181 32.2541 77.7497 32.1803 78.0643 32.0946C78.363 31.9877 78.5429 31.9198 78.6037 31.891C78.6037 31.891 78.6871 31.8373 78.8539 31.7298C79.0234 31.6038 79.2127 31.4714 79.4219 31.3324C79.6153 31.1722 79.7862 31.037 79.9345 30.9268C80.0828 30.8165 80.157 30.7614 80.157 30.7614C80.2814 30.6854 80.3425 30.5907 80.3404 30.4771C80.3383 30.3636 80.3717 30.2648 80.4407 30.1806C80.4885 30.1122 80.4864 29.9986 80.4343 29.84C80.3637 29.6787 80.2826 29.5252 80.1908 29.3796C80.0806 29.2313 79.9992 29.1438 79.9465 29.1172C79.8063 29.172 79.6754 29.2282 79.5537 29.2857C79.4163 29.3221 79.2775 29.3676 79.1373 29.4225C79.0938 29.7179 78.9117 29.993 78.5912 30.2477C78.2549 30.4811 77.9295 30.6407 77.6149 30.7264C77.5541 30.7552 77.4378 30.7758 77.2662 30.7883C77.0761 30.798 76.8873 30.7985 76.6999 30.7897C76.5153 30.7625 76.4137 30.7475 76.3952 30.7448C75.9363 30.6583 75.4912 30.4135 75.06 30.0103C74.6104 29.6044 74.223 29.1605 73.8978 28.6786C73.5541 28.194 73.3011 27.7982 73.1388 27.4913C72.9216 27.0442 72.7621 26.7188 72.66 26.515C72.5607 26.2928 72.4928 26.113 72.4565 25.9756C72.4044 25.817 72.3393 25.6187 72.2611 25.3808C72.1857 25.1244 72.0527 24.7463 71.8622 24.2465C71.7607 23.9108 71.6603 23.6318 71.561 23.4096C71.4644 23.169 71.4324 22.9378 71.4651 22.7162C71.6976 22.675 72.0142 22.7028 72.4151 22.7996C72.8002 22.8752 73.2181 22.984 73.6689 23.1259C74.1039 23.2466 74.5298 23.366 74.9463 23.484C75.3472 23.5808 75.6809 23.6205 75.9477 23.6032C76.2013 23.5463 76.3893 23.423 76.5116 23.2335C76.6366 23.0255 76.7445 22.8056 76.8352 22.5736C76.894 22.4314 76.9236 22.2942 76.9242 22.1622C76.909 22.009 76.8145 21.8819 76.6408 21.7808L74.5355 21.4706C73.9527 21.3281 73.3884 21.1883 72.8425 21.0513C72.2782 20.9115 71.7636 20.8828 71.2986 20.9652C71.222 20.9728 71.1495 20.9527 71.0811 20.9049C71.0154 20.8386 70.9787 20.7672 70.9711 20.6906C70.9702 20.3131 70.9401 19.9407 70.881 19.5735C70.8219 19.2063 70.8381 18.8407 70.9294 18.4768C70.9475 17.9701 70.977 17.5782 71.0178 17.3012C71.0586 17.0241 71.0954 16.7748 71.128 16.5532C71.1449 16.3104 71.1635 15.9924 71.1837 15.5992C71.2245 15.3221 71.3262 15.0164 71.4887 14.6818C71.6539 14.3288 71.9031 14.1108 72.2361 14.0278C72.4131 13.9784 72.635 13.9451 72.9017 13.9278C73.1527 13.8893 73.3825 13.8665 73.5911 13.8595C73.7839 13.8314 73.8803 13.8173 73.8803 13.8173C74.1367 13.7418 74.4295 13.8039 74.7586 14.0033C75.0692 14.2 75.3638 14.4416 75.6424 14.7279C75.9025 15.0115 76.1126 15.25 76.2728 15.4435C76.1696 15.5037 76.1033 15.5694 76.0739 15.6406C76.0446 15.7117 76.0655 15.762 76.1366 15.7913C76.2632 15.8288 76.3764 15.8927 76.4763 15.9829C76.579 16.0546 76.6683 16.1527 76.7443 16.2771C76.8388 16.4042 76.9889 16.4735 77.1948 16.485C77.4006 16.4965 77.5449 16.414 77.6275 16.2375C77.6759 16.037 77.7466 15.8776 77.8395 15.7592C77.9324 15.6409 77.9884 15.517 78.0074 15.3878C78.0292 15.24 77.9706 15.0616 77.8316 14.8524C77.5748 14.4183 77.2849 14.0171 76.9618 13.6487C76.623 13.2592 76.2589 12.9131 75.8695 12.6104C75.8353 12.5865 75.7286 12.5425 75.5494 12.4783C75.3517 12.4114 75.2213 12.3356 75.1583 12.2509C75.0981 12.1476 75.0269 12.1183 74.9449 12.1628C74.8444 12.2046 74.7627 12.1831 74.6997 12.0984C74.1212 12.1829 73.6326 12.2336 73.2339 12.2503C72.8167 12.2643 72.4191 12.3377 72.041 12.4707C71.6444 12.601 71.1864 12.892 70.667 13.3437Z" fill="#2F94F9"/>
<path d="M12.701 62.1597C13.5121 60.1328 14.3269 58.1084 15.171 56.096C15.2677 55.8687 15.3634 55.6366 15.4656 55.4113C15.4949 55.3455 15.5275 55.2791 15.552 55.2143C15.6581 55.0313 15.7082 54.8039 15.6603 54.5395C15.6164 54.294 15.43 54.021 15.216 53.8928C14.9126 53.7125 14.5002 53.6545 14.1826 53.8462C13.7384 54.1093 13.5939 54.59 13.4013 55.033C13.1673 55.579 12.9395 56.1304 12.7151 56.6827C12.448 57.3317 12.1851 57.9848 11.9231 58.6344C9.86454 52.4645 9.90126 44.9531 14.2994 39.7017C15.729 37.9965 17.6102 36.6437 19.6207 35.6488C20.8064 35.0626 19.8661 33.2508 18.6772 33.8378C14.7568 35.7681 11.6521 38.9097 9.9912 42.9467C8.48434 46.6171 8.27204 50.7151 8.84844 54.5946C9.04606 55.9241 9.34929 57.2327 9.73763 58.5182C8.71772 57.3123 7.83232 56.0018 7.05672 54.6198C6.41699 53.477 4.58378 54.4127 5.22997 55.5624C6.31616 57.5035 7.61461 59.3531 9.171 60.9495C9.77742 61.575 10.4319 62.2068 11.16 62.6988C11.7332 63.0897 12.4602 62.7532 12.6975 62.1601L12.701 62.1597ZM15.1283 55.6519C15.1027 55.6491 15.0762 55.6498 15.0506 55.647C15.0903 55.6302 15.1333 55.6128 15.1698 55.5885C15.1202 55.6371 15.0965 55.667 15.1276 55.6488L15.1283 55.6519ZM15.4952 55.3076L15.5015 55.298C15.5015 55.298 15.5025 55.3027 15.4984 55.3069L15.4952 55.3076Z" fill="#2F94F9"/>
</svg>
