<svg width="177" height="69" viewBox="0 0 177 69" fill="none" xmlns="http://www.w3.org/2000/svg">
<path d="M169.537 59.9113C169.722 59.9443 170.005 59.9193 170.386 59.8363C170.749 59.7333 171.001 59.6216 171.142 59.5014C171.286 59.3253 171.425 59.1113 171.556 58.8593C171.669 58.6059 171.762 58.379 171.833 58.1786C171.888 57.9581 171.916 57.8293 171.919 57.7921L171.763 55.4491C171.683 55.2745 171.65 55.0941 171.664 54.9079C171.66 54.7204 171.627 54.54 171.566 54.3668C171.591 54.2751 171.578 54.0869 171.525 53.802C171.455 53.497 171.377 53.1634 171.293 52.8012C171.191 52.4189 171.096 52.0746 171.008 51.7682C170.92 51.4432 170.871 51.2335 170.859 51.139C170.807 50.8541 170.726 50.567 170.617 50.2778C170.508 49.9886 170.409 49.7001 170.319 49.4123C170.207 48.9169 170.123 48.5547 170.065 48.3256C170.008 48.0965 169.957 47.9147 169.911 47.7801C169.846 47.6441 169.774 47.4888 169.694 47.3141C169.615 47.1208 169.506 46.8316 169.368 46.4465L168.009 42.5786C168.202 42.4999 168.383 42.336 168.552 42.0869C168.723 41.8192 168.816 41.5737 168.834 41.3504C168.861 41.2401 168.848 41.1642 168.795 41.1227C168.743 41.0626 168.655 40.9996 168.529 40.9337C168.324 40.9179 168.111 40.8921 167.889 40.8563C167.667 40.8205 167.443 40.8126 167.217 40.8326C167.048 40.8383 166.937 40.8204 166.884 40.7788C166.832 40.7187 166.721 40.7008 166.551 40.7251C166.379 40.768 166.21 40.7737 166.044 40.7422C165.859 40.7093 165.705 40.6505 165.58 40.5661C165.524 40.5618 165.358 40.5395 165.08 40.4994C164.802 40.4593 164.496 40.417 164.163 40.3726C163.811 40.3267 163.505 40.2844 163.246 40.2457C162.968 40.2056 162.801 40.1834 162.746 40.1791C162.764 40.1805 162.644 40.1619 162.385 40.1232C162.107 40.0831 161.783 40.0394 161.412 39.9921C161.043 39.9262 160.71 39.8724 160.413 39.8309C160.119 39.7707 159.953 39.7299 159.917 39.7084C159.534 39.5852 159.261 39.6016 159.099 39.7577C158.937 39.9137 158.814 40.0633 158.728 40.2064C158.683 40.2966 158.629 40.3954 158.564 40.5028C158.501 40.5915 158.458 40.6724 158.433 40.7454C158.392 40.7984 158.398 40.8363 158.453 40.8593C158.536 40.9967 158.659 41.0998 158.822 41.1685C158.967 41.2359 159.144 41.2402 159.355 41.1815C159.43 41.1686 159.7 41.1894 160.164 41.2439C160.628 41.2984 161.193 41.3793 161.858 41.4868C162.506 41.5928 163.171 41.7096 163.853 41.8371C164.519 41.9446 165.101 42.0456 165.599 42.1402C165.777 42.2662 165.924 42.4273 166.04 42.6234C166.157 42.801 166.264 42.9964 166.359 43.2097C166.407 43.3257 166.517 43.5963 166.69 44.0215C166.845 44.4453 167.015 44.9078 167.201 45.4089C167.387 45.91 167.541 46.3431 167.662 46.7082C167.786 47.0547 167.848 47.2186 167.849 47.2C167.982 47.4162 167.936 47.5343 167.71 47.5543C167.465 47.5729 167.259 47.5757 167.091 47.5628C166.942 47.5514 166.79 47.5771 166.636 47.6401C166.464 47.683 166.304 47.6894 166.157 47.6593C166.065 47.6336 165.886 47.6478 165.62 47.7022C165.337 47.7365 165.032 47.7973 164.707 47.8846C164.365 47.9519 164.059 48.0313 163.79 48.1229C163.504 48.1944 163.302 48.2631 163.185 48.3289C162.737 48.5565 162.344 48.7884 162.008 49.0246C161.671 49.2607 161.396 49.5578 161.181 49.9157C160.966 50.2735 160.778 50.6429 160.618 51.0237C160.458 51.4045 160.38 51.8104 160.384 52.2413C160.377 52.3343 160.389 52.5319 160.422 52.834C160.438 53.116 160.472 53.4088 160.523 53.7123C160.575 54.0159 160.641 54.2457 160.723 54.4017C160.917 54.7912 161.132 55.1634 161.367 55.5185C161.584 55.8536 161.786 56.1499 161.972 56.4077C162.241 56.8028 162.571 57.1465 162.96 57.4386C163.332 57.7107 163.724 57.9656 164.137 58.2033C164.459 58.3966 164.709 58.547 164.888 58.6544C165.05 58.7417 165.204 58.8097 165.35 58.8584C165.496 58.9071 165.697 58.9695 165.953 59.0454C165.935 59.0439 166.026 59.079 166.226 59.1506C166.428 59.2036 166.629 59.2659 166.83 59.3376C167.03 59.4092 167.13 59.445 167.13 59.445C167.362 59.5939 167.607 59.697 167.865 59.7543C168.124 59.793 168.384 59.8224 168.644 59.8425C168.793 59.8539 168.943 59.8561 169.093 59.849C169.242 59.8605 169.39 59.8812 169.537 59.9113ZM169.903 58.4511C169.625 58.4109 169.337 58.3794 169.039 58.3565C168.742 58.3335 168.447 58.2733 168.155 58.1759C167.244 57.8437 166.4 57.4978 165.623 57.1383C164.827 56.7774 164.123 56.1989 163.51 55.4029C163.086 54.8273 162.781 54.2982 162.593 53.8157C162.387 53.3318 162.242 52.787 162.158 52.1814C162.106 51.8779 162.127 51.608 162.22 51.3718C162.315 51.117 162.403 50.8149 162.486 50.4656C162.684 50.0877 162.862 49.8393 163.021 49.7205C163.182 49.5831 163.338 49.5015 163.489 49.4757C163.641 49.45 163.794 49.4056 163.949 49.3427C164.207 49.1566 164.562 49.0435 165.014 49.0035C165.467 48.9635 165.777 48.9406 165.946 48.9349C165.833 48.9449 165.861 48.9471 166.03 48.9414C166.182 48.9156 166.408 48.8956 166.709 48.8813C167.011 48.8485 167.312 48.8249 167.613 48.8106C167.913 48.7963 168.147 48.7957 168.315 48.8086C168.422 49.1164 168.537 49.4528 168.658 49.8179C168.761 50.1816 168.874 50.546 168.995 50.9111C169.1 51.2561 169.195 51.6004 169.281 51.9441C169.425 52.4981 169.56 53.0608 169.684 53.632C169.81 54.1847 169.926 54.7459 170.032 55.3157C170.082 55.6379 170.127 56.0251 170.167 56.4776C170.207 56.93 170.212 57.3516 170.182 57.7424C170.135 58.1132 170.042 58.3494 169.903 58.4511ZM159.123 64.6692C159.56 64.8339 160.051 64.8905 160.598 64.839C161.125 64.8047 161.593 64.6817 162.003 64.4698C162.431 64.2595 162.684 64.0075 162.763 63.714C162.79 63.6038 162.762 63.48 162.679 63.3425C162.615 63.2065 162.52 63.1055 162.394 63.0397C162.285 62.9938 162.18 63.0232 162.078 63.1277C161.922 63.2093 161.644 63.3001 161.243 63.4003C160.84 63.5191 160.401 63.5133 159.924 63.3829C159.503 63.2569 159.104 62.9733 158.726 62.5323C158.33 62.0899 158.015 61.6818 157.781 61.3081C157.65 61.0733 157.429 60.6538 157.12 60.0496C156.811 59.4454 156.497 58.7846 156.178 58.0673C155.841 57.33 155.566 56.6535 155.351 56.0378C155.307 55.8846 155.255 55.7028 155.197 55.4923C155.138 55.2819 155.058 55.1072 154.956 54.9683C154.862 54.7363 154.784 54.5245 154.724 54.3326C154.647 54.1207 154.602 53.9768 154.589 53.9009C154.578 53.8064 154.508 53.6139 154.381 53.3232C154.253 53.0326 154.135 52.7426 154.027 52.4534C153.955 52.1671 153.847 51.7469 153.702 51.1928C153.558 50.6387 153.406 50.187 153.245 49.8377C153.055 49.3924 152.905 49.0345 152.794 48.7639C152.667 48.4732 152.522 48.2935 152.359 48.2248C152.201 48.0816 152.094 48.0078 152.039 48.0035C151.964 47.9978 151.82 48.0429 151.607 48.1388C151.366 48.3449 151.21 48.5575 151.137 48.7765C151.065 48.9769 151.073 49.2396 151.16 49.5646C151.23 49.8696 151.385 50.2934 151.624 50.836C151.738 51.2942 151.874 51.7165 152.032 52.1031C152.172 52.4696 152.284 52.7123 152.369 52.8312C152.445 53.0617 152.537 53.3215 152.646 53.6107C152.737 53.8799 152.821 54.1297 152.897 54.3603C153.174 55.1305 153.416 55.7576 153.622 56.2416C153.828 56.7255 154.009 57.1701 154.165 57.5752C154.321 57.9804 154.482 58.4515 154.646 58.9884C155.021 59.71 155.39 60.3937 155.752 61.0394C156.094 61.7023 156.468 62.3208 156.873 62.895C157.046 63.0768 157.263 63.2902 157.525 63.535C157.787 63.7799 158.06 64.0069 158.344 64.2159C158.608 64.4235 158.868 64.5746 159.123 64.6692ZM155.871 57.6786C156.153 57.6629 156.445 57.5169 156.747 57.2406C157.03 56.9629 157.259 56.6623 157.434 56.3388C157.609 56.0152 157.683 55.7776 157.658 55.6258C157.665 55.5328 157.67 55.4583 157.675 55.4025C157.679 55.3466 157.681 55.3187 157.681 55.3187C157.793 55.3273 157.906 55.1956 158.021 54.9236C158.117 54.6502 158.2 54.2916 158.272 53.8478C158.344 53.404 158.408 52.9315 158.465 52.4304C158.504 51.9279 158.522 51.4519 158.519 51.0024C158.469 50.6802 158.459 50.3331 158.487 49.9608C158.517 49.57 158.532 49.2622 158.53 49.0374C158.572 48.7411 158.559 48.5435 158.492 48.4447C158.426 48.3273 158.358 48.2378 158.288 48.1762C157.784 47.9127 157.429 48.0258 157.223 48.5154C156.999 48.9849 156.882 49.8933 156.872 51.2405C156.852 51.9878 156.795 52.7323 156.7 53.4739C156.605 54.2155 156.453 54.859 156.242 55.4044C156.013 55.9484 155.733 56.3106 155.4 56.4909C155.264 56.5553 155.191 56.6527 155.181 56.783C155.171 56.9132 155.198 57.0557 155.261 57.2103C155.325 57.3463 155.419 57.4659 155.542 57.569C155.648 57.6521 155.757 57.6886 155.871 57.6786ZM148.438 58.0887C148.492 58.1116 148.625 58.0937 148.835 58.035C149.047 57.9577 149.279 57.8633 149.531 57.7517C149.766 57.62 149.953 57.494 150.094 57.3738C150.257 57.1991 150.411 57.0238 150.555 56.8477C150.683 56.6516 150.757 56.4232 150.777 56.1627C150.928 55.8935 151.025 55.6108 151.067 55.3145C151.091 54.9981 151.124 54.6917 151.166 54.3953C151.22 53.9315 151.154 53.449 150.968 52.9479C150.784 52.4282 150.636 52.0423 150.524 51.7903C150.451 51.5226 150.291 51.1732 150.043 50.7423C149.778 50.2913 149.448 49.8445 149.051 49.4021C148.655 48.9597 148.232 48.6088 147.784 48.3496C147.498 48.1778 147.209 48.0339 146.919 47.9179C146.611 47.7818 146.247 47.7725 145.826 47.8898C145.617 47.9299 145.462 47.9928 145.362 48.0787C145.262 48.1646 145.152 48.2498 145.033 48.3342C144.893 48.2111 144.793 47.9319 144.733 47.4966C144.655 47.0414 144.629 46.5338 144.653 45.9741C144.661 45.3942 144.731 44.8473 144.864 44.3334C144.98 43.7994 145.171 43.3835 145.438 43.0858C145.932 42.506 146.456 42.1439 147.01 41.9994C147.564 41.8548 148.174 41.958 148.839 42.3089C149.07 42.233 149.288 42.072 149.494 41.8258C149.682 41.5781 149.749 41.3211 149.694 41.0548C149.555 40.9131 149.379 40.7685 149.166 40.621C148.953 40.4735 148.736 40.3725 148.515 40.3181C148.259 40.2422 148.001 40.1849 147.742 40.1462C147.465 40.1061 147.17 40.1583 146.86 40.3028C145.868 40.5446 145.107 40.9354 144.579 41.475C144.033 41.9946 143.637 42.6474 143.389 43.4334C143.141 44.2193 142.958 45.132 142.841 46.1714C142.781 46.4663 142.751 46.7354 142.751 46.9788C142.733 47.2022 142.732 47.5858 142.746 48.1299C142.914 48.3862 142.966 48.6804 142.903 49.0125C142.823 49.3246 142.837 49.6253 142.946 49.9145C142.94 50.2323 142.994 50.4986 143.109 50.7134C143.223 50.9281 143.273 51.1286 143.259 51.3147C143.522 52.2711 143.908 53.2182 144.416 54.156C144.906 55.0924 145.488 55.9142 146.164 56.6216C146.839 57.3289 147.597 57.818 148.438 58.0887ZM148.745 56.2869C148.553 56.347 148.28 56.2511 147.925 55.9991C147.571 55.7284 147.214 55.3826 146.853 54.9617C146.494 54.5221 146.198 54.1062 145.967 53.7138C145.884 53.5764 145.779 53.353 145.653 53.0438C145.509 52.7331 145.382 52.4331 145.273 52.1439C145.146 51.8533 145.076 51.67 145.063 51.5941C144.931 51.1159 144.872 50.6714 144.885 50.2605C144.881 49.8296 144.949 49.554 145.089 49.4337C145.312 49.2076 145.652 49.1776 146.107 49.3437C146.543 49.5084 146.955 49.7554 147.342 50.0848C147.622 50.331 147.869 50.6496 148.082 51.0405C148.278 51.4113 148.486 51.755 148.705 52.0714C148.676 52.2002 148.705 52.3148 148.791 52.415C148.858 52.5138 148.935 52.6133 149.02 52.7135C149.227 53.1975 149.351 53.647 149.394 54.0622C149.438 54.4588 149.457 54.7036 149.45 54.7967C149.427 55.0945 149.357 55.398 149.239 55.7072C149.122 56.0164 148.957 56.2097 148.745 56.2869ZM139.442 57.6481C140.261 57.7112 140.954 57.4558 141.523 56.8818C142.093 56.2891 142.404 55.5268 142.457 54.5948C142.472 53.9219 142.397 53.1953 142.232 52.4151C142.051 51.6147 141.792 50.8459 141.455 50.1085C141.12 49.3526 140.741 48.6868 140.317 48.1112C139.894 47.5356 139.439 47.1168 138.954 46.8547C138.775 46.7473 138.585 46.6578 138.385 46.5862C138.166 46.5131 137.945 46.468 137.721 46.4508C137.516 46.435 137.3 46.4558 137.071 46.513C136.843 46.5516 136.652 46.6024 136.497 46.6654C136.171 46.7713 135.917 46.9108 135.735 47.084C135.553 47.2572 135.382 47.5342 135.221 47.915C135.138 48.2644 135.091 48.5135 135.079 48.6624C135.068 48.8112 135.097 49.0382 135.167 49.3431C135.339 50.0304 135.583 50.6295 135.899 51.1407C136.216 51.6518 136.659 52.0979 137.229 52.4788C137.37 52.5833 137.541 52.6714 137.742 52.743C137.925 52.7946 138.119 52.8282 138.324 52.844C138.696 52.8727 139.064 52.8355 139.428 52.7325C139.774 52.6094 140.06 52.4162 140.287 52.1528L140.499 51.9445L140.566 52.1743C140.713 52.6912 140.826 53.1679 140.905 53.6046C140.965 54.0398 140.981 54.4343 140.954 54.7879C140.937 55.0112 140.902 55.2238 140.849 55.4257C140.777 55.6261 140.689 55.7972 140.585 55.9389C140.502 56.0448 140.374 56.1192 140.202 56.1622C140.013 56.185 139.816 56.1886 139.612 56.1728C139.481 56.1628 139.351 56.1527 139.221 56.1427C139.073 56.1126 138.937 56.0646 138.811 55.9988C138.503 55.8627 138.261 55.7224 138.085 55.5777C137.89 55.4317 137.696 55.2763 137.503 55.1116L137.396 55.0472L137.424 55.0494C137.209 54.9205 137.022 54.7938 136.863 54.6692C136.686 54.5432 136.597 54.4802 136.597 54.4802C136.522 54.4744 136.452 54.4222 136.384 54.3234C136.241 54.2374 136.053 54.251 135.82 54.3641C135.568 54.4757 135.434 54.6339 135.418 54.8386C135.429 54.9331 135.502 55.0885 135.635 55.3047C135.769 55.5022 135.923 55.692 136.096 55.8738C136.251 56.0542 136.383 56.158 136.494 56.1853C136.511 56.2053 136.573 56.2475 136.68 56.312C136.789 56.3578 136.861 56.4008 136.895 56.4409L136.867 56.4387C137.018 56.675 137.176 56.7995 137.344 56.8124L137.567 56.8297C137.632 56.9657 137.862 57.1332 138.259 57.3323C138.657 57.5127 139.051 57.618 139.442 57.6481ZM138.659 51.4095C138.324 51.3837 138.043 51.2684 137.815 51.0637C137.57 50.8388 137.364 50.5983 137.197 50.342C136.863 49.8108 136.686 49.3104 136.666 48.8408C136.629 48.3512 136.711 48.0205 136.911 47.8487C137.027 47.8015 137.132 47.7815 137.225 47.7886C137.301 47.7758 137.457 47.8159 137.693 47.909C137.858 47.9591 138.08 48.1166 138.359 48.3815C138.638 48.6464 138.915 48.9392 139.19 49.2599C139.446 49.5792 139.641 49.847 139.774 50.0632L140.091 50.6774C139.947 50.6101 139.809 50.5714 139.679 50.5614C139.532 50.5313 139.447 50.5342 139.426 50.57C139.413 50.7375 139.373 50.8935 139.305 51.0381C139.221 51.1626 139.129 51.2585 139.03 51.3258C138.913 51.3917 138.789 51.4196 138.659 51.4095ZM133.185 56.0426C133.247 55.9725 133.31 55.8837 133.374 55.7764C133.42 55.6676 133.446 55.5759 133.452 55.5015C133.455 55.4643 133.467 55.4185 133.49 55.3641C133.495 55.3082 133.534 55.2832 133.608 55.2889C133.669 55.2374 133.648 55.0205 133.546 54.6382C133.428 54.2359 133.276 53.7749 133.091 53.2552C132.888 52.734 132.683 52.2315 132.477 51.7475C132.254 51.2435 132.069 50.8455 131.923 50.5534C131.835 50.4904 131.785 50.4117 131.773 50.3172C131.744 50.2027 131.749 50.1468 131.786 50.1497C131.786 50.1497 131.746 50.0623 131.666 49.8877C131.568 49.693 131.494 49.5655 131.442 49.5054C131.314 49.2334 131.222 48.9642 131.168 48.6979C131.115 48.413 131.114 48.1789 131.166 47.9957C131.247 47.9083 131.333 47.8869 131.423 47.9313C131.514 47.9757 131.559 47.9979 131.559 47.9979C131.632 48.0222 131.74 48.068 131.885 48.1353C132.012 48.1826 132.129 48.2478 132.235 48.3308C132.64 48.6616 132.918 48.8234 133.068 48.8163C133.22 48.7905 133.406 48.5615 133.627 48.1291C133.717 47.9302 133.756 47.7834 133.745 47.6889C133.733 47.5944 133.667 47.4863 133.545 47.3646C133.406 47.2229 133.273 47.1284 133.146 47.0811C133.02 47.0152 132.922 46.9515 132.852 46.8899C132.657 46.7439 132.497 46.6379 132.371 46.572C132.226 46.5047 132.117 46.4589 132.044 46.4345C131.572 46.2484 131.164 46.1889 130.822 46.2561C130.48 46.3234 130.21 46.546 130.013 46.9239C129.728 47.2202 129.569 47.5731 129.538 47.9825C129.508 48.3734 129.603 48.8394 129.823 49.3806L130.07 49.8209C130.149 50.0142 130.16 50.1087 130.104 50.1043C130.03 50.0986 129.951 50.027 129.868 49.8896C129.818 49.8108 129.715 49.6905 129.559 49.5287C129.403 49.3669 129.297 49.2839 129.241 49.2796C129.241 49.2796 129.223 49.2688 129.188 49.2474C129.133 49.2244 129.111 49.1479 129.121 49.0176C129.07 48.9574 129.018 48.8973 128.966 48.8372C128.896 48.7756 128.861 48.7448 128.861 48.7448C128.787 48.7391 128.654 48.6446 128.462 48.4613C128.253 48.2579 128.009 48.0238 127.73 47.7589C127.536 47.5943 127.356 47.5055 127.189 47.4926C126.771 47.3293 126.415 47.4424 126.123 47.8317C125.813 48.2197 125.632 48.7393 125.582 49.3907L126.052 50.9434L125.142 49.6376C125.041 49.4801 124.94 49.3412 124.837 49.221C124.715 49.0993 124.611 48.9976 124.523 48.916C124.496 48.7828 124.446 48.7041 124.373 48.6797C124.3 48.6554 124.263 48.6432 124.263 48.6432C124.263 48.6432 124.245 48.6418 124.208 48.6389C124.172 48.6174 124.156 48.5788 124.16 48.5229C124.073 48.4413 123.976 48.3683 123.868 48.3039C123.762 48.2208 123.694 48.1406 123.662 48.0633C123.356 47.9086 123.069 47.8678 122.801 47.9408C122.535 47.9951 122.294 48.2106 122.077 48.5871C121.93 48.8004 121.84 48.99 121.809 49.1561C121.777 49.3222 121.749 49.5727 121.723 49.9077C121.739 50.1898 121.759 50.416 121.783 50.5863C121.79 50.7367 121.796 50.8963 121.802 51.0652C121.808 51.2342 121.818 51.469 121.832 51.7696C121.895 51.9243 121.929 52.086 121.935 52.255C121.922 52.4225 121.91 52.5807 121.899 52.7296C121.88 52.9715 121.858 53.1383 121.832 53.2299C121.808 53.3029 121.73 53.3344 121.6 53.3244C121.344 53.2485 121 53.0909 120.569 52.8518C120.121 52.5926 119.793 52.352 119.586 52.1301C119.327 51.848 119.095 51.6991 118.89 51.6833C118.668 51.6475 118.521 51.7391 118.448 51.9581C118.405 52.0297 118.457 52.2022 118.604 52.4757C118.733 52.7477 118.891 53.0126 119.077 53.2703C119.244 53.5266 119.374 53.6584 119.467 53.6655C119.523 53.6698 119.584 53.7307 119.65 53.8481C119.717 53.9469 119.795 54.0278 119.884 54.0908C120.004 54.2311 120.125 54.3621 120.247 54.4838C120.35 54.6041 120.476 54.67 120.625 54.6815C120.699 54.6872 120.79 54.7223 120.897 54.7867C120.988 54.8311 121.098 54.8583 121.228 54.8684C121.41 54.9386 121.701 54.9329 122.1 54.8513C122.481 54.7684 122.743 54.5264 122.886 54.1256C122.976 53.9266 123.067 53.6059 123.157 53.1635C123.249 52.7026 123.275 52.2366 123.237 51.7655C123.188 51.4248 123.165 51.1141 123.168 50.8335C123.171 50.5529 123.149 50.3546 123.101 50.2386C123.106 50.1828 123.116 50.0525 123.132 49.8478C123.149 49.6245 123.185 49.5149 123.241 49.5192C123.316 49.525 123.482 49.6782 123.739 49.9789C123.98 50.2595 124.27 50.6189 124.611 51.0571C124.933 51.4938 125.254 51.9491 125.573 52.423C125.892 52.8969 126.15 53.3193 126.346 53.6901C126.498 53.9078 126.627 54.1705 126.734 54.4783C126.842 54.7862 126.922 54.9608 126.975 55.0024C127.094 55.1613 127.25 55.1921 127.445 55.0948C127.621 54.996 127.793 54.8314 127.961 54.6009C128.025 54.4935 128.069 54.4034 128.094 54.3303C128.12 54.2387 128.129 54.1177 128.122 53.9674C128.097 53.797 128.051 53.5501 127.982 53.2265C127.895 52.9015 127.781 52.4434 127.639 51.8521C127.483 51.2035 127.35 50.6222 127.24 50.1082C127.112 49.5742 127.049 49.3072 127.049 49.3072C127.054 49.2327 127.188 49.3179 127.45 49.5628C127.714 49.789 128.019 50.0747 128.367 50.4198C128.519 50.6374 128.774 50.966 129.134 51.4056C129.493 51.8452 129.885 52.3434 130.31 52.9004C130.735 53.4574 131.14 54.0409 131.523 54.6508C132.004 55.4555 132.35 55.9502 132.56 56.1349C132.752 56.3182 132.96 56.2874 133.185 56.0426ZM109.805 54.6059C110.554 54.364 111.06 53.9911 111.323 53.4872C111.57 52.9633 111.671 52.1379 111.626 51.0112C111.634 50.4314 111.644 50.0484 111.659 49.8623C111.673 49.6762 111.79 49.4979 112.009 49.3276C112.07 49.2575 112.181 49.163 112.34 49.0442C112.48 48.9239 112.544 48.8166 112.533 48.7221C112.562 48.5932 112.563 48.4529 112.537 48.3012C112.513 48.1308 112.464 48.0428 112.389 48.037C112.315 48.0313 112.242 48.0069 112.17 47.964C112.08 47.9196 111.996 47.9131 111.919 47.9446C111.844 47.9389 111.76 47.9417 111.665 47.9532C111.571 47.9646 111.521 48.0075 111.515 48.082C111.431 48.2065 111.308 48.2158 111.148 48.1099C110.989 47.9853 110.831 47.7297 110.673 47.3431C110.51 47.031 110.291 46.7146 110.016 46.3938C109.723 46.0717 109.437 45.7781 109.158 45.5132C108.861 45.2283 108.615 45.0221 108.419 44.8947C108.329 44.8503 108.193 44.793 108.011 44.7228C107.829 44.6526 107.637 44.591 107.435 44.538C107.215 44.4836 107.03 44.4599 106.879 44.4671C106.543 44.4599 106.256 44.5314 106.02 44.6817C105.765 44.8306 105.527 45.0088 105.305 45.2163C105.05 45.3652 104.884 45.5771 104.807 45.8519C104.711 46.1254 104.669 46.4217 104.682 46.741C104.695 47.0602 104.756 47.3552 104.867 47.6258C104.908 47.8162 105.049 48.0517 105.289 48.3324C105.53 48.613 105.808 48.8872 106.125 49.155C106.441 49.4227 106.735 49.6232 107.005 49.7564C107.243 49.8309 107.556 49.9018 107.944 49.9691C108.313 50.035 108.665 50.0809 109 50.1067C109.318 50.1125 109.535 50.0918 109.651 50.0445C109.787 49.9801 109.881 50.0904 109.934 50.3753C109.987 50.6602 110.012 51.0647 110.009 51.5886C110.015 52.001 109.992 52.2987 109.94 52.482C109.889 52.6652 109.842 52.7927 109.799 52.8642C109.658 52.9845 109.469 53.1383 109.229 53.3259C108.973 53.4933 108.636 53.4954 108.218 53.3322C107.872 53.2119 107.546 52.9434 107.241 52.5267C106.917 52.1086 106.616 51.7671 106.337 51.5022C106.273 51.3662 106.157 51.2824 105.991 51.2509C105.808 51.1993 105.612 51.1936 105.403 51.2337C105.188 51.3482 105.092 51.4999 105.115 51.6889C105.121 51.8578 105.194 52.1255 105.334 52.4921C105.38 52.6267 105.497 52.8042 105.686 53.0247C105.858 53.2252 106.057 53.4371 106.283 53.6605C106.492 53.8638 106.685 54.0284 106.863 54.1545C107.398 54.4953 107.907 54.6936 108.39 54.7495C108.873 54.7868 109.345 54.7389 109.805 54.6059ZM108.594 48.8117C108.192 48.6871 107.871 48.5969 107.632 48.541C107.393 48.4851 107.169 48.3648 106.958 48.1801C106.749 47.9768 106.496 47.611 106.2 47.0826C106.142 46.8722 106.139 46.666 106.192 46.4642C106.226 46.2609 106.283 46.1249 106.364 46.0562C106.545 45.883 106.754 45.8429 106.991 45.936C107.21 46.009 107.416 46.1279 107.609 46.2926C107.735 46.3584 107.92 46.5131 108.163 46.7565C108.389 46.9799 108.613 47.2405 108.833 47.5383C109.055 47.8175 109.232 48.0745 109.363 48.3093C109.495 48.5441 109.522 48.6773 109.445 48.7088C109.476 48.7861 109.37 48.8247 109.127 48.8247C108.865 48.8232 108.687 48.8189 108.594 48.8117ZM91.8482 56.1426C91.9541 55.9823 92.0773 55.842 92.2176 55.7218C92.3565 55.6201 92.4875 55.4992 92.6106 55.3589C92.7137 55.2358 92.7925 55.064 92.8469 54.8435C92.6094 54.2823 92.3904 53.7225 92.19 53.1641C91.9897 52.6057 91.7621 52.0359 91.5074 51.4546L91.6534 51.3816C91.8911 51.4561 92.1659 51.5334 92.478 51.6136C92.7729 51.6738 93.0285 51.759 93.2446 51.8693C93.3706 51.9352 93.4873 52.0003 93.5947 52.0648C93.6834 52.1278 93.8051 52.1278 93.9597 52.0648C94.3019 52.241 94.6648 52.3906 95.0485 52.5138C95.4321 52.637 95.8043 52.7874 96.1651 52.9649C96.4013 53.058 96.6475 53.1425 96.9038 53.2185C97.1615 53.2758 97.4192 53.3331 97.6769 53.3904C97.8787 53.4434 98.0892 53.5064 98.3082 53.5794C98.5101 53.6324 98.7134 53.6668 98.9181 53.6826C99.495 53.7271 100.108 53.6713 100.756 53.5154C101.405 53.3594 101.958 52.9901 102.414 52.4075C102.676 52.1656 102.861 51.9551 102.969 51.7762C103.057 51.5958 103.161 51.3417 103.28 51.0139C103.376 50.7404 103.403 50.3868 103.362 49.953C103.302 49.5178 103.207 49.0518 103.076 48.555C102.928 48.0567 102.776 47.5957 102.621 47.1719C102.45 46.7281 102.299 46.3794 102.168 46.126C102.138 46.0301 102.127 45.9356 102.134 45.8425C102.141 45.7495 102.12 45.6636 102.07 45.5848C101.955 45.3701 101.878 45.1582 101.838 44.9491C101.798 44.7401 101.729 44.5382 101.632 44.3435C101.278 44.3163 100.976 44.3491 100.725 44.4422C100.475 44.5352 100.244 44.7327 100.034 45.0348C100.091 45.2638 100.178 45.5982 100.294 46.0377C100.409 46.4772 100.535 46.9082 100.671 47.3305C100.807 47.7529 100.934 48.0529 101.051 48.2304C101.136 48.3492 101.22 48.5898 101.305 48.952C101.389 49.3142 101.463 49.685 101.528 50.0644C101.575 50.4238 101.592 50.6872 101.579 50.8547C101.569 50.985 101.531 51.1131 101.465 51.2391C101.399 51.3651 101.325 51.481 101.242 51.587C100.991 51.68 100.769 51.7752 100.574 51.8725C100.381 51.9512 100.182 51.9827 99.977 51.9669C99.884 51.9597 99.6793 51.944 99.3629 51.9196C99.0279 51.8938 98.6943 51.8493 98.3621 51.7863C98.0114 51.7218 97.7831 51.648 97.6771 51.565C97.6614 51.5263 97.6557 51.4791 97.66 51.4233C97.6643 51.3674 97.6679 51.3209 97.6707 51.2837C97.6908 51.0231 97.6808 50.7883 97.6408 50.5793C97.6021 50.3516 97.5642 50.1147 97.527 49.8684C97.4469 49.4504 97.3532 48.9658 97.2459 48.4145C97.1215 47.8433 97.0149 47.2828 96.9262 46.733C96.8375 46.1832 96.8082 45.7129 96.8383 45.3221C96.8584 45.0615 96.7117 44.9004 96.3982 44.8388C96.0846 44.7772 95.8649 44.8352 95.7389 45.0127C95.5957 45.1702 95.4239 45.3348 95.2234 45.5065C95.1976 45.5982 95.1933 45.7757 95.2104 46.0391C95.2104 46.2825 95.229 46.5273 95.2662 46.7736C95.2847 47.0184 95.3191 47.1802 95.3692 47.2589C95.352 47.4823 95.3827 47.8123 95.4614 48.2489C95.5229 48.6656 95.5937 49.0829 95.6738 49.501C95.7539 49.919 95.8319 50.2433 95.9077 50.4738C95.9206 50.5497 95.9235 50.6342 95.9163 50.7272C95.8919 50.8002 95.8583 50.8725 95.8153 50.9441C95.3429 50.7579 94.8691 50.5903 94.3938 50.4414C93.9185 50.2924 93.4532 50.1349 92.9979 49.9687C92.8705 49.9215 92.8204 49.8427 92.8477 49.7325C92.8577 49.6022 92.8842 49.5013 92.9272 49.4297C92.8628 49.0503 92.8263 48.673 92.8178 48.2979C92.7906 47.9214 92.6976 47.5492 92.5388 47.1812C92.523 47.1426 92.4808 46.9614 92.4122 46.6379C92.3435 46.3143 92.2791 45.9349 92.219 45.4997C92.1404 45.063 92.0674 44.6736 92.0002 44.3314C91.9344 43.9706 91.8957 43.743 91.8843 43.6485C91.7941 43.6041 91.7032 43.569 91.6116 43.5432C91.5214 43.4988 91.4398 43.4644 91.3668 43.4401C91.2508 43.4873 91.1441 43.5353 91.0468 43.5839C90.9322 43.6125 90.817 43.6505 90.701 43.6977C90.638 43.7865 90.5743 43.8845 90.5098 43.9919C90.4282 44.0792 90.3466 44.1665 90.265 44.2538C90.2091 44.4929 90.2277 44.8594 90.3207 45.3534C90.3965 45.8273 90.4973 46.3405 90.6232 46.8932C90.7305 47.4444 90.8321 47.9483 90.928 48.4051C91.0067 48.8417 91.0209 49.1424 90.9708 49.307C90.653 49.3012 90.3752 49.3828 90.1375 49.5517C89.8999 49.7206 89.6879 49.9196 89.5018 50.1486C89.3442 50.7356 89.3663 51.2989 89.5681 51.8387C89.7513 52.377 89.991 52.9104 90.2873 53.4387C90.5664 53.947 90.7689 54.4775 90.8948 55.0301C90.9649 55.335 91.0794 55.5498 91.2383 55.6744C91.3958 55.8176 91.5991 55.9737 91.8482 56.1426ZM83.7078 52.2857C84.0728 52.6509 84.5137 52.8814 85.0305 52.9774C85.5287 53.072 86.0277 53.0355 86.5274 52.8681C87.0285 52.6821 87.4544 52.3779 87.8052 51.9556C88.1532 51.5705 88.3938 51.121 88.527 50.6071C88.6617 50.0745 88.7247 49.3773 88.7163 48.5154C88.7164 47.7853 88.5397 47.0415 88.1862 46.2841C87.8341 45.5081 87.3918 44.8094 86.8593 44.188C86.3082 43.5651 85.7528 43.1198 85.193 42.852C84.9282 42.6443 84.702 42.5427 84.5145 42.5469C84.3097 42.5312 84.0012 42.5261 83.5889 42.5318C83.1565 42.5546 82.8337 42.614 82.6203 42.7099C82.3884 42.8043 82.2001 42.9396 82.0555 43.1157C81.7548 43.3733 81.5472 43.6382 81.4326 43.9102C81.3195 44.1635 81.2529 44.4205 81.2328 44.6811C81.2757 45.0963 81.5161 45.6203 81.9541 46.2532C82.3749 46.866 82.9525 47.3879 83.6869 47.8189C84.0863 47.9808 84.5287 48.071 85.014 48.0897C85.4994 48.1084 85.9088 48.0182 86.2425 47.8193C86.6075 47.6977 86.838 47.7435 86.9339 47.9568C87.0313 48.1516 87.0978 48.6247 87.1334 49.3764C87.1534 50.0893 87.0574 50.6062 86.8455 50.9268C86.635 51.2289 86.3694 51.3956 86.0487 51.4271C85.6707 51.4728 85.3779 51.5064 85.1703 51.5279C84.9455 51.5293 84.6821 51.4247 84.3801 51.2142C84.0966 51.0052 83.9184 50.8885 83.8454 50.8641C83.7738 50.8211 83.7209 50.7796 83.6865 50.7395C83.635 50.6794 83.5233 50.5491 83.3516 50.3486C83.2313 50.2083 83.1361 50.1074 83.066 50.0458C82.9973 49.9656 82.9164 49.9219 82.8233 49.9148C82.7303 49.9076 82.6429 49.9477 82.5613 50.035C82.4811 50.1037 82.4024 50.1538 82.3251 50.1853C82.139 50.1709 82.0931 50.2797 82.1876 50.5117C82.2634 50.7422 82.4381 51.0271 82.7115 51.3665C82.9863 51.6872 83.3184 51.9936 83.7078 52.2857ZM84.1918 46.3694C83.9942 46.2606 83.7902 46.1138 83.5798 45.9291C83.3708 45.7258 83.1998 45.516 83.0667 45.2998C82.9164 45.0636 82.847 44.871 82.8584 44.7221C82.8785 44.4616 83.016 44.2568 83.2708 44.108C83.5271 43.9405 83.8922 43.9406 84.3661 44.1081C84.5665 44.1798 84.7884 44.3373 85.0317 44.5807C85.2765 44.8055 85.5098 45.0575 85.7317 45.3367C85.935 45.6145 86.1031 45.8615 86.2363 46.0777C86.3508 46.2924 86.388 46.417 86.3479 46.4513C86.2849 46.5401 86.1209 46.6024 85.8561 46.6381C85.5926 46.6553 85.3034 46.6423 84.9885 46.5993C84.6549 46.5549 84.3894 46.4783 84.1918 46.3694ZM72.4936 52.264C72.6296 52.1996 72.7749 52.1359 72.9295 52.0729C73.0656 52.0085 73.2016 51.9441 73.3376 51.8797C73.455 51.8139 73.5631 51.7473 73.6619 51.68C74.08 51.3565 74.3699 50.9951 74.5318 50.5957C74.6764 50.1762 74.7452 49.7696 74.7381 49.3759C74.731 48.9822 74.701 48.6429 74.6481 48.358C74.5966 48.0545 74.5751 47.8469 74.5837 47.7352C74.6138 47.5877 74.5967 47.446 74.5322 47.31C74.4693 47.1554 74.4063 47.0007 74.3433 46.8461C74.0585 46.1689 73.7945 45.5869 73.5512 45.1001C73.2907 44.5932 72.9056 44.0019 72.3961 43.3261C72.2916 43.2244 72.1956 43.1328 72.1083 43.0511C72.0038 42.9495 71.8972 42.8757 71.7884 42.8299L71.1097 43.255C71.0295 43.3237 70.9758 43.4132 70.9486 43.5234C70.9228 43.6151 70.9314 43.7468 70.9743 43.9186C71.0015 44.0517 71.038 44.1856 71.0838 44.3202C71.1124 44.4347 71.1604 44.5414 71.2276 44.6402C71.5211 44.9623 71.7465 45.3167 71.9039 45.7033C72.0628 46.0712 72.2303 46.4492 72.4063 46.8372C72.3934 47.0047 72.4478 47.1493 72.5694 47.2711C72.6925 47.3742 72.7562 47.5195 72.7605 47.707C72.7505 47.8373 72.759 47.969 72.7862 48.1022C72.8134 48.2353 72.8399 48.3778 72.8656 48.5295C72.9729 48.8374 73.0065 49.1301 72.9664 49.4079C72.9263 49.6856 72.8948 49.9734 72.8718 50.2712C72.7172 50.3341 72.5833 50.3706 72.4702 50.3806C72.3585 50.372 72.2168 50.2675 72.045 50.067C71.6972 49.7219 71.4582 49.4227 71.3279 49.1693C71.1791 48.9144 71.0674 48.6624 70.993 48.4133C70.9186 48.1642 70.8098 47.875 70.6667 47.5457C70.505 47.2149 70.3776 46.8026 70.2846 46.3086C70.1916 45.8147 70.1337 45.3516 70.1109 44.9192C70.0895 44.4682 70.1124 44.1704 70.1797 44.0258C70.2055 43.9342 70.2048 43.8218 70.1776 43.6887C70.1504 43.5555 70.2163 43.4296 70.3753 43.3107C70.3065 43.2306 70.2801 43.0881 70.2959 42.8834C70.3116 42.6787 70.3467 42.4661 70.4012 42.2456C70.4556 42.0251 70.5236 41.8712 70.6053 41.7839C70.6999 41.0423 70.7758 40.421 70.8332 39.9199C70.8733 39.3988 70.8984 38.9514 70.9085 38.5777C70.9014 38.184 70.8828 37.8175 70.8528 37.4782C70.8385 37.4209 70.7412 37.2262 70.5609 36.894C70.3633 36.5418 70.1787 36.2655 70.0069 36.065C69.712 35.7615 69.3005 35.5144 68.7722 35.324C68.2268 35.1134 67.7572 35.0117 67.3635 35.0188C67.3807 35.0389 67.2683 35.0396 67.0263 35.0209C66.7658 35.0008 66.478 34.9693 66.1631 34.9263C65.8481 34.8833 65.6169 34.8468 65.4694 34.8167C65.3234 34.768 65.1774 34.7193 65.0314 34.6706C64.8853 34.6219 64.6434 34.4816 64.3056 34.2496C64.1638 34.145 64.045 34.1078 63.9491 34.1379L63.1458 34.7219C63.1243 35.2444 63.2245 35.6453 63.4463 35.9245C63.6696 36.1851 64.1227 36.3792 64.8056 36.5067C64.9173 36.5153 65.0382 36.5246 65.1685 36.5346C65.3002 36.5261 65.4298 36.5454 65.5572 36.5927C65.666 36.6385 65.7684 36.6464 65.8643 36.6163C65.9416 36.5849 66.0547 36.5749 66.2036 36.5863C66.4083 36.6021 66.6202 36.6465 66.8393 36.7196C67.0597 36.774 67.2931 36.7826 67.5393 36.7454C68.195 36.9832 68.6968 37.2746 69.0446 37.6197C69.3925 37.9648 69.5384 38.5002 69.4825 39.2261C69.355 39.909 69.2146 40.516 69.0613 41.0471C68.8894 41.5768 68.7784 42.1673 68.7282 42.8187C68.6781 42.9834 68.6208 43.1194 68.5563 43.2267C68.4919 43.3341 68.5105 43.4572 68.6121 43.5961C68.4861 44.017 68.4073 44.4322 68.3757 44.8416C68.3456 45.2325 68.3785 45.5346 68.4744 45.7479C68.5016 45.881 68.5108 46.1251 68.5022 46.4802C68.4764 46.8152 68.5422 47.176 68.6996 47.5626C69.0602 48.4703 69.4374 49.2857 69.831 50.0087C70.226 50.7132 70.7499 51.3246 71.4027 51.8429C71.5272 51.9274 71.6811 51.9954 71.8644 52.047C72.029 52.0971 72.2387 52.1695 72.4936 52.264ZM63.7813 50.6658C64.1664 50.7704 64.4155 50.8177 64.5286 50.8077C64.6246 50.7776 64.7821 50.6774 65.0011 50.5071C65.3104 50.3811 65.576 50.2144 65.7979 50.0068C66.0012 49.7978 66.1588 49.5759 66.2705 49.3412C66.365 49.0863 66.4094 48.8745 66.4037 48.7055C66.3981 48.0498 66.2937 47.3397 66.0905 46.5752C65.8873 45.8106 65.6261 45.0697 65.3069 44.3524C64.9878 43.6351 64.6328 43.018 64.2421 42.5011C63.8341 41.9642 63.4311 41.6055 63.0332 41.425C62.6724 41.2474 62.3231 41.1644 61.9852 41.1758C61.6473 41.1872 61.3918 41.3453 61.2185 41.6502C60.8977 42.1685 60.9363 42.5178 61.3343 42.6982C61.3901 42.7025 61.4531 42.7355 61.5233 42.7971C61.5948 42.84 61.6278 42.8987 61.622 42.9732C61.5447 43.0047 61.3393 42.9982 61.0057 42.9538C60.6736 42.8907 60.3429 42.8091 60.0136 42.7088C59.6671 42.5885 59.4417 42.4775 59.3372 42.3758C59.2298 42.3114 59.1482 42.277 59.0924 42.2727C59.0365 42.2684 58.8955 42.2763 58.6693 42.2963C58.3457 42.365 58.1789 42.4644 58.1689 42.5947C58.1632 42.6692 58.1295 42.7415 58.0679 42.8116C58.0078 42.8631 57.9405 42.886 57.8661 42.8803C57.7343 42.8889 57.7465 42.974 57.9025 43.1358C58.04 43.2962 58.2847 43.521 58.6369 43.8103C58.9733 44.0609 59.1852 44.227 59.2725 44.3086C59.3426 44.3701 59.3419 44.5011 59.2703 44.7016C59.0941 45.0437 59.0533 45.4524 59.1477 45.9278C59.2421 46.4031 59.4382 46.8956 59.7359 47.4053C60.0336 47.9151 60.4079 48.4026 60.8588 48.8679C61.2926 49.3133 61.7678 49.7056 62.2846 50.045C62.7842 50.3643 63.2831 50.5713 63.7813 50.6658ZM64.3506 49.474C64.2761 49.4683 64.1487 49.421 63.9683 49.3323C63.7894 49.2249 63.6462 49.1389 63.5389 49.0745C63.4702 48.9943 63.3836 48.9034 63.2791 48.8017C63.1574 48.68 63.0601 48.607 62.987 48.5826C62.9126 48.5769 62.8217 48.5418 62.7143 48.4774C62.6084 48.3943 62.461 48.2425 62.272 48.022C62.0845 47.7829 61.8397 47.4364 61.5377 46.9825C61.197 46.5444 60.9372 46.1499 60.7583 45.7992C60.5809 45.4298 60.5501 45.0998 60.6661 44.8091C60.6905 44.7361 60.7499 44.6939 60.8444 44.6825C60.9203 44.6696 61.0262 44.631 61.1622 44.5665C61.3484 44.5809 61.5287 44.548 61.7034 44.4678C61.8609 44.3676 62.0485 44.2417 62.2661 44.09L62.7558 43.566L63.1938 44.0772C63.4687 44.3979 63.7507 44.869 64.0398 45.4904C64.3117 46.0917 64.5357 46.7081 64.7117 47.3395C64.8891 47.9523 64.9828 48.4369 64.9928 48.7934C64.9899 49.074 64.929 49.2565 64.8102 49.341C64.6913 49.4254 64.5381 49.4698 64.3506 49.474ZM58.7151 50.809C58.8511 50.7446 58.9943 50.7088 59.1446 50.7017C59.2764 50.6931 59.4174 50.6852 59.5677 50.6781C59.708 50.5579 59.8297 50.4362 59.9328 50.3131C60.0188 50.1699 60.0875 50.0067 60.1391 49.8235C60.1663 49.7132 60.1556 49.6094 60.1069 49.5121C60.0582 49.4147 60.0089 49.3267 59.9588 49.2479C59.9029 49.2436 59.8371 49.2479 59.7612 49.2608C59.6867 49.255 59.6123 49.2493 59.5378 49.2436C59.2401 48.9772 58.981 48.6951 58.7606 48.3973C58.523 48.0795 58.2954 47.753 58.0778 47.418C57.8445 47.0443 57.6391 46.6727 57.4616 46.3033C57.2856 45.9153 57.1482 45.5116 57.0495 45.0921C57.0066 44.9203 56.9822 44.7499 56.9765 44.581C56.9723 44.3934 56.9387 44.2223 56.8757 44.0677C56.7812 43.8358 56.7147 43.606 56.6761 43.3783C56.6203 43.1306 56.5637 42.8923 56.5065 42.6632C56.79 42.6289 57.0069 42.6081 57.1572 42.601C57.2904 42.5738 57.4164 42.518 57.5352 42.4335C57.654 42.3491 57.823 42.2217 58.0421 42.0514C58.0808 41.7922 58.0672 41.604 58.0013 41.4866C57.9369 41.3505 57.768 41.2346 57.4946 41.1386C57.3858 41.0928 57.2763 41.0562 57.166 41.029C57.0572 40.9832 56.947 40.956 56.8353 40.9474C56.632 40.913 56.428 40.8879 56.2233 40.8721C56.0186 40.8563 55.8038 40.8492 55.5791 40.8506C55.4287 40.8577 55.2777 40.8741 55.1259 40.8999C54.9742 40.9256 54.8224 40.9514 54.6706 40.9771C54.4988 41.0201 54.3256 41.0816 54.1509 41.1617C53.9777 41.2233 53.8052 41.2755 53.6333 41.3184C53.5016 41.327 53.3771 41.3642 53.2597 41.4301C53.1423 41.4959 53.0148 41.5703 52.8774 41.6533C52.5266 41.8322 52.246 42.0727 52.0355 42.3748C51.8264 42.6582 51.7075 42.9861 51.6788 43.3583C51.6344 43.9352 51.6765 44.4814 51.8053 44.9968C51.8711 45.3576 51.9462 45.7191 52.0306 46.0814C52.0964 46.4422 52.1715 46.8037 52.256 47.1659C52.3118 47.4136 52.3683 47.652 52.4255 47.881C52.4827 48.1101 52.5207 48.347 52.5392 48.5919C52.5607 48.7995 52.5721 49.0156 52.5735 49.2404C52.5749 49.4652 52.5849 49.7 52.6035 49.9448C52.6765 49.9692 52.7495 49.9935 52.8225 50.0178C52.8769 50.0408 52.9492 50.0744 53.0394 50.1188C53.2498 50.0601 53.4696 50.0022 53.6987 49.945C53.9292 49.8691 54.1025 49.6859 54.2185 49.3953C54.2213 49.358 54.2242 49.3208 54.2271 49.2836C54.2128 49.2263 54.2085 49.1605 54.2142 49.086C54.2185 49.0302 54.2228 48.9744 54.2271 48.9185C54.2314 48.8627 54.2357 48.8069 54.24 48.751C54.2286 48.4131 54.1979 48.0831 54.1478 47.761C54.0992 47.4203 54.0312 47.0874 53.944 46.7624C53.8238 46.3787 53.7307 46.0064 53.6649 45.6457C53.6006 45.2663 53.5355 44.8962 53.4697 44.5354C53.4268 44.3636 53.4024 44.1932 53.3967 44.0243C53.3739 43.8353 53.3596 43.6563 53.3539 43.4874C53.351 43.2812 53.4155 43.0522 53.5472 42.8002C53.7448 42.6656 53.9489 42.569 54.1593 42.5104C54.3712 42.4331 54.5996 42.3852 54.8444 42.3666C54.8716 42.4997 54.926 42.6443 55.0075 42.8004C55.0233 42.8391 55.0283 42.8956 55.0225 42.9701C55.0182 43.0259 55.034 43.0646 55.0698 43.086C55.1757 43.1691 55.2423 43.2772 55.2694 43.4103C55.2795 43.5234 55.2887 43.6458 55.2973 43.7776C55.3088 43.8721 55.3295 43.9673 55.3595 44.0632C55.3896 44.1591 55.429 44.2558 55.4776 44.3531C55.5463 44.4333 55.585 44.5392 55.5935 44.671C55.6035 44.7841 55.6128 44.9065 55.6214 45.0382C55.6371 45.3202 55.6815 45.5951 55.7544 45.8629C55.8274 46.1306 55.9262 46.4284 56.0507 46.7563C56.1337 46.8937 56.2067 47.0397 56.2696 47.1944C56.334 47.3304 56.3977 47.4757 56.4607 47.6303C56.4736 47.7062 56.5051 47.7835 56.5552 47.8623C56.6067 47.9224 56.6475 48.0005 56.6775 48.0964C56.7563 48.2897 56.8436 48.493 56.9394 48.7063C57.0368 48.901 57.1541 49.0786 57.2916 49.2389C57.5149 49.4995 57.7375 49.7694 57.9593 50.0486C58.1626 50.3264 58.4145 50.5799 58.7151 50.809ZM48.5224 50.1077C48.8059 50.0734 49.0686 50.0655 49.3105 50.0842C49.5339 50.1014 49.75 50.09 49.9591 50.0499C50.1509 49.9898 50.3285 49.8724 50.4917 49.6978C50.7108 49.5275 50.8769 49.3156 50.99 49.0622C51.1046 48.7902 51.1748 48.4867 51.2006 48.1517C51.2479 47.5375 51.1986 46.841 51.0527 46.0622C50.8896 45.2633 50.6886 44.4708 50.4496 43.6848C50.2106 42.8988 49.9759 42.1786 49.7455 41.5243C49.5151 40.87 49.3484 40.361 49.2454 39.9974C49.2984 39.7955 49.2418 39.6788 49.0758 39.6473C48.8911 39.6143 48.6849 39.6172 48.4573 39.6558C48.2311 39.6758 48.0793 39.7016 48.002 39.733C47.8803 39.8547 47.7579 39.9857 47.6347 40.126C47.513 40.2477 47.4364 40.3915 47.4049 40.5576C47.3533 40.7408 47.3855 40.9305 47.5014 41.1267C47.5988 41.3214 47.6983 41.4882 47.7999 41.6271C47.9702 41.8462 48.142 42.1683 48.3151 42.5936C48.4883 43.0188 48.6565 43.5092 48.8196 44.0647C48.9655 44.6001 49.0922 45.1435 49.1995 45.6947C49.3068 46.2459 49.389 46.7577 49.4462 47.2302C49.4862 47.6826 49.4862 48.0477 49.4461 48.3254C48.912 48.4527 48.3873 48.4591 47.8719 48.3445C47.3566 48.2299 46.9042 48.0265 46.5148 47.7344C46.1083 47.4223 45.8069 47.0808 45.6109 46.7099C45.3818 46.2804 45.3268 45.9017 45.4457 45.5739C45.5474 45.226 45.8695 45.0542 46.4121 45.0586C46.6927 45.0615 46.9526 45.0909 47.1916 45.1468C47.4307 45.2026 47.6791 45.2592 47.9368 45.3165C48.0785 45.1777 48.1816 45.0546 48.2461 44.9472C48.3105 44.8398 48.3564 44.731 48.3836 44.6208C48.4208 44.3803 48.3428 44.1777 48.1496 44.013C47.9392 43.8283 47.6972 43.688 47.4238 43.592C47.1317 43.4946 46.8726 43.4559 46.6464 43.4759C46.2699 43.5031 45.8883 43.5954 45.5017 43.7528C45.0966 43.9088 44.763 44.1078 44.5009 44.3497C44.3406 44.4871 44.206 44.6546 44.0971 44.8521C43.9711 45.0296 43.8909 45.22 43.8565 45.4233C43.7462 45.8829 43.7233 46.3024 43.7876 46.6818C43.8534 47.0425 43.9865 47.3804 44.1869 47.6954C44.5032 48.2066 45.0121 48.6483 45.7136 49.0207C46.3965 49.3916 47.0349 49.731 47.629 50.0389C47.8151 50.0532 47.9648 50.0554 48.0779 50.0454C48.1738 50.0153 48.322 50.0361 48.5224 50.1077ZM41.8867 49.2593C42.1458 49.0546 42.3835 48.8857 42.5997 48.7526C42.7987 48.5994 42.972 48.4162 43.1195 48.2029C43.2498 47.9696 43.3594 47.641 43.4482 47.2173C43.4926 46.8837 43.4984 46.5659 43.4655 46.2638C43.4326 45.9617 43.3711 45.6668 43.2809 45.379C43.145 44.9566 42.999 44.5428 42.843 44.1377C42.687 43.7325 42.5318 43.318 42.3772 42.8942C42.1797 42.2986 41.9579 41.776 41.7117 41.3264C41.467 40.8582 41.2143 40.6141 40.9537 40.594C40.6359 40.5882 40.404 40.6827 40.2579 40.8774C40.0947 41.052 39.8799 41.2882 39.6136 41.586C39.6364 41.7749 39.6872 41.9661 39.7659 42.1594C39.8461 42.334 39.9456 42.5008 40.0644 42.6598C40.2877 42.9204 40.4716 43.206 40.6162 43.5167C40.7607 43.8274 40.8673 44.1445 40.936 44.4681C41.0448 44.7573 41.1535 45.0465 41.2623 45.3357C41.3725 45.6063 41.4727 45.8855 41.5628 46.1733C41.8505 46.8133 41.9428 47.1949 41.8397 47.318C41.7366 47.4411 41.5262 47.378 41.2084 47.1289C40.872 46.8783 40.5248 46.5239 40.167 46.0657C39.8592 45.6863 39.6195 45.3963 39.4477 45.1959C39.2759 44.9954 39.1149 44.7771 38.9646 44.5408C38.9131 44.4807 38.7957 44.3032 38.6125 44.0082C38.4121 43.6932 38.2124 43.3689 38.0135 43.0353C37.7973 42.6816 37.6384 42.4354 37.5368 42.2965C37.4023 42.0989 37.2863 41.9027 37.189 41.708C37.0931 41.4947 37.0158 41.2828 36.9572 41.0723C36.9343 40.8833 36.8692 40.7566 36.7618 40.6922C36.6373 40.6077 36.4805 40.5769 36.2915 40.5998C36.0968 40.6971 35.9006 40.813 35.703 40.9476C35.5069 41.0635 35.3315 41.2747 35.1768 41.581C35.0694 41.76 35.0844 42.0513 35.2218 42.4551C35.3406 42.8574 35.4872 43.2619 35.6619 43.6685C35.8035 44.0164 35.9073 44.3707 35.9731 44.7315C36.0203 45.0909 36.0761 45.4603 36.1404 45.8397C36.1762 46.1045 36.0974 46.398 35.9041 46.7201C35.5433 46.5425 35.2771 46.3535 35.1053 46.1531C34.9163 45.9326 34.7467 45.7042 34.5964 45.4679C34.4275 45.2302 34.2014 45.0069 33.9179 44.7978C33.8421 44.5673 33.7161 44.3797 33.54 44.2351C33.3468 44.0704 33.2223 43.8643 33.1665 43.6166L32.1767 42.2485C32.0407 42.0695 31.9262 41.8547 31.8332 41.6042C31.723 41.3336 31.6092 41.1095 31.4918 40.932C31.3572 40.7344 31.2041 40.657 31.0323 40.7C30.4395 40.8602 30.0279 41.2217 29.7973 41.7843C29.7786 42.0262 29.8502 42.4343 30.0119 43.0084C30.1564 43.5625 30.2544 44.113 30.3058 44.6599C30.3373 44.9806 30.3494 45.3091 30.3422 45.6456C30.3178 45.962 30.2462 46.2841 30.1273 46.6119C29.9698 46.7121 29.7816 46.7257 29.5625 46.6526C29.3263 46.5595 29.1151 46.5058 28.929 46.4915C28.7658 46.6661 28.6827 46.8937 28.6798 47.1744C28.6769 47.455 28.6891 47.6618 28.7162 47.795C28.8766 47.901 29.0376 47.9976 29.1994 48.085C29.3626 48.1537 29.5473 48.1867 29.7534 48.1838C30.0369 48.1495 30.2373 48.0994 30.3548 48.0336C30.4722 47.9678 30.5817 47.8826 30.6834 47.7781C30.7678 47.6535 30.9089 47.524 31.1065 47.3894C31.4243 47.1518 31.6549 46.8326 31.7981 46.4318C31.9227 46.0295 32.0201 45.6157 32.0903 45.1905C32.1662 45.1777 32.2815 45.2614 32.4361 45.4419C32.5906 45.6223 32.7689 45.8607 32.9707 46.157C33.1739 46.4348 33.403 46.7427 33.6577 47.0806C33.8954 47.3984 34.1616 47.7091 34.4565 48.0127C34.6469 48.2146 34.8587 48.3807 35.0921 48.511C35.3269 48.6227 35.6239 48.655 35.9833 48.6078C36.2167 48.4947 36.4257 48.333 36.6104 48.1225C36.778 47.8921 36.9791 47.711 37.2139 47.5793C37.3042 47.3803 37.393 47.1999 37.4803 47.0382C37.5505 46.8564 37.6114 46.6738 37.6629 46.4906C37.7131 46.3259 37.7539 46.1606 37.7854 45.9945C37.8184 45.8098 37.794 45.6395 37.7125 45.4834C37.827 45.4548 37.9422 45.5386 38.0582 45.7347C38.1755 45.9123 38.3087 46.1285 38.4575 46.3833C38.6078 46.6196 38.7968 46.8401 39.0244 47.0448C39.3035 47.3097 39.5375 47.5524 39.7265 47.7729C39.9154 47.9934 40.1044 48.2139 40.2933 48.4344C40.4823 48.6549 40.7156 48.907 40.9933 49.1905L41.8867 49.2593ZM25.4665 48.1062C26.2153 47.8644 26.7214 47.4915 26.9849 46.9876C27.2312 46.4636 27.3323 45.6383 27.288 44.5115C27.2953 43.9317 27.3061 43.5487 27.3204 43.3626C27.3348 43.1765 27.4515 42.9983 27.6705 42.8279C27.7321 42.7578 27.8424 42.6633 28.0013 42.5445C28.1416 42.4243 28.2061 42.3169 28.1946 42.2224C28.2233 42.0936 28.2247 41.9533 28.199 41.8015C28.1747 41.6311 28.1253 41.5431 28.0508 41.5374C27.9764 41.5316 27.9034 41.5073 27.8318 41.4643C27.7416 41.4199 27.6579 41.4135 27.5805 41.4449C27.5061 41.4392 27.4216 41.4421 27.3271 41.4535C27.2326 41.4649 27.1825 41.5079 27.1768 41.5823C27.0923 41.7069 26.9699 41.7162 26.8096 41.6102C26.6507 41.4856 26.4925 41.23 26.3351 40.8435C26.1719 40.5313 25.9529 40.2149 25.6781 39.8942C25.3846 39.572 25.0983 39.2785 24.8192 39.0136C24.5229 38.7286 24.2767 38.5224 24.0806 38.395C23.9904 38.3506 23.8544 38.2933 23.6726 38.2231C23.4907 38.153 23.2989 38.0914 23.097 38.0384C22.8766 37.9839 22.6912 37.9603 22.5409 37.9674C22.2044 37.9602 21.9181 38.0318 21.6818 38.182C21.427 38.3309 21.1886 38.5091 20.9666 38.7167C20.7118 38.8655 20.5457 39.0774 20.4683 39.3523C20.3724 39.6257 20.3308 39.922 20.3436 40.2413C20.3565 40.5606 20.418 40.8555 20.5282 41.1261C20.5697 41.3165 20.7107 41.5521 20.9512 41.8327C21.1916 42.1133 21.4701 42.3875 21.7864 42.6553C22.1028 42.9231 22.3962 43.1236 22.6668 43.2567C22.9044 43.3312 23.2173 43.4021 23.6052 43.4695C23.9746 43.5354 24.3268 43.5812 24.6618 43.6071C24.9796 43.6128 25.1965 43.5921 25.3125 43.5449C25.4485 43.4805 25.543 43.5907 25.5959 43.8756C25.6488 44.1605 25.6738 44.565 25.6709 45.089C25.6766 45.5013 25.6536 45.7991 25.602 45.9823C25.5505 46.1656 25.5032 46.293 25.4603 46.3646C25.3199 46.4848 25.1302 46.6387 24.8911 46.8262C24.6348 46.9937 24.2977 46.9958 23.8796 46.8325C23.5332 46.7122 23.2075 46.4437 22.9026 46.027C22.5791 45.609 22.2778 45.2675 21.9987 45.0026C21.9343 44.8665 21.819 44.7828 21.653 44.7513C21.4697 44.6997 21.2736 44.6939 21.0646 44.734C20.8498 44.8485 20.7538 45.0002 20.7767 45.1892C20.7824 45.3582 20.8554 45.6259 20.9957 45.9924C21.0415 46.127 21.1588 46.3045 21.3478 46.525C21.5195 46.7255 21.7185 46.9374 21.9447 47.1608C22.1537 47.3641 22.3469 47.5288 22.5244 47.6548C23.0598 47.9956 23.5688 48.194 24.0512 48.2499C24.5351 48.2872 25.0069 48.2393 25.4665 48.1062ZM24.2561 42.3121C23.8538 42.1874 23.5331 42.0972 23.294 42.0413C23.055 41.9855 22.8302 41.8652 22.6198 41.6805C22.4108 41.4771 22.1582 41.1113 21.8619 40.583C21.8032 40.3725 21.8004 40.1664 21.8534 39.9645C21.8878 39.7612 21.945 39.6252 22.0252 39.5565C22.2071 39.3833 22.4161 39.3432 22.6523 39.4363C22.8713 39.5094 23.0775 39.6282 23.2707 39.7929C23.3967 39.8588 23.5814 40.0134 23.8247 40.2568C24.0509 40.4802 24.2742 40.7408 24.4946 41.0386C24.7165 41.3178 24.8933 41.5748 25.025 41.8097C25.1566 42.0445 25.1838 42.1776 25.1065 42.2091C25.138 42.2864 25.0321 42.3251 24.7887 42.325C24.5267 42.3236 24.3491 42.3192 24.2561 42.3121ZM10.1667 40.2433C10.5102 40.4009 10.803 40.489 11.045 40.5076C11.2697 40.5062 11.5296 40.4139 11.8245 40.2307C12.204 39.9229 12.3508 39.5972 12.2649 39.2536C12.1619 38.89 11.8813 38.522 11.4233 38.1497C11.104 37.9192 10.8707 37.7888 10.7232 37.7588C10.5572 37.7272 10.3009 37.773 9.9544 37.8961C9.3688 38.2067 9.09673 38.5789 9.13819 39.0127C9.16103 39.445 9.50386 39.8553 10.1667 40.2433ZM11.6691 46.2566C12.0126 46.4141 12.3054 46.5022 12.5474 46.5208C12.7721 46.5194 13.032 46.4271 13.3269 46.2439C13.7064 45.9362 13.8532 45.6105 13.7673 45.2669C13.6643 44.9032 13.3837 44.5352 12.9256 44.1629C12.6064 43.9324 12.3731 43.8021 12.2256 43.772C12.0595 43.7405 11.8033 43.7862 11.4568 43.9093C10.8712 44.2199 10.5991 44.5921 10.6406 45.0259C10.6634 45.4583 11.0063 45.8685 11.6691 46.2566ZM9.03095 50.8835C9.39174 50.8177 9.68095 50.709 9.89858 50.5572C10.0976 50.4041 10.2172 50.1886 10.2573 49.9109C10.243 49.8536 10.2401 49.7691 10.2488 49.6575C10.2559 49.5644 10.2273 49.4499 10.1629 49.3139C10.1629 49.3139 10.1049 49.3375 9.98895 49.3847C9.85436 49.4305 9.64105 49.4047 9.349 49.3073C8.97534 49.2972 8.71765 49.2399 8.57593 49.1354C8.43421 49.0309 8.23595 48.8096 7.98116 48.4717C7.79795 48.1768 7.59041 47.8331 7.35853 47.4408C7.10805 47.0471 6.9456 46.7257 6.87119 46.4765C6.58918 46.2489 6.38949 46.0463 6.27212 45.8687C6.15618 45.6726 6.04955 45.4771 5.95223 45.2824C5.9594 45.1893 5.94439 45.0197 5.9072 44.7734C5.87145 44.5086 5.75553 44.1907 5.55944 43.8199C5.39057 43.3388 5.22527 42.9329 5.06354 42.6022C4.90325 42.2528 4.82668 42.0316 4.83386 41.9386C4.83386 41.9386 4.81096 41.8713 4.76516 41.7367C4.71937 41.6021 4.71295 41.4425 4.7459 41.2578C4.63854 41.1934 4.55481 41.0652 4.4947 40.8734C4.41742 40.6615 4.39598 40.4539 4.43037 40.2506C4.43467 40.1948 4.36741 39.9743 4.22859 39.5891C4.09121 39.1854 4.02828 38.7874 4.03979 38.3951C3.88669 37.7093 3.7837 37.1023 3.7308 36.574C3.66073 36.0256 3.62216 35.4329 3.61509 34.7958C3.60803 34.1587 3.61458 33.3448 3.63477 32.3541C3.66209 31.5137 3.68222 30.8881 3.69517 30.4772C3.70954 30.0477 3.74395 29.7227 3.79839 29.5022C3.83421 29.2803 3.93517 29.0635 4.10128 28.8516C4.33329 28.2704 4.51444 27.9848 4.64472 27.9948C4.70055 27.9991 4.77143 27.9297 4.85735 27.7865C4.92609 27.6233 4.93328 27.4086 4.87891 27.1423C4.90326 27.0693 4.8818 26.9834 4.81453 26.8846C4.74725 26.7858 4.62915 26.7392 4.46021 26.7449C4.32993 26.7349 4.18604 26.78 4.02854 26.8802C3.85387 26.9603 3.73574 27.0355 3.67417 27.1056C3.60546 27.0254 3.48662 27.1099 3.31765 27.359C3.1315 27.588 2.92457 27.9652 2.69686 28.4906C2.56511 28.7426 2.46415 28.9595 2.39397 29.1413C2.32523 29.3045 2.27294 29.497 2.23712 29.7189C2.20273 29.9222 2.17978 30.22 2.16827 30.6123C2.1582 30.9859 2.14595 31.5092 2.13154 32.1821C2.08134 32.8335 2.07265 33.5536 2.10546 34.3425C2.1211 35.1113 2.15607 35.8722 2.21037 36.6253C2.2661 37.3597 2.33615 38.0298 2.42053 38.6354C2.51352 39.1293 2.64515 39.7292 2.81542 40.435C2.98712 41.1223 3.18602 41.8209 3.41212 42.5311C3.61962 43.2398 3.82354 43.8733 4.02389 44.4317C4.20563 44.9887 4.36235 45.3845 4.49403 45.6193C4.4568 45.6165 4.50403 45.7325 4.63571 45.9673C4.74878 46.2006 4.91266 46.5035 5.12736 46.8757C5.32488 47.2279 5.53099 47.5902 5.74568 47.9625C5.95895 48.3533 6.13929 48.6855 6.28671 48.959C6.53576 49.3713 6.82634 49.7307 7.15845 50.0371C7.49055 50.3436 7.81908 50.5748 8.14405 50.7309C8.46902 50.887 8.76465 50.9379 9.03095 50.8835Z" fill="#2F94F9"/>
<path d="M112.615 5.97344C111.065 7.51093 109.519 9.05097 107.995 10.6133C107.823 10.791 107.647 10.9696 107.479 11.1515C107.43 11.2042 107.382 11.2601 107.332 11.308C107.205 11.4771 107.015 11.6119 106.753 11.671C106.51 11.7263 106.185 11.6612 105.984 11.5142C105.7 11.3052 105.485 10.948 105.538 10.5808C105.607 10.0692 105.993 9.74857 106.326 9.39845C106.737 8.96999 107.156 8.5451 107.577 8.12309C108.071 7.62396 108.569 7.12711 109.065 6.63247C102.581 7.14387 95.6792 10.1079 92.5596 16.2063C91.5472 18.1877 91.0355 20.4476 90.9038 22.687C90.8265 24.0075 88.7915 23.8484 88.8681 22.5248C89.1161 18.1619 90.7976 14.0777 93.8669 10.9735C96.6586 8.15415 100.349 6.36002 104.146 5.37731C105.447 5.04066 106.771 4.80936 108.106 4.66545C106.597 4.19677 105.045 3.89276 103.47 3.71773C102.169 3.5745 102.315 1.52152 103.626 1.66801C105.837 1.91088 108.046 2.38493 110.123 3.19521C110.936 3.50961 111.773 3.86572 112.51 4.3442C113.093 4.71949 113.067 5.52015 112.614 5.97005L112.615 5.97344ZM107.569 10.7472C107.557 10.7247 107.547 10.7 107.535 10.6775C107.535 10.7207 107.535 10.767 107.527 10.8101C107.553 10.7454 107.571 10.712 107.566 10.7478L107.569 10.7472ZM107.396 11.2193L107.389 11.2288C107.389 11.2288 107.394 11.2279 107.396 11.2225L107.396 11.2193Z" fill="#2F94F9"/>
</svg>
